<svg xmlns="http://www.w3.org/2000/svg" viewBox="0 0 220 220" width="256" height="256" preserveAspectRatio="xMidYMid meet"><defs><clipPath id="clippath0"><path d="M0 1000h1000V0H0Z" style="fill:none;clip-rule:nonzero"/></clipPath></defs><g class="page-1"><g style="clip-path:url(#clippath0)" transform="matrix(1 0 0 -1 -93.92 610)"><path d="M0 0c-9.654-5.313-21.955-3.245-28.85 5.29-2.741 3.394-4.374 7.42-4.464 11.48-.092 4.16 1.437 8.344 4.139 11.9C-22.39 37.598-9.803 39.927.089 34.536l31.483-17.16Zm61.579 70.672c9.892 5.391 22.48 3.062 29.265-5.865 2.702-3.556 4.231-7.741 4.138-11.901-.089-4.059-1.722-8.086-4.464-11.479-6.894-8.536-19.195-10.604-28.849-5.291L30.097 53.513zm52.468 10.742c-16.459 21.908-46.995 27.625-70.992 14.394l-52.779-29.1c-16.367-.277-32.298-7.645-42.655-21.431-6.555-8.725-10.264-18.995-10.04-29.203.217-9.962 4.179-19.843 10.829-28.171 16.726-20.946 46.567-26.021 69.986-12.982l52.09 29.001c16.211-.086 32.141 6.805 42.772 20.118 6.651 8.329 10.612 18.209 10.83 28.17.224 10.209-3.485 20.478-10.041 29.204" style="fill:#c7e351;fill-opacity:1" transform="translate(172.717 500.967)"/></g><g style="clip-path:url(#clippath0)" transform="matrix(1 0 0 -1 -93.92 610)"><path d="M0 0c-9.654-5.313-21.955-3.245-28.85 5.29-2.741 3.395-4.374 7.421-4.464 11.48-.092 4.16 1.437 8.344 4.139 11.9C-22.39 37.598-9.802 39.928.089 34.536l31.483-17.159Zm61.58 70.672c9.891 5.392 22.479 3.062 29.264-5.865 2.702-3.556 4.231-7.741 4.139-11.901-.09-4.059-1.723-8.086-4.464-11.479-6.895-8.535-19.196-10.604-28.85-5.29L30.097 53.513zm52.467 10.742c-16.459 21.909-46.995 27.625-70.991 14.394l-52.78-29.099c-16.367-.277-32.298-7.646-42.654-21.432-6.556-8.725-10.265-18.995-10.041-29.204.218-9.961 4.179-19.841 10.83-28.17 16.725-20.945 46.566-26.021 69.985-12.982l52.09 29.001c16.211-.086 32.141 6.805 42.772 20.118 6.651 8.328 10.612 18.209 10.83 28.17.224 10.209-3.485 20.478-10.041 29.204" style="fill:#74dd54;fill-opacity:1" transform="translate(173.454 428.4)"/></g></g></svg>