<svg xmlns="http://www.w3.org/2000/svg" fill="none" viewBox="0 0 80 92" width="256" height="256" preserveAspectRatio="xMidYMid meet"><g clip-path="url(#clip0_2153_783)"><mask id="path-1-outside-1_2153_783" width="70" height="63" x="3" y="12.25" fill="#000" maskUnits="userSpaceOnUse"><path fill="#fff" d="M3 12.25h70v63H3z"/><path d="M36.352 72.114c-16.948 0-30.324-12.692-30.324-28.728 0-16.264 13.528-28.728 30.324-28.728 15.352 0 24.32 5.472 29.64 13.908 2.66 4.18 3.952 9.12 3.952 14.82 0 11.476-5.7 20.064-15.124 25.004-4.636 2.432-10.792 3.724-18.468 3.724m-1.824-3.496c13.756 0 25.156-11.172 25.156-25.156 0-13.832-11.324-25.156-25.156-25.156C20.468 18.306 9.6 30.01 9.6 43.462c0 8.968 4.788 17.404 12.464 21.812 3.876 2.204 7.98 3.344 12.464 3.344"/></mask><path fill="#fff" d="M36.352 72.114c-16.948 0-30.324-12.692-30.324-28.728 0-16.264 13.528-28.728 30.324-28.728 15.352 0 24.32 5.472 29.64 13.908 2.66 4.18 3.952 9.12 3.952 14.82 0 11.476-5.7 20.064-15.124 25.004-4.636 2.432-10.792 3.724-18.468 3.724m-1.824-3.496c13.756 0 25.156-11.172 25.156-25.156 0-13.832-11.324-25.156-25.156-25.156C20.468 18.306 9.6 30.01 9.6 43.462c0 8.968 4.788 17.404 12.464 21.812 3.876 2.204 7.98 3.344 12.464 3.344"/><path fill="#000" d="m65.992 28.566-1.883 1.188.005.007zM54.82 68.39l-1.033-1.972h-.001zm-32.756-3.116-1.108 1.93.008.006zm14.288 4.613c-15.832 0-28.097-11.806-28.097-26.501H3.802c0 17.377 14.487 30.955 32.55 30.955zM8.255 43.386c0-14.905 12.398-26.501 28.097-26.501V12.43c-17.892 0-32.55 13.332-32.55 30.955zm28.097-26.501c14.724 0 22.913 5.187 27.757 12.869l3.767-2.376c-5.796-9.19-15.544-14.947-31.524-14.947zM64.114 29.76c2.394 3.763 3.604 8.271 3.604 13.625h4.453c0-6.046-1.375-11.418-4.3-16.015zm3.604 13.625c0 10.61-5.207 18.459-13.931 23.032l2.067 3.944c10.124-5.307 16.317-14.634 16.317-26.976zM53.786 66.418c-4.216 2.212-9.984 3.47-17.434 3.47v4.453c7.902 0 14.447-1.327 19.503-3.98zm-19.258 4.427c14.973 0 27.383-12.156 27.383-27.383h-4.453c0 12.741-10.39 22.93-22.93 22.93zm27.383-27.383c0-15.062-12.321-27.383-27.383-27.383v4.454c12.603 0 22.93 10.327 22.93 22.929zM34.528 16.079c-15.35 0-27.154 12.763-27.154 27.383h4.453c0-12.284 9.932-22.93 22.701-22.93zM7.374 43.462c0 9.743 5.195 18.927 13.582 23.743l2.217-3.862c-6.965-4-11.346-11.688-11.346-19.881zm13.59 23.748c4.196 2.385 8.677 3.635 13.564 3.635V66.39c-4.08 0-7.807-1.03-11.363-3.053z" mask="url(#path-1-outside-1_2153_783)"/></g><defs><clipPath id="clip0_2153_783"><path fill="#fff" d="M0 6h80v80H0z"/></clipPath></defs></svg>