<svg xmlns="http://www.w3.org/2000/svg" viewBox="0 0 296 296" width="256" height="256" preserveAspectRatio="xMidYMid meet"><path id="svg_1" fill="#1244ce" d="M61.69 139.1c-2.77 4.45.37 10.02 5.54 10.02h74.8c2.4 0 4.06 2.78 2.59 4.82L71.3 271.71c-.74 1.3-2.4 1.67-3.69.74C26.96 246.11 0 200.12 0 148 0 67.69 63.53 2.41 142.77 0c2.03 0 3.32 2.23 2.22 3.89zM230.12 25.41c-1.29-.74-2.96-.37-3.69.74l-72.21 116.1c-1.29 2.04.18 4.82 2.59 4.82h74.8c5.17 0 8.31 5.75 5.54 10.02l-84.59 135.76c-.92 1.48.18 3.15 1.85 3.15 78.31-3.71 140.55-68.44 140.55-148 .18-51-25.67-95.88-64.83-122.59z"/></svg>