<svg xmlns="http://www.w3.org/2000/svg" fill="none" viewBox="0 0 150 150" width="256" height="256" preserveAspectRatio="xMidYMid meet"><path fill="url(#paint0_linear_12252_2196)" d="M72.301 33.918a8.67 8.67 0 0 0-4.177 7.375l.245 22.493-.101 15.131.245 22.492a8.68 8.68 0 0 1-4.177 7.375l-15.308 9.089a8.43 8.43 0 0 1-4.117 1.172 8.46 8.46 0 0 1-4.166-.999l-15.169-8.601a7.95 7.95 0 0 1-4.109-7.198l.016-17.472a8.69 8.69 0 0 1 4.177-7.376l14.972-8.993a8.44 8.44 0 0 1 8.283-.172l9.828 5.572-.112-15.252-9.828-5.572a7.95 7.95 0 0 0-4.168-1.08 7.93 7.93 0 0 0-4.115 1.252L12.538 69.672a8.69 8.69 0 0 0-4.177 7.376l-.029 32.944a7.954 7.954 0 0 0 4.108 7.198l28.415 16.111a7.95 7.95 0 0 0 8.283-.173l28.229-16.952a8.68 8.68 0 0 0 4.177-7.375l-.032-22.371-.112-15.252-.031-22.372a8.67 8.67 0 0 1 4.177-7.375l14.971-8.993a8.44 8.44 0 0 1 8.283-.173l15.169 8.601a7.94 7.94 0 0 1 4.108 7.198l.199 17.593a8.686 8.686 0 0 1-4.178 7.376l-14.972 8.993a8.449 8.449 0 0 1-8.282.172l-9.829-5.573.112 15.252 9.828 5.572a7.94 7.94 0 0 0 8.282-.172l28.229-16.952a8.68 8.68 0 0 0 4.178-7.375l.027-32.942a8.46 8.46 0 0 0-4.109-7.198L109.148 16.7a7.94 7.94 0 0 0-8.283.172z"/><defs><linearGradient id="paint0_linear_12252_2196" x1="16.146" x2="117.228" y1="30.734" y2="87.98" gradientTransform="translate(8.328 15.619)" gradientUnits="userSpaceOnUse"><stop stop-color="#A128C5"/><stop offset="1" stop-color="#7C3FE3"/></linearGradient></defs></svg>