<svg xmlns="http://www.w3.org/2000/svg" fill="#1C122C" class="sc-blmEgr etRdLT" style="isolation:isolate" viewBox="0 0 46 46" width="256" height="256" preserveAspectRatio="xMidYMid meet"><path d="M16.96 5.111a3.86 3.86 0 0 0-2.829 1.233 9.95 9.95 0 0 1-7.299 3.181H4.536A23.15 23.15 0 0 1 23.292 0a23.15 23.15 0 0 1 18.756 9.525h-1.983a10.42 10.42 0 0 1-7.439-3.12 4.32 4.32 0 0 0-3.084-1.294zm27.803 9.293h-7.035a4.32 4.32 0 0 1-3.085-1.294 10.41 10.41 0 0 0-7.439-3.12h-7.906a9.95 9.95 0 0 0-7.3 3.181 3.86 3.86 0 0 1-2.829 1.233H1.821a22.8 22.8 0 0 0-1.529 6.04h8.877a9.95 9.95 0 0 0 7.3-3.181 3.86 3.86 0 0 1 2.829-1.233h7.906a4.32 4.32 0 0 1 3.085 1.294 10.41 10.41 0 0 0 7.439 3.12h8.564a22.8 22.8 0 0 0-1.529-6.04m1.529 11.152h-8.564a10.41 10.41 0 0 0-7.439 3.12 4.32 4.32 0 0 1-3.085 1.294h-7.906a3.86 3.86 0 0 1-2.829-1.233 9.95 9.95 0 0 0-7.3-3.181H.292a22.7 22.7 0 0 0 1.529 6.04h7.348c1.075 0 2.101.447 2.829 1.233a9.95 9.95 0 0 0 7.3 3.181h7.906c2.802 0 5.485-1.125 7.439-3.12a4.32 4.32 0 0 1 3.085-1.294h7.035a22.7 22.7 0 0 0 1.529-6.04m-4.244 10.919h-1.983a10.42 10.42 0 0 0-7.439 3.12 4.32 4.32 0 0 1-3.084 1.294H16.96a3.86 3.86 0 0 1-2.829-1.233 9.95 9.95 0 0 0-7.299-3.181H4.536A23.15 23.15 0 0 0 23.292 46a23.15 23.15 0 0 0 18.756-9.525m-18.757-9.061c2.453 0 4.442-1.976 4.442-4.414s-1.989-4.414-4.442-4.414S18.85 20.562 18.85 23s1.988 4.414 4.441 4.414"/></svg>