<svg xmlns="http://www.w3.org/2000/svg" fill="none" class="h-[24px] w-auto md:h-[28px]" viewBox="0 0 28 28" width="256" height="256" preserveAspectRatio="xMidYMid meet"><path fill="currentColor" fill-rule="evenodd" d="M14 1.465a12.9 12.9 0 0 1 9.053 3.672c2.29 2.241 3.716 5.328 3.749 8.74v.007l.001.047V14l-.001.116v.007c-.033 3.412-1.459 6.499-3.749 8.74A12.9 12.9 0 0 1 14 26.535a12.9 12.9 0 0 1-9.053-3.672C2.63 20.595 1.197 17.461 1.197 14c0-3.462 1.433-6.595 3.75-8.864A12.9 12.9 0 0 1 14 1.465m7.359 7.204c.485 0 .956.063 1.404.179a7.4 7.4 0 0 0-5.106-2.027 7.39 7.39 0 0 0-5.184 2.103A7.08 7.08 0 0 0 10.325 14c0 1.982.821 3.777 2.148 5.076a7.39 7.39 0 0 0 5.184 2.102 7.39 7.39 0 0 0 5.106-2.027 5.6 5.6 0 0 1-1.404.179 5.49 5.49 0 0 1-3.85-1.561A5.26 5.26 0 0 1 15.915 14c0-1.472.609-2.805 1.594-3.77a5.5 5.5 0 0 1 3.85-1.561m2.566 2.818a3.66 3.66 0 0 0-2.567-1.041 3.66 3.66 0 0 0-2.567 1.041A3.5 3.5 0 0 0 17.728 14c0 .982.407 1.87 1.063 2.514a3.66 3.66 0 0 0 2.567 1.04c1.003 0 1.91-.397 2.567-1.04A3.5 3.5 0 0 0 24.988 14v-.045a3.5 3.5 0 0 0-1.063-2.468m-6.268-6.442c1.14 0 2.231.204 3.238.578A11.1 11.1 0 0 0 14 3.242a11.07 11.07 0 0 0-7.77 3.151C4.242 8.339 3.012 11.029 3.012 14s1.229 5.661 3.218 7.608A11.08 11.08 0 0 0 14 24.759c2.611 0 5.01-.892 6.895-2.382a9.3 9.3 0 0 1-3.238.578 9.22 9.22 0 0 1-6.468-2.623A8.83 8.83 0 0 1 8.51 14c0-2.472 1.024-4.711 2.679-6.332a9.22 9.22 0 0 1 6.468-2.623" clip-rule="evenodd"/></svg>