<svg xmlns="http://www.w3.org/2000/svg" style="shape-rendering:geometricPrecision;text-rendering:geometricPrecision;image-rendering:optimizeQuality;fill-rule:evenodd;clip-rule:evenodd" viewBox="0 0 144 159" width="256" height="256" preserveAspectRatio="xMidYMid meet"><path d="M3.5-.5h34a225 225 0 0 1 13 12.5l16 1 1.5 1.5a210.5 210.5 0 0 1 0 29L66.5 45q-32.011.25-64 1.5a195 195 0 0 0 11.5 12q3.63 8.316-1.5 15.5-8.191 3.979-13-3.5v-37q2.373-3.705 7-4.5a196 196 0 0 1 28 0 23 23 0 0 1 5 2 192 192 0 0 0 12 11.5 183 183 0 0 0 1-27q-23.505.25-47-.5-4.131-.897-6-4.5v-7Q1 1 3.5-.5" style="opacity:.883"/><path d="M105.5-.5h35a6.54 6.54 0 0 0 3 3v9q-2.42 2.655-6 3.5-22.995.75-46 .5-.25 13.509.5 27A223 223 0 0 0 103.5 31a20.6 20.6 0 0 1 6-2 196 196 0 0 1 28 0q3.969 1.206 6 4.5v38q-6.832 7.183-14.5 1-3-7 0-14L141.5 46q-24.995-.75-50-.5a120 120 0 0 1-1.5 26q-5.557 6.723-13 2l-2-4a757 757 0 0 1 0-55l1.5-1.5 16-1a230 230 0 0 1 13-12.5" style="opacity:.879"/><path d="M63.5 158.5h-32q-7.61-4.855-13-12.5a255 255 0 0 0-19-2.5v-57q5.18-6.474 13-3.5a6.98 6.98 0 0 1 2.5 3.5q.75 27.996.5 56 24.505-.25 49 .5 8.289 8.465-1 15.5" style="opacity:.921"/><path d="M143.5 96.5v58a803 803 0 0 1-5 4h-6q-3.602-1.869-4.5-6-.75-26.996-.5-54-11.543-.496-23 1a243 243 0 0 1 12.5 14 400 400 0 0 1 0 40q-1.538 3.28-4.5 5h-6q-2.404-1.644-4.5-4-.75-27.995-.5-56-12.01-.25-24 .5L89 110.5a23 23 0 0 1 2 5 343 343 0 0 1 0 37q-1.53 4.275-5.5 6h-5q-4.41-1.214-5.5-6a1057 1057 0 0 1 0-65q1.41-4.91 6.5-5.5a196 196 0 0 1 28 0 20.6 20.6 0 0 1 6 2q4.5 6.5 11 11 8.622.318 17 1.5" style="opacity:.892"/></svg>