<svg xmlns="http://www.w3.org/2000/svg" fill="none" viewBox="0 0 48 48" width="256" height="256" preserveAspectRatio="xMidYMid meet"><g clip-path="url(#clip0_3091_22379)"><path fill="#FF00AF" d="M24 48c13.255 0 24-10.745 24-24S37.255 0 24 0 0 10.745 0 24s10.745 24 24 24"/><path fill="#fff" fill-rule="evenodd" d="M27.996 37.427V10.583C33.775 12.31 38 17.673 38 24.005s-4.224 11.696-10.003 13.422M23.995 6v15.175l-2.286-2.285-.292-5.705 2.384-7.175a18 18 0 0 0-4.418.61l-1.154 3.467-3.268-1.64a18 18 0 0 0-3.553 2.696l6.054 3.034.177 3.472-3.47-.178-3.036-6.053a18 18 0 0 0-2.695 3.553l1.64 3.27-3.47 1.152A18 18 0 0 0 6 23.81l7.176-2.384 5.705.291 2.285 2.287-2.285 2.287-5.705.29L6 24.2c.016 1.528.234 3.005.608 4.418l3.47 1.153-1.64 3.27a18 18 0 0 0 2.695 3.553l3.035-6.054 3.471-.178-.177 3.47-6.054 3.036a18.1 18.1 0 0 0 3.553 2.695l3.268-1.64 1.154 3.469c1.413.374 2.89.593 4.418.609l-2.384-7.175.292-5.705 2.286-2.285V42.01C33.939 42.01 42 33.949 42 24.005S33.939 6 23.995 6" clip-rule="evenodd"/></g><defs><clipPath id="clip0_3091_22379"><path fill="#fff" d="M0 0h48v48H0z"/></clipPath></defs></svg>