<svg xmlns="http://www.w3.org/2000/svg" fill="none" viewBox="0 0 800 800" width="256" height="256" preserveAspectRatio="xMidYMid meet"><rect width="788" height="788" x="6" y="6" fill="#fff" rx="394"/><rect width="788" height="788" x="6" y="6" stroke="#F80" stroke-width="12" rx="394"/><path fill="#F90" d="M751.955 297.949a143.02 143.02 0 0 1-28.249 86.352 111.37 111.37 0 0 1-71.167 43.719 70.9 70.9 0 0 0 43.733-28.512 91.63 91.63 0 0 0 17.384-54.038 89.6 89.6 0 0 0-21.459-59.197 68.27 68.27 0 0 0-51.609-24.439H512.651v-95.042H637.6c30.422 0 59.486 13.849 80.945 38.288a142.02 142.02 0 0 1 33.41 92.869M460.77 213.77l51.881 94.77V119z"/><path fill="url(#paint0_linear_1766_120011)" d="m339.112 567.864-51.066-92.598-.543-296.8a36.02 36.02 0 0 1 8.149-22.81 26.6 26.6 0 0 1 8.888-6.893c3.419-1.639 7.149-1.529 10.941-1.611h83.39a28.47 28.47 0 0 1 16.569 5.159 35.64 35.64 0 0 1 12.223 13.849l79.674 154.596c3.054 5.967 5.182 12.041 5.163 18.744l.455 292.177h-33.954a16.7 16.7 0 0 1-6.897-1.629 16.7 16.7 0 0 1-5.598-4.345 22.2 22.2 0 0 1-5.161-14.392V348.454a18.7 18.7 0 0 0-2.173-8.689L384.474 203.72h-33.682a11.76 11.76 0 0 0-11.68 11.676z"/><path fill="#D4D4D4" d="m287.862 475.338 25.533 46.434V192.114a19.44 19.44 0 0 1 5.161-11.948c4.346-4.616 7.877-4.616 13.853-4.616 20.915 0 58.128.814 66.277-1.358 19.014-4.888-6.79-27.698-6.79-27.698h-76.871a25.748 25.748 0 0 0-19.829 9.504 34.95 34.95 0 0 0-8.149 22.81z"/><path fill="#FF8C01" d="M335.401 146.495h63.29a28.47 28.47 0 0 1 16.569 5.16 35.6 35.6 0 0 1 12.223 13.848L508.157 321.1a42.05 42.05 0 0 1 4.618 19.28v291.641h-33.954a16.68 16.68 0 0 1-12.495-5.974 22.2 22.2 0 0 1-5.161-14.392V348.526a18.7 18.7 0 0 0-2.173-8.689s-55.683-102.917-74.697-136.045c-9.236-16.022-16.027-27.97-25.534-42.633a33.4 33.4 0 0 0-6.79-7.604 31 31 0 0 0-8.149-4.616 33.9 33.9 0 0 0-8.421-2.444"/><path fill="#F90" d="M334.944 146.495h39.115a28.47 28.47 0 0 1 16.569 5.16 35.6 35.6 0 0 1 12.224 13.848L483.525 321.1a42.05 42.05 0 0 1 4.618 19.28v291.641h-10.05a16.68 16.68 0 0 1-12.495-5.974 22.2 22.2 0 0 1-5.161-14.392L461 348.5c-.011-3.03-1.32-5.985-2.736-8.663 0 0-55.684-102.917-74.698-136.045-9.236-16.022-16.026-27.97-25.533-42.633a33.4 33.4 0 0 0-6.791-7.604 31 31 0 0 0-8.149-4.616 30.8 30.8 0 0 0-8.149-2.444"/><path fill="url(#paint1_linear_1766_120011)" fill-rule="evenodd" d="M697.545 292.401a71.8 71.8 0 0 0-42.102-29.056 47.3 47.3 0 0 1 26.076 19.552 59.9 59.9 0 0 1 10.051 33.672 59.27 59.27 0 0 1-14.125 38.831 44.94 44.94 0 0 1-33.954 16.021H512.566v57.568h128.209a68.27 68.27 0 0 0 51.61-24.439 93.2 93.2 0 0 0 5.16-112.149" clip-rule="evenodd"/><path fill="url(#paint2_linear_1766_120011)" d="M460.756 371.49v57.568H155.989a44.93 44.93 0 0 0-33.954 16.021 59.27 59.27 0 0 0-14.125 38.831 59.9 59.9 0 0 0 10.051 33.672 48.62 48.62 0 0 0 26.076 19.552 72.6 72.6 0 0 1-42.103-29.056 92.1 92.1 0 0 1-16.569-52.952 89.6 89.6 0 0 1 21.459-59.197 68.27 68.27 0 0 1 51.609-24.439z"/><path fill="url(#paint3_linear_1766_120011)" d="M682.834 280.453a62.1 62.1 0 0 0-27.435-17.108 72.6 72.6 0 0 1 42.102 29.056 92.1 92.1 0 0 1 16.57 52.952 89.6 89.6 0 0 1-21.459 59.197 68.27 68.27 0 0 1-51.609 24.439H512.794v-28.512h130.925c35.04-1.358 58.129-27.155 58.129-66.258-.272-34.758-11.952-45.077-19.014-53.766"/><path fill="#F90" d="M751.955 297.949a143.02 143.02 0 0 1-28.249 86.352 111.37 111.37 0 0 1-71.167 43.719 70.9 70.9 0 0 0 43.733-28.512 91.63 91.63 0 0 0 17.384-54.038 89.6 89.6 0 0 0-21.459-59.197 68.27 68.27 0 0 0-51.609-24.439H512.651v-95.042H637.6c30.422 0 59.486 13.849 80.945 38.288a142.02 142.02 0 0 1 33.41 92.869M460.77 213.77l51.881 94.77V119zM48.004 502.706a143.02 143.02 0 0 1 28.249-86.351 111.37 111.37 0 0 1 71.167-43.72 70.9 70.9 0 0 0-43.733 28.513 91.63 91.63 0 0 0-17.384 54.038 89.6 89.6 0 0 0 21.459 59.197 68.27 68.27 0 0 0 51.609 24.439H287.58v95.193l-125.221-.151c-30.422 0-59.486-13.849-80.945-38.289a143.46 143.46 0 0 1-33.41-92.869m291.457 84.452-51.881-94.77v189.539z"/><path fill="#FF8C01" d="M640.357 213.77H460.539L512.42 119v47.792h124.949c30.423 0 59.487 13.849 80.946 38.288a141.54 141.54 0 0 1 33.682 92.598 143.03 143.03 0 0 1-28.25 86.352c38.028-132.244-54.054-170.26-83.39-170.26M159.643 587.23h179.818L287.58 682v-47.792H162.631c-30.423 0-59.487-13.849-80.945-38.288a141.53 141.53 0 0 1-33.682-92.598 143.02 143.02 0 0 1 28.249-86.352c-37.756 132.244 54.326 170.26 83.39 170.26"/><path fill="url(#paint4_linear_1766_120011)" d="M460.814 371.49v28.784H156.861c-35.04 1.358-58.128 27.155-58.128 66.529 0 34.486 11.408 44.805 18.742 53.495a62.1 62.1 0 0 0 27.435 17.107 71.2 71.2 0 0 1-41.831-29.055 92.1 92.1 0 0 1-16.57-52.952 89.6 89.6 0 0 1 21.459-59.197 68.69 68.69 0 0 1 51.61-24.439z"/><defs><linearGradient id="paint0_linear_1766_120011" x1="518.55" x2="245.091" y1="353.288" y2="445.039" gradientUnits="userSpaceOnUse"><stop offset=".07" stop-color="#797979"/><stop offset=".64" stop-color="#C1C1C1"/><stop offset="1" stop-color="#D4D4D4"/></linearGradient><linearGradient id="paint1_linear_1766_120011" x1="725.55" x2="569.023" y1="318.524" y2="379.192" gradientUnits="userSpaceOnUse"><stop offset=".07" stop-color="#797979"/><stop offset=".41" stop-color="#C1C1C1"/><stop offset="1" stop-color="#D4D4D4"/></linearGradient><linearGradient id="paint2_linear_1766_120011" x1="85.474" x2="465.969" y1="461.073" y2="420.888" gradientUnits="userSpaceOnUse"><stop offset=".07" stop-color="#868686"/><stop offset=".37" stop-color="#D7D7D7"/><stop offset="1" stop-color="#DEDEDE"/></linearGradient><linearGradient id="paint3_linear_1766_120011" x1="726.81" x2="515.892" y1="338.048" y2="360.328" gradientUnits="userSpaceOnUse"><stop offset=".07" stop-color="#868686"/><stop offset=".37" stop-color="#D7D7D7"/><stop offset="1" stop-color="#DEDEDE"/></linearGradient><linearGradient id="paint4_linear_1766_120011" x1="86.944" x2="464.989" y1="466.749" y2="392.764" gradientUnits="userSpaceOnUse"><stop offset=".07" stop-color="#797979"/><stop offset=".37" stop-color="#C1C1C1"/><stop offset="1" stop-color="#D4D4D4"/></linearGradient></defs></svg>