<svg xmlns="http://www.w3.org/2000/svg" fill="none" viewBox="0 0 250 250" width="256" height="256" preserveAspectRatio="xMidYMid meet"><g clip-path="url(#clip0_2976_714)" transform="translate(-476.815 -397.877)scale(.96834)"><path d="m579.635 437.601 40.134-23.152a3.72 3.72 0 0 1 3.704 0l105.776 61.002a3.72 3.72 0 0 1 1.857 3.195l.143 41.956a3.7 3.7 0 0 1-1.857 3.216l-40.08 23.119c-2.461 1.427-5.55-.351-5.561-3.194l-.131-37.653a3.7 3.7 0 0 0-1.858-3.195l-102.127-58.883c-2.473-1.428-2.473-4.984 0-6.411M553.711 627.644l-40.123-23.141a3.68 3.68 0 0 1-1.858-3.205V479.293c0-1.317.704-2.536 1.847-3.205l36.31-21.11a3.68 3.68 0 0 1 3.714 0l40.08 23.118c2.461 1.428 2.472 4.973.011 6.411l-32.574 18.937a3.69 3.69 0 0 0-1.846 3.205v117.8c0 2.855-3.088 4.633-5.561 3.206zM731.251 555.006v46.281a3.68 3.68 0 0 1-1.857 3.206l-105.776 61.002a3.7 3.7 0 0 1-3.693 0l-36.453-20.857a3.71 3.71 0 0 1-1.868-3.217v-46.226c0-2.843 3.077-4.622 5.55-3.217l32.705 18.717a3.72 3.72 0 0 0 3.693 0l102.127-58.906c2.473-1.427 5.561.352 5.561 3.206z" style="fill:#000"/></g><defs><clipPath id="clip0_2976_714"><path fill="#fff" d="M511.73 413h895.54v253H511.73z"/></clipPath></defs></svg>