<svg xmlns="http://www.w3.org/2000/svg" fill="none" viewBox="0 0 35 35" width="256" height="256" preserveAspectRatio="xMidYMid meet"><g clip-path="url(#clip0_370_4676)" transform="translate(.82 4)"><path fill="url(#paint0_linear_370_4676)" d="M6.976 13.5c0 3.494-1.563 6.325-3.486 6.325-1.922 0-3.49-2.83-3.49-6.325s1.563-6.325 3.485-6.325c1.923 0 3.486 2.83 3.486 6.325m3.206 0c0 1.131-.16 2.258-.485 3.278-.314.99-.769 1.936-1.348 2.81-.35.529-1.103 1.705-.47 2.158.11.075.255.13.455.16 1.229.177 2.357-.598 3.186-1.387a9.4 9.4 0 0 0 2.132-3.017 9.98 9.98 0 0 0 0-7.994 9.5 9.5 0 0 0-2.132-3.017c-.829-.79-1.962-1.564-3.186-1.388-.2.03-.344.086-.454.161-.64.453.12 1.63.47 2.157.578.87 1.033 1.82 1.347 2.81.325 1.022.485 2.148.485 3.28m7.525 0c0 1.447-.21 2.895-.624 4.198a14.6 14.6 0 0 1-1.728 3.6c-.45.673-1.418 2.182-.6 2.76.14.095.33.17.58.206 1.573.226 3.021-.77 4.085-1.78a12.1 12.1 0 0 0 2.731-3.861c1.408-3.178 1.413-7.055 0-10.247a12.1 12.1 0 0 0-2.731-3.862c-1.064-1.01-2.512-2.006-4.085-1.78-.255.036-.444.106-.58.206-.818.579.15 2.087.6 2.76a14.6 14.6 0 0 1 1.728 3.6c.414 1.303.624 2.751.624 4.2m8.753 0c0 1.81-.26 3.62-.778 5.248a18 18 0 0 1-2.158 4.5c-.559.845-1.767 2.73-.749 3.454.175.121.41.212.724.257 1.968.282 3.776-.96 5.109-2.227a15.1 15.1 0 0 0 3.415-4.832c1.788-4.038 1.788-8.78 0-12.811a15.2 15.2 0 0 0-3.415-4.832C27.274 1 25.462-.242 23.499.04c-.314.046-.554.136-.724.257-1.023.724.19 2.61.75 3.454a18.2 18.2 0 0 1 2.157 4.5c.519 1.629.779 3.439.779 5.25"/></g><defs><linearGradient id="paint0_linear_370_4676" x1="0" x2="33.359" y1="13.505" y2="13.505" gradientUnits="userSpaceOnUse"><stop stop-color="#1FFFA3"/><stop offset="1" stop-color="#8C47F5"/></linearGradient><clipPath id="clip0_370_4676"><path fill="#fff" d="M0 0h119v27H0z"/></clipPath></defs></svg>