<svg xmlns="http://www.w3.org/2000/svg" fill="none" viewBox="0 0 256 256" width="256" height="256" preserveAspectRatio="xMidYMid meet"><rect width="208" height="208" x="24" y="24" fill="#fff" rx="104"/><g clip-path="url(#clip0_1441_2836)"><path fill="#DA291C" fill-rule="evenodd" d="M106.218 76h14.605v15.613h14.48V76h14.605v15.613h14.48v14.605H180v14.605h-15.612v14.48H180v14.605h-15.612v14.48h-14.48V180h-14.605v-15.612h-14.48V180h-14.605v-15.612H91.613v-14.48H76v-14.605h15.613v-14.48H76v-14.605h15.613V91.613h14.605zm29.085 30.218h-14.48v14.605h-14.605v14.48h14.605v14.605h14.48v-14.605h14.605v-14.48h-14.605z" clip-rule="evenodd"/></g><defs><clipPath id="clip0_1441_2836"><path fill="#fff" d="M76 76h104v104H76z"/></clipPath></defs></svg>