<svg xmlns="http://www.w3.org/2000/svg" fill="none" viewBox="0 0 72 72" width="256" height="256" preserveAspectRatio="xMidYMid meet"><circle cx="36" cy="36" r="36" fill="#05DB4A"/><path fill="#000" d="M53.498 22.486c-3.786-3.786-8.663-5.76-14.03-5.87H25.993c-8.312.11-14.916 6.753-14.916 15.055s6.754 15.055 15.055 15.055h13.334c5.553 0 9.929-4.517 9.929-10.07 0-5.552-4.517-10.07-10.07-10.07H25.722l-1.973 7.578h15.576a2.494 2.494 0 0 1 2.492 2.492 2.494 2.494 0 0 1-2.492 2.492H25.99c-4.123 0-7.336-3.354-7.336-7.477s3.206-7.411 7.336-7.478H39.46c6.872 0 12.323 5.591 12.323 12.465s-5.59 12.464-12.464 12.464h-18.36L18.985 56.7h20.483c5.338-.102 10.244-2.084 14.03-5.87a19.9 19.9 0 0 0 5.87-14.172 19.9 19.9 0 0 0-5.87-14.172"/></svg>