<svg xmlns="http://www.w3.org/2000/svg" fill="none" viewBox="0 0 400 400" width="256" height="256" preserveAspectRatio="xMidYMid meet"><rect width="400" height="400" fill="#000" rx="200"/><path fill="#fff" d="M124.837 213.015V283l118.25-70.607 37.457-22.366V116l-116.093 72.333zM360 116h-79.456v74.027H360z"/><path fill="#fff" d="M360 190.027h-79.456l-37.457 22.366 87.433-1.145zM40 213.015h84.837l39.614-24.682H82.476zM40 213.015V283h84.837v-69.985z"/><path stroke="#000" stroke-width="4.5" d="M40 213.015V283h84.837M40 213.015h84.837m-84.837 0 42.476-24.682h81.975M124.837 283v-69.985m0 69.985 155.707-92.973M124.837 283l118.25-70.607m-118.25.622L280.544 116m-155.707 97.015 39.614-24.682m0 0L280.544 116m0 0H360v74.027M280.544 116v74.027m79.456 0h-79.456m79.456 0-29.48 21.221-87.433 1.145m37.457-22.366-37.457 22.366"/></svg>