<svg xmlns="http://www.w3.org/2000/svg" class="h-7" viewBox="0 0 30 30" width="256" height="256" preserveAspectRatio="xMidYMid meet"><path d="M15.001 2.292a3.32 3.32 0 0 1 2.981 1.841l9.375 18.75c1.109 2.216-.503 4.825-2.981 4.825H5.626c-2.479 0-4.09-2.609-2.98-4.825l9.374-18.75a3.32 3.32 0 0 1 2.981-1.841m0-2.292A5.62 5.62 0 0 0 9.97 3.108L.595 21.858C-1.277 25.598 1.443 30 5.626 30h18.75c4.182 0 6.901-4.402 5.03-8.142l-9.374-18.75A5.63 5.63 0 0 0 15.001 0" class="text-primary" style="fill:#78d64b"/></svg>