<svg xmlns="http://www.w3.org/2000/svg" viewBox="0 0 52 52" width="256" height="256" preserveAspectRatio="xMidYMid meet"><defs><path id="path-1" d="M0 52h205.263V0H0z"/></defs><g id="SUPPLY" fill="none" fill-rule="evenodd" stroke="none" stroke-width="1" transform="translate(.035)"><g id="Immutable-–-Desktop-–-Home" transform="translate(-617 -67)"><g id="Module-–-Site-Nav-(Immutable)" transform="translate(0 48)"><g id="Group-17" transform="translate(617 19)"><g id="Group-16"><mask id="mask-2" fill="#fff"><path d="M0 52h205.263V0H0z"/></mask><path id="Fill-15" fill="#000" d="M40.409 28.046c-.007.985-.536 1.675-1.377 2.16-3.263 1.878-6.521 3.765-9.781 5.65l-1.832 1.054c-.01-.16-.022-.27-.022-.378-.002-.936.01-1.873-.007-2.809-.005-.266.084-.408.313-.54 2.965-1.703 5.92-3.426 8.889-5.12.528-.303.76-.672.756-1.292-.023-3.232-.011-6.465-.011-9.697v-.566c.775.469 1.5.852 2.163 1.323.604.429.909 1.079.912 1.827.01 2.796.017 5.592-.003 8.388m-.02 5.982c-.07.865-.577 1.479-1.325 1.91-2.863 1.648-5.722 3.304-8.583 4.957q-1.347.78-2.695 1.556c-.108.063-.22.117-.367.195-.01-.15-.022-.258-.022-.368-.002-.949.005-1.898-.005-2.847-.002-.215.052-.347.249-.461 4.172-2.404 8.34-4.815 12.51-7.224.063-.037.132-.065.25-.122 0 .842.05 1.627-.013 2.404m-18.79-17.299c-.502-.295-.93-.292-1.43.001-2.808 1.642-5.628 3.264-8.443 4.892-.12.068-.242.132-.453.247.075-1.072-.154-2.083.21-3.06.2-.536.572-.939 1.065-1.224 2.35-1.36 4.697-2.722 7.052-4.073.86-.494 1.735-.482 2.594.013q4.01 2.311 8.012 4.638c.114.066.256.213.258.324.02 1.1.011 2.201.011 3.383l-2.762-1.596c-2.04-1.18-4.085-2.35-6.115-3.545m2.728 20.197-.631-.36c-2.362-1.365-4.72-2.733-7.088-4.088-.255-.146-.35-.302-.347-.6.016-1.539.01-3.078.004-4.616 0-.209.032-.353.238-.468.872-.487 1.732-.994 2.597-1.493.063-.037.13-.063.245-.118v1.728c0 .936.015 1.872-.005 2.808-.012.534.192.893.658 1.156 1.338.756 2.658 1.542 3.998 2.294.263.148.343.313.338.604-.018 1.023-.007 2.047-.007 3.153m0 5.732c-.156-.08-.274-.136-.387-.202-3.716-2.145-7.425-4.303-11.15-6.431-1.045-.598-1.52-1.448-1.511-2.642.02-2.54.016-5.08.003-7.62-.006-1.147.46-1.977 1.465-2.549a975 975 0 0 0 7.818-4.517c.225-.13.39-.152.624-.011.898.54 1.812 1.056 2.768 1.609-.182.108-.32.192-.46.273-2.817 1.629-5.63 3.262-8.453 4.88-.463.265-.677.608-.673 1.145q.023 3.002 0 6.004c-.005.553.213.903.69 1.175 2.978 1.706 5.945 3.432 8.922 5.14.252.146.36.295.352.598-.022 1.025-.008 2.051-.008 3.148m.516-32.153a2.25 2.25 0 0 1 2.18.07 688 688 0 0 1 7.249 4.19c.775.455 1.17 1.186 1.174 2.082.015 3.141.009 6.283 0 9.424 0 .117-.075.286-.168.341-.933.556-1.877 1.094-2.899 1.684v-.494c0-3.232-.009-6.463.008-9.694.003-.621-.21-1.021-.76-1.334-2.816-1.602-5.614-3.233-8.418-4.854-.122-.07-.24-.145-.423-.257.72-.409 1.37-.82 2.057-1.158M25.965 0C11.625 0 0 11.64 0 26s11.625 26 25.965 26S51.93 40.36 51.93 26 40.305 0 25.965 0" mask="url(#mask-2)"/></g></g></g></g></g></svg>