<svg xmlns="http://www.w3.org/2000/svg" version="1.2" viewBox="0 0 512 512" width="256" height="256" preserveAspectRatio="xMidYMid meet"><path fill="#6bbe66" d="M235.9 472.2c-24.8 19.1-55.8 30.5-89.5 30.5C65.5 502.7 0 437.2 0 356.5c0-56.1 31.6-104.7 77.8-129.3 8.2 29 23.7 54.9 44.4 75.6 19.3 19.3 43.2 34.1 69.9 42.6q-.4 5.6-.4 11.3c0 44.4 16.7 84.8 44.2 115.5"/><path fill="#ff4141" d="M511.5 356.7c0 80.8-65.5 146.3-146.4 146.3-80.8 0-146.3-65.5-146.3-146.3q0-2.5.1-5.1c8.4 1.3 17.1 1.9 25.9 1.9 47.9 0 91.2-19.4 122.6-50.7 22.7-22.7 39.2-51.6 46.5-84 56.9 20.1 97.6 74.2 97.6 137.9"/><path d="M335.8 179.8c-.1.8-2.6 3.4-5.1 5.2-7.4 5.4-20.6 10.4-33.9 12.8-7.6 1.4-15.2 1.6-17.5.5-1.5-.7-1.7-1.3-1.2-3.2 1.1-4 4.7-8.4 10.4-12.5 2.9-2.1 14.5-9.2 19.9-12.1 9-4.9 16.2-7.9 21.1-8.6 1.6-.2 3.4-.2 4 0 1 .4 2.1 3.2 2.5 6.6.2 1.8.1 9.8-.2 11.3m-125.4 17.6c-.4.6-2 1.3-3.8 1.6s-7.3.1-10.5-.3c-11.3-1.5-23.2-4.9-32-9.2-4.9-2.4-8.4-4.8-11-7.4l-1.5-1.5-.1-2c-.3-3.6-.3-9.1.2-11.1.2-1.6.8-3.2 1.6-4.7.4-.5.4-.5 2.4-.5 2.3 0 4.3.4 7.5 1.4 6.5 2 16.3 6.9 28.1 14.1 9.8 5.8 13.5 8.7 16.3 12.6 2 2.5 3.2 5.9 2.8 7m75.4 74.1c0 .2-.7 2.7-1.5 5.8-.8 3-1.4 5.5-1.4 5.6-.6 0-1.1.1-1.7 0h-1.7l-2.4 5.6c-1.2 3-2.4 5.8-2.6 6.2l-.3.8-1.1-1.8-1.1-1.8v-14.8l-.5.1c-.9.2-7.3 1.1-10.1 1.4-11.7 1.1-23.4.9-35-.8-1.9-.3-3.5-.5-3.5-.4-.1 0 0 3.4.1 7.7l.1 7.5-.9 1.4c-.4.7-.9 1.4-.9 1.4-.2.2-.7-.7-1.9-3.1-1.4-2.6-2.3-5.3-3-8.1l-.4-1.5-1.7.1-1.6.1-.4-1.9c-.2-1.1-.5-2.8-.6-3.7l-.2-1.7-1.4-1.2c-.8-.7-1.6-1.4-1.7-1.5-.3-.2-.4-.6-.4-.9v-.6h6.7l6.6.1.2.7.3.7 2.2.1c1.3 0 5.4.1 9 .2l6.6.2 1.7-2.7 1.8-2.6h2.2v-5.6l-.1-5.5-2.9-1.3c-9.4-4.1-15-8.9-17-14.6-.5-1.2-.5-1.6-.6-7 0-5.2 0-5.7.4-6.9.7-2.6 2.8-4.7 5.4-5.4.9-.3 3.3-.3 15.9-.3l14.8.1 1.7.8c1.9.9 2.8 1.6 4 3.1 1.2 1.7 1.6 3.1 1.6 6.3 0 4.6-.3 8.6-.8 10.2-.7 2.2-1.7 4.3-3.1 6.2-2.6 3.4-7.5 6.8-11.9 8.3l-1.3.5.1 5.6v5.6l1.2.1 1.2.1 1.6 2.4 1.5 2.4h7.1c4 0 7.4 0 7.8.1.5.1.6 0 1.1-.9l.7-.9h6.1c4.6-.2 6-.1 6 0m-28.2 15.3c-1 .6-1.7.9-1.8.8-.2-.1-.9-.7-1.7-1.3l-1.5-1.2-1.5 1.6c-3.2 3.5-3.3 3.7-4.3 3.7-1.5.2-1.8-.1-3.6-2.8-.9-1.4-1.7-2.5-1.7-2.5s-.7-.2-1.5-.2l-1.5-.2-.7 1.5-.7 1.4-1.2-.4q-1.4-.4-2.8-1.1l-1.6-.8v-3h14.2l14.1.1.1 1.4c0 1.7.1 1.7-2.3 3"/><path fill="#ffa409" d="M390.6 220.7c-12.8-1.4-49.2-2.3-83.1 25.7 0 0-10.9-50.1-62.1-50.1-51.1 0-70 50.1-70 50.1-28.7-30.9-67-28.6-80.9-26.6 1.6-25.8 8.3-50 20.7-75.1l.6-1.2c-2.4-7-8.6-26.3-13.8-48.3C94.3 62 89.2 22.7 104.2 11c0 0 25.4-1.8 59.5 30.5 9.2 8.8 17.6 18.4 25.1 28.6.5-.2.9-.3 1.5-.6 13.3-4.6 25-6.9 40.3-7.9 5.1-.3 20.5-.3 24.7 0 13.8.9 27.5 3.6 40.7 7.9l2.3.7c7.2-10.2 15.4-19.9 24.3-28.8 32.8-32.1 57.3-30.3 57.3-30.3 14.1 11.3 9.5 48.9 2.2 81-5.4 23.7-12.1 44.4-13.8 49.4.1.1.1.3.2.4.3.7.7 1.5 1.2 2.2 11.7 21 17.9 40.7 20.2 64.9.1 1.7.3 5 .4 7.4.2 1.6.3 3.2.3 4.3M158.7 86.3c.1 0 .1-.1.1-.1 9.3-7.1 16.2-10.5 16.2-10.5C138.6 35.2 116 33 116 33c-2.5 3.2-4.1 7.4-5 12.2-5.1 28.4 14.8 78.2 14.8 78.2 9.9-17.2 22.8-29.4 32.9-37.1m48.9 104.1c-2.8-3.9-6.5-6.8-16.3-12.6-11.8-7.2-21.6-12.1-28.1-14.1-3.2-1-5.2-1.4-7.5-1.4-2 0-2 0-2.4.5-.8 1.5-1.4 3.1-1.6 4.7-.5 2-.5 7.5-.2 11.1l.1 2 1.5 1.5c2.6 2.6 6.1 5 11 7.4 8.8 4.3 20.7 7.7 32 9.2 3.2.4 8.7.6 10.5.3s3.4-1 3.8-1.6c.4-1.1-.8-4.5-2.8-7M336 168.5c-.4-3.4-1.5-6.2-2.5-6.6-.6-.2-2.4-.2-4 0-4.9.7-12.1 3.7-21.1 8.6-5.4 2.9-17 10-19.9 12.1-5.7 4.1-9.3 8.5-10.4 12.5-.5 1.9-.3 2.5 1.2 3.2 2.3 1.1 9.9.9 17.5-.5 13.3-2.4 26.5-7.4 33.9-12.8 2.5-1.8 5-4.4 5.1-5.2.3-1.5.4-9.5.2-11.3m22.7-45.1s19.2-49.8 14.3-78.2c-.9-4.8-2.4-9-4.8-12.2 0 0-21.8 2.2-57 42.7 0 0 6.7 3.3 15.7 10.5h.1c12.9 10.2 23.7 22.9 31.7 37.2"/><path fill="#ff9300" d="M373 45.2c-4.1-.6-23.8-.7-46 41h-.1c-9-7.2-15.7-10.5-15.7-10.5 35.2-40.5 57-42.7 57-42.7 2.4 3.2 4 7.4 4.8 12.2M175 75.7s-6.9 3.3-16.2 10.5h-.1c-23.1-41.7-43.3-41.6-47.7-41 .8-4.8 2.4-9 4.9-12.2.1 0 22.7 2.2 59.1 42.7"/><path fill="#ff8300" d="M358.8 123.4c-8.1-14.3-18.9-27-31.8-37.2 22.2-41.7 41.8-41.6 46-41 5 28.4-14.2 78.2-14.2 78.2m-200-37.2c-10.2 7.8-23.1 20-33 37.2 0 0-19.9-49.8-14.8-78.2 4.4-.6 24.7-.7 47.8 41"/><path fill="#fff" stroke="#ffa409" d="M390.4 231.4c-.9 6.2-2.8 12.3-5.9 19.1-.4 1-3.6 6.7-4.4 7.9-.2.4-.5.8-.7 1.3 0 .1-.1.2-.2.2s-.2.1-.2.2-.1.3-.2.3-.2.1-.1.2c0 .1 0 .3-.2.3-.2.1-.2.2-.2.3.1.1 0 .2-.2.3-.2 0-.3.2-.2.2.1.1-.1.3-.2.4-.2.1-.3.2-.2.2.3 0-4.6 6.6-7.9 10.5q-6.8 7.8-14.7 14.7c-33.2 28.9-83.1 48.6-116.9 46.3-32.4-2.2-75.3-21.6-106.8-48.4-19.3-16.4-31.6-33.1-35.6-48.3-1.3-4.9-1.5-8.5-1.1-16.3 0-.3.1-.7.1-1 13.8-2 52.2-4.2 80.8 26.6 0 0 19-50.1 70.1-50.1s62 50.1 62 50.1c33.9-28 70.4-27.1 83.2-25.7 0 .6 0 .9.1 1.1.2 1.3-.1 6.7-.4 9.6zm-104.5 40.3c0-.2-1.4-.2-6.1-.2h-6.1l-.7.9c-.5.9-.6 1-1.1.9-.4-.1-3.8-.1-7.8-.1H257l-1.5-2.4-1.6-2.4-2.4-.2-.1-11.2 1.3-.5c4.4-1.5 9.3-4.9 11.9-8.3 1.4-1.9 2.4-4 3.1-6.2.5-1.6.8-5.6.8-10.2 0-3.2-.4-4.6-1.6-6.3-1.2-1.5-2.1-2.2-4-3.1l-1.7-.8-14.8-.1c-12.6 0-15 0-15.9.3-2.6.7-4.7 2.8-5.4 5.4-.4 1.2-.4 1.7-.4 6.9.1 5.4.1 5.8.6 7 2 5.7 7.6 10.5 17 14.6l2.9 1.3.1 11.1h-2.2l-1.8 2.6-1.7 2.7-6.6-.2c-3.6-.1-7.7-.2-9-.2l-2.2-.1-.5-1.4-13.3-.1v.6c0 .3.1.7.4.9.1.1.9.8 1.7 1.5l1.4 1.2.2 1.7c.1.9.4 2.6.6 3.7l.4 1.9 1.6-.1 1.7-.1.4 1.5c.7 2.8 1.6 5.5 3 8.1 1.2 2.4 1.7 3.3 1.9 3.1 0 0 .5-.7.9-1.4l.9-1.4-.1-7.5c-.1-4.3-.2-7.7-.1-7.7 0-.1 1.6.1 3.5.4 11.6 1.7 23.3 1.9 35 .8 2.8-.3 9.2-1.2 10.1-1.4l.5-.1v14.8l2.2 3.6.3-.8c.2-.4 1.4-3.2 2.6-6.2l2.3-5.6h1.7c.6 0 1.1 0 1.7-.1 0-.1.7-2.5 1.5-5.6.8-3 1.5-5.6 1.6-5.5zm-26 12.1-.1-1.4-28.3-.1v3l1.6.8q1.4.7 2.8 1.1l1.2.4 1.4-2.9 1.5.2c.8 0 1.5.2 1.5.2s.8 1.1 1.7 2.5c1.8 2.7 2.1 3 3.6 2.8 1 0 1.1-.2 4.3-3.7l1.5-1.6 1.5 1.2c.8.6 1.5 1.2 1.7 1.3.1.1.8-.2 1.8-.8 2.4-1.3 2.3-1.3 2.3-3zm45-132.7s-17.1 1-14.9-12.3c2.1-13.3 15.4-14.9 19.1-14.4 3.8.6 18.7 5.9 16 17.1-2.6 11.2-6.4 9-8.5 9.6-2.1.5-11.7 0-11.7 0zm-125.7 0s-17 1-14.9-12.3 15.4-14.9 19.2-14.4c3.7.6 18.6 5.9 15.9 17.1-2.6 11.2-6.4 9-8.5 9.6-2.1.5-11.7 0-11.7 0z"/></svg>