<svg xmlns="http://www.w3.org/2000/svg" viewBox="0 0 20 20" width="256" height="256" preserveAspectRatio="xMidYMid meet"><path fill="var(--token-7249ed11-9a02-4109-a254-5335e834859e, rgb(177, 110, 255)) /* {&quot;name&quot;:&quot;Purple Light&quot;} */" d="M.481 6.351V3.623c0-.829.812-1.501 1.813-1.501H5.59c1.002 0 1.814.672 1.814 1.501v2.203c0 .38.182.744.506 1.013.676.559 1.772.559 2.448 0l5.168-4.277c.34-.282.801-.44 1.282-.44h.897c1.002 0 1.813.672 1.813 1.501v.742c0 .398-.191.78-.531 1.061l-5.168 4.278c-.675.559-.675 1.467 0 2.026.325.269.765.42 1.224.42h2.662c1.002 0 1.813.672 1.813 1.5v2.729c0 .828-.811 1.5-1.813 1.5h-3.296c-1.002 0-1.813-.672-1.813-1.5v-2.204c0-.379-.183-.744-.507-1.012-.676-.56-1.772-.56-2.448 0l-5.167 4.276a2.02 2.02 0 0 1-1.282.44h-.898c-1.001 0-1.813-.672-1.813-1.501v-.742c0-.398.191-.78.531-1.062l5.168-4.277c.675-.559.675-1.466 0-2.026a1.93 1.93 0 0 0-1.224-.419H2.294C1.293 7.852.481 7.18.481 6.351"/></svg>