<svg xmlns="http://www.w3.org/2000/svg" fill="none" viewBox="0 0 148 148" width="256" height="256" preserveAspectRatio="xMidYMid meet"><path fill="#1D4C90" d="M0 74c0 40.869 33.13 74 74 74V0C33.13 0 0 33.13 0 74"/><path fill="#D5485A" d="M148 74c0-40.87-33.131-74-74-74v148c40.869 0 74-33.131 74-74"/><g filter="url(#filter0_d_111_2479)"><path fill="#D5485A" d="M26 74c0 26.51 21.49 48 48 48V26c-26.51 0-48 21.49-48 48"/><path fill="#1D4C90" d="M122 74c0-26.51-21.49-48-48-48v96c26.51 0 48-21.49 48-48"/></g><g filter="url(#filter1_d_111_2479)"><path fill="#1D4C90" d="M49 74c0 13.807 11.193 25 25 25V49c-13.807 0-25 11.193-25 25"/><path fill="#D5485A" d="M99 74c0-13.807-11.193-25-25-25v50c13.807 0 25-11.193 25-25"/></g><defs><filter id="filter0_d_111_2479" width="108" height="108" x="20" y="20" color-interpolation-filters="sRGB" filterUnits="userSpaceOnUse"><feFlood flood-opacity="0" result="BackgroundImageFix"/><feColorMatrix in="SourceAlpha" result="hardAlpha" values="0 0 0 0 0 0 0 0 0 0 0 0 0 0 0 0 0 0 127 0"/><feOffset/><feGaussianBlur stdDeviation="3"/><feComposite in2="hardAlpha" operator="out"/><feColorMatrix values="0 0 0 0 0 0 0 0 0 0 0 0 0 0 0 0 0 0 0.25 0"/><feBlend in2="BackgroundImageFix" result="effect1_dropShadow_111_2479"/><feBlend in="SourceGraphic" in2="effect1_dropShadow_111_2479" result="shape"/></filter><filter id="filter1_d_111_2479" width="60" height="60" x="44" y="44" color-interpolation-filters="sRGB" filterUnits="userSpaceOnUse"><feFlood flood-opacity="0" result="BackgroundImageFix"/><feColorMatrix in="SourceAlpha" result="hardAlpha" values="0 0 0 0 0 0 0 0 0 0 0 0 0 0 0 0 0 0 127 0"/><feOffset/><feGaussianBlur stdDeviation="2.5"/><feComposite in2="hardAlpha" operator="out"/><feColorMatrix values="0 0 0 0 0 0 0 0 0 0 0 0 0 0 0 0 0 0 0.25 0"/><feBlend in2="BackgroundImageFix" result="effect1_dropShadow_111_2479"/><feBlend in="SourceGraphic" in2="effect1_dropShadow_111_2479" result="shape"/></filter></defs></svg>