<svg xmlns="http://www.w3.org/2000/svg" xml:space="preserve" id="Layer_1" x="0" y="0" version="1.1" viewBox="0 0 242.5 242.5" width="256" height="256" preserveAspectRatio="xMidYMid meet"><g id="Layer_1-2"><linearGradient id="SVGID_1_" x1="240.3" x2="15.85" y1="235.027" y2="23.277" gradientTransform="matrix(1 0 0 -1 0 244)" gradientUnits="userSpaceOnUse"><stop offset="0" style="stop-color:#93278f"/><stop offset="1" style="stop-color:#b21f1f"/></linearGradient><path d="m196.1 47.3-.4-.2h-.1V47l-.2-.4v-.1c-19.7-40.8-68.8-58-109.6-38.3C69 16.3 55.5 29.8 47.4 46.5l-.2.5h-.3l-.4.2h-.1C5.6 66.9-11.6 116 8.1 156.9c8.1 16.8 21.6 30.3 38.4 38.4l.5.2.2.4c19.7 40.9 68.7 58.1 109.6 38.4 16.8-8.1 30.3-21.6 38.4-38.4l.2-.4.4-.2c40.9-19.6 58.1-68.7 38.5-109.6-8-16.8-21.5-30.4-38.2-38.4M60.9 39.2C84.5 5.9 130.7-1.9 164.1 21.7c6.8 4.8 12.7 10.7 17.5 17.5.8 1.1 1.5 2.1 2.2 3.2-1.2-.4-2.4-.7-3.7-1-19.6-4.9-40.3-2.3-58.2 7.2l-.7.3-.7-.4c-17.8-9.5-38.5-12-58.1-7.1-1.2.3-2.5.6-3.7 1 .7-1 1.4-2.1 2.2-3.2m128.7 14.4c7.7 18.3 7.6 38.9-.1 57.2-.3.8-.7 1.6-1 2.3-.5-.7-.9-1.3-1.4-2-8-10.6-18.3-19.1-30.3-24.9l-.4-.2-.2-.5c-5.8-11.9-14.3-22.3-24.9-30.2-.6-.5-1.3-1-2-1.4.8-.4 1.5-.7 2.3-1 18.3-7.7 39-7.7 57.3-.1l.5.2c0 .3.1.5.2.6m-.1 78c7.7 18.3 7.7 38.9.1 57.3-.1.2-.2.4-.2.5l-.5.2c-18.3 7.7-39 7.6-57.3-.1-.8-.3-1.5-.7-2.3-1 .7-.5 1.3-.9 2-1.4 10.6-7.9 19.1-18.2 24.8-30.1l.2-.5v-.1h.1l.4-.2h.1c11.9-5.8 22.2-14.3 30.1-24.8.5-.7 1-1.3 1.4-2 .4.8.7 1.5 1 2.3M53.1 189.4l-.2-.5c-7.7-18.3-7.6-39 .1-57.3.3-.8.7-1.5 1-2.3.5.7 1 1.3 1.4 2 7.9 10.6 18.3 19.2 30.2 24.9l.4.2c.1.1.1.3.2.4C92 168.7 100.5 179 111 187c.7.5 1.3 1 2 1.4l-2.3 1c-18.3 7.7-38.9 7.7-57.2.1-.1 0-.3-.1-.4-.1m-.2-78.6c-7.7-18.3-7.7-38.9-.1-57.2.1-.2.2-.4.2-.5l.5-.2c18.3-7.7 38.9-7.6 57.2.1.8.3 1.6.7 2.3 1-.7.5-1.3.9-2 1.4-10.6 7.9-19.1 18.2-24.8 30.1l-.2.4v.1l-.4.2h-.1c-11.9 5.7-22.2 14.2-30.1 24.8-.5.7-1 1.3-1.4 2-.3-.7-.7-1.5-1.1-2.2m69.1-52c8 5.1 15 11.7 20.5 19.5.8 1.1 1.5 2.1 2.2 3.2-1.2-.4-2.4-.7-3.7-1-13-3.2-26.6-3.2-39.5 0-1.2.3-2.5.6-3.7 1 .7-1.1 1.4-2.2 2.2-3.2 5.5-7.8 12.5-14.4 20.5-19.5l.8-.5zm-63.2 61.7c5.1-8 11.7-15 19.5-20.5 1.1-.8 2.1-1.5 3.2-2.2-.4 1.2-.7 2.4-1 3.7-3.2 13-3.2 26.6 0 39.5.3 1.2.7 2.5 1 3.7-1.1-.7-2.2-1.4-3.2-2.2C70.5 137 63.9 130 58.8 122l-.5-.8zm61.7 63.2c-8-5.1-15-11.7-20.5-19.5-.8-1.1-1.5-2.1-2.2-3.2 1.2.4 2.5.7 3.7 1 13 3.2 26.6 3.2 39.6 0 1.2-.3 2.4-.6 3.6-1-.7 1.1-1.4 2.2-2.1 3.2-5.5 7.7-12.5 14.4-20.5 19.5-.3.2-.5.3-.8.5zm63.2-61.7c-5.1 8-11.7 15-19.5 20.5-1 .8-2.1 1.5-3.2 2.2.4-1.2.7-2.4 1-3.7q2.4-9.75 2.4-19.8c0-1.1 0-2.2-.1-3.5v-.5h-41.6v8.1h33.5c0 .5-.1 1-.1 1.5-.6 7.9-2.5 15.7-5.5 23l-.2.5-.5.2c-18.2 7.6-38.8 7.6-57 0l-.5-.2c-.1-.2-.2-.4-.2-.5a74.35 74.35 0 0 1 0-57.1l.2-.5.5-.2c18.3-7.6 38.8-7.6 57.1 0 .6.3 1.2.5 1.8.8l.1.1 1.6.7.4.2c.5.3 1 .5 1.5.8l.4.2c.4.2.9.5 1.3.7l.4.2 1.5.9.4.2c1.7 1 3.3 2.1 4.9 3.3 7.8 5.5 14.4 12.5 19.5 20.5l.5.8zM39.3 181.6C5.9 158-1.9 111.8 21.7 78.4c4.8-6.8 10.8-12.8 17.6-17.6 1-.8 2.1-1.5 3.2-2.2-.4 1.2-.7 2.4-1 3.7-4.8 19.6-2.3 40.3 7.2 58.2l.4.7c-.1.2-.3.4-.4.7-6.3 11.8-9.6 25-9.5 38.4q0 10.05 2.4 19.8c.3 1.2.7 2.4 1 3.7-1.1-.7-2.2-1.4-3.3-2.2m142.3 21.6c-23.7 33.3-69.9 41.2-103.2 17.5-6.8-4.8-12.7-10.7-17.5-17.5-.8-1.1-1.5-2.1-2.2-3.2 1.2.4 2.4.7 3.7 1 19.6 4.8 40.3 2.3 58.2-7.2l.7-.4.7.4c17.8 9.4 38.5 12 58.1 7.2 1.2-.3 2.4-.6 3.6-1-.7 1.1-1.4 2.2-2.1 3.2m21.6-21.6c-1.1.8-2.1 1.5-3.2 2.2.4-1.2.7-2.4 1-3.7 4.8-19.6 2.3-40.3-7.2-58.2-.1-.2-.2-.4-.4-.7l.4-.7c9.5-17.8 12-38.5 7.2-58.2-.3-1.2-.6-2.5-1-3.7 1.1.7 2.2 1.4 3.2 2.2 33.3 23.7 41.2 69.8 17.5 103.2-4.8 6.8-10.7 12.8-17.5 17.6" style="fill:url(#SVGID_1_)"/></g></svg>