<svg xmlns="http://www.w3.org/2000/svg" style="shape-rendering:geometricPrecision;text-rendering:geometricPrecision;image-rendering:optimizeQuality;fill-rule:evenodd;clip-rule:evenodd" viewBox="0 0 599 599" width="256" height="256" preserveAspectRatio="xMidYMid meet"><path fill="#301a5b" d="M275.5-.5h47q156.435 17.047 237.5 151 32.468 58.639 38.5 125v47q-17.047 156.435-151 237.5-58.639 32.468-125 38.5h-47Q119.066 581.453 38 447.5 5.532 388.861-.5 322.5v-47Q16.547 119.066 150.5 38q58.639-32.468 125-38.5" style="opacity:.999"/><path fill="#562676" d="M276.5 48.5q134.955-7.37 220.5 96 85.659 117.123 33 253Q475.598 515.844 348.5 545 202.356 569.257 105 458.5q-81.36-105.102-46-234Q107.058 87.941 247.5 53a440 440 0 0 1 29-4.5" style="opacity:1"/><path fill="#7a489e" d="M410.5 150.5q2.29-.11 3 2 .016 2.276 2 3.5-1.26 2.5 1.5.5.426 3.578 3 2 .926 1.423-.5 2.5a83.8 83.8 0 0 1 17 14q-5.528 1.371 1 2l3 3-2 1q1.578 1.678 3.5 1.5l3 6q1.865-1.254 3.5 1l-2 1q4.169 6.484 11 12.5-1.426 1.077-.5 2.5 1.98 3.231 5.5 4.5a4.46 4.46 0 0 0-2 1.5 32 32 0 0 0 4.5 5q.926 1.423-.5 2.5 4.368 1.268 3 5l3 2.5a3.65 3.65 0 0 1-1 1.5 209 209 0 0 0 5 10q-1.058 2.133-1 4 1.684 1.566 4 2 .841 2.349-2 4a15 15 0 0 0 3 3.5v5q.519 1.794 1.5 0 .739 1.573-.5 3a32.4 32.4 0 0 1 3 4.5q-3.587 1.036 0 3l-1 1a77 77 0 0 0 3 8q-.608 1.418-2 2l2 1q-3.882 4.152 1 6-3.346 3.295 0 7-1.857-.116-3 .5a566 566 0 0 0 3 4.5q-.551 3.655-2 8 1.611 1.108 2 3-1.724 2.595 0 5-3.686 2.269 0 4-1.099 7.635-4 15.5l1 2q-2.787 4.932-2 10a4.46 4.46 0 0 1-2 1.5 56 56 0 0 1 1 4.5q-2.746 13.743-9 26-2.794 2.2-4 6a6.8 6.8 0 0 1-3 1.5q1.13 6.48-5 10 .686.621 1 1.5a63 63 0 0 1-6 5.5q4 1 0 2l1 1q-2.305 1.665-2 4.5-41.082 58.314-111 74a19.5 19.5 0 0 0-7.5 1q-2.762-4.234-4.5.5-3.396-1.047-5.5 1.5l-1-2q-1 2-2 0-1 4-2 0-1.619 2.84-4 1l-4 2-1-2q-3.72 1.968-7.5 3h-1q-2.922-.947-5.5-3l-2 2q-3.276.912-6-2-.582 1.392-2 2-1.517-.588-1.5-2a50 50 0 0 1-5.5 1l-1-2a35 35 0 0 1-4.5 1 7.25 7.25 0 0 1-2.5-2l-1 2q-2.73-1.483-5.5-3-2.294.044-3.5 2-1.743-3.642-5-2-2.138-4.046-6-2-1.28-2.437-3-1-7.008-2.863-14-7-1.74 3.446-3-1-3.718 1.42-7 0-.623-2.686-3-4l-1 2q-1.5-3.5-5-5l-1 2q-1.863-3.061-5.5-3.5-1.764-5.623-7-4a41.3 41.3 0 0 0-10-7l2-1q-5.764-1.081-10-5l1-1a17.8 17.8 0 0 1-4.5-5.5q-7.985-4.447-14-13-1.61 1.17-3.5-.5l1-1q-2.567-2.153-3.5-5.5l-1 2a48 48 0 0 0-2.5-5 3.65 3.65 0 0 0-1.5 1q-.684-1.866 1.5-2.5-5.879-2.375-9-8l1-1q-3.093-3.102-3.5-7.5a4.46 4.46 0 0 1-1.5 2 87 87 0 0 0-6-11q1.174-2.744-2-4.5.883-2.81-2-5 1.701-1.524-1-2a3.65 3.65 0 0 0 1-1.5q-5.432-3.982-5.5-11l-1 2q-1.026-1.926.5-3.5-4.599-5.641-3-11.5a43.9 43.9 0 0 1-5-12q4.254.447 1.5-2l-1 1a29 29 0 0 0-1.5-4q-1.49-6.981 0-13.5-.608-1.418-2-2l1-7-2-1v-5a4.46 4.46 0 0 0 2-1.5l-2-1q.291-2.355 0-4.5l2-3q-4-2.5 0-5-3.081-2.523 1-5l-2-2q.744-2.994 3-5a15 15 0 0 1-3-3.5 8.9 8.9 0 0 0 3-4q-1.134-2.926-1-5.5 3.461-.531 1-3a20.2 20.2 0 0 0 3-4.5q-3.668-2.224 1-3.5l-2-1q4.46-2.258 1-5 2.972-.907 1-3a7.3 7.3 0 0 1 3-2q-1.614-2.589-.5-5.5l4.5-5.5q.795-1.884 0-4.5a4.46 4.46 0 0 1 2-1.5q.6-4.558 4-9a3.65 3.65 0 0 1-1-1.5q4.608-6.652 7.5-13l1 2q-.13-6.866 6.5-8.5l-2-2q2.837-4.338 7.5-6.5 3.427-9.112 11.5-14.5l-2-1a22.5 22.5 0 0 0 7-2l-2-2a34.8 34.8 0 0 0 7-7h4a3.65 3.65 0 0 1-1-1.5 10.8 10.8 0 0 0 2.5-3l1 1q2.26-1.507 3.5-4a3.65 3.65 0 0 1 1.5 1q2.551-6.155 8.5-5.5l-1-1a45.7 45.7 0 0 0 8.5-7.5q3.147.472 6 0a9.5 9.5 0 0 1 2.5-1.5q-2-1 0-2 1.423-.926 2.5.5.165-4.719 4-3 3.48-3.774 8-3a47 47 0 0 0 6.5-5l1 2q1.98-2.655 4.5-1 .097-3.575 2.5-2 1.948-.885 2.5-3l1 1q4.971-3.44 10-4 1.418.608 2 2 2.371-4.58 7-2 2.35-2.502 5-1a52 52 0 0 1 5.5-4 19 19 0 0 1 5 3q3.412-4.197 7-1-.017-1.412 1.5-2a68 68 0 0 1 9.5 3l1-2q2.193 1.457 4-1 2 2 4 0l10 2a32 32 0 0 1 7.5-1q1.036 3.587 3 0 1.394 7.387 5 1 4.295 4.005 8.5 2a566 566 0 0 1 4.5 3q3.748-.932 7 2 3.351-1.808 5 2l1-2a13.9 13.9 0 0 1 4 3q2.648 1.108 6 0 .663 3.268 3 2a86.4 86.4 0 0 1 13.5 7 3.65 3.65 0 0 0 1.5-1q3.735 5.946 10.5 8l2.5 3q1.574-1.526 3.5-.5a36.4 36.4 0 0 0 5.5 5.5q1.006-1.129 2.5-1" style="opacity:1"/><path fill="#744ea1" d="M312.5 124.5h1q.856 5.37 4 1 2.044 1.047 3.5 0a6.55 6.55 0 0 0 3 3l3-1a456 456 0 0 1 4 3q1.5-4 3 0 3.366-3.741 7 0 1.72-1.437 3 1 3.135-1.936 4 2 4.12 1.749 8.5 0-.197 1.314 1 2 1.848.967 4 .5 1.25 2.25 3.5 3.5l1-2a12.14 12.14 0 0 1 4.5 3.5 100 100 0 0 0 13 4.5q-.2 5.137 2 1v3a18.5 18.5 0 0 1 6 .5q-.664 2.277 2 3.5 1.025-.544 2-1a16.6 16.6 0 0 1 2.5 4l1-1q.539 4.567 2 1a6.8 6.8 0 0 0 1.5 3q3.84-1.402 2 2.5 4.9-.094 6.5 4.5a3.65 3.65 0 0 1 1.5-1 26.6 26.6 0 0 1 2 3.5q2.744.41 4.5 2.5.574-.834 1.5-1v4q6.325 3.986 12.5 11-.926 2.392 1 4l1-1a22.4 22.4 0 0 1 5 8q1.155 1.647 2.5 0 .534 2.535 3 3 .129 1.494-1 2.5 3.586 4.425 7 9-1.554 4.691 3 2.5-.712 4.709 2.5 9 1.035-1.857 1.5 0-1.044 4.758 3 8.5-1.579 2.574 2 3l-1 3q1.491 1.993 3 4a24102 24102 0 0 1 7 25q-2.435 2.814 1 4-1.818 1.66 1 1.5v1q-4.334 2.994 1 4.5l-2 2q3.094 5.652 0 11 3.153 2.6 1 6 2.883 2.19 2 5l-2 5q.526 4.457 1 9-3.384 3.727 0 7a4.46 4.46 0 0 0-2 1.5 76 76 0 0 1 0 7.5q-3.513 2.088 0 2.5-4.663 7.99-3 16-3.711 1.164-2 4.5-4.567.539-1 2l-2 2v4a7.3 7.3 0 0 1-3 2l2 1a997 997 0 0 1-8 14q-.23 3.915-4 7 1.701 1.524-1 2l1 1q-4.395 3.18-5.5 8.5-1.37-1.73-2.5.5.686.621 1 1.5a39.5 39.5 0 0 1-5 5.5l1 1q-3.634 2.356-4 6.5-2.388-1.653-2.5 2-1.756 2.09-4.5 2.5l1 1q-4.072 1.312-4 5.5-4.89 1.205-6.5 6l-1-1q-1.915 3.37-4.5 6a109 109 0 0 1-8 3.5l1 1a32 32 0 0 0-5 4.5q-3.88-.475-5.5 4-2.26-1.552-4.5.5 1.606 2.738-2 3.5a3.65 3.65 0 0 1-1.5-1q-2.98 5.621-9.5 5.5l1 1q-3.8.774-6.5 3.5-.677-3.644-2.5-.5l1 1q-2.418 1.08-4.5-.5-.165 4.719-4 3a7.3 7.3 0 0 0-2 3q-1-4-2 0l-1-1q-3.25 1.482-5.5 4a34 34 0 0 0-8.5 0 26.6 26.6 0 0 1-7.5 3q-1.197.686-1 2h-1q-1.008-1.15-2.5-2-1.5 2-3 0l-2 2q-5.187 1.485-11 0a57.4 57.4 0 0 1-11 3l-2-2q-3.533.947-6.5 0-3.261 3.422-6 0-1.197.686-1 2-5.48 3.305-11-1l-6-1.5q3.143-.834.5-1.5-5 2-10 0-3.227-.398-5-3-.625 1.884-2.5 2-1.494-.129-2.5 1-.417-1.374-1.5-2 1.737-2.175-1.5-3-1.676.247-3.5 1l-4-3a4.46 4.46 0 0 0-1.5 2l-3-4q-1 2-2 0l-1 2-5-5q-1.461 3.567-2-1l-1 2q-1.893-2.704-5-4l-1 1q-1.756-2.09-4.5-2.5 1.794-.981 0-1.5-1.533.533-2 2h-1q-.129-1.494 1-2.5a34.3 34.3 0 0 1-10.5-6.5q-2.76 2-1.5-.5a45.9 45.9 0 0 1-11-8.5 47 47 0 0 0-7-3 46.5 46.5 0 0 0-12.5-13q-1.67-1.89-.5-3.5l-4-1a34.4 34.4 0 0 0-7-7l2-1q-3.268-.663-2-3-11.145-9.303-16.5-24.5l-1 1q-.299-2.853-2.5-4.5 2-2.76-.5-1.5a26.8 26.8 0 0 0-3.5-7.5q1.268-2.337-2-3l1-1q-4.193-3.945-2-9-6.88-6.068-5-14a22.36 22.36 0 0 1-2.5-9.5q-1.006-1.129-2.5-1 1.144-1.152 3-1.5l-2-1a80 80 0 0 0 0-8 2.43 2.43 0 0 0-2-.5q.961-1.473 2-3a99 99 0 0 0-3-10.5q1.701-1.524-1-2l2-1q.368-8.868 0-18 4-3 0-6a7.3 7.3 0 0 1 3-2l-2-1q.699-1.948 0-4.5 2.915-.867 1-3 2.748-2.697 1-5.5.505-6.081 4-11-1.701-1.524 1-2 .552-3.05 0-6.5a171 171 0 0 1 4-9.5l-1-1q1.687-3.209 4-3.5a3.65 3.65 0 0 0-1-1.5q1.23-5.634 6-9-.699-1.949 0-4.5 3.126-2.365 6-5.5a3.65 3.65 0 0 1-1-1.5 6820 6820 0 0 0 10-17q.925.166 1.5 1 1.25-3.25 4.5-4.5-1.712-1.112 0-2.5 5.638-6.095 13-12.5l-1-1a6.98 6.98 0 0 0 3.5-2.5l1 1q1.965-4.46 6-7l1 1 4-6 1 1a36.1 36.1 0 0 0 7.5-7q4.599-.336 7.5-4l1 1a25.7 25.7 0 0 0 6-6q3.084 1.053 5.5-2a3.65 3.65 0 0 1 1.5 1q4.832-4.907 11-5 .907-2.972 3-1 1.518-3.547 4-4 2.097.826 4 1 1.864-3.5 5-2 1.558-1.116 1.5-3h1q-.197 1.314 1 2a174 174 0 0 0 3.5-3 4.46 4.46 0 0 0 1.5 2q-.017-1.412 1.5-2 2.554 1.8 4.5-1 2.397 1.477 5 .5-1.794-.981 0-1.5a4.46 4.46 0 0 1 1.5 2q3.46-3.162 7-4a6.55 6.55 0 0 1 3 3 4.93 4.93 0 0 0 .5-3q7.212 1.308 14 1a7.25 7.25 0 0 0 2.5-2q2.724 2.912 6 2l2-2q1.112 1.712 2.5 0a4.46 4.46 0 0 1 1.5 2q1.063-1.321 2.5-2" style="opacity:1"/><path fill="#774ba0" d="M251.5 130.5q.058 1.884-1.5 3-3.136-1.5-5 2-1.903-.174-4-1-2.482.453-4 4-2.093-1.972-3 1-6.168.093-11 5a3.65 3.65 0 0 0-1.5-1q-2.416 3.053-5.5 2a25.7 25.7 0 0 1-6 6l-1-1q-2.901 3.664-7.5 4 .481-2.322 3-2a4.93 4.93 0 0 1 .5-3l1 1q4.859-4.742 11.5-6a4.93 4.93 0 0 1 .5-3l1 1 10-6h5a29 29 0 0 0 5-4q.621.686 1.5 1 5.5-3.193 11-3" style="opacity:1"/><path fill="#6d55a4" d="M338.5 138.5h1a2.43 2.43 0 0 0 .5 2q3.073 1.273 7 0 2.342 4.309 6.5 2v1q5.02.983 9.5 4a3.94 3.94 0 0 0 2-1 32.7 32.7 0 0 1 6 6l1-1a972 972 0 0 1 24.5 14 47.3 47.3 0 0 1 5.5 6q2.76-2 1.5.5a446 446 0 0 0 15 11.5q3.288 3.498 8 5.5-1.006 1.48 0 3.5-.657-.098-1 .5a29.5 29.5 0 0 1 2.5 4.5q.677-3.644 2.5-.5-2 2.76.5 1.5 1.75 3.75 5.5 5.5a4.46 4.46 0 0 0-2 1.5 12.4 12.4 0 0 1 5 4.5q.502 1.746 0 4a72 72 0 0 1 5 3.5q-.166.925-1 1.5 2.042 2.376 2 5.5h3q-.41 2.926 2 4.5-1.84 2.381 1 4l-1 1q2.883 2.19 2 5 4.124 2.02 1 4a9.5 9.5 0 0 1 1.5 2.5q1.155-1.647 2.5 0-.626 1.083-2 1.5a31 31 0 0 1 4 4.5l-2 1a41 41 0 0 1 4 6q-1.27 2.341 1 4.5a3.65 3.65 0 0 0-1 1.5 566 566 0 0 0 4 19q-1.758 4.286 1 7.5-.803 6.909 0 13.5a9.3 9.3 0 0 0-2 2.5q1.386 1.725 0 3l2 1q.883 2.81-2 5 1.095 3.901 1 7.5a2.43 2.43 0 0 0-2 .5q.174 1.902 1 4a76 76 0 0 1-4 9.5q2.18 3.216-1 5.5 1.972 2.092-1 3a3.94 3.94 0 0 1 1 2q-1.785 8.379-7 15 .686.621 1 1.5a23.7 23.7 0 0 0-2.5 6q-4.769 9.629-9.5 18-1.94 2.013-2.5 5l-1-1-1 3-1-1q-.861 2.988-3.5 4.5 1.129 1.006 1 2.5-1.345-1.647-2.5 0-2.53 7.341-9.5 10.5l1 1a30 30 0 0 0-6 7l-4 2q1.73 1.37-.5 2.5l-1-1-5 5-1-1q-.41 2.744-2.5 4.5a126 126 0 0 0-8.5 6.5h-3q-2.23 1.13-.5 2.5a812 812 0 0 1-20 10.5q-2.738-1.606-3.5 2-2.76-2-1.5.5-8.324 2.101-15.5 6.5-1.524-1.701-2 1a99 99 0 0 1-11 0l-1 2q-3.922 1.216-8.5 0a7.25 7.25 0 0 0-2.5 2q-3-2-6 0l-2 2q-2.915-1.96-5.5 0a145 145 0 0 0-16.5 0l-4-2q-6.057-.435-12.5 1l-1-2a36.4 36.4 0 0 1-6.5 0q-1.036-3.587-3 0-.733-3.156-3.5-1-2.77-1.517-5.5-3-1.075.816-1.5 2h-1q-4.477-1.872-8.5-5-5.915 1.067-10-4-1 2-2 0a2.43 2.43 0 0 0-.5 2h-1a10.1 10.1 0 0 0-1.5-4q-2.623 1.198-4-2l-1 1a38 38 0 0 0-6.5-2.5q1.26-2.5-1.5-.5-3.584-4.677-9.5-6h-1v-3q-4.089.354-7-2.5l1-1-4-1q1.73-1.37-.5-2.5l-1 1q-2.666-3.435-6.5-5a2.43 2.43 0 0 0-.5-2q-9.394-8.393-19.5-18.5l1-1a4.93 4.93 0 0 0-3-.5q-2.322-.482-2-3-7.868-.742-5-7a18.7 18.7 0 0 0-3-5q.657.098 1-.5-3.057-1.854-3.5-5.5-2.718-3.424-5.5-8.5 1.701-1.524-1-2l1-1q-5.991-9.032-9-18.5 1.827-1.955-1-3a3.65 3.65 0 0 1 1-1.5q-1.917-3.364-4-8 1.2-2.682 1-5-3.462-2.382-2-6-3.602-3.74 0-7-2.865-3.417-4-6.5v-1q.016-2.276 2-3.5l-2-1q1.407-8.484 0-18.5a80 80 0 0 1 2-9.5q-2.435-2.814 1-4a3.94 3.94 0 0 1-1-2 32.6 32.6 0 0 1 3-10q-1.858-4.97 2-9a14 14 0 0 1-1-3.5q3.222.166 1-2a52.4 52.4 0 0 0 4-6.5v-4q3.461-.531 1-3 1.713-5.44 6-9-2-4.015 0-7.5h1q4.365-5.982 8.5-14a20.23 20.23 0 0 1 7.5-7.5q-1.72-3.127 2-4.5a6.85 6.85 0 0 0 1-4q4.5.5 4-4 3.74.554 2-2a6.55 6.55 0 0 0 3-3q12.124-10.758 26.5-21l1 1q.658-4.199 4-3 1.835-4.42 6-3a702 702 0 0 1 3.5-5h1q2.237-.602 5-.5l5.5-4.5 1 1a495 495 0 0 1 19.5-9q3.957.021 8 0 12.77-4.875 25.5-6 1 2 2 0l1 2q1.108-1.611 3-2 3.25-.871 6 2 1.108-1.611 3-2 3.11.392 6 0l2 2q4.332-.942 8.5-1a9.2 9.2 0 0 1 4.5 2q2.57-2.138 4 1 6.198.697 11.5 0" style="opacity:1"/><path fill="#685ba6" d="M294.5 142.5a42 42 0 0 0 6 2q4.419.721 8.5-2l1 2q6.068.306 12.5 0l2 2h7q6.033 4.182 12 2a1174 1174 0 0 1 15.5 8q1.72-1.437 3 1l1-2 5 5a3.65 3.65 0 0 1 1.5-1q3.512 1.146 6.5 5 2.337-1.268 3 2 2.177.354 4.5 0a19.6 19.6 0 0 1 4.5 6 3.65 3.65 0 0 1 1.5-1q3.612 3.297 8 5v3a20.7 20.7 0 0 1 5 1 4.93 4.93 0 0 0 .5 3q2.337-1.268 3 2l1-1q1.25 3.25 4.5 4.5l-1 1a39 39 0 0 1 4.5 4.5l1-1q.477 2.342 2.5 3.5-2.044 3.193 1 1.5 1.148 1.668 3 2 0 1 1 1-1.56 3.328 1.5 6 1.72-1.437 3 1l1 4q3.876 3.114 5 8l1-1 1 4a325 325 0 0 1 7.5 11q1.937 1.46 0 3 .702 2.45 3 3.5-4 1 0 2l-1 1a54 54 0 0 1 6 10q-1.015 4.473 0 8.5a63 63 0 0 1 3 8.5l-1 3 2 1-1 3q3.156.733 1 3.5a9.2 9.2 0 0 0 2 4.5q.435 7.579-1 15.5 1.011 2.543 2 5a100 100 0 0 1-3 5q-.522 8.113 1 14.5a316 316 0 0 0-4 11q1.437 1.72-1 3l1 1a4.46 4.46 0 0 0-2 1.5q.834 1.745 1 3-1.294 2.16 0 4a59.7 59.7 0 0 1-7 11q2.103 2.013-1 2.5.582 2.712 0 5a24.2 24.2 0 0 0-5 6.5q2 4.494-3 5v3a547 547 0 0 0-16.5 22l-1-1-2 4-1-1a8.4 8.4 0 0 0-.5 4q-2.406 1.18-2 4a8.4 8.4 0 0 0-4 .5q-3.116 4.311-8 6.5-1.329 1.237-1 3l-8 3q.22 3.663-2.5 2a105 105 0 0 1-15.5 11q-3.426-1.374-3.5 3l-1-2a121 121 0 0 1-11 7l-1-2a96 96 0 0 0-9 5l-1-1q-4.626.892-8 4-1.66-1.818-1.5 1a31 31 0 0 1-2-2 92 92 0 0 0-4.5 3q-3.587-1.388-8-1-3.336 2.331-7.5 3-11.777-.111-23.5 0-4.04-1.924-8-1-2.748-4.05-3.5 1a22.4 22.4 0 0 1-6.5-3q-4.346-.895-8 0a4.46 4.46 0 0 0-1.5-2 108 108 0 0 0-7.5 0q-1.056-3.34-3.5-1-2.891-2.62-6.5-5l-1 1q-11.538-5.067-22.5-9a210 210 0 0 1-7.5-4l-1 1-1-5q-6.069 4.24-6-4l-1 1a66.3 66.3 0 0 0-8-8l-1 2-1-4-1 1a199.9 199.9 0 0 1-30.5-36.5l1-1q-2.316-.435-4-2v-4q-2.214-4.902-6-9l1-1-5-3q-.264-2.49 2-5-3.157-2.003-2-5-3.103-.487-1-2.5a4.46 4.46 0 0 0-2-1.5 3.94 3.94 0 0 0 1-2 542 542 0 0 1-5-11l2-3a54.6 54.6 0 0 1-4-11 3.94 3.94 0 0 1 1-2 456 456 0 0 0-3-4q5.164-.332 1-3l1-11a18 18 0 0 0-3-7l3-2.5q.35-7.132-2-13.5.166-2.582 1.5-.5.892-2.098-.5-4 1.668-1.147 2-3a820 820 0 0 0 5-12.5q-2.27-3.681 2-5-2.277-4.387 2-7-1.373-.417-2-1.5 1.071-3.007 4.5-6l2-8 1 1q.933-3.347 3.5-5.5-.531-2.439 0-5.5a4.93 4.93 0 0 0 3-.5v-3q2-3.907 6-6l-1-1q3.175-2.597 4.5-6.5l1 2q3.247-5.004 4-11l1 1a11.53 11.53 0 0 1 3.5-4.5l-1-1 3-1q2-1 0-2 11.183-6.262 22-15.5a29.3 29.3 0 0 0 10.5-8q2.254.502 4 0 1.472-4.732 4-1l1-5 1 1q4.205-3.953 11-7 .621.686 1.5 1a19 19 0 0 1 5-3q6.492-.797 12.5 0a81 81 0 0 1 2.5-3q2.466-.32 4.5 1l2-2q2.866-.368 6 0 3-4 6 0l2-2q1.902.174 4 1a505 505 0 0 1 8.5-3" style="opacity:1"/><path fill="#7151a2" d="M253.5 140.5a495 495 0 0 0-19.5 9l-1-1-5.5 4.5q-2.763-.102-5 .5 1.801-3.222 2.5-6 1 2 2 0 .637 5.535 2.5.5l-1-1q2.654-1.529 5-.5 1.807-2.457 4-1a4.46 4.46 0 0 0 1.5-2q3.342 1.199 4-3a7.25 7.25 0 0 0 2.5 2q2.118-1.96 5-2.5-1.426-1.077-.5-2.5 1.139 2.344 3.5 3" style="opacity:1"/><path fill="#774ba0" d="M385.5 146.5q3.654-.274 6.5 2l1-1a19.2 19.2 0 0 1 2.5 5q-.975.456-2 1-2.664-1.223-2-3.5a18.5 18.5 0 0 0-6-.5z" style="opacity:1"/><path fill="#6b58a5" d="M343.5 148.5q3.687 1.684 6.5 0a13.9 13.9 0 0 1 4 3h4q5.053 2.996 10 6 6.488 1.981 11.5 4.5l-1 1q2.342.477 3.5 2.5 1.66-1.818 1.5 1a14.4 14.4 0 0 1-4.5 0q-.663-3.268-3-2-2.988-3.854-6.5-5a3.65 3.65 0 0 0-1.5 1l-5-5-1 2q-1.28-2.437-3-1a1174 1174 0 0 0-15.5-8" style="opacity:1"/><path fill="#7c449c" d="M410.5 150.5q-1.494-.129-2.5 1a36.4 36.4 0 0 1-5.5-5.5q-1.926-1.026-3.5.5l-2.5-3q-6.765-2.054-10.5-8a3.65 3.65 0 0 1-1.5 1 86.4 86.4 0 0 0-13.5-7q-2.337 1.268-3-2-3.352 1.108-6 0a13.9 13.9 0 0 0-4-3l-1 2q-1.649-3.808-5-2-3.252-2.932-7-2a566 566 0 0 0-4.5-3q-4.205 2.005-8.5-2-3.606 6.387-5-1-1.964 3.587-3 0a32 32 0 0 0-7.5 1l-10-2q-2 2-4 0-1.807 2.457-4 1l-1 2a68 68 0 0 0-9.5-3q-1.517.588-1.5 2-3.588-3.197-7 1a19 19 0 0 0-5-3 52 52 0 0 0-5.5 4q-2.65-1.502-5 1-4.629-2.58-7 2-.582-1.392-2-2-5.029.56-10 4l-1-1q-.552 2.115-2.5 3-2.403-1.575-2.5 2-2.52-1.655-4.5 1l-1-2a47 47 0 0 1-6.5 5q-4.52-.774-8 3-3.835-1.719-4 3-1.077-1.426-2.5-.5-2 1 0 2a9.5 9.5 0 0 0-2.5 1.5q-2.853.472-6 0a45.7 45.7 0 0 1-8.5 7.5l1 1q-5.949-.655-8.5 5.5a3.65 3.65 0 0 0-1.5-1q-1.24 2.493-3.5 4l-1-1a10.8 10.8 0 0 1-2.5 3 3.65 3.65 0 0 0 1 1.5h-4a34.8 34.8 0 0 1-7 7l2 2a22.5 22.5 0 0 1-7 2l2 1q-8.073 5.388-11.5 14.5-4.663 2.162-7.5 6.5l2 2q-6.63 1.634-6.5 8.5l-1-2q-2.892 6.348-7.5 13a3.65 3.65 0 0 0 1 1.5q-3.4 4.442-4 9a4.46 4.46 0 0 0-2 1.5q.795 2.616 0 4.5l-4.5 5.5q-1.114 2.911.5 5.5a7.3 7.3 0 0 0-3 2q1.972 2.093-1 3 3.46 2.742-1 5l2 1q-4.668 1.276-1 3.5a20.2 20.2 0 0 1-3 4.5q2.461 2.469-1 3-.134 2.574 1 5.5a8.9 8.9 0 0 1-3 4 15 15 0 0 0 3 3.5q-2.256 2.006-3 5l2 2q-4.081 2.477-1 5-4 2.5 0 5l-2 3q.291 2.145 0 4.5l2 1a4.46 4.46 0 0 1-2 1.5v5l2 1-1 7q1.392.582 2 2-1.49 6.519 0 13.5a29 29 0 0 1 1.5 4l1-1q2.754 2.447-1.5 2a43.9 43.9 0 0 0 5 12q-1.599 5.859 3 11.5-1.526 1.574-.5 3.5l1-2q.068 7.018 5.5 11a3.65 3.65 0 0 1-1 1.5q2.701.476 1 2 2.883 2.19 2 5 3.174 1.756 2 4.5a87 87 0 0 1 6 11 4.46 4.46 0 0 0 1.5-2q.407 4.398 3.5 7.5l-1 1q3.121 5.625 9 8-2.184.634-1.5 2.5a3.65 3.65 0 0 1 1.5-1 48 48 0 0 1 2.5 5l1-2q.933 3.347 3.5 5.5l-1 1q1.89 1.67 3.5.5 6.015 8.553 14 13a17.8 17.8 0 0 0 4.5 5.5l-1 1q4.236 3.919 10 5l-2 1a41.3 41.3 0 0 1 10 7q5.236-1.623 7 4 3.637.439 5.5 3.5l1-2q3.5 1.5 5 5l1-2q2.377 1.314 3 4 3.282 1.42 7 0 1.26 4.446 3 1 6.992 4.137 14 7 1.72-1.437 3 1 3.862-2.046 6 2 3.257-1.642 5 2 1.206-1.956 3.5-2 2.77 1.517 5.5 3l1-2a7.25 7.25 0 0 0 2.5 2 35 35 0 0 0 4.5-1l1 2a50 50 0 0 0 5.5-1q-.017 1.412 1.5 2 1.418-.608 2-2 2.724 2.912 6 2l2-2q2.578 2.053 5.5 3-105.798-1.507-162.5-90-42.181-71.785-19-152Q159.887 133.404 277.5 114q63.877-6.654 119 26 7.907 4.186 14 10.5" style="opacity:1"/><path fill="#6b58a5" d="M294.5 142.5a505 505 0 0 0-8.5 3q-2.098-.826-4-1l-2 2q-3-4-6 0-3.134-.368-6 0l-2 2q-2.034-1.32-4.5-1a2.43 2.43 0 0 1 .5-2q3.105-.606 6.5 0 4.59-.661 9.5-3 7.69-.618 16.5 0" style="opacity:1"/><path fill="#7152a2" d="M353.5 142.5q-4.158 2.309-6.5-2-3.927 1.273-7 0a2.43 2.43 0 0 1-.5-2q.425-1.184 1.5-2 2.532 2.317 6 3l1-3 3 5q2.191-2.074 2.5 1" style="opacity:1"/><path fill="#7151a2" d="M338.5 138.5q-5.302.697-11.5 0-1.43-3.138-4-1a9.2 9.2 0 0 0-4.5-2q-4.168.058-8.5 1l-2-2q-2.89.392-6 0-1.892.389-3 2-2.75-2.871-6-2-1.892.389-3 2l-1-2q-1 2-2 0-12.73 1.125-25.5 6-4.043.021-8 0-1.501-1.933.5-4 3.842.881 8 1 3-4 6 0 .908-2.972 3-1l2-2q1.077 1.426 2.5.5-1.794-.981 0-1.5 1.427 1.238 3 .5.645-1.38 1-2.5 2.224 3.668 3.5-1 .826 4.585 5 1 1.651 2.841 4 2 1.21-2.58 4.5-1 2.972.094 5-2l3 2h8a7.25 7.25 0 0 1 2.5 2l1-2q2.349-.841 4 2 8.238-2.404 16.5 2a4.46 4.46 0 0 0 1.5-2 8.4 8.4 0 0 1 .5 4" style="opacity:1"/><path fill="#774ba0" d="M385.5 146.5q-2.2 4.137-2-1a100 100 0 0 1-13-4.5 12.14 12.14 0 0 0-4.5-3.5l-1 2q-2.25-1.25-3.5-3.5-2.152.467-4-.5-1.197-.686-1-2 2.07-1.81 3.5 1l1-2q4.06 3.654 9.5 4.5l-1 1q2.401.41 4.5 1.5l1-1q3.744 3.548 8.5 4.5l-1 1q2.428.354 3 2.5M312.5 124.5q-1.437.679-2.5 2a4.46 4.46 0 0 0-1.5-2q-1.388 1.712-2.5 0l-2 2q-3.276.912-6-2a7.25 7.25 0 0 1-2.5 2q-6.788.308-14-1a4.93 4.93 0 0 1-.5 3 6.55 6.55 0 0 0-3-3q-3.54.838-7 4a4.46 4.46 0 0 0-1.5-2q-1.794.519 0 1.5-2.603.977-5-.5-1.946 2.8-4.5 1-1.517.588-1.5 2a4.46 4.46 0 0 1-1.5-2q-1.595 1.407-3.5 3-1.197-.686-1-2a90 90 0 0 1 3.5-3h6q2.332-2.469 5-1l1-2q3.166.116 6 1a18 18 0 0 1 3.5-2q15.954-.909 32.5 0 2.838-4.335 2.5 1M356.5 133.5q-4.38 1.749-8.5 0-.865-3.936-4-2-1.28-2.437-3-1-3.634-3.741-7 0-1.5-4-3 0a456 456 0 0 0-4-3l-3 1a6.55 6.55 0 0 1-3-3q-1.456 1.047-3.5 0-3.144 4.37-4-1a2.43 2.43 0 0 1 .5-2q1 2 2 0l1 2a35 35 0 0 1 4.5-1q5.143.61 9.5 3 1.651-2.841 4-2 2.357 1.056 5 4l3-1 8 4 1-2q2.988 1.242 4.5 4M420.5 170.5q-.926.166-1.5 1-1.756-2.09-4.5-2.5a26.6 26.6 0 0 0-2-3.5 3.65 3.65 0 0 0-1.5 1q-1.6-4.594-6.5-4.5 1.84-3.902-2-2.5a6.8 6.8 0 0 1-1.5-3q-1.461 3.567-2-1l-1 1a16.6 16.6 0 0 0-2.5-4q2.907-1.442 4.5 2l1-1q5.963 7.263 15.5 12.5l-1 1a29 29 0 0 1 5 3.5" style="opacity:1"/><path fill="#7b439b" d="M413.5 152.5q53.9 41.212 69.5 108 7.786 44.227-2 88-.417 1.374-1.5 2a56 56 0 0 0-1-4.5 4.46 4.46 0 0 0 2-1.5q-.787-5.068 2-10l-1-2q2.901-7.865 4-15.5-3.686-1.731 0-4-1.724-2.405 0-5-.389-1.892-2-3 1.449-4.345 2-8a566 566 0 0 1-3-4.5q1.143-.616 3-.5-3.346-3.705 0-7-4.882-1.848-1-6l-2-1q1.392-.582 2-2a77 77 0 0 1-3-8l1-1q-3.587-1.964 0-3a32.4 32.4 0 0 0-3-4.5q1.239-1.427.5-3-.981 1.794-1.5 0v-5a15 15 0 0 1-3-3.5q2.841-1.651 2-4-2.316-.434-4-2-.058-1.867 1-4a209 209 0 0 1-5-10 3.65 3.65 0 0 0 1-1.5l-3-2.5q1.368-3.732-3-5 1.426-1.077.5-2.5a32 32 0 0 1-4.5-5 4.46 4.46 0 0 1 2-1.5q-3.52-1.269-5.5-4.5-.926-1.423.5-2.5-6.831-6.016-11-12.5l2-1q-1.635-2.254-3.5-1l-3-6q-1.922.178-3.5-1.5l2-1-3-3q-6.528-.629-1-2a83.8 83.8 0 0 0-17-14q1.426-1.077.5-2.5-2.574 1.578-3-2-2.76 2-1.5-.5-1.984-1.224-2-3.5" style="opacity:1"/><path fill="#774ba0" d="M201.5 154.5a36.1 36.1 0 0 1-7.5 7l-1-1-4 6-1-1q-4.035 2.54-6 7l-1-1a6.98 6.98 0 0 1-3.5 2.5l1 1q-7.362 6.405-13 12.5-1.712 1.388 0 2.5-3.25 1.25-4.5 4.5-.575-.834-1.5-1a13.44 13.44 0 0 1 4-4.5l-2-1a21.3 21.3 0 0 0 5-4v-3a22.1 22.1 0 0 0 7-4l-1-1q13.298-12.896 27.5-22.5.575.834 1.5 1" style="opacity:1"/><path fill="#7151a2" d="M418.5 183.5a446 446 0 0 1-15-11.5q1.26-2.5-1.5-.5a47.3 47.3 0 0 0-5.5-6 972 972 0 0 0-24.5-14l-1 1a32.7 32.7 0 0 0-6-6 3.94 3.94 0 0 1-2 1q-4.48-3.017-9.5-4 1.083-.627 1.5-2 .531 3.461 3 1a43 43 0 0 0 5.5 3 3.65 3.65 0 0 0 1.5-1 37.4 37.4 0 0 1 7 5q3.621-1.392 7.5.5-2.012 4.893 1 1.5l7 4a4.46 4.46 0 0 1-2 1.5q1.9.464 3.5 1.5 2.335-1.058 3.5 2 4.127 1.5 8 3.5l-1 1q4.5 1 7.5 4.5.926 1.423-.5 2.5 1.423.926 2.5-.5l2 4q.476-2.701 2-1-.223 1.988.5 3.5 4.803 2.883 1-1a4.93 4.93 0 0 1 3-.5q-.042 3.124 2 5.5-.834.575-1 1.5" style="opacity:1"/><path fill="#774ba0" d="M420.5 170.5q5.003 4.955 11 9.5-1.73 1.37.5 2.5 1-2 2 0a49.5 49.5 0 0 0 9.5 12.5q-.834.575-1 1.5-1.345 1.647-2.5 0a22.4 22.4 0 0 0-5-8l-1 1q-1.926-1.608-1-4-6.175-7.014-12.5-11z" style="opacity:1"/><path fill="#7152a2" d="M221.5 153.5a702 702 0 0 0-3.5 5q-4.165-1.42-6 3-3.342-1.199-4 3l-1-1q-14.376 10.242-26.5 21-.449-1.89 0-3.5 3.261-5.055 9-5.5v-4q5.656-.104 8.5-5l1 1 5.5-5.5-1-1a4.93 4.93 0 0 1 3-.5 4.93 4.93 0 0 1 .5-3q3.184.366 5.5 0 1.992-4.374 6-3.5 1.305-6.421 3-.5" style="opacity:1"/><path fill="#645fa8" d="M303.5 149.5q1.46 1.936 3 0 2.397 3.71 4.5 0 1.991 3.253 5 1 3.54 1.442 7 3 3.081-.868 6-1a95 95 0 0 1 13 6 93 93 0 0 1 6.5 0 26.3 26.3 0 0 1 5.5 3q1.517-.588 1.5-2 3.18 1.642 4.5 5a3.65 3.65 0 0 1 1.5-1q5.577 1.04 10 4.5 2.73 1.469 3.5 4.5 1.016-3.283 3.5-1a26 26 0 0 0 5 5 3.65 3.65 0 0 0 1.5-1q.684 1.866-1.5 2.5 7.553 2.349 12.5 8.5l1-1a57 57 0 0 1 8.5 8.5q5.708 3.664 9.5 11.5 5.355 5.66 10.5 11.5l-1 1a27.6 27.6 0 0 0 5 7q1.386 1.725 0 3a4.93 4.93 0 0 0 3 .5q-.803 4.107 3 5.5-1.437 1.72 1 3l-1 1a7.3 7.3 0 0 1 3 2v5q4.396 1.288 3 5 3.3 6.53 4 13a11.5 11.5 0 0 1-1 2.5q1.543-.306 3 1.5l-2 1a13.24 13.24 0 0 0 3 5 50 50 0 0 1-1 5.5q3.867.265 0 3.5 3.587 1.964 0 3 5.753 2.704 1 4 5.037 2.753 1 6.5-.543 3.56 2 7-2.637 5.883-3 12.5 2.025 3.082-1 4.5 2.664 1.223 2 3.5-3.062 2.912-2 6.5-3.45 3.492 0 6.5-3.157 2.003-2 5-2.522 2.918-2 6l-2 1a47 47 0 0 1 0 7 7.3 7.3 0 0 1-3 2q2.175 4.603-3 5.5a7.25 7.25 0 0 0 2 2.5l-4 3q.883 2.81-2 5l1 1q-3.078 1.395-4.5 4.5 1.469 2.668-1 5l-1-2a6.98 6.98 0 0 1-2.5 3.5l1 1q-7.383 7.093-11.5 14.5-2.5-1.26-.5 1.5-2.392-.926-4 1 3.402 3.048-2 4-2 1 0 2a31 31 0 0 0-8 4l1 1a29 29 0 0 0-4 1.5q-1.817 1.16 0 2.5-4.098.597-5.5 4.5a3.65 3.65 0 0 0-1.5-1 26 26 0 0 0-5 5 3.65 3.65 0 0 1-1.5-1q-.663 3.268-3 2-1.565 1.684-2 4l-1-3a15.5 15.5 0 0 1-3 5q-1-4-2 0l-1-1-2 4-1-2q-1.173 4.032-4.5 3-3.822.38-6.5 4h-6q.669 4.748-4.5 2a18.3 18.3 0 0 0-6 4q-3.483-3.296-6.5 1-2.099-.002-4.5-1-1.946 2.8-4.5 1-4.347.85-9 3-2.614-2.59-5.5-2a4.46 4.46 0 0 0-1.5 2q-7.232-.173-15.5-1-3.212.17-5.5 2a7.3 7.3 0 0 0-2-3q-7.326-1.346-15 0l-1-2q-3.429 1.13-7.5 0-1.046-2.827-3-1-9.336-5.34-19-7.5l2-1a15.3 15.3 0 0 1-4.5-1.5l-1 1-1-3q-2.082 1.58-4.5.5-2.241-3.936-7.5-6.5-2.655 1.164-5.5-.5l1-1q-4.567-.539-1-2-2.853-.299-4.5-2.5-1.524 1.701-2-1l-1 1q.053-5.618-3-2-3.745-7.237-11.5-10.5l1-1a6.55 6.55 0 0 1-3-3q-5.71-.638-5.5-6.5-2.76 2-1.5-.5-2.21-1.064-2-3.5-4.03-1.746-7-5.5l1-1a14.8 14.8 0 0 1-4-3.5q1.032-3.327-3-4.5 1.526-1.574.5-3.5a7.3 7.3 0 0 1-2-3q-1.37 1.73-2.5-.5l1-1a29.5 29.5 0 0 1-2.5-4.5q-.981 1.794-1.5 0 1.392-1.902.5-4l-1 1q.08-4.036-3.5-5.5 2.34-5.019-3-9l1-1a113 113 0 0 1-4-9q.353-1.31 1-2.5a9.4 9.4 0 0 1-3-3q-.368-3.367 0-7a4.46 4.46 0 0 0-2-1.5 7.25 7.25 0 0 0 2-2.5q-2-1.5 0-3-2.752-1.391-1-3.5-1.956-1.206-2-3.5 1.133-4.653 1-9-3.831-4.247 0-8.5l-2-1a6.8 6.8 0 0 0 3-1.5l-2-1 2-3a4.46 4.46 0 0 0-2-1.5q2-2 0-4a4.46 4.46 0 0 0 2-1.5q2-5.5 0-11a111 111 0 0 1 5-12.5q-3.601-1.207.5-2.5a14.3 14.3 0 0 1 2.5-6.5l-2-1q2.319-2.16 2.5-5.5 1.077 1.426 2.5.5l-3-3q2.023-1.158 2.5-3.5 4.292.612.5-2.5 1.423-.926 2.5.5a22.5 22.5 0 0 0 2-7q4.959-4.326 6-11 .621.686 1.5 1 1.817-1.16 0-2.5l4-2-2-1q5.437-2.453 6.5-8.5a26.6 26.6 0 0 0 3.5-2q1.38-6.619 9-8.5l-1-1a16.64 16.64 0 0 1 6-5q-1.73-1.37.5-2.5l1 1q3.665-5.97 10.5-8a19.8 19.8 0 0 1 5.5-5l1 1q1.678-1.578 1.5-3.5 1-1 2 0-1.794.981 0 1.5.83-4.893 5-3a25.5 25.5 0 0 1 4-4.5q3.396 1.047 5.5-1.5l1 1a31.7 31.7 0 0 1 10.5-5.5q1.293-4.101 2.5-.5 4.311-.689 7-4 1.524 1.701 2-1 4.324.175 8.5 0a9.2 9.2 0 0 0 4.5-2q1 4 2 0 5.714.894 11 0l2-2q6.116.93 12.5 1 1.858-.663 3-2" style="opacity:1"/><path fill="#5f65aa" d="M415.5 215.5q.255 1.983-1 3.5 4.811 1.702 4 6 1.13 2.23 2.5.5a15.3 15.3 0 0 0 1.5 4.5l-1 1a21.3 21.3 0 0 1 5 4l-3 1q2.68 1.94 5 1.5-3.736 1.561 0 2.5-4.165 3.26.5 1.5.926 1.423-.5 2.5 3.575.097 2 2.5a32.4 32.4 0 0 1 3 4.5q-3.314 1.436.5 3.5 1.584 8.195 4.5 16.5a11.5 11.5 0 0 1-1 2.5l3 4q-2.283 2.484 1 3.5-3.792 1.974 0 3.5-1.108 5.39-1 11.5 2.901 3.67 0 8a4.46 4.46 0 0 1 2 1.5q-2.691 4.41 0 8-5.298 3.337 0 5.5l-3 1v4l-2 1q.94 2.607 1 5.5-.17 3.212-2 5.5l2 1q-3.198 1.377-2 4-3.138 1.43-1 4-2.256 2.236-2.5 5.5-.981-1.794-1.5 0-.947 2.967 0 6.5-1.673 5.01-6 8l1 1a15.8 15.8 0 0 0-3.5 5.5q-2.5-1.26-.5 1.5-4.349 4.443-6 10.5a26.6 26.6 0 0 1-3.5 2q-2.59 3.136-3.5 7h-3a8.4 8.4 0 0 1-.5 4q-2.046-1.137-3.5 1.5 1.17 1.61-.5 3.5a3.65 3.65 0 0 0-1.5-1q-2.028 1.527-3 4-3.507-2.266-2 1a10.5 10.5 0 0 0-3.5 5l-1-2a69 69 0 0 1-6.5 4.5q1.76 4.665-1.5.5-4.344 6.991-12.5 9.5l1 1q-2.845 1.664-5.5.5-.926 1.423.5 2.5-1.423.926-2.5-.5a9.5 9.5 0 0 1-1.5 2.5q-2.882.54-5 2.5a3.65 3.65 0 0 1-1.5-1q-3.403 2.653-7 2-4.839 2.031-10.5 5a7.25 7.25 0 0 1-2.5-2q-.5 4.5-5 5-3.5-4.5-5 1l-1-2q-1.304 4.894-4 1-2 4-4 0-.582 1.392-2 2-3.137-.119-6.5-1-1.794.519 0 1.5-1.988-.223-3.5.5l-1-2q-2.668 1.469-5-1a73 73 0 0 0-8 3l-1-2q-3.264-.107-6 1l-1-2q-4.7-.099-9.5 0a18 18 0 0 1-3.5-2q-.939 3.736-2.5 0a4.46 4.46 0 0 0-1.5 2q-2.011-4.03-5-5l-1 2a13.9 13.9 0 0 1-4-3q-1.964 3.587-3 0l-1 1q-1.864-3.5-5-2a345 345 0 0 1-8.5-5q-2.197 1.663-3-1.5l-7-3q1.794-.981 0-1.5-1.824.753-3.5 1-.926-1.423.5-2.5l-6-3q-1.895-3.579-5.5-5.5-1.207 3.601-2.5-.5l1-1-6-2a3.65 3.65 0 0 0 1-1.5q-7.564-5.109-14.5-13a40.2 40.2 0 0 1-5-8 6.98 6.98 0 0 0-3.5-2.5l1-3q-1.423-.926-2.5.5-1.488-4.746-5.5-7.5l2-1a11.3 11.3 0 0 1-1.5-3.5l-1 1-1-3-1 1q-1.665-2.845-.5-5.5-1.866-.684-2.5 1.5a29 29 0 0 0-1.5-4q2.131-4.69-3-8.5l1-1a19.9 19.9 0 0 1-4-3.5q2.047-5.343-2-9.5l1-1a4.93 4.93 0 0 0-3-.5q1.144-1.152 3-1.5a20.4 20.4 0 0 1-1.5-5.5q-1.476 3.442-2.5-1 1.121-4.36 1-8.5-4-1 0-2a13.24 13.24 0 0 0-3-5l2-1-2-6q3.894-2.696-1-4l3-1q-2-1.5 0-3-4-1 0-2-3.867-3.235 0-3.5v-5a4.46 4.46 0 0 0-2-1.5 9.5 9.5 0 0 0 2.5-1.5q.02-3.147-.5-5.5a18 18 0 0 1 3-7q-3.799-3.482 1-6-1.926-3.95 2-6.5a3.65 3.65 0 0 0-1-1.5l9-19a4.46 4.46 0 0 1-2-1.5q1.346-.253 3-1a19.95 19.95 0 0 0 2.5-8q2.046 1.137 3.5-1.5a3.65 3.65 0 0 1-1-1.5 32 32 0 0 0 4-2.5v-4q3.688-1.086 3-4 3.268-.663 2-3 2.75-.75 3.5-3.5 2.413.975 4.5-1.5-1.846-1.774 0-3.5a300 300 0 0 1 11-9.5l-1-1 8.5-6.5 1 2 4.5-4.5-1-1q3.266-1.803 7-1.5-.571-3.663 2-2a102 102 0 0 0 7.5-6q.637 5.535 2.5.5l-1-1q2.44.644 4.5.5 1.28-2.437 3-1a7.3 7.3 0 0 1 2-3h4q1.993-1.491 4-3 2.935 2.076 3-2l3 1 3-3 1 2q1-2 2 0a4.46 4.46 0 0 1 1.5-2q1.824.753 3.5 1 1-4 2 0 3.01-3.923 7.5-2-.017-1.412 1.5-2 1.725 1.386 3 0l1 2q2.094-3.04 5-1 2.103-3.71 4.5 0 2.484-2.283 3.5 1l1-2 5 1 1-2a7.25 7.25 0 0 0 2.5 2q6.238.237 11.5 0 .939 3.737 2.5 0-.308 5.647 2.5 0 3.59 2.8 7.5 2a18.3 18.3 0 0 1 6 4l2-2 2.5 3 3-1a15 15 0 0 1 3.5 3q2.733-1.393 4 2 1.902-1.392 4-.5l-1 1q4.65 5.484 8.5 2.5l1 3q2.145.291 4.5 0a10.3 10.3 0 0 1 1.5 4l1-2q.426 3.578 3 2 10.24 8.859 22 18 2.5-1.26.5 1.5 2.701.476 1 2h4l-1 1q1.88 4.306 5.5 8.5l1 1q-.888-5.41 2.5-.5a3.65 3.65 0 0 0-1 1.5q1.783 1.393 4 1" style="opacity:1"/><path fill="#5b68ab" d="M291.5 163.5q6.683 1.926 13.5 0 1.418.608 2 2l1-2q6.615 1.228 14 3l1-1q1.791 3.038 4.5 1 4.168 3.171 9 2a179 179 0 0 0 8.5 4q2.469-2.461 3 1l1-1q7.095 3.628 13 7l1-1q5.394 5.53 12 7 .663 3.268 3 2 7.671 7.398 14.5 11.5l-1 1q2.25 1.25 3.5 3.5l1-1a21.5 21.5 0 0 0 5 6q2.5-1.26.5 1.5 3.609 2.433 5.5 6.5 3.942 3.078 7 9 4.101 1.293.5 2.5a52.5 52.5 0 0 0 7 8l-1 1a16.7 16.7 0 0 0 4 4l-2 1 7 11-2 1q3.869 4.054 3 9 4.567.539 1 2 2 1.5 0 3 2.256 2.236 2.5 5.5a34 34 0 0 0 1.5 7.5q-1.198 2.623 2 4l-2 2q-.555 2.415 2 4.5-1.932 3.801 0 7.5l-2 2q2.784 6.751 0 13-.119 2.86 1 6-3.587 1.964 0 3a13.9 13.9 0 0 1-3 4q.932 3.747-2 7 4.182 3.56-1 4 4.182 3.56-1 4 1.222 4.817-3 8-.393 5.65-4 11l1 1q-13.864 23.434-34 43a4.93 4.93 0 0 1-3 .5 4.93 4.93 0 0 1-.5 3l-1-1q-4.532 3.231-8.5 7.5-9.258 4.018-18.5 10.5l-1-1a253 253 0 0 0-10 6q-3.134-.368-6 0a15 15 0 0 0-3.5 3q-3.716-1.25-6.5 2-1.964-3.587-3 0a47 47 0 0 1-7 0q-1.108 1.611-3 2-4.313.354-8-1-5.755 2.911-12 0l-1 2q-3.276.912-6-2-1 2-2 0-1.036 3.587-3 0-2.668 1.469-5-1l-2 2q-1.773-2.602-5-3-3.975.017-8 0-1.377-3.198-4-2-10.218-2.102-20-8l-1 1q-6.675-2.51-12.5-8.5-1.926-1.026-3.5.5-2.331-4.827-7.5-6.5l1-1a32.5 32.5 0 0 0-7-3l1-1a373 373 0 0 1-23.5-22.5q-.926-1.423.5-2.5-2.701-.476-1-2-1.314-2.377-4-3l1-1a9.5 9.5 0 0 1-2.5-1.5 26 26 0 0 0-4.5-7.5l1-1q-1.6-4.401-5-7.5a3.65 3.65 0 0 1 1-1.5q-3.82-1.974-2-5.5a60 60 0 0 1-5-7.5 69 69 0 0 0 0-9q-1.686-1.259-2-3.5-.986-2.958 0-5.5-3.873-6.164-4-13a18 18 0 0 0 2-3.5l-2-1a194 194 0 0 1 2-18.5q-1.01-2.626-1-5 3.422-2.777 0-5 2.159-1.486 3-4v-6q.889-4.548 4-8a3.94 3.94 0 0 1-1-2q5.001-13.793 12.5-27.5a9.5 9.5 0 0 1 2.5-1.5l-1-1a55.3 55.3 0 0 1 6-8l-1-1a4.93 4.93 0 0 1 3-.5q.143-4.158 4-6a3.65 3.65 0 0 0-1-1.5q4.66-5.087 11-8l-2-1a297 297 0 0 0 8-6l-1-1q4.839-1.308 7.5-5.5l1 1 3-4q4.298-.309 7.5-4.5 5.752-1.42 10-5.5a3.65 3.65 0 0 1 1.5 1 27.3 27.3 0 0 1 7-5q1.456 1.047 3.5 0a53 53 0 0 0 6.5-4q2.092 1.972 3-1 3.017 1.826 6-1 3.615.765 8 0a11.3 11.3 0 0 1 3.5-1.5q-1.794-.981 0-1.5a7.25 7.25 0 0 1 2.5 2q4.524-2.958 9.5-1 1.197-.686 1-2" style="opacity:1"/><path fill="#6162a9" d="M415.5 215.5q-2.217.393-4-1a3.65 3.65 0 0 1 1-1.5q-3.388-4.91-2.5.5l-1-1q-3.62-4.194-5.5-8.5l1-1h-4q1.701-1.524-1-2 2-2.76-.5-1.5-11.76-9.141-22-18-2.574 1.578-3-2l-1 2a10.3 10.3 0 0 0-1.5-4q-2.355.291-4.5 0l-1-3q-3.85 2.984-8.5-2.5l1-1q-2.098-.892-4 .5-1.267-3.393-4-2a15 15 0 0 0-3.5-3l-3 1-2.5-3-2 2a18.3 18.3 0 0 0-6-4q-3.91.8-7.5-2-2.808 5.647-2.5 0-1.561 3.737-2.5 0-5.262.237-11.5 0a7.25 7.25 0 0 1-2.5-2l-1 2-5-1-1 2q-1.016-3.283-3.5-1-2.397-3.71-4.5 0-2.906-2.04-5 1l-1-2q-1.275 1.386-3 0-1.517.588-1.5 2-4.49-1.923-7.5 2-1-4-2 0-1.676-.247-3.5-1a4.46 4.46 0 0 0-1.5 2q-1-2-2 0l-1-2-3 3-3-1q-.065 4.076-3 2a1984 1984 0 0 1-4 3h-4a7.3 7.3 0 0 0-2 3q-1.72-1.437-3 1-2.06.144-4.5-.5l1 1q-1.863 5.035-2.5-.5a102 102 0 0 1-7.5 6q-2.571-1.663-2 2-3.734-.303-7 1.5l1 1-4.5 4.5-1-2-8.5 6.5 1 1a300 300 0 0 0-11 9.5q-1.846 1.726 0 3.5-2.087 2.475-4.5 1.5-.75 2.75-3.5 3.5 1.268 2.337-2 3 .688 2.914-3 4v4a32 32 0 0 1-4 2.5 3.65 3.65 0 0 0 1 1.5q-1.454 2.637-3.5 1.5a19.95 19.95 0 0 1-2.5 8q-1.654.747-3 1a4.46 4.46 0 0 0 2 1.5l-9 19q.686.621 1 1.5-3.926 2.55-2 6.5-4.799 2.518-1 6a18 18 0 0 0-3 7q.52 2.353.5 5.5a9.5 9.5 0 0 1-2.5 1.5 4.46 4.46 0 0 1 2 1.5v5q-3.867.265 0 3.5-4 1 0 2-2 1.5 0 3l-3 1q4.894 1.304 1 4l2 6-2 1a13.24 13.24 0 0 1 3 5q-4 1 0 2 .121 4.14-1 8.5 1.024 4.442 2.5 1a20.4 20.4 0 0 0 1.5 5.5q-1.856.348-3 1.5-2.243.128-3-2-1.817-3.82 0-7.5-3.02-1.313 0-4-1.686-1.259-2-3.5a47.3 47.3 0 0 0 0-9.5l-2-2q2-3 0-6 3.737-.939 0-2.5a18 18 0 0 1 2-3.5q-3.633-3.168 0-6-1.972-2.092 1-3-3.058-3.578 0-6.5-1.161-4.557 0-8.5a108 108 0 0 1 4-9l-2-1a13.9 13.9 0 0 1 3-4q-1.701-1.524 1-2-.932-3.747 2-7l-1-1q13.963-32.288 38.5-55.5l1 1a65 65 0 0 1 6.5-7 244.7 244.7 0 0 1 36-21q2.955 1.414 4.5-2l1 1a63.8 63.8 0 0 0 14-7q2.51 2.264 5 2l2-2q2.3.666 4.5 1-.017-1.412 1.5-2 7.524-1.977 15 0a18 18 0 0 1 3.5-2l1 2q2.43-3.837 4.5 0 1.036-3.587 3 0 1.964-3.587 3 0 4.512-.541 10-1 1.016 3.283 3.5 1a113 113 0 0 0 7.5 3q4.305-1.383 9 0 .908 2.972 3 1 1.28 2.437 3 1l8 4q2.81-.883 5 2 1.61-1.17 3.5.5-1.26 2.5 1.5.5a279 279 0 0 1 22.5 13.5q13.883 10.091 24.5 21.5a64.4 64.4 0 0 0 5.5 8q1.393 1.783 1 4" style="opacity:1"/><path fill="#6b58a5" d="M402.5 180.5q4.647 1.074 8 4.5l-1 1q2.25 1.25 3.5 3.5l1-1q3.779 2.98 4.5 6.5a21.5 21.5 0 0 0 6 5 2.43 2.43 0 0 1-2 .5q-1.852-.332-3-2-3.044 1.693-1-1.5-2.023-1.158-2.5-3.5l-1 1a39 39 0 0 0-4.5-4.5l1-1q-3.25-1.25-4.5-4.5l-1 1q-.663-3.268-3-2a4.93 4.93 0 0 1-.5-3" style="opacity:1"/><path fill="#774ba0" d="M445.5 199.5q5.096 5.798 9 14-4.554 2.191-3-2.5-3.414-4.575-7-9 1.129-1.006 1-2.5M159.5 193.5a6820 6820 0 0 1-10 17 3.65 3.65 0 0 0 1 1.5q-2.874 3.135-6 5.5-2.178-3.411 2-4.5a3.65 3.65 0 0 1-1-1.5q3.227-3.408 4.5-8a11.53 11.53 0 0 1 4.5-3.5v-3a72 72 0 0 0 5-3.5" style="opacity:1"/><path fill="#7151a2" d="M177.5 187.5q1.74 2.554-2 2 .5 4.5-4 4a6.85 6.85 0 0 1-1 4q-3.72 1.373-2 4.5a20.23 20.23 0 0 0-7.5 7.5q-4.135 8.018-8.5 14-1.42-6.918 5-10.5v-5q3.375-.916 5-4-1.17-1.61.5-3.5.476 2.701 2 1v-4q5.485-3.237 8.5-9 1.842-2.514 4-1M444.5 217.5a72 72 0 0 0-5-3.5q.502-2.254 0-4a12.4 12.4 0 0 0-5-4.5 4.46 4.46 0 0 1 2-1.5q-3.75-1.75-5.5-5.5-2.5 1.26-.5-1.5-1.823-3.144-2.5.5a29.5 29.5 0 0 0-2.5-4.5q.343-.598 1-.5.926-.166 1.5-1a15.5 15.5 0 0 0 5.5 3.5l-2 2a870 870 0 0 0 12 12q-1.21 3.9 2 7-.834.575-1 1.5" style="opacity:1"/><path fill="#6b58a5" d="M423.5 201.5a18.5 18.5 0 0 1 3.5 2q4.9 10.274 12.5 18.5-1.437 1.72 1 3-1.268 2.337 2 3l-1 1q2.042 2.376 2 5.5a325 325 0 0 0-7.5-11l-1-4-1 1q-1.124-4.886-5-8l-1-4q-1.28-2.437-3-1-3.06-2.672-1.5-6" style="opacity:1"/><path fill="#774ba0" d="M144.5 217.5q-.699 2.551 0 4.5-4.77 3.366-6 9 .686.621 1 1.5-2.313.291-4 3.5l1 1a171 171 0 0 0-4 9.5q.552 3.45 0 6.5-2.701.476-1 2-3.495 4.919-4 11 1.748 2.803-1 5.5 1.915 2.133-1 3-1.08-3.351-1-6.5a801 801 0 0 0 4-13q-2.461-2.469 1-3-.826-2.097-1-4a7.3 7.3 0 0 1 3-2v-5a227 227 0 0 1 9-18 3.94 3.94 0 0 0-1-2q2.077-2.474 5-3.5M458.5 222.5q2.6.762 1 2.5l3 1-1 1a22.1 22.1 0 0 0 4 7l-1 1q3.813 6.504 5 13a46 46 0 0 0 4 8.5 34 34 0 0 0-1 6.5 193 193 0 0 1 3 4q-.028 2.282-1 4.5-2.818.16-1-1.5-3.435-1.186-1-4a24102 24102 0 0 0-7-25 1984 1984 0 0 1-3-4l1-3q-3.579-.426-2-3-4.044-3.742-3-8.5" style="opacity:1"/><path fill="#7152a3" d="M444.5 217.5h3q-.265 3.721 3 5.5l-1 1q2.972.907 1 3 5.164.332 1 3 1.864 5.035 2.5-.5 2.178 2.11-.5 4.5l4 1q-3.124 1.98 1 4-1.003 3.393-1 6.5-1.345-1.647-2.5 0a9.5 9.5 0 0 0-1.5-2.5q3.124-1.98-1-4 .883-2.81-2-5l1-1q-2.84-1.619-1-4-2.41-1.574-2-4.5h-3q.042-3.124-2-5.5.834-.575 1-1.5" style="opacity:1"/><path fill="#7152a2" d="M151.5 223.5q-2 3.485 0 7.5-4.287 3.56-6 9 2.461 2.469-1 3v4a52.4 52.4 0 0 1-4 6.5q2.222 2.166-1 2-.679-1.437-2-2.5a15 15 0 0 0 3-3.5q-2.555-2.085-2-4.5 4.37-2.182 6-7-3.567-1.461 1-2-1.701-1.524 1-2-1.526-1.574-.5-3.5l1 1q2.311-2.966 1.5-6a10.8 10.8 0 0 0 2.5-3q.598.343.5 1" style="opacity:1"/><path fill="#6b58a5" d="M151.5 245.5q.627 1.083 2 1.5-4.277 2.613-2 7-4.27 1.319-2 5a820 820 0 0 1-5 12.5 2.43 2.43 0 0 1-2-.5q.744-2.994 3-5 .119-2.86-1-6a4.46 4.46 0 0 1 2-1.5 26.3 26.3 0 0 1 3-8q-1.211-3.117 2-5" style="opacity:1"/><path fill="#7151a2" d="M457.5 245.5q2.655 2.034 4 5.5-1.426 1.077-.5 2.5 1.512.722 3.5.5a18 18 0 0 0-2 3.5q1.824 2.706 3 5-2.18 3.216 1 5.5-3.481 4.684 1 9l-1 1 2 8-2 1q4.446 1.26 1 3v5a6.55 6.55 0 0 0 3 3q-4.567.539-1 2-3.946 2.537 1 3.5-1.654.747-3 1 .601 2.901 3 4.5a456 456 0 0 0-3 4q3.587 1.036 0 3l2 1q-6 2 0 4a16.6 16.6 0 0 0-4 2.5q.095-3.599-1-7.5 2.883-2.19 2-5l-2-1q1.386-1.275 0-3a9.3 9.3 0 0 1 2-2.5q-.803-6.591 0-13.5-2.758-3.214-1-7.5a566 566 0 0 1-4-19 3.65 3.65 0 0 1 1-1.5q-2.27-2.159-1-4.5a41 41 0 0 0-4-6l2-1a31 31 0 0 0-4-4.5q1.374-.417 2-1.5" style="opacity:1"/><path fill="#774ba0" d="M125.5 274.5q.699 2.552 0 4.5l2 1a7.3 7.3 0 0 0-3 2q4 3 0 6 .368 9.132 0 18l-2 1q2.701.476 1 2a99 99 0 0 1 3 10.5 186 186 0 0 0-2 3q-1.184-.425-2-1.5-1.383-5.306 0-11-.389-1.892-2-3a7.25 7.25 0 0 0 2-2.5q-.901-3.337-1-6.5l2-1q-3.831-3.597 0-7-.248-2.755-2-6l2-2-1-5a11.3 11.3 0 0 0 1.5-3.5q.575.834 1.5 1" style="opacity:1"/><path fill="#7151a2" d="M139.5 255.5a14 14 0 0 0 1 3.5q-3.858 4.03-2 9a32.6 32.6 0 0 0-3 10 3.94 3.94 0 0 0 1 2q-3.435 1.186-1 4a80 80 0 0 0-2 9.5q1.407 10.016 0 18.5l2 1q-1.984 1.224-2 3.5-5.224-1.953-1-5.5-1.523-.779-2-2.5 1.701-3.057 0-6l2-1a4.46 4.46 0 0 0-2-1.5q2-1.5 0-3 4.298-3.604-.5-2.5-1-2 0-4 .677 3.644 2.5.5.841-2.349-2-4 2.038-2.748 1-5.5a9.4 9.4 0 0 1 3-3l-3-2.5q4.527-3.346 2-8.5l3-2.5q-.03-2.572-2-5.5.656-1.509 2 0a174 174 0 0 1 3-4" style="opacity:1"/><path fill="#774ba0" d="M474.5 272.5q2.6.762 1 2.5 2.323 7.52 1 14.5a27 27 0 0 1 2 4.5 62.1 62.1 0 0 0 0 22 7.25 7.25 0 0 0-2 2.5 35 35 0 0 0 1 4.5q-3.686 2.269 0 4a99 99 0 0 0-4 6.5q-3.513-.412 0-2.5a76 76 0 0 0 0-7.5 4.46 4.46 0 0 1 2-1.5q-3.384-3.273 0-7-.474-4.543-1-9l2-5q.883-2.81-2-5 2.153-3.4-1-6 3.094-5.348 0-11l2-2q-5.334-1.506-1-4.5" style="opacity:1"/><path fill="#6162a9" d="M415.5 215.5q3.717 1.043 6 4.5-2 2.76.5 1.5 3.339 2.736 4.5 5.5.502 1.746 0 4 3.357 2.862 4 6 4.076.065 2 3 5.933 11.598 9 23.5l-2 1a4.46 4.46 0 0 0 2 1.5q-1.936 3.135 2 4-1.955 7.735 2 14.5.125 3.355-1 7l2 9q-1.942 4.299 0 8.5-4.567.539-1 2-.783 3.721 0 7a7.25 7.25 0 0 0-2 2.5q1.377 6.52-2 13.5 1.701 1.524-1 2l1 1q-7.057 23.32-18.5 43.5-1.517 1.255-3.5 1a41 41 0 0 1-3.5 8q-4.959 6.958-12 12a4.93 4.93 0 0 0-.5 3q-5.115-.174-4 5-7.64 2.607-13 9-2.318 1.428-5 1-.075 5.098-4.5 4a16.7 16.7 0 0 1-4 4l-1-2q-.77 3.032-3.5 4.5-7.223 1.595-12.5 6.5l-1-1a71.5 71.5 0 0 0-12 5q-2.349-.841-4 2l-5-1q-4.381 4.25-9 2-.425 4.864-2.5 1-1.83 1.817-3.5 0l-1 2q-5.163-1.653-11.5 0-2.73-.224-4.5-2-5.202 4.446-11 1-2.574-.134-5.5 1-6.196-.978-11.5-4-4.57 1.117-9 1a7.3 7.3 0 0 1-2-3q-8.764.654-16-5-11.172-.418-19-9l-1 1q-2.16-2.319-5.5-2.5 2.044-3.194-1-1.5l-15-11a263 263 0 0 0-17-16.5l1-1q-4.428-6.564-9.5-10.5l-1-4q-1-2-2 0-1.922-7.173-6-11a174 174 0 0 0-7.5-16 3.65 3.65 0 0 1 1-1.5q-2.883-2.19-2-5a6.55 6.55 0 0 0-3-3 46 46 0 0 0 1-7.5 4.93 4.93 0 0 1 3 .5l-1 1q4.047 4.157 2 9.5a19.9 19.9 0 0 0 4 3.5l-1 1q5.131 3.81 3 8.5a29 29 0 0 1 1.5 4q.634-2.184 2.5-1.5-1.165 2.655.5 5.5l1-1 1 3 1-1a11.3 11.3 0 0 0 1.5 3.5l-2 1q4.012 2.754 5.5 7.5 1.077-1.426 2.5-.5l-1 3a6.98 6.98 0 0 1 3.5 2.5 40.2 40.2 0 0 0 5 8q6.936 7.891 14.5 13a3.65 3.65 0 0 1-1 1.5l6 2-1 1q1.293 4.101 2.5.5 3.605 1.921 5.5 5.5l6 3q-1.426 1.077-.5 2.5 1.676-.247 3.5-1 1.794.519 0 1.5l7 3q.803 3.163 3 1.5a345 345 0 0 0 8.5 5q3.136-1.5 5 2l1-1q1.036 3.587 3 0a13.9 13.9 0 0 0 4 3l1-2q2.989.97 5 5a4.46 4.46 0 0 1 1.5-2q1.561 3.736 2.5 0a18 18 0 0 0 3.5 2q4.8-.099 9.5 0l1 2q2.736-1.107 6-1l1 2a73 73 0 0 1 8-3q2.332 2.469 5 1l1 2q1.512-.723 3.5-.5-1.794-.981 0-1.5 3.363.881 6.5 1 1.418-.608 2-2 2 4 4 0 2.696 3.894 4-1l1 2q1.5-5.5 5-1 4.5-.5 5-5a7.25 7.25 0 0 0 2.5 2q5.661-2.969 10.5-5 3.597.653 7-2 .621.686 1.5 1 2.118-1.96 5-2.5a9.5 9.5 0 0 0 1.5-2.5q1.077 1.426 2.5.5-1.426-1.077-.5-2.5 2.655 1.164 5.5-.5l-1-1q8.156-2.509 12.5-9.5 3.26 4.165 1.5-.5a69 69 0 0 0 6.5-4.5l1 2a10.5 10.5 0 0 1 3.5-5q-1.507-3.266 2-1 .972-2.473 3-4a3.65 3.65 0 0 1 1.5 1q1.67-1.89.5-3.5 1.454-2.637 3.5-1.5a8.4 8.4 0 0 0 .5-4h3q.91-3.864 3.5-7a26.6 26.6 0 0 0 3.5-2q1.651-6.057 6-10.5-2-2.76.5-1.5a15.8 15.8 0 0 1 3.5-5.5l-1-1q4.327-2.99 6-8-.947-3.533 0-6.5.519-1.794 1.5 0 .244-3.264 2.5-5.5-2.138-2.57 1-4-1.198-2.623 2-4l-2-1q1.83-2.288 2-5.5a17.1 17.1 0 0 0-1-5.5l2-1v-4l3-1q-5.298-2.163 0-5.5-2.691-3.59 0-8a4.46 4.46 0 0 0-2-1.5q2.901-4.33 0-8-.108-6.11 1-11.5-3.792-1.526 0-3.5-3.283-1.016-1-3.5l-3-4q.647-1.19 1-2.5-2.916-8.305-4.5-16.5-3.814-2.064-.5-3.5a32.4 32.4 0 0 0-3-4.5q1.575-2.403-2-2.5 1.426-1.077.5-2.5-4.665 1.76-.5-1.5-3.736-.939 0-2.5-2.32.44-5-1.5l3-1a21.3 21.3 0 0 0-5-4l1-1a15.3 15.3 0 0 1-1.5-4.5q-1.37 1.73-2.5-.5.811-4.298-4-6 1.255-1.517 1-3.5" style="opacity:1"/><path fill="#586bad" d="M303.5 168.5q2.146.572 2.5 3l2-2q4.333 1.839 10 3 3.243-3.22 7 0l1-1a10.94 10.94 0 0 0 4.5 3q4.032-.975 7.5 0 1.472 4.732 4 1a980 980 0 0 1 11 7 3.65 3.65 0 0 1 1.5-1q2.58 2.15 6 2.5 5.077 3.615 10 7.5 2.355-.291 4.5 0 .926 1.423-.5 2.5 4.036-.08 5.5 3.5l1-2q1.887 7.351 9.5 9 4.048 5.535 8 11a3.65 3.65 0 0 0 1.5-1q3.653 8.616 10.5 14.5l-2 1 4 2q-.984 3.495 3 5l-1 1a21.5 21.5 0 0 0 5 6 3.65 3.65 0 0 0-1 1.5 24.8 24.8 0 0 0 5 8 4.46 4.46 0 0 1-2 1.5q4.488 1.66 2 5a27.6 27.6 0 0 1 3.5 10.5q3.814 2.064.5 3.5 2 1 0 2a75 75 0 0 1 4 8q-3.217 2.727 0 4.5-1.13 4.071 0 7.5l-2 1a6.8 6.8 0 0 1 3 1.5q-1.143.616-3 .5 2 2.5 0 5a4.93 4.93 0 0 0 3 .5q-.489 3.241-3 5.5 3.601 3.26 0 7l2 1-4 7 2 3a47 47 0 0 1-4 6l2 1q-4.894 1.304-1 4a7.3 7.3 0 0 1-3 2l1 3q-5.352 2.706-1 7l-4 2q-.869 2.138 0 5-1.824 2.61-5 3 4 1 0 2 3.648 1.63-1 1.5-2.236 3.61-2.5 8-1-2-2 0a14.4 14.4 0 0 1-2.5 5.5l1 1q-2.823 3.162-7 4 5.528 1.371-1 2 .686.621 1 1.5-1.907-.562-3.5 2-.926 1.423.5 2.5a11.3 11.3 0 0 0-3.5 1.5l-1-1-2 4-5 3a10.3 10.3 0 0 1-1.5 4 4.46 4.46 0 0 1-1.5-2 10.3 10.3 0 0 1-1.5 4q-3.044-1.694-1 1.5a48 48 0 0 1-6.5 4.5q-1.077-1.426-2.5-.5a20.5 20.5 0 0 1-2.5 4.5q-2.528-3.732-4 1-2.046-1.137-3.5 1.5l1 1q-2.418 1.08-4.5-.5-5.829 2.406-10 7-1.517-1.255-3.5-1 .13 4.648-1.5 1-2.114 3.576-5 4-2.542.414-5.5-1-1.721.476-2.5 2-4.718-2.07-8 2-3.166-.116-6-1a15 15 0 0 0-3.5 3q-1.48-5.812-3.5 0l-1-3q-1.795 3.438-5 1-1.418.608-2 2a85 85 0 0 1-7.5-3l-3 2q-3.092-.064-6.5-2-1.461 3.567-2-1-3.4 2.153-6-1l-1 2q-1.67-1.817-3.5 0-1.791-4.678-4.5-1a28.8 28.8 0 0 1-6-4l-3 1-1-2h-4q-1.518-3.546-4-4a7.25 7.25 0 0 1-2.5 2 18.7 18.7 0 0 0-6.5-6q-1.676.247-3.5 1-1.794-.519 0-1.5l-4-1q1.73-1.37-.5-2.5l-1 1q-1.885-3.369-5.5-4 .18-4.058-3-2a19.9 19.9 0 0 1-3.5-4l-1 1q-1.402-3.903-5.5-4.5 3.644-.677.5-2.5l-3 1a4805 4805 0 0 0-14-17 24.8 24.8 0 0 0-5-8l-1 1q-.76-2.244 1.5-3.5-5.26-3.537-8-7.5 1.97-3.027-2-3.5l1-1q-1.491-1.993-3-4a3.94 3.94 0 0 1 1-2 60 60 0 0 0-5-7.5 41 41 0 0 0 0-5.5l-2-1v-5q-2.701-.476-1-2a40 40 0 0 1-2-6q4.334-2.838-1-2.5-.03-2.464 2-4a46 46 0 0 0-3-7q.918-2.243 0-5 3.96-3.85-1-5.5l2-3q-.52-3.474-1-7 .901-2.407 3-4-1.863-5.035-2.5.5-.99-4.55 1.5-8.5l-2-1a8.9 8.9 0 0 1 4-3l-2-2q1.068-3.04 3-3-1.035-2.882-1-5.5 2.752-1.391 1-3.5a48.6 48.6 0 0 0 4-7 3.65 3.65 0 0 1-1-1.5q2.15-2.58 2.5-6 2.76 2 1.5-.5l2-1q-.502-2.254 0-4 3.377-4.084 4.5-9.5.621.686 1.5 1a32 32 0 0 1 2.5-4q.738-1.574-.5-3a6.8 6.8 0 0 1 3-1.5q-1.17-1.61.5-3.5l1 2q9.813-15.813 25.5-25.5-.975-2.413 1.5-4.5l1 1a18.84 18.84 0 0 0 6.5-5.5 22.5 22.5 0 0 0 7-2l-1-1a6.98 6.98 0 0 0 3.5-2.5q2.623 1.198 4-2 2.014 1.07 4-1l1 2a10.9 10.9 0 0 1 4.5-5 26 26 0 0 1 5.5 0q4.362-4.56 9-3 4.542-3.493 9.5-4 4.407 1.5 9.5 1 2.223-3.422 5 0a4.46 4.46 0 0 1 1.5-2 66.4 66.4 0 0 1 10.5 1 2.43 2.43 0 0 0 .5-2" style="opacity:1"/><path fill="#556eae" d="M288.5 172.5q4.526 3.303 9.5 0 2.306.62 5 0l3 2q8.443-2.013 15.5 1 2.767-2.156 3.5 1 4.092-.73 8 2l1-1q1.565 1.684 2 4 4.283.856 9 0 2.514.841 4 3l1-2a591 591 0 0 1 21 13l1-1a213 213 0 0 1 22.5 20q1.817 1.16 0 2.5a4.93 4.93 0 0 0 3 .5q-.803 4.107 3 5.5-1.426 1.077-.5 2.5a13.24 13.24 0 0 1 5 3l1-1a131 131 0 0 0 10.5 19 3.65 3.65 0 0 1-1 1.5l3 5a3.94 3.94 0 0 0-1 2 7031 7031 0 0 0 6 9 3.94 3.94 0 0 0-1 2 56 56 0 0 0 4 12.5q-1.008 5.506 1 11a18 18 0 0 1-2 3.5q1.956 1.206 2 3.5-1.385 2.444-1 4.5 4 1 0 2 1.07 2.014-1 4v4a7.25 7.25 0 0 1 2 2.5q-.183 7.874-4 15.5a3.94 3.94 0 0 0 1 2 47.6 47.6 0 0 1-4 9 3.94 3.94 0 0 1 1 2 36 36 0 0 0-3 7.5 4.93 4.93 0 0 0-3 .5q.317 3.816 0 8-8.385 8.66-13.5 21.5l-1-2q-3.675 7.666-10.5 12.5l1 1a76 76 0 0 1-17 12q-3.886 6.822-13 9-7.604 5.454-17.5 9.5l-1-1-1 3q-3.5-2-7 0l-1-2q-4.362 4.56-9 3a27.2 27.2 0 0 1-9 4q-3.813-1.233-8-1-2.566-.091-4 2-1.5-2-3 0-2.792-2.772-6.5 0-1.807-2.457-4-1-4.41-2.691-8 0a26.8 26.8 0 0 1-6.5-3l-2 2a53 53 0 0 0-7.5-4l-2 1a145 145 0 0 0-6.5-4l-3 1q-2.263-.635-4.5-3.5-1.926-1.026-3.5.5-7.592-7.074-17.5-10.5a9.5 9.5 0 0 1-1.5-2.5q-1.61 1.17-3.5-.5a185 185 0 0 1-11-10 4.93 4.93 0 0 0-3-.5q-.383-3.775-2.5-7l-1 1-7-8q-.738-1.573.5-3a77 77 0 0 0-8-5.5q1.426-1.077.5-2.5a24.3 24.3 0 0 1-3.5-3.5q-2.47-8.448-8-15a3.65 3.65 0 0 0 1-1.5q-3.888-6.417-4.5-14-.861-2.988-3.5-4.5a4.46 4.46 0 0 0 2-1.5 44 44 0 0 0-3-5.5q-.298-6.447 0-12-3.71-6.137 0-12.5a67 67 0 0 0-2-5.5 4.46 4.46 0 0 0 2-1.5q-1.764-5.229 1-11.5-1.07-2.014 1-4-.826-2.098-1-4 4.578-7.833 5-16 4.013-7.529 8-15l-1-1q3.74-2.983 5.5-7.5 1.756-2.09 4.5-2.5l-1-1a120 120 0 0 0 6-11.5 254 254 0 0 0 24-22.5 57.6 57.6 0 0 1 8-3 254 254 0 0 1 15.5-9.5l1 1q4.596-5.251 11-4a9.3 9.3 0 0 0 2.5-2q3.307 1.311 5.5-2 3.163 4.17 5.5-.5 7.41-.852 14-3.5" style="opacity:1"/><path fill="#5272af" d="M292.5 177.5q1.438.679 2.5 2 3.004-1.925 7-2 1.108 1.611 3 2 2.477-.54 5-1l2 2q6.729-.544 13 0 1.418.608 2 2l1-1q4.588 1.066 9.5 4 2.193-1.457 4 1 2.355-.291 4.5 0 1.595 1.407 3.5 3a3.65 3.65 0 0 0 1.5-1l5 4 1-1q.724 1.422.5 3 2.835-.305 4.5 2l1-1q9.894 8.227 20.5 14.5l-1 1 3 1q2 1 0 2a7.3 7.3 0 0 0 3 2l-2 1q8.456 4.698 12 13.5 3.663-.22 2 2.5a19.9 19.9 0 0 0 4 3.5q.933 5.932 7 9.5l-2 3q1.423.926 2.5-.5 1.743 5.135 2 10 .868-5.829 2.5 0a4.46 4.46 0 0 1-2 1.5q4.716 5.837 3 12l4 6q.883 2.81-2 5l2 1q.01 2.374-1 5 3.237 1.967 1 5l2 6-2 2q-.084 6.365 1 12-2.794 3.19-1 6.5-.885 1.948-3 2.5a11.3 11.3 0 0 1 2 4 26.4 26.4 0 0 0-3 6.5 3.65 3.65 0 0 0 1 1.5q-3.5 1.864-2 5-.883 3.771-4 6-6.539 24.14-29 43 2 1.5 0 3a55 55 0 0 0-7 3l2 1a90 90 0 0 0-16.5 11.5 3.65 3.65 0 0 0-1.5-1 795 795 0 0 0-18 10q-2.346-1.029-5 .5 1.817 1.34 0 2.5l-2-2q-5.1 1.124-10.5 4a63 63 0 0 1-9 0q-2.566-.091-4 2-4.522-2.415-9.5 1a67 67 0 0 1-5.5-2q-2.752 1.14-6 1-3.446-2.881-6 0-4.381-4.25-9-2a456 456 0 0 1-4-3l-1 2a13.24 13.24 0 0 0-5-3l-1 2q-3.087-.913-2.5-3a3.65 3.65 0 0 0-1.5 1q-3.253-2.932-7-2a7.3 7.3 0 0 1-2-3q-3.284 1.626-5-2-1.077 1.426-2.5.5-2-1 0-2-1.423-.926-2.5.5-2.153-2.567-5.5-3.5l1-1q-5.802-1.512-10-6a41 41 0 0 0-8-3.5 4.93 4.93 0 0 0-.5-3 14.5 14.5 0 0 1-4-5q-2.72 1.663-2.5-2-3.502-1.37-6.5-4l-1-4q-1.37 1.73-2.5-.5l1-1a30 30 0 0 1-6-7l1-1a17.6 17.6 0 0 1-5-5l1-1q-3.357-3.156-3-7-1.5-3.5-5-5 1.972-2.092-1-3 .368-3.134 0-6a6.55 6.55 0 0 0-3-3q4-1 0-2 2.27-3.681-2-5a47 47 0 0 1 0-7q-3.587-1.964 0-3a11.3 11.3 0 0 1-1.5-3.5q-.981 1.794-1.5 0a4.46 4.46 0 0 1 2-1.5q-1.817-1.67 0-3.5l-2-2q1.066-5.526 1-11.5l-2-2a73 73 0 0 1 3-8q-1.031-3.348-1-6.5 3.737-1.561 0-2.5 1.712-1.112 0-2.5 5.547-4.185 2-9.5a16.7 16.7 0 0 1 4-4 4.46 4.46 0 0 1-2-1.5q1.27-2.018 3.5-3a15.3 15.3 0 0 1 1.5-4.5q-1.437-1.72 1-3-.174-1.903-1-4a337 337 0 0 0 7-7q-1.526-1.574-.5-3.5 2.043-2.137 4.5-2.5-1.198-2.623 2-4a3.65 3.65 0 0 1-1-1.5 26 26 0 0 1 5-3.5l-2-1q5.037-4.046 10-8l-2-1q2.457-2.698 5.5-3.5.926-1.423-.5-2.5h4l-1-1q1.767-1.45 4-1.5a67 67 0 0 1 3.5-5q1.077 1.426 2.5.5a14.8 14.8 0 0 0 3-4.5q7.476-1.842 13.5-8 1.517 1.255 3.5 1a4.93 4.93 0 0 1 .5-3q2.014 1.07 4-1 1 4 2 0 1.37 1.73 2.5-.5-1.73-1.37.5-2.5a4.46 4.46 0 0 0 1.5 2q3.071-2.273 7-2.5l2.5-2.5q6.288-1.419 13 0a30.4 30.4 0 0 0 5-3q1.418.608 2 2 .908-2.972 3-1a2.43 2.43 0 0 0 .5-2" style="opacity:1"/><path fill="#5074b0" d="M299.5 181.5q2.785 3.777 5.5 0l1 2q7.086-.414 14 0l1 2h7q1.619 2.84 4 1 2.832 4.16 6 1 1.565 1.684 2 4a3.65 3.65 0 0 1 1.5-1 214 214 0 0 0 16 6.5l2 3q5.053 1.663 8.5 5.5l1-1a104 104 0 0 0 19.5 16.5 3.65 3.65 0 0 0-1 1.5q2.493 1.24 4 3.5l-1 1a4.93 4.93 0 0 0 3 .5q-.014 2.712 1.5 5l1-1a6.98 6.98 0 0 0 2.5 3.5l-1 1q6.73 5.509 8.5 15.5 1-2 2 0 2.14 3.308 1.5 6.5a35.6 35.6 0 0 0 3 6q-.883 2.81 2 5-.895 2.442 1 5-.826 2.098-1 4 1.857-.116 3 .5-3.268 2.675 0 6 .41 3.642-1 6.5 3.756 3.671 1 7 .392 3.11 0 6l2 1a35.6 35.6 0 0 0-3 6v4l2 1q-2.6 3.452-3 8a3.94 3.94 0 0 0 1 2q-.23 3.915-4 7l2 1q-5.235 4.188-4 10.5a65 65 0 0 0-4 6.5l1 1a7.3 7.3 0 0 0-3 2q1.386 1.275 0 3-6.404 7.888-11.5 18.5l-1-1q-10.925 12.825-23 23l-1-1a86 86 0 0 1-10 8q-2.337-1.268-3 2l-1-1q-3.107 1.296-5 4l-1-1q-5.545 4.088-12 6-2.316-4.146-3.5.5a11.3 11.3 0 0 0-3.5 1.5q-1-4-2 0-4.36-1.368-8 2l-1-2a50 50 0 0 1-9.5 3q-5.105-1.043-10.5 0-1.974-3.792-3.5 0-3.597-.599-7.5 0-3.626-3.27-8-1-7.42-3.663-15-4-10.738-6.767-22.5-9.5l2-1q-4.687-1.469-7.5-5.5l-3 1q-3.332-4.206-9.5-7.5-6.63-8.53-14-14l-1-3-3-1 1-1a94.3 94.3 0 0 0-10-13l2-1a10.8 10.8 0 0 1-3-2.5 20 20 0 0 0-3-6q1.663-2.197-1.5-3-.456-2.911-2.5-5l1-2a566 566 0 0 0-3-4.5 3.65 3.65 0 0 0 1-1.5q-3.117-2.892-2-6.5l-2-1q1.386-1.275 0-3 .608-1.418 2-2-4.96-6.224-2-13-1.392-.582-2-2-.024-3.364 1-7a11.1 11.1 0 0 0-2-3.5 4.46 4.46 0 0 1 2-1.5q-1.721-4.164 1-8l-2-1a11.3 11.3 0 0 0 1.5-3.5q.981 1.794 1.5 0-3.792-1.526 0-3.5l-1-1q.683-3.468 3-6 .544-6.212 4-12.5l-1-2a32.4 32.4 0 0 0 4-5.5q-1.701-1.524 1-2l-1-1q3.495-1.612 4-4.5l-1-2a10.3 10.3 0 0 1 4-1.5q-3.67-1.844-.5-4.5l1 1q4.274-4.086 5-9 1-2 2 0 2.829-6.389 10-11 .926-1.423-.5-2.5l4-1q-1.817-1.34 0-2.5 1.388-1.712 2.5 0a679 679 0 0 1 7-7q4.897-1.276 9-6 1.524 1.701 2-1l1 1q8.228-6.498 19.5-10 2.435 1.464 4-1.5 4.3.366 9-1 2.342-.477 3.5-2.5 1 4 2 0 3.807 1.349 7.5-1 2.495 3.452 5.5 0 2.626 1.01 5 1a2.43 2.43 0 0 0 .5-2" style="opacity:1"/><path fill="#4d78b2" d="M292.5 185.5q1.083.626 1.5 2 1.112-1.712 2.5 0 2.224-3.668 3.5 1a7.3 7.3 0 0 1 2-3q1.705 1.296 4 3l2.5-3q1.899 2.532 5.5 1 2.487.263 4 2 2.109-1.752 3.5 1a49 49 0 0 1 9 0 31 31 0 0 1 4.5 4 47 47 0 0 1 7 0q1.545 3.414 4.5 2 6.087 1.723 9.5 7l1-2a8.9 8.9 0 0 0 3 4l1-2q2.333 3.832 6.5 5.5l-1 1 5 1q2 1 0 2a115 115 0 0 1 6 4q-2 1 0 2 1.9.464 3.5 1.5l1-1v4l1-1q3.295 2.296 2.5 5.5 4.876 1.647 8 6l-1 1 4 4q-3.601 1.207.5 2.5a23 23 0 0 0 2 5q1.865-1.254 3.5 1a3.65 3.65 0 0 1-1 1.5 30.2 30.2 0 0 0 5 6.5q-3.792 1.526 0 3.5l-1 1q1.782 4.086 5 7a45.3 45.3 0 0 0-1 7.5q1.674-.147 3 1.5a9.3 9.3 0 0 1-2 2.5q1.143.616 3 .5-1.07 2.014 1 4-3.79 3.37-1.5 7.5.677-3.644 2.5-.5l-2 2q2 2 0 4a18 18 0 0 1 2 3.5q-1.412-.017-2 1.5l.5 1.5q1.077-1.426 2.5-.5a7.3 7.3 0 0 1-3 2q.037 3.018 0 6 .608 1.418 2 2-3.103.486-1 2.5-3.792 1.974 0 3.5a7.3 7.3 0 0 1-3 2q4.4 5.13-1 9l2 1a6.98 6.98 0 0 0-2.5 3.5l-1-1q-.684 1.866 1.5 2.5-2.752 1.391-1 3.5-4.822 1.422-1 4-3.988 3.43-3.5 8a175 175 0 0 0-6.5 8q2.058 3.18-2 3-.255 1.983 1 3.5a4.93 4.93 0 0 1-3 .5q.175 2.975-2 5l-5 4q2 1.5 0 3-3.282 4.641-9 4.5 8 1 0 2 1.426 1.077.5 2.5-1.112-1.712-2.5 0-2.894 1.798-5.5 6l-1-1a11.3 11.3 0 0 1-3.5 1.5l1 1a52 52 0 0 0-7 4l1 1a6.98 6.98 0 0 0-3.5 2.5l-1-1a11.3 11.3 0 0 1-3.5 1.5q2 1 0 2-5.135-.787-7.5 4.5-1-4-2 0-2.648 1.108-6 0a9.5 9.5 0 0 1-2.5 1.5l1 1q-2.098.892-4-.5-2.45.702-3.5 3-4.36-1.368-8 2-2.741-3.46-5 1-2.098-.826-4-1-1 4-2 0l-4 2q-3.253-2.932-7-2-2.832 3.633-6 0-2.109 1.752-3.5-1 .306 1.543-1.5 3a14.5 14.5 0 0 1-5-4q-2.086 3.322-5 0-1.524 1.701-2-1a78 78 0 0 1-8.5 0l-2.5-3q.116 1.857-.5 3a6.8 6.8 0 0 1-1.5-3q-2.76 2-1.5-.5a20.4 20.4 0 0 1-5.5-1.5q-2.349.841-4-2-1.574 1.526-3.5.5l1-1q-3.179-.01-5.5-3.5l-1 1q-.539-4.567-2-1a16.7 16.7 0 0 1-4-4l-1 1q-.165-4.719-4-3a29.4 29.4 0 0 0-7-8 3.65 3.65 0 0 1-1.5 1 27.2 27.2 0 0 1-4-7.5q-5.309-.504-6.5-5.5l-1 1a29 29 0 0 0-1.5-4q-5.559-3.335-7.5-8v-4l-4-2q.952-4.337-3.5-6.5l2-1q-4.488-1.66-2-5-3.5-1.864-2-5a64.5 64.5 0 0 1-5-8.5q1.512-5.212-2-9.5l2-2q-4.678-4.499-1-9.5-2.252-1.288-3-5.5-.555-2.415 2-4.5-3.71-4.371 0-8.5l-2-1q5.374-.893 1-4l2-1q-2-1.5 0-3-3.431-4.265 2-7l-2-1q4.46-2.259 1-5l3-1q-2.487-1.088-1.5-3.5a36 36 0 0 1 3.5-4.5l-1-1q4.27-1.319 2-5 .62-4.765 4.5-7.5 2.5 1.26.5-1.5l3-3q-1.426-1.077-.5-2.5 5.108-1.452 1.5-4.5a31.9 31.9 0 0 1 10-7q-3.279-.906-.5-3.5l1 1 1-4 1 1a39 39 0 0 1 4.5-4.5 3.65 3.65 0 0 1-1-1.5q1.726-1.846 3.5 0l8-8 1 1a21.5 21.5 0 0 1 5-6q2.623 1.198 4-2h3q2.704-5.753 4-1 .25-4.25 4.5-4.5 1.184-4.646 3.5-.5a8.9 8.9 0 0 0 3-4q1.676.247 3.5 1a15 15 0 0 1 3.5-3q1 4 2 0l3 1a9.6 9.6 0 0 1 3-3q3.879-1.26 8.5 0 1.721-.477 2.5-2a7.3 7.3 0 0 0 2 3q2.524-3.423 5.5-4" style="opacity:1"/><path fill="#497bb3" d="M200.5 338.5q-3.197-4.8-5-10.5l1-1q-3.179-3.404-2-7.5-3.422-2.739 0-6-2.302-2.703-1-5.5-.608-1.418-2-2 1.449-3.601 0-8 .85-1.492 2-2.5-.098.658.5 1 .834-3.143 1.5-.5-1.673 1.853 0 3.5l-2 1a4.46 4.46 0 0 0 2 1.5q1.578 6.783 0 14.5l.5 3q.981-1.794 1.5 0a4.46 4.46 0 0 1-2 1.5q3.414 1.545 2 4.5 1.109 3.066 4 6.5a138 138 0 0 0-1 6.5" style="opacity:1"/><path fill="#487db4" d="M321.5 196.5q.926-.166 1.5-1 1.108 1.611 3 2 2.694-.62 5 0 11.28 4.468 23.5 11.5a8.4 8.4 0 0 0 4 .5q.019 4.291 3.5 3a8.9 8.9 0 0 1 3 4l1-1 3 5 1-2q4.276 5.774 10.5 9.5-1.712 1.112 0 2.5a141 141 0 0 1 15 19.5l-1 1q6.912 12.507 10.5 25.5 1.08 2.418-.5 4.5 2.469 2.332 1 5a18 18 0 0 1 2 3.5q-1.11 4.565-1 9.5l2 2a317 317 0 0 0-3 15q1.9 2.893-1 5.5.822 1.782 1 3.5-2.972.908-1 3-2.426 5.168-5 11.5.567 4.183-3 7.5l1 1q-2.201 1.647-2.5 4.5l-1-1q-.477 2.342-2.5 3.5l1 1a40.5 40.5 0 0 0-7 11.5q-1.388 1.712-2.5 0l-1 4-1-1a630 630 0 0 0-9 11l-1-1q-1.086 3.688-4 3a11.3 11.3 0 0 1-1.5 3.5q-6.489 3.49-13 7a6.98 6.98 0 0 0-2.5 3.5q-2.395-.21-4.5 0a154 154 0 0 1-14.5 7q-2.254-.502-4 0l-1 2q-5.334.666-10 0l-1 2q-2.344-3.816-4.5 0l-2-1q-4.314 1.58-8 2l-1-2q-2.838 3.816-5.5 0-6.703 1.513-15-2-2.574-.134-5.5 1-2.089-2.044-5-2.5l1-1q-4.314 1.334-7.5-2.5-1.574 1.526-3.5.5-6.297-2.608-12.5-7.5l-1 1q-1.158-2.023-3.5-2.5 1.73-1.37-.5-2.5-2.046 1.137-3.5-1.5l-4-1q1.817-1.34 0-2.5a205 205 0 0 0-14-10.5q1.17-1.61-.5-3.5-1 2-2 0a52.2 52.2 0 0 0-7-10 20.6 20.6 0 0 1-2-6l-1 1q-.443-3.646-3.5-5.5l1-1q-1.553-4.471-5-7.5a5.58 5.58 0 0 0 1-3q.408-3.166 1-6.5-2.891-3.434-4-6.5 1.414-2.955-2-4.5a4.46 4.46 0 0 0 2-1.5q-.519-1.794-1.5 0l-.5-3q1.578-7.717 0-14.5a4.46 4.46 0 0 1-2-1.5l2-1q-1.673-1.647 0-3.5-.666-2.643-1.5.5-.598-.342-.5-1a36.5 36.5 0 0 1-1-9q2.908-2.433 1-5.5 3.283-1.016 1-3.5a4.46 4.46 0 0 1 2-1.5l-1-3q1.748-5.002 5-9-.774-4.52 3-8a3.65 3.65 0 0 1-1-1.5q6.48-7.46 9-17 7.322-5.597 12.5-14l1 1a169 169 0 0 0 9-9l1 1q1.896-3.16 5.5-3a4.93 4.93 0 0 1 .5-3q2.337 1.268 3-2l1 1a76.4 76.4 0 0 1 13-8q.621.686 1.5 1 8.977-4.416 17.5-7 1.056 3.34 3.5 1 1.93 1.902 3-1a4.46 4.46 0 0 1 1.5 2q3-2 6 0 2.202-3.474 5.5-1 2.294-.044 3.5-2 2.332 2.469 5 1 1 4 2 0l2 2q2.098-.826 4-1a7.25 7.25 0 0 0 2.5 2 42 42 0 0 0 6-2" style="opacity:1"/><path fill="#4382b6" d="M392.5 273.5q3.222-.166 1 2 1.829 9.183 5 18.5-3.587 1.036 0 3-1.942 4.201 0 8.5a18 18 0 0 1-2 3.5 43.4 43.4 0 0 1 1 9q-3.879 3.741 0 7.5-1.488-.258-2 1a2.43 2.43 0 0 0-2 .5q1.692 4.246-3 8 .686.621 1 1.5-4.01 6.804-7 13a3.65 3.65 0 0 0 1 1.5q-6.291 5.81-10.5 13.5-1.28 2.437-3 1-4.071 8.133-12.5 11 .129-1.494-1-2.5a11.53 11.53 0 0 0 4.5-3.5q1.112 1.712 2.5 0a10.3 10.3 0 0 0 1.5-4 96 96 0 0 0 7.5-5.5q-3.644-.677-.5-2.5 1.077 1.426 2.5.5-1.526-1.574-.5-3.5a25.6 25.6 0 0 0 5.5-3.5q-1.579-2.574 2-3l-2-1 3-2.5-2-1a4.46 4.46 0 0 1 2-1.5q-1.701-1.524 1-2l-1-1a90.5 90.5 0 0 1 6-9.5q-3.954-2.346.5-4 3.257-6.454 3.5-13a18 18 0 0 0-2-3.5l3-1q-1.817-1.67 0-3.5a7.25 7.25 0 0 0-2-2.5q1.106-4.596 1-9-.608-1.418-2-2l2-1q-4.894-1.304-1-4-2-2 0-4a6.55 6.55 0 0 0-3-3l2-1q-3.466-3.309 0-5.5M264.5 211.5q-.062 3.368-2.5 2-1 4-2 0-5.328 1.818-8 7-1-2-2 0l-1 3q-6.169-1.636-8 5-1.461-3.567-2 1l-1-2q-1.026 1.926.5 3.5a42.4 42.4 0 0 0-10 5q5.791 2.014 0 4.5a3.65 3.65 0 0 1-1.5-1q-1.179 4.624-5.5 6.5l1 1a53.5 53.5 0 0 1-5 6l2 1a56 56 0 0 1-5.5 4.5q-.892 2.098.5 4-3.12 4.458-3.5 10-1.077-1.426-2.5-.5-.01 2.374 1 5a456 456 0 0 1-3 4q2.187 3.366-1 7 .29 2.468.5 5.5l1.5 1.5a7.3 7.3 0 0 0-3 2q.783 3.721 0 7 6 2 0 4 2 2 0 4a32.4 32.4 0 0 0 3 4.5 4.46 4.46 0 0 1-2 1.5q1.296 1.705 3 4-1.107 2.736-1 6a31.6 31.6 0 0 0 5 6q-1.712 1.112 0 2.5-3.863 2.075 1 2.5a3.65 3.65 0 0 0-1 1.5l3 4a3.65 3.65 0 0 1-1 1.5q2.21 1.064 2 3.5 2.712-.014 5 1.5l-2 1q2 1 0 2 4.092 4.989 11 9-3.458 2.496 1 4.5a3.65 3.65 0 0 0 1.5-1l1 4q2.349-.841 4 2l1-1a98 98 0 0 1 4.5 8q-1.083.626-1.5 2-3.284-5.847-8.5-7.5l1-1q-5.246-2.999-8-8.5-1.237-1.329-3-1 .455-4.632-4-5 .34-3.649-3-5-1.647-1.345 0-2.5-5.519-6.33-7.5-13.5a15.3 15.3 0 0 0-1.5-4.5q1.701-1.524-1-2l1-1q-1.456-3.848-4-6.5.016-2.276 2-3.5-1.374-.417-2-1.5 1.902-1.93-1-3 2.439-4.578-1-9.5l2-1q-3.633-2.832 0-6-1.449-3.601 0-8l-2-1 4-10q-.884-2.834-1-6 5.352-8.982 8.5-19.5l1 1q1.67-1.89.5-3.5 6.246-6.38 12.5-14.5-1.043-8.728 8.5-9a6.85 6.85 0 0 0 1-4 48 48 0 0 0 8-3.5l-2-1q1.926-1.026 3.5.5 5.52-4.055 9.5-7.5 4.324-.645 9-1.5M296.5 204.5q2.092 1.722-.5 3-6.118-1.694-12.5-.5-2.023 1.158-2.5 3.5a13.9 13.9 0 0 1-4-3l-3 5q-4.715-3.452-8 2 .496-2.278-.5-4 5.152-2.742 11-5 2.709 2.038 4.5-1l1 1q4.349-.716 8-3 3.231 1.095 6.5 2" style="opacity:1"/><path fill="#4382b6" d="M319.5 204.5q4.42.315 8.5 4a4.46 4.46 0 0 1 1.5-2 15 15 0 0 0 3.5 3q6.468.35 12 5 1.524-1.701 2 1 32.781 16.86 46.5 56-.186.91-1 1-5.486-1.08-2-4.5-.678-2.418-4-3l1-1a41.5 41.5 0 0 1-3.5-9.5l-1 1q-3.163-2.952-2.5-6.5-2.913.25-5-3 1.926-1.946-.5-3.5l-1 1q-1.026-1.926.5-3.5a22.6 22.6 0 0 0-8-4l2-2h-4q1.552-2.26-.5-4.5a3.65 3.65 0 0 1-1.5 1 26.6 26.6 0 0 1-2-3.5q-3.9-2.14-7.5-4.5l-1 1a26.3 26.3 0 0 1-4-6q-1 4-2 0l-1 2q-2.802-6.031-9.5-6.5-2.09-4.025-4-.5-1.359-4.716-5.5-1-.908-2.972-3-1a44 44 0 0 0-5.5-3 4.46 4.46 0 0 0-1.5 2l-7-4q-3.065 3.031-6 1l-2 2q-1.122-3.376-4.5-4 1.142-1.337 3-2 4.694.388 9.5 0l4 2 3-1 1 2q1.006-1.129 2.5-1" style="opacity:1"/><path fill="#4085b8" d="M296.5 204.5q3.378.624 4.5 4l2-2q2.935 2.031 6-1l7 4a4.46 4.46 0 0 1 1.5-2 44 44 0 0 1 5.5 3q2.092-1.972 3 1 4.141-3.716 5.5 1 1.91-3.525 4 .5 6.698.469 9.5 6.5l1-2q1 4 2 0a26.3 26.3 0 0 0 4 6l1-1q3.6 2.36 7.5 4.5a26.6 26.6 0 0 0 2 3.5 3.65 3.65 0 0 0 1.5-1q2.052 2.24.5 4.5h4l-2 2a22.6 22.6 0 0 1 8 4q-1.526 1.574-.5 3.5l1-1q2.426 1.554.5 3.5 2.087 3.25 5 3-.663 3.548 2.5 6.5l1-1a41.5 41.5 0 0 0 3.5 9.5l-1 1q3.322.582 4 3-3.486 3.42 2 4.5v1q-3.466 2.191 0 5.5l-2 1a6.55 6.55 0 0 1 3 3q-2 2 0 4-3.894 2.696 1 4l-2 1q1.392.582 2 2 .106 4.404-1 9a7.25 7.25 0 0 1 2 2.5q-1.817 1.83 0 3.5l-3 1a18 18 0 0 1 2 3.5q-.243 6.546-3.5 13-4.454 1.654-.5 4a90.5 90.5 0 0 0-6 9.5l1 1q-2.701.476-1 2a4.46 4.46 0 0 0-2 1.5l2 1-3 2.5 2 1q-3.579.426-2 3a25.6 25.6 0 0 1-5.5 3.5q-1.026 1.926.5 3.5-1.423.926-2.5-.5-3.144 1.823.5 2.5a96 96 0 0 1-7.5 5.5 10.3 10.3 0 0 1-1.5 4q-1.388 1.712-2.5 0a11.53 11.53 0 0 1-4.5 3.5q1.129 1.006 1 2.5-2.379 1.37-4.5 0a4.93 4.93 0 0 0-.5 3q-3.241.489-5.5 3l-1-1q-.75 1.75-2.5 2.5l1 1q-2.845 1.664-5.5.5-2.377 1.314-3 4l-1-2q-5.06 1.355-10 5l-1-1q-.332 5.164-3 1a7.3 7.3 0 0 0-2 3q-1.5-6-3 0-3-4-6 0l-1-2q-2.946 6.095-6 1l-1 2q-2.02-5.812-3.5 0-2.5-2-5 0a27 27 0 0 0-4.5-2q-4.87-.58-10 0a13.9 13.9 0 0 1-4-3q-1.676.247-3.5 1-2.968-.566-5.5-4l-1 2q-2.965-4.032-5.5-1-.156-3.709-3-2a6.8 6.8 0 0 1-1.5-3q-2.72 1.663-2.5-2-3.061-.531-5.5 0-.684-1.866 1.5-2.5l-1.5-1.5q-2.743.285-5.5 1a98 98 0 0 0-4.5-8l-1 1q-1.651-2.841-4-2l-1-4a3.65 3.65 0 0 1-1.5 1q-4.458-2.004-1-4.5-6.908-4.011-11-9 2-1 0-2l2-1q-2.288-1.514-5-1.5.21-2.436-2-3.5a3.65 3.65 0 0 0 1-1.5l-3-4a3.65 3.65 0 0 1 1-1.5q-4.863-.425-1-2.5-1.712-1.388 0-2.5a31.6 31.6 0 0 1-5-6q-.107-3.264 1-6a456 456 0 0 0-3-4 4.46 4.46 0 0 0 2-1.5 32.4 32.4 0 0 1-3-4.5q2-2 0-4 6-2 0-4 .783-3.279 0-7a7.3 7.3 0 0 1 3-2l-1.5-1.5q-.21-3.032-.5-5.5 3.187-3.634 1-7 1.296-1.705 3-4-1.01-2.626-1-5 1.423-.926 2.5.5.38-5.542 3.5-10-1.392-1.902-.5-4a56 56 0 0 0 5.5-4.5l-2-1a53.5 53.5 0 0 0 5-6l-1-1q4.321-1.876 5.5-6.5.621.686 1.5 1 5.791-2.486 0-4.5a42.4 42.4 0 0 1 10-5q-1.526-1.574-.5-3.5l1 2q.539-4.567 2-1 1.831-6.636 8-5l1-3q1-2 2 0 2.672-5.182 8-7 1 4 2 0 2.438 1.368 2.5-2 0-1 1-1 .996 1.722.5 4 3.285-5.452 8-2l3-5a13.9 13.9 0 0 0 4 3q.477-2.342 2.5-3.5 6.382-1.194 12.5.5 2.592-1.278.5-3" style="opacity:1"/><path fill="#388ebc" d="M360.5 351.5q-.657.098-1-.5a61 61 0 0 0 3.5-6.5l1 1q1.173-3.864 4.5-6-1.606-2.738 2-3.5-1.683-2.42 1.5-3.5-.333-7.233 4.5-12.5-.174-1.902-1-4 2.469-3.344 1-7 .389-1.892 2-3-2-1 0-2-3.587-1.036 0-3l-2-3q2.841-1.651 2-4-4-1 0-2l-2-6 1-1q-2.159-1.486-3-4l2-1-3-3q1.647-1.155 0-2.5a5.58 5.58 0 0 0 3-1q1.846 1.726 0 3.5a32 32 0 0 0 4 2.5q-6.04 1.479 0 6-2.31 1.548-1.5 4l1-2q1.08 2.418-.5 4.5a566 566 0 0 1 3 4.5q-3.726.984-2.5 6l1-2a11.3 11.3 0 0 0 1.5 3.5q-4.46 2.259-1 5-3.134 2.358 0 5.5-1.796 3.14-4 3.5 6.479 5.26-1 3.5a4.93 4.93 0 0 0 .5 3q1.574-1.526 3.5-.5-4.446 1.26-1 3-2.75.75-3.5 3.5-1.333-2.082-1.5.5.608 1.418 2 2a32 32 0 0 1-4 2.5q1.239 1.427.5 3a2962 2962 0 0 0-7.5 6.5q3.644.677.5 2.5l-1-1a8.4 8.4 0 0 0-.5 4q-2.188-.1-4 1" style="opacity:1"/><path fill="#3a8cbb" d="M234.5 256.5a66 66 0 0 0-3.5 10q-2.5-1.26-.5 1.5a15 15 0 0 1-3 3.5l1 2q-1.415 4.67-4.5 6 .672 7.317-1.5 14.5 1.07 2.014-1 4 2 2 0 4 4 1 0 2 6 1 0 2l2 7q-1.701 1.524 1 2-.826 2.098-1 4 4.732 1.472 1 4l2 1q-1.526 1.574-.5 3.5 1.207-3.601 2.5.5a3.65 3.65 0 0 0-1 1.5 27.2 27.2 0 0 1 4 8 3.65 3.65 0 0 1-1 1.5q2.216 3.223 6 4l-3 1q5.022 4.245 7 8.5a4.93 4.93 0 0 1 3 .5q4.128 8.63 13 12l-1 1q1.866.684 2.5-1.5a23 23 0 0 0 2 5q.634-2.184 2.5-1.5 2.462 1.694 3 4.5-4.519-1.833-10-3.5-1.14-5.5-4.5-1.5l-2.5-2.5q1.426-1.077.5-2.5-1.574 1.526-3.5.5l2-1a32.5 32.5 0 0 1-7-3q2.023-2.452-.5-4.5-1.461 3.567-2-1l-1 1q-1.026-1.926.5-3.5-3.231-1.98-4.5-5.5-2.003.87-3.5 1-2.317-.305-4-2a217 217 0 0 0-5-7q2.44-2.019 2-4.5-1.293-4.101-2.5-.5-.477-2.342-2.5-3.5a34.5 34.5 0 0 1 1-6q-.913-3.765-4-6-.121-2.2 1-5 .024-3.458-3-5l4-1-2-1q-.7-3.023 0-6.5a4.46 4.46 0 0 0-2-1.5q3.138-1.43 1-4 .27-7.158 5-12.5-2.727-4.533 2-8.5l-2-1q3.134-4.869 8-10-4.404-4.504 1-2.5 4.03 1.497 7-2" style="opacity:1"/><path fill="#3d88b9" d="M370.5 248.5a78 78 0 0 0 6 5.5q-2 2.76.5 1.5a20.9 20.9 0 0 0 3.5 6.5l-1 1q1.296 3.107 4 5a3.65 3.65 0 0 0-1 1.5q3.37 6.375 5 12.5-1.01 2.626-1 5a7.25 7.25 0 0 1 2 2.5 126 126 0 0 0-1 7.5l2 1q-1.52 6.99 0 13-3.435 1.186-1 4a63 63 0 0 0-3 8q2.074 2.191-1 2.5-3.132-2.803 0-6.5l-1-5a6.55 6.55 0 0 0 3-3q-3.783-2.529 1-4-4.85-2.751-1-6.5-2.557-2.896-1-6-.476-1.721-2-2.5 2.115-.552 3-2.5-1.824-2.706-3-5 3.514-5.175-3-7.5.813-4.39-2-8.5a3.65 3.65 0 0 1 1-1.5q-5.88-5.254-7.5-14.5-2.013 2.103-2.5-1a10 10 0 0 1 1-3M237.5 239.5q.456.975 1 2-2.906 2.31-3.5 6a15.3 15.3 0 0 1-4.5 1.5q-.722 1.512-.5 3.5-1.37-1.73-2.5.5.531 2.439 0 5.5-5.404-2.004-1 2.5-4.866 5.131-8 10l2 1q-4.727 3.967-2 8.5-4.73 5.342-5 12.5 2.138 2.57-1 4a4.46 4.46 0 0 1 2 1.5q-.7 3.477 0 6.5l2 1-4 1q3.024 1.542 3 5-1.121 2.8-1 5 3.087 2.235 4 6a34.5 34.5 0 0 0-1 6q2.023 1.158 2.5 3.5 1.207-3.601 2.5.5.44 2.481-2 4.5a250 250 0 0 1-7-12.5l2-1q-2.159-1.486-3-4a70.8 70.8 0 0 1 0-17l-2-3 2-9q-1.908-3.067 1-5.5-.519-4.987 2-10-2.244-3.676 2-5.5-.699-1.948 0-4.5 3.663.571 2-2 3.868-5.578 5.5-12 5.598-6.852 12.5-12M287.5 214.5l-3 3q-2.224-3.668-3.5 1-4.172-.553-8 0-1.319 4.27-5 2-1.649 3.808-5 2a7.3 7.3 0 0 0-2 3q-2.81-.883-5 2l-1-1q-3.246 2.827-4 6-4.053-1.712-5 3l-1-2q-.606 5.164-5 4-.625 1.884-2.5 2 3.257-6.135 11-9.5l-1-1q6.672-2.618 10.5-6.5l1 1a32 32 0 0 1 6-5l1 1 7-4a3.94 3.94 0 0 0 2 1 77 77 0 0 0 7.5-3q2.442.118 5 1" style="opacity:1"/><path fill="#3492bd" d="M315.5 223.5q-.16 2.818 1.5 1a18 18 0 0 0 7 3q2.337-1.268 3 2l1-2q2.36 4.07 6.5 2.5 5.379 4.372 12 7-2.184.634-1.5 2.5 2.76-2 1.5.5 4.614 1.366 7 5.5a23.7 23.7 0 0 0 6 2.5l-2 1q3.491 2.77 7 7.5a3.65 3.65 0 0 1-1 1.5q3.268.663 2 3 1.293 4.101 2.5.5 2.736 1.873-.5 3.5 2.701.476 1 2a34.8 34.8 0 0 1 5 7.5q1.647 1.345 0 2.5l3 3-2 1q.841 2.514 3 4l-1 1 2 6q-4 1 0 2 .841 2.349-2 4l2 3q-3.587 1.964 0 3-2 1 0 2-1.611 1.108-2 3 1.469 3.656-1 7 .826 2.098 1 4-4.833 5.267-4.5 12.5-3.183 1.08-1.5 3.5-3.606.762-2 3.5-3.327 2.136-4.5 6l-1-1a61 61 0 0 1-3.5 6.5q.343.598 1 .5-.412 3.513-2.5 0-.75 1.75-2.5 2.5l2 1q-5.276 1.272-8 6l1 1q-2.91 1.81-5.5.5-.926 1.423.5 2.5-7.848 5.02-18 9.5a3.65 3.65 0 0 1-1.5-1q-4.587 3.843-10 3-2.284 3.18-5.5 1l-4 2q-5.328-1.335-11.5 0-2.662-3.816-5.5 0a4.46 4.46 0 0 1-1.5-2l-5 1q-.332-5.164-3-1-.476-2.701-2-1-5.586-1.668-9.5-6-1.147 1.668-3 2-.538-2.806-3-4.5-1.866-.684-2.5 1.5a23 23 0 0 1-2-5q-.634 2.184-2.5 1.5l1-1q-8.872-3.37-13-12a4.93 4.93 0 0 0-3-.5q-1.978-4.255-7-8.5l3-1q-3.784-.777-6-4a3.65 3.65 0 0 0 1-1.5 27.2 27.2 0 0 0-4-8 3.65 3.65 0 0 1 1-1.5q-1.293-4.101-2.5-.5-1.026-1.926.5-3.5l-2-1q3.732-2.528-1-4 .174-1.902 1-4-2.701-.476-1-2l-2-7q6-1 0-2 4-1 0-2 2-2 0-4 2.07-1.986 1-4 2.172-7.183 1.5-14.5 3.085-1.33 4.5-6l-1-2a15 15 0 0 0 3-3.5q-2-2.76.5-1.5a66 66 0 0 1 3.5-10q3.414-.385 3.5-4a86.5 86.5 0 0 1 16-14l1 1q2.59-2.365 5-7l3 2q2.076-3.915 6.5-4.5-1.856-.348-3-1.5 2.951-.359 5.5 1a32.6 32.6 0 0 0 4.5-4q1.494-.129 2.5 1 1-4 2 0l1-2q5.6 1.55 11.5-2l4 2a4.46 4.46 0 0 0 1.5-2q3.276-.912 6 2 2.49.264 5-2 1.826 1.329 4 3 .417-1.374 1.5-2" style="opacity:1"/><path fill="#2e98c0" d="M301.5 230.5q2.295.85 4.5 2 1.524-1.701 2 1 1.964-3.587 3 0a3.65 3.65 0 0 1 1.5-1q4.098 2.862 8.5 2 2.724 3.399 6.5 2.5a156 156 0 0 1 9 6.5q12.466 5.81 19.5 19 .677-3.644 2.5-.5-1.701 1.524 1 2l-2 1q4.32 4.594 7 10.5-.998 2.401-1 4.5 1.375.561 2.5 1.5.14 3.76 2.5 6.5-1.972 2.092 1 3-.248 2.755-2 6 1.611 1.108 2 3-.114 4.17 0 8.5l-2 3q.34 3.257 1 6.5a8.9 8.9 0 0 1-4 3q3.124 1.98-1 4 1.108 3.353 0 6-4.096 3.94-5.5 9.5-7.209 3.216-9 11-2.21-.552-4.5 1.5.178 1.922-1.5 3.5-2.76-2-1.5.5a109 109 0 0 1-20 9.5q-4.205-2.28-6.5 2l-1-2q-1.32 4.93-5.5 2-5.457 3.335-12 0a92 92 0 0 1-9 1 4.46 4.46 0 0 1-1.5-2q-3.279-.783-7 0-1.26-4.446-3-1a4751 4751 0 0 1-9.5-4.5q1.26-2.5-1.5-.5a4.93 4.93 0 0 1-.5-3q-7.457-1.305-11-8-7.771-4.066-10-11.5a34.8 34.8 0 0 1-6-6l1-1a73 73 0 0 0-6-13v-4a4.46 4.46 0 0 1-2-1.5q.48-6.957 1-13-4.176-3.678 1-6l-2-2q2-2 0-4 1.143-.616 3-.5l-2-2a73 73 0 0 0 3-6.5 3.65 3.65 0 0 0-1-1.5q5.196-3.482 4-9 6.033-3.636 7.5-10.5 1.756-2.09 4.5-2.5-3.608-3.048 1.5-4.5l1 1a55.5 55.5 0 0 1 5.5-7q2.571 1.663 2-2a8.4 8.4 0 0 0 4-.5q2.798-3.423 6.5-2.5l4-4 1 1q3.375-4.284 7-2l10-4q1 4 2 0 1.5 4 3 0 2.624 1.58 4.5-1" style="opacity:1"/><path fill="#2b9bc1" d="M355.5 278.5q-2.452-1.06-4-3.5l1-1q-3.984-1.505-3-5-5.229-3.698-7.5-9.5-.905 3.279-3.5.5a3.65 3.65 0 0 0 1-1.5q-2.473-2.222-4-5 1.281-3.65 3 .5l-1 1a21.4 21.4 0 0 1 5 0q-1.198 2.623 2 4l-1 1a29.9 29.9 0 0 1 4.5 5.5l1-1q1.512 2.639 4.5 3.5a7.25 7.25 0 0 0-2 2.5 12.4 12.4 0 0 0 5 4.5q-.178 1.718-1 3.5" style="opacity:1"/><path fill="#289fc3" d="M335.5 253.5q1.527 2.778 4 5a3.65 3.65 0 0 1-1 1.5q2.595 2.779 3.5-.5 2.271 5.802 7.5 9.5-.984 3.495 3 5l-1 1q1.548 2.44 4 3.5.255 1.983-1 3.5 2.567 2.153 3.5 5.5l1-1a11.3 11.3 0 0 0 1.5 3.5q-3.567 1.461 1 2-4.763 2.365-1 5.5-3.87 3.684 0 7.5-3.741 2.919-2 7-4.864.425-1 2.5-2.26 3.703 1 6.5-5.44.942-5.5 6.5a146 146 0 0 1-12 16l-1-1q-3.712 7.068-14.5 10.5 3.844 1.144 0 1.5-1.721-.476-2.5-2l-3 5q-1.5 2-3 0l-1 2q-2.532-2.317-6-3-3.017 4.296-6.5 1 .306 1.543-1.5 3l-1-2q-4.34.13-8.5 1l-4-3q-2 2-4 0a7.25 7.25 0 0 0-2.5 2 164 164 0 0 0-12-8q-1.67 1.817-3.5 0l-2-4q-2.435 1.464-4-1.5l1-1a33.6 33.6 0 0 0-10-6.5q-1.489-6.195-3.5-11l-1 1q-4.737-11.736-6.5-24.5 2.794-3.19 1-6.5 2.91-4.139 1-7.5l2-1-1-3q3.461-.531 1-3l2-5q-.608-1.418-2-2 10.434-10.554 17-20.5 1.388-1.712 2.5 0 .978-3.335 4.5-3.5-2.701-.476-1-2 4.171-.21 6.5-3.5 4.164 2.46 6-2h6a7.3 7.3 0 0 1 2-3q2.572.03 5.5 2-.017-1.412 1.5-2 .571 1.472 2.5 2 2.767-2.156 3.5 1 4.663-.165 10.5 0a4.93 4.93 0 0 1 .5-3 83 83 0 0 0 7.5 5q2.044-1.047 3.5 0l1-2q.75 1.75 2.5 2.5l-2 1a6.98 6.98 0 0 1 3.5 2.5q3.135-1.936 4 2 2.76-2 1.5.5.816 1.076 2 1.5" style="opacity:1"/><path fill="#23a5c5" d="M294.5 248.5a44 44 0 0 1 2 3q1.5-2 3 0a4.46 4.46 0 0 0 1.5-2q3.37 2.482 7 1 1.731 3.685 4 0 .762 3.606 3.5 2a91 91 0 0 1 9.5 6l1-2q.743 3.735 4.5 4.5-3.644.677-.5 2.5 4.14-5.948 4.5 2 .616-1.143.5-3a18.1 18.1 0 0 0 4.5 5.5l-2 1 6 6-1 3q3.438-1.652 4.5 2.5 1.03 3.102-.5 6 1.543-.306 3 1.5-4.021 5.022 2 8-4 1.5 0 3a13.9 13.9 0 0 0-3 4q2.298 1.05 3 3.5-1.601 5.605-5 11.5a3.94 3.94 0 0 0 1 2 456 456 0 0 0-3 4l1 1q-3.176 2.597-4.5 6.5-4.551.361-4.5 6-3.757.492-5.5 4l-1-2a18.2 18.2 0 0 1-4 6q-2.316-4.146-3.5.5l-7 3 2 1q-2.303.744-4.5-.5-1.636 2.77-4 2-3.285-4.123-5 1-3.913-.942-8-3-2.626 1.01-5 1l-2-2q-.582 1.392-2 2a11.5 11.5 0 0 1-4-4q-3.284 1.626-5-2l-1 3q-1.26-4.446-3-1a15.3 15.3 0 0 0-1.5-4.5q-3.53-1.324-5.5-4.5l-4.5-1.5 1-1q-3.173-.754-6-4a3.65 3.65 0 0 0 1-1.5 22.8 22.8 0 0 0-4-5q1.238-1.427.5-3-2.5 1.26-.5-1.5a16.7 16.7 0 0 0-4-4l1-3q-2.728-3.084-2-6.5a4.46 4.46 0 0 1 2-1.5q-3.755-2.676 0-5-.582-2.712 0-5l-2-1q.189-4.25 3-8.5a4.46 4.46 0 0 0-2-1.5q5.808-5.123 9.5-13.5a13.27 13.27 0 0 1 5.5-5 9.1 9.1 0 0 0 1-5q1.983-.255 3.5 1 .663-3.268 3-2a11.3 11.3 0 0 1 3.5-1.5q-1.73-1.37.5-2.5l1 1 1-3q3.681 2.27 5-2 5.287 2.535 9-2 1.66 1.818 1.5-1" style="opacity:1"/><path fill="#1ea9c7" d="M304.5 260.5q-1.32 7.183-5.5 1a38 38 0 0 1-6.5 2.5 6.8 6.8 0 0 1 3 1.5l-.5 1q-4.138-1.731-8 1-2.643-.666.5-1.5-4.956-1.563-6.5 3.5-2.232-1.043-4.5 1a3.65 3.65 0 0 0 1 1.5q-3.903 1.402-4.5 5.5-2.668-4.164-3 1l-1-1a43 43 0 0 0-1.5 5q.476 1.721 2 2.5-3.226-.58-6-2 1.712 1.112 0 2.5 4 2 0 4 .978 2.925-3 3-2.226-1.46-1.5-4 .677 3.644 2.5.5-1.908-3.067 1-5.5-1.72-3.127 2-4.5l-1-1q5.85-2.742 11-8l-1-1a12.2 12.2 0 0 0 3.5-4.5l1 1a11.3 11.3 0 0 1 3.5-1.5q-1.794-.981 0-1.5a4.46 4.46 0 0 1 1.5 2q1.5-2.5 4-4 2.786 3.399 5-1 3.91-.033 8 1 2.205-3.566 4.5 0" style="opacity:1"/><path fill="#1dabc8" d="M337.5 314.5q-1.494-.129-2.5 1-1.803 3.08-1 6h-4q-1.67 1.89-.5 3.5a7.3 7.3 0 0 1-3 2l1 1q-3.186 2.373-6.5.5-.133 2.42 2.5 3.5-1.423.926-2.5-.5a11.53 11.53 0 0 1-4.5 3.5l2 1q-2.946.936-5-1.5a10.8 10.8 0 0 1-3 2.5q3.931 1.359-.5 1.5-1.989-.383-3-2a16.6 16.6 0 0 1-2.5 4q-2.276.016-3.5 2-1.524-1.701-2 1-2-2-4 0-3.357-.433-5.5-4a6.8 6.8 0 0 0-1.5 3l-3-5q-1.436 3.314-3.5-.5-1.926-1.026-3.5.5l-4-6-1 2a19 19 0 0 0-3-5q-1.461 3.567-2-1-4.101-1.293-.5-2.5a6.8 6.8 0 0 1-3-1.5 10.94 10.94 0 0 0-3-4.5q4.168-.224 1.5-2.5l-1 1q1.719-4.806-3.5-6.5 4-1 0-2 3.587-1.036 0-3 1.752-2.109-1-3.5a4.46 4.46 0 0 1 2-1.5q-3.924-3.631 0-4.5-1.575-2.403 2-2.5-.834-.574-1-1.5 3.978-.075 3-3 4-2 0-4 1.712-1.388 0-2.5 2.774 1.42 6 2-1.524-.779-2-2.5a43 43 0 0 1 1.5-5l1 1q.332-5.164 3-1 .597-4.098 4.5-5.5a3.65 3.65 0 0 1-1-1.5q2.268-2.043 4.5-1 1.544-5.063 6.5-3.5-3.143.834-.5 1.5 3.862-2.731 8-1l.5-1a6.8 6.8 0 0 0-3-1.5 38 38 0 0 0 6.5-2.5q4.18 6.183 5.5-1 1.438-.679 2.5-2 1.606 5.312 5 2 2.57 2.54 6 4l3-1q.937 4.668 5.5 5.5l-1 1a4.93 4.93 0 0 0 3 .5q-.617 4.164 2.5 2a11.8 11.8 0 0 1 3.5 4.5l3 1q-3.807 1.756-1.5 4.5l1-1a11.3 11.3 0 0 0 1.5 3.5l-1 1a22.1 22.1 0 0 1 4 7l-2 1q1.553 4.6 3 8l-3 3q3.567 1.461-1 2a4.46 4.46 0 0 1 2 1.5q-2 2.5 0 5-1.237 1.329-3 1" style="opacity:1"/><path fill="#19afc9" d="M293.5 267.5q1.473.961 3 2 1.388-1.712 2.5 0 1.98-3.124 4 1 1.731-3.685 4 0 1.676-.247 3.5-1l5 2.5-3 1a43.4 43.4 0 0 1 8 2q6.297 7.274 10 16l-1 1q5.197 1.401 1 4.5 2.087-.587 3 2.5-1.611 1.108-2 3 1.236 3.916 1 7.5-3.811 3.614-4 8-2.386 4.134-7 5.5 3.75 1.25.5 3.5a3.65 3.65 0 0 0-1.5-1 26 26 0 0 0-5 5q-3.127-1.72-4.5 2a38.8 38.8 0 0 1-8 0q-1.964 3.587-3 0l-1 2a7.25 7.25 0 0 0-2.5-2q-2.397.165-5 1 .306-1.543-1.5-3l-2 2a151 151 0 0 0-15.5-12.5q.247-1.676 1-3.5-1.623-.373-4-.5 3.567-1.461-1-2l1-5a15 15 0 0 1-3-3.5q-.295-2.97 2-6-2.953-6.802 3-11.5-3.601-1.207.5-2.5 1.026-1.926-.5-3.5 2.023-1.158 2.5-3.5l1 2q1.362-2.909 4.5-3v-3a58 58 0 0 1 8-2.5 157 157 0 0 1 6-4.5" style="opacity:1"/><path fill="#16b3cb" d="M292.5 272.5q8.32.664 15.5 0 1.418.608 2 2l1-1q3.21 1.842 5 5 1.077-1.426 2.5-.5 2 1 0 2 2.75.75 3.5 3.5l1-1q5.727 10.246 6.5 21.5-1.895 2.558-1 5-2.701.476-1 2-3.04 7.97-9.5 11.5-6.193 8.22-16 6-4.822 2.634-10.5.5a39.4 39.4 0 0 1-10.5-6.5l-1 1a116 116 0 0 1-8.5-15.5l1-1q-2.932-3.253-2-7l2-2q-1.634-4.138 0-8 4.428-7.412 9.5-12.5l1 1q4.709-4.168 9.5-6" style="opacity:1"/><path fill="#13b6cc" d="M304.5 321.5q6.154-2.722 12-8.5.6-4.558 4-9-.71-16.83-16-22.5-2.752 1.038-5.5-1a38.4 38.4 0 0 1-9.5 3.5q-2.75 3.75-6.5 6.5-5.021 11.757.5 24a26 26 0 0 1-5-5.5q-1.24-3.258 0-9l-2-1a193 193 0 0 0 3-4l-1-1q2.188-3.085 2.5-6.5 2.26 1.552 4.5-.5l-2-1a12.5 12.5 0 0 1 5-4l-1-1q2.098-.892 4 .5a15 15 0 0 1 3.5-3q6.206 1.198 11.5 0 1.5 2.5 4 4a7.25 7.25 0 0 0 2.5-2q.75 2.75 3.5 3.5l-1 1 4 3-2 1 4 3q-1.181 4.506 2 8.5a9.3 9.3 0 0 0-2 2.5q.276 3.586 0 7a50.7 50.7 0 0 0-7.5 9.5l-1-2q-.426 3.579-3 2l-1 3q-2.034-1.32-4.5-1" style="opacity:1"/><path fill="#10b8cd" d="M304.5 321.5q-.762 2.6-2.5 1-1.964 3.587-3 0-4.498 3.897-8-3-3.112 3.792-2.5-.5a6.98 6.98 0 0 1-3.5-2.5q-1.207 3.601-2.5-.5.834-.574 1-1.5-5.521-12.243-.5-24 3.75-2.75 6.5-6.5a38.4 38.4 0 0 0 9.5-3.5q2.748 2.038 5.5 1 15.29 5.67 16 22.5-3.4 4.442-4 9-5.846 5.778-12 8.5" style="opacity:1"/><path fill="#0bbecf" d="M299.5 286.5q3.132 1.732 7 2.5l-2 1q3.6 1.586 7 2a3.65 3.65 0 0 0-1 1.5q3.486 3.04 4 6.5a441 441 0 0 1-3 5q-.582 2.288 0 5-1.823 3.144-2.5-.5-3.17 2.539-4 5-1.418-.608-2-2-4.412 5.056-9.5 0a3.65 3.65 0 0 0-1.5 1q-.585-4.424-4.5-6.5-1.13-2.613 0-6-.389-1.892-2-3 5.672-.55 2-4a20.5 20.5 0 0 1 2.5-3.5l1 2a8.9 8.9 0 0 0 3-4h4q1.075-.816 1.5-2" style="opacity:1"/><path fill="#08c2d1" d="M301.5 294.5q3.661 2.045 4 6.5-2.467 1.548-1 3.5-3.021 2.277-6 2a15 15 0 0 0-3.5-3q-.926-1.423.5-2.5a7.25 7.25 0 0 1-2-2.5 19 19 0 0 0 5-3q2.071 3.643 3-1" style="opacity:1"/><path fill="#3a8cbb" d="M370.5 248.5a10 10 0 0 0-1 3q.487 3.103 2.5 1 1.62 9.246 7.5 14.5a3.65 3.65 0 0 0-1 1.5q2.813 4.11 2 8.5 6.514 2.325 3 7.5 1.176 2.294 3 5-.885 1.948-3 2.5 1.524.779 2 2.5-1.557 3.104 1 6-3.85 3.749 1 6.5-4.783 1.471-1 4a6.55 6.55 0 0 1-3 3l1 5q-3.132 3.697 0 6.5-2.146.873-4 2.5l1 1a40 40 0 0 1-4 4.5 3.65 3.65 0 0 0 1 1.5 15.3 15.3 0 0 0-1.5 4.5q-4.665-1.76-.5 1.5-3.1 2.9-4.5 8.5a20.5 20.5 0 0 0-3.5 2.5q.816 1.075 2 1.5-.534 2.535-3 3a44 44 0 0 1-2-1q-.044 2-2.5 4-1.37-1.73-2.5.5 4.168.224 1.5 2.5-1.517-1.255-3.5-1a8.4 8.4 0 0 1-.5 4l-1-2q-1.45 1.767-1.5 4a7.25 7.25 0 0 0-2.5 2l-1-2q-1.395 3.078-4.5 4.5l2 1-8 3q-1.293 4.101-2.5.5-1.26 4.446-3 1a7937 7937 0 0 0-8 6 11.3 11.3 0 0 1-4-2q1.101 5.189-3 1-1.5 4-3 0-.435 2.316-2 4-2-2-4 0-1.313-3.02-4 0-1.67-1.817-3.5 0a7.25 7.25 0 0 1-2.5-2q-1.705 1.296-4 3-1-4-2 0-2.5-2-5 0l-1-2q-2.626 1.01-5 1-2.532-2.317-6-3a41 41 0 0 0-5.5 0l-4-3-2 1q.306-1.543-1.5-3-2.655 1.164-5.5-.5-3.202-4.191-7.5-4.5-.926-1.423.5-2.5a21.4 21.4 0 0 1-5 0q1.712-1.112 0-2.5-1.337-1.635-3 0-2.28-2.025-2-4a3.65 3.65 0 0 0-1.5 1q-2.958-2.71-5-8a4.46 4.46 0 0 1-1.5 2 33.2 33.2 0 0 0-3.5-6q-1.517-1.255-3.5-1 .626-1.083 2-1.5l-3-3q1.374-.417 2-1.5 1.497-.13 3.5-1 1.269 3.52 4.5 5.5-1.526 1.574-.5 3.5l1-1q.539 4.567 2 1 2.523 2.048.5 4.5a32.5 32.5 0 0 0 7 3l-2 1q1.926 1.026 3.5-.5.926 1.423-.5 2.5l2.5 2.5q3.36-4 4.5 1.5 5.481 1.667 10 3.5 1.853-.332 3-2 3.914 4.332 9.5 6 1.524-1.701 2 1 2.668-4.164 3 1l5-1a4.46 4.46 0 0 0 1.5 2q2.838-3.816 5.5 0 6.172-1.335 11.5 0l4-2q3.216 2.18 5.5-1 5.413.843 10-3 .621.686 1.5 1 10.152-4.48 18-9.5-1.426-1.077-.5-2.5 2.59 1.31 5.5-.5l-1-1q2.724-4.728 8-6l-2-1q1.75-.75 2.5-2.5 2.088 3.513 2.5 0 1.812-1.1 4-1a8.4 8.4 0 0 1 .5-4l1 1q3.144-1.823-.5-2.5 3.787-3.294 7.5-6.5.739-1.573-.5-3a32 32 0 0 0 4-2.5q-1.392-.582-2-2 .167-2.582 1.5-.5.75-2.75 3.5-3.5-3.446-1.74 1-3-1.926-1.026-3.5.5a4.93 4.93 0 0 1-.5-3q7.479 1.76 1-3.5 2.204-.36 4-3.5-3.134-3.142 0-5.5-3.46-2.741 1-5a11.3 11.3 0 0 1-1.5-3.5l-1 2q-1.226-5.016 2.5-6a566 566 0 0 0-3-4.5q1.58-2.082.5-4.5l-1 2q-.81-2.452 1.5-4-6.04-4.521 0-6a32 32 0 0 1-4-2.5q1.846-1.774 0-3.5a5.58 5.58 0 0 1-3 1 34.8 34.8 0 0 0-5-7.5q1.701-1.524-1-2 3.236-1.627.5-3.5-1.207 3.601-2.5-.5 1.268-2.337-2-3a3.65 3.65 0 0 0 1-1.5q-3.509-4.73-7-7.5l2-1a23.7 23.7 0 0 1-6-2.5q-2.386-4.134-7-5.5 1.26-2.5-1.5-.5-.684-1.866 1.5-2.5-6.621-2.628-12-7-4.14 1.57-6.5-2.5l-1 2q-.663-3.268-3-2a18 18 0 0 1-7-3q-1.66 1.818-1.5-1-.866-3.228-3.5-1-2.652-5.737-6 0-1.434-2.091-4-2a26.1 26.1 0 0 1-6.5 1q-.616-1.143-.5-3a9.6 9.6 0 0 1-3 3q-1.742-1.03-3.5-.5 1.794.981 0 1.5a35 35 0 0 1-4.5-1q-.939 3.737-2.5 0-1.794.519 0 1.5-2.987.56-5 2.5a32.6 32.6 0 0 1-4.5 4q-2.549-1.359-5.5-1-2.862.575-4.5 3a7.3 7.3 0 0 1-2-3q-1.062 4.152-4.5 2.5 1.437 1.72-1 3 3.567 1.461-1 2l1 1q-3.753 2.148-7.5.5-3.404 5.252-9.5 10.5 3.314 1.436-.5 3.5l-1-1q-.434 2.316-2 4l-1-1q-.358 1.932 1.5 3-2.97 3.497-7 2 .531-3.061 0-5.5 1.13-2.23 2.5-.5-.222-1.988.5-3.5a15.3 15.3 0 0 0 4.5-1.5q.594-3.69 3.5-6a44 44 0 0 1-1-2q1.875-.116 2.5-2 4.394 1.164 5-4l1 2q.947-4.712 5-3 .754-3.173 4-6l1 1q2.19-2.883 5-2a7.3 7.3 0 0 1 2-3q3.351 1.808 5-2 3.681 2.27 5-2 3.828-.553 8 0 1.276-4.668 3.5-1l3-3q2.552.699 4.5 0l1 2a13.9 13.9 0 0 0 4-3q1.806 1.457 1.5 3a174 174 0 0 0 3.5-3 7.25 7.25 0 0 0 2.5 2q4.638 1.36 9.5 0 3.533 1.52 7 3 1.74-3.446 3 1 1.37-1.73 2.5.5l-1 1q5.881-.52 11.5 2.5l1-1q2.092 4 6 6l1-2a25.6 25.6 0 0 1 3.5 5.5h4q7.54 8.715 14 16a8.4 8.4 0 0 0 4 .5" style="opacity:1"/><path fill="#388ebc" d="M266.5 228.5q1.144 1.152 3 1.5-4.424.585-6.5 4.5l-3-2q-2.41 4.635-5 7l-1-1a86.5 86.5 0 0 0-16 14q-.086 3.615-3.5 4-1.858-1.068-1.5-3l1 1q1.566-1.684 2-4l1 1q3.814-2.064.5-3.5 6.096-5.248 9.5-10.5 3.747 1.648 7.5-.5l-1-1q4.567-.539 1-2 2.437-1.28 1-3 3.438 1.652 4.5-2.5a7.3 7.3 0 0 0 2 3q1.638-2.425 4.5-3M315.5 223.5q-1.083.626-1.5 2a193 193 0 0 0-4-3q-2.51 2.264-5 2-2.724-2.912-6-2a4.46 4.46 0 0 1-1.5 2l-4-2q-5.9 3.55-11.5 2l-1 2q-1-4-2 0-1.006-1.129-2.5-1 2.013-1.94 5-2.5-1.794-.981 0-1.5 1.561 3.737 2.5 0 2.3.666 4.5 1 1.794-.519 0-1.5 1.758-.53 3.5.5a9.6 9.6 0 0 0 3-3q-.116 1.857.5 3a26.1 26.1 0 0 0 6.5-1q2.566-.091 4 2 3.348-5.737 6 0 2.634-2.228 3.5 1" style="opacity:1"/><path fill="#3d88b9" d="M370.5 248.5a8.4 8.4 0 0 1-4-.5 1771 1771 0 0 1-14-16h-4a25.6 25.6 0 0 0-3.5-5.5l-1 2q-3.908-2-6-6l-1 1q-5.619-3.02-11.5-2.5l1-1q-1.13-2.23-2.5-.5-1.26-4.446-3-1-3.467-1.48-7-3-4.862 1.36-9.5 0a7.25 7.25 0 0 1-2.5-2q-1.595 1.407-3.5 3 .306-1.543-1.5-3a13.9 13.9 0 0 1-4 3l-1-2q-1.948.699-4.5 0 .867-2.915 3-1a168 168 0 0 0 7.5-2q4.666.666 10 0 6.24 2.48 12 4 2.821-1.281 5.5 1 2.109-1.752 3.5 1 2.42-1.683 3.5 1.5 9.972 1.984 16 8.5a28 28 0 0 0 5 1.5l-1 1q2.342.477 3.5 2.5l1-1q8.074 7.338 13.5 17" style="opacity:1"/><path fill="#4680b6" d="M404.5 321.5a91 91 0 0 0-4.5 6q-1.492-.85-2.5-2-3.879-3.759 0-7.5a43.4 43.4 0 0 0-1-9 18 18 0 0 0 2-3.5q-1.942-4.299 0-8.5-3.587-1.964 0-3-3.171-9.317-5-18.5 2.222-2.166-1-2v-1q.814-.09 1-1-13.719-39.14-46.5-56-.476-2.701-2-1-5.532-4.65-12-5a15 15 0 0 1-3.5-3 4.46 4.46 0 0 0-1.5 2q-4.08-3.685-8.5-4 1.438-.679 2.5-2 1.036 3.587 3 0 1 4 2 0 1 2 2 0a21.5 21.5 0 0 0 6 5q2.779-2.594-.5-3.5l1.5-1.5q3.366 7.262 11.5 9 1.969-1.44 4 .5-2.656.803-1 2.5a18 18 0 0 0 3.5-2q.684 1.866-1.5 2.5a10.8 10.8 0 0 1 3 2.5q4.164.883 7 4 2.086-1.718 4 0 1.944 2.754 2.5 6 3.897-.897 5.5 3.5a42.6 42.6 0 0 1 8 3.5 98 98 0 0 1 0 9q1.143.616 3 .5-1.426 1.077-.5 2.5 2.61 1.823 3 5a6.98 6.98 0 0 0 3.5 2.5 7.25 7.25 0 0 0-2 2.5 10.4 10.4 0 0 1 3 5q1.237 1.329 3 1-.389 4.597 3 7.5-3.98 5.085 2 8a4.46 4.46 0 0 0-2 1.5q1.808 3.352 3 6.5a65 65 0 0 0-2 7 12.2 12.2 0 0 1 3 4q-.608 1.418-2 2 4 1 0 2 .826 2.098 1 4l-2 1q.702 2.733 1 6.5 2.436-.21 3.5 2 .216 3.787.5 7" style="opacity:1"/><path fill="#4580b6" d="M319.5 204.5q-1.494-.129-2.5 1l-1-2-3 1-4-2q-4.806.388-9.5 0-1.858.663-3 2a120 120 0 0 1-6.5-2q-3.651 2.284-8 3l-1-1q-1.791 3.038-4.5 1-5.848 2.258-11 5-1 0-1 1a278 278 0 0 1-9 1.5q-3.98 3.445-9.5 7.5-1.574-1.526-3.5-.5l2 1a48 48 0 0 1-8 3.5 6.85 6.85 0 0 1-1 4q-9.543.272-8.5 9-6.254 8.12-12.5 14.5 1.17 1.61-.5 3.5l-1-1q-3.148 10.518-8.5 19.5.116 3.166 1 6l-4 10 2 1q-1.449 4.399 0 8-3.633 3.168 0 6l-2 1q3.439 4.922 1 9.5 2.902 1.07 1 3-1.987-2.179-2.5 1-.532-3.291-3.5-6.5 2.356-.582 3-4.5-1.9-2.806 0-5.5-2.178-2.937-1-6-3.78-5.25 1-10l-2-5q5.316-1.88 1-5.5a6.8 6.8 0 0 1 3-1.5q-3.648-1.63 1-1.5-.538-3.399 2-5.5a7.3 7.3 0 0 1-3-2q1.423-.926 2.5.5 1.409-6.405 6.5-10.5-5.024-.134-1.5-3.5 1.077 1.426 2.5.5-.174-1.903-1-4 6.15-5.136 8.5-11.5 1.34 1.817 2.5 0a4.46 4.46 0 0 0-2-1.5q1.823-2.61 5-3l3.5-5.5 1 1a23 23 0 0 1 2-5 3.94 3.94 0 0 0 2 1q4.81-2.16 9.5-6.5l-2-2q1.988.222 3.5-.5a4.46 4.46 0 0 0 1.5 2 29 29 0 0 0 3.5-6l3 1q1.46-6.733 4-1a11.3 11.3 0 0 1 3.5-1.5q-1.817-1.34 0-2.5a18 18 0 0 0 3.5-2q2.046 1.137 3.5-1.5 5.933-.032 11.5-3.5 1.806 1.457 1.5 3a124 124 0 0 1 14.5-5q2.223 3.422 5 0 .52 2.52 3 3 5.087-2.002 9.5-3a12.8 12.8 0 0 0 6 3q1.329 1.237 1 3" style="opacity:1"/><path fill="#497bb3" d="M321.5 196.5a42 42 0 0 1-6 2 7.25 7.25 0 0 1-2.5-2q-1.902.174-4 1l-2-2q-1 4-2 0-2.668 1.469-5-1-1.206 1.956-3.5 2-3.298-2.474-5.5 1-3-2-6 0a4.46 4.46 0 0 0-1.5-2q-1.07 2.902-3 1 2.187-2.267 5.5-3l1 2q1.108-1.611 3-2 5.428 2.297 11-1l2 2 11-1a195 195 0 0 0 7.5 3" style="opacity:1"/><path fill="#7151a2" d="M465.5 323.5a319 319 0 0 0 2 5l-.5 2q-.981-1.794-1.5 0a7.25 7.25 0 0 0 2 2.5 148 148 0 0 0-5 10q1.392 3.621-.5 7.5a9.5 9.5 0 0 1-2.5 1.5q2.046 3.862-2 6a11.3 11.3 0 0 0 2 4q-4.905 2.287-3 7-1.293 4.101-2.5.5-1.67 1.89-.5 3.5-2.841 1.651-2 4-4.064 2.19-2 6-2.276 2.668-2.5-1.5a11.3 11.3 0 0 1-1.5 3.5l1 1a19.2 19.2 0 0 1-5 2.5q4.731-8.371 9.5-18a23.7 23.7 0 0 1 2.5-6 3.65 3.65 0 0 0-1-1.5q5.215-6.621 7-15a3.94 3.94 0 0 0-1-2q2.972-.908 1-3 3.18-2.284 1-5.5a76 76 0 0 0 4-9.5q-.826-2.098-1-4a2.43 2.43 0 0 1 2-.5" style="opacity:1"/><path fill="#3d88b9" d="M384.5 325.5q.456.975 1 2-2.083 5.438-6 9.5a3.94 3.94 0 0 1 1 2q-2.229.377-3 4-.713 4.839-5 9 1.1 3.14-2 1.5-1.184-.425-2-1.5a20.5 20.5 0 0 1 3.5-2.5q1.4-5.6 4.5-8.5-4.165-3.26.5-1.5a15.3 15.3 0 0 1 1.5-4.5 3.65 3.65 0 0 1-1-1.5 40 40 0 0 0 4-4.5l-1-1q1.854-1.627 4-2.5" style="opacity:1"/><path fill="#6b58a5" d="M458.5 306.5a37.6 37.6 0 0 0 1 8.5l-2 1q1.754 6.745 0 13.5a273 273 0 0 1-5 13.5q3.827 2.274-1 2.5-.166-1.255-1-3a4.46 4.46 0 0 1 2-1.5l-1-1q2.437-1.28 1-3a316 316 0 0 1 4-11q-1.522-6.387-1-14.5a100 100 0 0 0 3-5" style="opacity:1"/><path fill="#4580b6" d="M203.5 323.5q2.544 2.652 4 6.5l-1 1q2.701.476 1 2a15.3 15.3 0 0 1 1.5 4.5q1.981 7.17 7.5 13.5-1.647 1.155 0 2.5-2.976.175-5-2-.897-4.03-4-6.5l1-1q-5.164-.332-1-3-1-3-4-4a4.46 4.46 0 0 0 2-1.5q-1.854-2.716 0-5.5-1.416-2.215-4-3a19.6 19.6 0 0 1 2-3.5" style="opacity:1"/><path fill="#1fa9c7" d="M337.5 314.5q4.374 5.758-1.5 10-1.077-1.426-2.5-.5 1.526 1.574.5 3.5-1.077-1.426-2.5-.5-1.218 5.68-8 7l2 1q-1.926 1.026-3.5-.5-1.645 4.147-6 5l-1-2a19.9 19.9 0 0 1-3.5 4q-1.824-.753-3.5-1-1.28 3.154-3.5 0a16.6 16.6 0 0 0 2.5-4q1.011 1.617 3 2 4.431-.141.5-1.5a10.8 10.8 0 0 0 3-2.5q2.054 2.436 5 1.5l-2-1a11.53 11.53 0 0 0 4.5-3.5q1.077 1.426 2.5.5-2.633-1.08-2.5-3.5 3.314 1.873 6.5-.5l-1-1a7.3 7.3 0 0 0 3-2q-1.17-1.61.5-3.5h4q-.803-2.92 1-6 1.006-1.129 2.5-1" style="opacity:1"/><path fill="#7151a2" d="M133.5 317.5q1.135 3.083 4 6.5-3.602 3.26 0 7-1.462 3.618 2 6 .2 2.318-1 5 2.083 4.636 4 8a3.65 3.65 0 0 0-1 1.5q2.827 1.045 1 3 3.009 9.468 9 18.5l-1 1q2.701.476 1 2 2.782 5.076 5.5 8.5.443 3.646 3.5 5.5-.343.598-1 .5-1.875.116-2.5 2l-1-5-1 1a41.8 41.8 0 0 0-5-10q-1.077 1.426-2.5.5 3.701-2.383.5-5.5-1.978-2.98-5.5-3.5 5.454-.94 0-3.5 2.422-3.985-2-5.5l2-1a13.9 13.9 0 0 1-3-4q-.368-2.866 0-6-3.414-1.545-2-4.5-2.851-2.153-1-5a19.4 19.4 0 0 0-3-8q1.827-1.954-1-3a4.46 4.46 0 0 1 2-1.5q-1.817-1.67 0-3.5a92 92 0 0 0-3-4.5q.85-1.492 2-2.5" style="opacity:1"/><path fill="#774ba0" d="M470.5 349.5q3.809 2.11-1 3.5 2.138 2.57-1 4v4a52.8 52.8 0 0 1-6 10q.686.621 1 1.5-4.47 11.118-11 19.5l1 1q-2.382 5.483-8 10l1 1a85 85 0 0 0-9 8.5q.366-4.144 4-6.5l-1-1a39.5 39.5 0 0 0 5-5.5 3.65 3.65 0 0 0-1-1.5q1.13-2.23 2.5-.5 1.105-5.32 5.5-8.5l-1-1q2.701-.476 1-2 3.77-3.085 4-7a997 997 0 0 0 8-14l-2-1a7.3 7.3 0 0 0 3-2v-4l2-2q-3.567-1.461 1-2-1.711-3.336 2-4.5" style="opacity:1"/><path fill="#3d88b9" d="M228.5 352.5q1.983-.255 3.5 1a33.2 33.2 0 0 1 3.5 6 4.46 4.46 0 0 0 1.5-2q2.042 5.29 5 8a3.65 3.65 0 0 1 1.5-1q-.28 1.975 2 4 1.663-1.635 3 0 1.712 1.388 0 2.5 2.56.293 5 0-1.426 1.077-.5 2.5 4.298.309 7.5 4.5 2.845 1.664 5.5.5 1.806 1.457 1.5 3l2-1 4 3a41 41 0 0 1 5.5 0q3.468.683 6 3 2.374.01 5-1l1 2q2.5-2 5 0 1-4 2 0a456 456 0 0 0 4-3 7.25 7.25 0 0 0 2.5 2q1.83-1.817 3.5 0 2.687-3.02 4 0 2-2 4 0 1.565-1.684 2-4 1.5 4 3 0 4.101 4.189 3-1a11.3 11.3 0 0 0 4 2 7937 7937 0 0 1 8-6q1.74 3.446 3-1 1.207 3.601 2.5-.5l8-3-2-1q3.105-1.422 4.5-4.5l1 2a7.25 7.25 0 0 1 2.5-2q.05-2.233 1.5-4l1 2a8.4 8.4 0 0 0 .5-4q1.983-.255 3.5 1 2.668-2.276-1.5-2.5 1.13-2.23 2.5-.5 2.456-2 2.5-4 1.025.544 2 1 .166.926 1 1.5-3.45 5.064-8 7 2 1 0 2a71.6 71.6 0 0 0-11.5 8.5l-1-1q-3.767 4.84-9 5a4.93 4.93 0 0 0-.5 3 69 69 0 0 0-16.5 5 3.65 3.65 0 0 0-1.5-1 57 57 0 0 1-6.5 3q-5.937-2.15-12 1-3.326-.656-7 0-1.526-3.792-3.5 0a20.9 20.9 0 0 0-6.5-3l-5 1q-8.799-3.264-17.5-6.5l-17-10q-5.745-5.975-13-12.5-3.541-3.255-4-7" style="opacity:1"/><path fill="#4580b6" d="M395.5 326.5q.07 5.253 0 10.5a45.9 45.9 0 0 1-7 9q1.31 2.59-.5 5.5l-1-2q-.41 2.744-2.5 4.5.174 1.902 1 4a235 235 0 0 1-19 22.5q-1.78 2.09-2-.5 3.018-1.727.5-3.5-1.904 2.107-1.5 5-2.466.32-4.5-1-.739 1.573.5 3-1.16 1.817-2.5 0l-1 4q-3.082-.522-6 2l-1-1q-1.853 5.254-7 7-2.577-5.874-3.5 1-3.457 3.121-7.5 1-1.989.383-3 2-4.572-3.298-8 2-2.833-.896-5.5-1a6.8 6.8 0 0 0-1.5 3l-1-2q-5.788 1.467-12-2-2.101 2.538-5.5 2 .428 2.682-1 5-1.388-1.712-2.5 0l-2-2q-2.374-.01-5 1a6.55 6.55 0 0 1-3-3q-2.593 3.869-5.5 0-2.014 2.103-2.5-1-3.279-.783-7 0a28 28 0 0 0-1.5-5q-1.16-1.817-2.5 0-3.514-1.935-7-6l-3 3q-3.475-3.168-4-8-1 4-2 0-1 2-2 0l-1 3a31 31 0 0 0-4.5-4l-1 2a26.6 26.6 0 0 1-2-3.5l1-3a11.53 11.53 0 0 1-3.5-4.5 3.65 3.65 0 0 1-1.5 1q-.253-1.346-1-3-1.83-1.817-3.5 0a23 23 0 0 0-2-5 3.65 3.65 0 0 1-1.5 1q-2.089-2.044-5-2.5a7.25 7.25 0 0 0 2-2.5q-1.349-4.989-6-9a31 31 0 0 0 2-2q3.34 1.351 3 5 4.455.368 4 5 1.763-.329 3 1 2.754 5.501 8 8.5l-1 1q5.216 1.653 8.5 7.5.417-1.374 1.5-2a37 37 0 0 1 5.5-1l1.5 1.5q-2.184.634-1.5 2.5 2.439-.531 5.5 0-.22 3.663 2.5 2a6.8 6.8 0 0 0 1.5 3q2.844-1.709 3 2 .823 3.28 3.5 2a350 350 0 0 1 20 7l1-2q3.75 3.055 8 1 1.731 3.686 4 0l4 2q3.19-.436 7-2 3.98.273 8 1 4.74-3.194 10-2 .663-3.268 3-2 4.702-1.85 10-5l1 1a94 94 0 0 0 11.5-7 3.65 3.65 0 0 1 1.5 1 30 30 0 0 1 6.5-6.5q-.834-.574-1-1.5 8.429-2.867 12.5-11 1.72 1.437 3-1 4.209-7.69 10.5-13.5a3.65 3.65 0 0 1-1-1.5q2.99-6.196 7-13a3.65 3.65 0 0 0-1-1.5q4.692-3.754 3-8a2.43 2.43 0 0 1 2-.5" style="opacity:1"/><path fill="#6b58a5" d="M435.5 382.5q-.255 1.983 1 3.5l-6 5q.686.621 1 1.5a32 32 0 0 0-4 2.5l2 1a11.3 11.3 0 0 0-3.5 1.5q-2.187 6.138-6 9l-1-1v4l-1-1a18.5 18.5 0 0 1-3.5 2 8.4 8.4 0 0 1 .5-4l1 1 2-4 1 1a547 547 0 0 1 16.5-22" style="opacity:1"/><path fill="#4382b6" d="M359.5 376.5q.166.926 1 1.5a30 30 0 0 0-6.5 6.5 3.65 3.65 0 0 0-1.5-1 94 94 0 0 1-11.5 7l-1-1q-5.298 3.15-10 5-2.337-1.268-3 2-5.26-1.194-10 2a73 73 0 0 0-8-1q-3.81 1.564-7 2l-4-2q-2.269 3.686-4 0-4.25 2.055-8-1l-1 2a350 350 0 0 0-20-7q-2.677 1.28-3.5-2 2.535-3.032 5.5 1l1-2q2.532 3.434 5.5 4 1.824-.753 3.5-1a13.9 13.9 0 0 0 4 3q5.13-.58 10 0a27 27 0 0 1 4.5 2q2.5-2 5 0 1.48-5.812 3.5 0l1-2q3.054 5.095 6-1l1 2q3-4 6 0 1.5-6 3 0a7.3 7.3 0 0 1 2-3q2.668 4.164 3-1l1 1q4.94-3.645 10-5l1 2q.623-2.686 3-4 2.655 1.164 5.5-.5l-1-1q1.75-.75 2.5-2.5l1 1q2.259-2.511 5.5-3a4.93 4.93 0 0 1 .5-3q2.121 1.37 4.5 0" style="opacity:1"/><path fill="#774ba0" d="M125.5 333.5q1.494-.129 2.5 1a22.36 22.36 0 0 0 2.5 9.5q-1.88 7.932 5 14-2.193 5.055 2 9l-1 1q3.268.663 2 3a26.8 26.8 0 0 1 3.5 7.5q2.5-1.26.5 1.5 2.201 1.647 2.5 4.5l1-1q5.355 15.197 16.5 24.5-1.268 2.337 2 3l-2 1a34.4 34.4 0 0 1 7 7l4 1q-1.17 1.61.5 3.5a46.5 46.5 0 0 1 12.5 13q-1.494-.129-2.5 1-4.852-6.672-10-11l-1 1q-2.347-5.714-7.5-9a29 29 0 0 1-1.5-4l-1 1a23 23 0 0 1-2-5l-1 1q-1.422-3.105-4.5-4.5l2-1a21.8 21.8 0 0 0-6-5l1-1q-3.294-3.782-7-9l1-1q-3.424-3.596-4-8.5a4.93 4.93 0 0 1-3-.5v-6a17.6 17.6 0 0 1-5-5q1.936-3.135-2-4 1.58-2.082.5-4.5-.981 1.794-1.5 0 2.283-2.484-1-3.5 3.601-1.207-.5-2.5a88.6 88.6 0 0 0-5.5-17 4.46 4.46 0 0 1 2-1.5q-3.34-1.056-1-3.5" style="opacity:1"/><path fill="#7a439a" d="M470.5 376.5q-7.21 17.16-18 32-.305-2.835 2-4.5l-1-1q4-1 0-2a63 63 0 0 0 6-5.5 3.65 3.65 0 0 0-1-1.5q6.13-3.52 5-10a6.8 6.8 0 0 0 3-1.5q1.206-3.8 4-6" style="opacity:1"/><path fill="#774ba0" d="M437.5 412.5a21.8 21.8 0 0 1-3.5 7l-1-2q-.531 5.121-5.5 6-.072-4.188 4-5.5l-1-1q2.744-.41 4.5-2.5.112-3.653 2.5-2" style="opacity:1"/><path fill="#7151a2" d="M433.5 401.5q-2.179 1.987 1 2.5-6.176.824-2 5-1.554 2.426-3.5.5a65 65 0 0 0-6 9l-2-2q-3 3.714-3.5 7.5a64 64 0 0 0-8 3.5 73 73 0 0 0-4.5 8 4.46 4.46 0 0 0-1.5-2q-3.18 1.642-4.5 5-4.047-.595-6.5 3.5a4.93 4.93 0 0 1-3 .5q.13 4.648-1.5 1a9.5 9.5 0 0 1-2.5 1.5l1 1a15.8 15.8 0 0 0-5.5 3.5 3.65 3.65 0 0 0-1.5-1 19.9 19.9 0 0 1-6.5 5l-1-1-7 6-1-2q-1.05 2.298-3.5 3l-1-2q-1.122 4.193-4.5 2a68 68 0 0 0-2 4q-3.963-2.338-7 1l-2-2q-2.452 6.405-7.5 2-5.22.53-9 4-4.693-1.87-9.5 0-1.313 3.02-4 0l-1 2q-.348-1.856-1.5-3 2.585-1.96 5.5 0l2-2q3-2 6 0a7.25 7.25 0 0 1 2.5-2q4.578 1.216 8.5 0l1-2q5.544.304 11 0 .476-2.701 2-1 7.176-4.399 15.5-6.5-1.26-2.5 1.5-.5.762-3.606 3.5-2a812 812 0 0 0 20-10.5q-1.73-1.37.5-2.5h3a126 126 0 0 1 8.5-6.5q2.09-1.756 2.5-4.5l1 1 5-5 1 1q2.23-1.13.5-2.5l4-2a30 30 0 0 1 6-7l-1-1q6.97-3.159 9.5-10.5 1.155-1.647 2.5 0" style="opacity:1"/><path fill="#7152a2" d="M169.5 405.5a4.93 4.93 0 0 1 3 .5l-1 1q10.106 10.107 19.5 18.5.696.891.5 2-2.356 1.045-4.5 1 1.469-2.668-1-5a3.65 3.65 0 0 1-1.5 1 47.7 47.7 0 0 1-5.5-7l-1 1a15.4 15.4 0 0 0-3-6q-2.337 1.268-3-2l-1 1a10.1 10.1 0 0 1-1.5-6" style="opacity:1"/><path fill="#7151a2" d="M191.5 427.5q3.834 1.565 6.5 5l1-1q2.23 1.13.5 2.5l4 1-1 1q2.911 2.854 7 2.5v3q-1.774-.517-2.5 2-3.763-1.376-5.5-6.5-5.718-.705-8.5-5.5-2.807 1.752-4.5-1.5 2.428-.354 3-2.5" style="opacity:1"/><path fill="#774ba0" d="M415.5 434.5a4.93 4.93 0 0 1-.5 3l-1-1a6.8 6.8 0 0 1-1.5 3q-13.794 9.529-27.5 19-2.337-1.268-3 2-1.524-1.701-2 1l-1-2q-.663 3.268-3 2a55 55 0 0 1-9 5l-1-1a50.8 50.8 0 0 1-10.5 5q-.91-.186-1-1 2.25-2.518 5.5-4l1 1q1-4 2 0a7.3 7.3 0 0 1 2-3q3.835 1.719 4-3 2.082 1.58 4.5.5l-1-1q1.823-3.144 2.5.5 2.7-2.726 6.5-3.5l-1-1q6.52.121 9.5-5.5.621.686 1.5 1 3.606-.762 2-3.5 2.24-2.052 4.5-.5 1.62-4.475 5.5-4a32 32 0 0 1 5-4.5l-1-1a109 109 0 0 0 8-3.5M186.5 436.5a47 47 0 0 1 7 3 45.9 45.9 0 0 0 11 8.5q-1.26 2.5 1.5.5a34.3 34.3 0 0 0 10.5 6.5q-1.129 1.006-1 2.5-5.083-1.784-8.5-6-1.077 1.426-2.5.5a148 148 0 0 0-17-12q-.178-1.718-1-3.5" style="opacity:1"/><path fill="#6b58a5" d="M223.5 439.5q10.962 3.933 22.5 9l1-1q3.609 2.38 6.5 5-3.327-1.647-6.5 0l-2.5-3q-2.014 2.103-2.5-1l-1 1a30 30 0 0 1-8.5-5q-2.744 1.173-4.5-2l-1 1q-2.44-1.548-3.5-4" style="opacity:1"/><path fill="#7151a2" d="M210.5 441.5q5.916 1.323 9.5 6 2.76-2 1.5.5a38 38 0 0 1 6.5 2.5l1-1q1.377 3.198 4 2a10.1 10.1 0 0 1 1.5 4q-1.644 5.683-2 0-2.712.014-5-1.5l1-1-5-2.5q-2.2 1.793-4.5 0-3.279-4.44-8.5-6.5 1.647-1.155 0-2.5" style="opacity:1"/><path fill="#6b58a5" d="M337.5 455.5q-1 3.26-3.5 1a57 57 0 0 1-6.5 3q-1.223-2.664-3.5-2-5.337.828-11 3-9.083-.035-17-1-3.12 3.71-6.5 0-2.401.998-4.5 1l-2-2q-1.155 1.647-2.5 0 .752-5.05 3.5-1 3.96-.924 8 1 11.723-.111 23.5 0 4.164-.669 7.5-3 4.413-.388 8 1a92 92 0 0 1 4.5-3 31 31 0 0 0 2 2" style="opacity:1"/><path fill="#7151a2" d="M256.5 462.5q-.467 1.467-2 2-3.968-.513-7.5-4l-1 2q-2.033-4.848-5-2-1.472-4.732-4-1-.315-2.337-1.5-4a2.43 2.43 0 0 1 .5-2q1 2 2 0 4.085 5.067 10 4 4.023 3.128 8.5 5" style="opacity:1"/><path fill="#774ba0" d="M253.5 471.5a2.43 2.43 0 0 1-.5 2q-9.553-2.838-19-8-1.524 1.701-2-1l-1 1q-7.042-1.036-11-7l-1 1q-1.062-1.321-2.5-2 .467-1.467 2-2 1.794.519 0 1.5 2.744.41 4.5 2.5l1-1q3.107 1.296 5 4l1-2q.539 4.567 2 1l5 5 1-2q1 2 2 0l3 4a4.46 4.46 0 0 1 1.5-2l4 3q1.824-.753 3.5-1 3.237.825 1.5 3" style="opacity:1"/><path fill="#7151a2" d="M311.5 467.5q-.969 4.583-5.5 2-4.267 4.15-7-1-3.948-.31-7 1l-1-2a8.9 8.9 0 0 1-3 4q-3.126-3.8-6 0l-3-4q-1 4-2 0-.677 3.644-2.5.5l1-1q-3.727-3.315-5.5 1.5-1.05-2.298-3.5-3a43 43 0 0 0-6.5 0q-1.561-1.457-2.5-3 .425-1.184 1.5-2 2.73 1.483 5.5 3 2.767-2.156 3.5 1 1.964-3.587 3 0a36.4 36.4 0 0 0 6.5 0l1 2q6.443-1.435 12.5-1l4 2a145 145 0 0 1 16.5 0" style="opacity:1"/><path fill="#774b9f" d="M354.5 469.5q-1.935.837-2.5 3-1.867.058-4-1a9.6 9.6 0 0 0-3 3 347 347 0 0 0-7.5 0q-.197-1.314 1-2a26.6 26.6 0 0 0 7.5-3 34 34 0 0 1 8.5 0" style="opacity:1"/><path fill="#774ba0" d="M280.5 476.5a36 36 0 0 1-4.5 2 13.24 13.24 0 0 0-5-3l-1 2q-1.112-1.712-2.5 0a12.8 12.8 0 0 1-6-3q-3.007 1.498-4-2 1.875-.116 2.5-2 1.773 2.602 5 3 5 2 10 0 2.643.666-.5 1.5zM336.5 474.5a2.43 2.43 0 0 1-.5 2q-4.875 1.623-10 0-1.517.588-1.5 2-3.385-1.44-7.5-1-10.86 2.928-21 2-2.75-.028-4.5-2-.197-1.314 1-2 2.739 3.422 6 0 2.967.947 6.5 0l2 2a57.4 57.4 0 0 0 11-3q5.813 1.485 11 0l2-2q1.5 2 3 0 1.492.85 2.5 2" style="opacity:1"/><path fill="#7a439b" d="M341.5 482.5q-18.899 5.56-39 5 3.78-1.032 7.5-3l1 2 4-2q2.381 1.84 4-1 1 4 2 0 1 2 2 0l1 2q2.104-2.547 5.5-1.5 1.738-4.734 4.5-.5a19.5 19.5 0 0 1 7.5-1" style="opacity:1"/></svg>