<svg xmlns="http://www.w3.org/2000/svg" fill="none" viewBox="0 0 640 640" width="256" height="256" preserveAspectRatio="xMidYMid meet"><path fill="#000" d="M0 0h640v640H0z"/><path fill="#fff" d="M505.552 191.754c-11.446-19.724-31.942-31.537-54.835-31.537H324.475c-1.636-.109-3.271-.217-4.906-.217s-3.271.108-4.906.217H188.421c-22.894 0-43.389 11.813-54.836 31.537s-11.447 43.241 0 62.965l131.148 225.744C276.18 500.187 296.675 512 319.569 512s43.389-11.813 54.836-31.537l131.147-225.744c11.447-19.616 11.447-43.241 0-62.965M344.098 463.123c-5.124 8.778-14.282 14.089-24.529 14.089s-19.405-5.311-24.529-14.089l-73.805-127.015 73.805-127.123c4.579-7.911 12.319-12.896 21.258-13.872h6.541c8.94.976 16.68 6.069 21.259 13.872L417.902 336z"/></svg>