<svg xmlns="http://www.w3.org/2000/svg" style="shape-rendering:geometricPrecision;text-rendering:geometricPrecision;image-rendering:optimizeQuality;fill-rule:evenodd;clip-rule:evenodd" viewBox="0 0 216 232" width="256" height="256" preserveAspectRatio="xMidYMid meet"><path d="M14.5-.5c1 0 24.103 13.226 35 19.5-11.075 5.949-22.815 12.671-35 19.5z" style="opacity:.634"/><path d="M81.5 19.5a96646 96646 0 0 1 82 47c-.654 34.405-.157 64.588 0 98a9815 9815 0 0 0-81.5 47c.078-21.83.327-42.419 0-64l27-16c.294-11.289.21-20.3 0-32l-27-16c-.252-21.331-.17-42.167-.5-64" style="opacity:.686"/><path d="M-.5 164.5v-98a1950 1950 0 0 0 51-29c-.702 52.931.683 104.322.5 156a2163 2163 0 0 0-51.5-29" style="opacity:.683"/><path d="M182.5 95.5c10.864 6.598 33 19.333 33 20-11.136 6.069-22.136 13.402-33 20-.091-13.085.157-25.922 0-40" style="opacity:.628"/><path d="M49.5 212c-10.897 6.274-34 19.5-35 19.5v-39c11.243 6.792 23.158 13.043 35 19.5" style="opacity:.633"/></svg>