<svg id="svg-1081013161_1223" fill="none" viewBox="0 0 322 234" width="256" height="256" preserveAspectRatio="xMidYMid meet"><path fill="#fff" d="M320.456 25.519c-2.308-3.988-7.452-5.302-11.39-2.907l-211.51 128.46c-5.389-10.07-8.443-21.576-8.443-33.793 0-39.669 32.196-71.827 71.911-71.827 17.054 0 32.71 5.945 45.038 15.85l-44.997 30.851L278 24.718a5.247 5.247 0 0 0 1.925-7.182 5.27 5.27 0 0 0-7.541-1.704L243.75 35.465C222.649 14.177 193.385.988 161.024.988 96.721.988 44.596 53.052 44.596 117.28c0 20.679 5.41 40.093 14.882 56.921L.175 210.216l60.885-33.294c20.334 33.93 57.488 56.648 99.964 56.648 64.303 0 116.429-52.064 116.429-116.291v-13.887c0-10.879 4.42-24.797 20.08-33.177a2.695 2.695 0 0 0 1.069-3.721 2.693 2.693 0 0 0-3.678-.985l-138.845 80.069c15.499-6.58 27.347-10.582 43.052-13.733 32.715-6.564 33.548 9.014 20.913 26.585-8.459 11.766-27.57 30.662-59.006 30.662-25.635 0-48.126-13.394-60.865-33.56L317.285 36.826c4.047-2.21 5.479-7.32 3.171-11.307"/></svg>