<svg xmlns="http://www.w3.org/2000/svg" fill="none" viewBox="0 0 44 44" width="256" height="256" preserveAspectRatio="xMidYMid meet"><path fill="url(#paint0_linear_490_495)" d="M19.055.755c-3.396.538-7.04 2.029-9.649 3.955-1.678 1.242-4.162 3.81-5.218 5.425-5.695 8.593-4.473 19.961 2.878 27.167 3.893 3.831 8.572 5.819 14.163 6.047 2.34.083 3.148.041 4.949-.332 4.432-.931 7.641-2.671 10.913-5.922 4.245-4.224 6.295-9.09 6.295-15.054 0-5.943-2.009-10.871-6.212-15.095-2.879-2.899-6.005-4.7-9.898-5.694-2.278-.58-6.129-.808-8.221-.497m5.715 2.402c1.76.973 2.671 2.526 2.671 4.597 0 1.387-.724 3.085-1.615 3.768l-.538.435-1.284-1.284c-.932-.932-1.429-1.284-1.843-1.284-.455 0-1.656 1.098-6.647 6.088-5.301 5.301-6.088 6.171-6.088 6.709 0 .559.787 1.429 6.192 6.813 5.466 5.466 6.253 6.15 6.667 6.026.663-.187 11.576-11.079 11.576-11.534 0-.539-.622-.621-4.225-.539l-3.23.063-1.118 1.18c-1.574 1.656-2.94 1.988-4.638 1.18a3.593 3.593 0 0 1-1.16-5.57c.766-.89 1.553-1.242 2.775-1.242 1.242 0 1.636.186 2.919 1.345 1.45 1.284 3.003 1.636 4.825 1.098.601-.186 1.305-.725 2.506-1.926 1.325-1.346 1.843-1.739 2.65-1.967 4.928-1.346 8.718 4.141 5.632 8.179-1.056 1.408-1.946 1.802-4.369 2.009-2.609.207-4.079.725-5.529 1.905-2.029 1.656-3.188 3.976-3.395 6.833-.187 2.775-1.077 4.287-3.065 5.218-1.884.891-4.038.58-5.612-.807-1.283-1.139-1.573-1.802-1.76-4.08-.228-2.836-.745-4.058-2.526-5.922-1.926-2.05-3.272-2.692-6.357-3.085-1.532-.186-2.485-.414-2.94-.683-3.479-2.154-3.521-7.041-.063-9.049.663-.394 1.388-.58 2.734-.725 3.106-.331 5.363-1.346 7.061-3.189 1.47-1.594 2.112-3.354 2.112-5.839 0-4.224 4.038-6.709 7.682-4.721"/><defs><linearGradient id="paint0_linear_490_495" x1="2.59" x2="37.877" y1="3.315" y2="38.604" gradientTransform="translate(.614 -.12)" gradientUnits="userSpaceOnUse"><stop stop-color="#AA4E9C"/><stop offset="1" stop-color="#28AAE1"/></linearGradient></defs></svg>