<svg xmlns="http://www.w3.org/2000/svg" id="logo" fill="none" viewBox="0 0 28 28" width="256" height="256" preserveAspectRatio="xMidYMid meet"><path fill="#E81899" d="m27.176 21.579-4.713-6.405a3 3 0 0 0-2.078-1.205.584.584 0 0 1-.47-.815 3 3 0 0 0-.005-2.402l-3.189-7.284a2.969 2.969 0 0 0-5.442 0l-3.19 7.284a3 3 0 0 0-.004 2.402.587.587 0 0 1-.47.816 3 3 0 0 0-2.078 1.204L.824 21.58c-.7.95-.77 2.224-.181 3.246a2.98 2.98 0 0 0 2.902 1.467l7.903-.88a2.99 2.99 0 0 0 2.08-1.196.586.586 0 0 1 .943 0 2.99 2.99 0 0 0 2.081 1.197l7.903.88a2.97 2.97 0 0 0 2.721-4.714m-17.025-9.912 3.194-7.293a.72.72 0 0 1 .657-.43c.284 0 .541.17.656.43l3.194 7.293a.745.745 0 0 1-.683 1.042h-6.337a.746.746 0 0 1-.683-1.042zm1.64 11.102a.74.74 0 0 1-.583.403l-7.911.88a.715.715 0 0 1-.657-1.136l4.72-6.41a.743.743 0 0 1 1.243.068l.005.008 3.16 5.473.005.008a.74.74 0 0 1 .02.707zm2.859-2.476a.752.752 0 0 1-1.3.002l-2.428-4.203a.752.752 0 0 1 .65-1.126h4.854a.749.749 0 0 1 .65 1.124zM25.405 23.7a.72.72 0 0 1-.7.355l-7.912-.88a.744.744 0 0 1-.562-1.111l.004-.008 3.16-5.473.005-.008a.743.743 0 0 1 1.244-.069l4.719 6.411c.169.23.185.537.044.783z"/></svg>