<svg xmlns="http://www.w3.org/2000/svg" fill="none" viewBox="0 0 56 56" width="256" height="256" preserveAspectRatio="xMidYMid meet"><path fill="url(#paint0_linear_551_2884)" fill-rule="evenodd" d="M8.102 55.515a.79.79 0 0 1-1.064-.231l-.906-1.335a.8.8 0 0 1 .175-1.08c2.982-2.334 5.433-4.964 7.361-7.781 7.178-10.488 7.178-23.688 0-34.176-1.928-2.817-4.379-5.447-7.361-7.781a.8.8 0 0 1-.175-1.08L7.038.716A.79.79 0 0 1 8.102.485L48.32 25.002c2.245 1.368 2.245 4.628 0 5.996z" clip-rule="evenodd"/><defs><linearGradient id="paint0_linear_551_2884" x1="49.144" x2="-16.185" y1="28.12" y2="28.12" gradientTransform="translate(5.996 .37)" gradientUnits="userSpaceOnUse"><stop stop-color="#3568DD"/><stop offset="1" stop-color="#3568DD" stop-opacity=".6"/></linearGradient></defs></svg>