<svg xmlns="http://www.w3.org/2000/svg" fill="none" viewBox="0 0 656 656" width="256" height="256" preserveAspectRatio="xMidYMid meet"><path fill="url(#paint0_linear_421_2723)" fill-rule="evenodd" d="M152.504 563.241C80.888 509.727 34.526 424.278 34.526 328 34.526 165.919 165.92 34.526 328 34.526c133.769 0 279.849 79.941 315.178 202.372C603.699 100.086 477.56 0 328 0 146.851 0 0 146.85 0 328s146.851 328 328 328 328-146.851 328-328v-17.263l-18.02-.004c-.536-.004-1.346-.012-2.402-.028a488 488 0 0 1-9.07-.228 588 588 0 0 1-30.525-1.835c-24.611-2.141-52.676-6.318-71.792-13.953-30.754-12.282-48.117-28.564-67.957-47.616l-1.146-1.101c-19.874-19.092-42.202-40.541-80.897-58.751-38.121-17.939-80.274-15.061-111.25-8.687-15.73 3.236-29.204 7.504-38.763 10.966a239 239 0 0 0-11.319 4.411c-15.588 6.563-30.718 14.328-46.016 21.532 0 0 30.015 8.233 44.86 12.829.537.166 1.375.432 2.472.801 2.196.74 5.41 1.886 9.299 3.46 7.83 3.17 18.129 7.966 28.296 14.502 16.013 10.294 29.289 23.245 34.734 39.144-33.993 4.469-65.875 19.39-89.717 33.415a367 367 0 0 0-34.906 23.364 308 308 0 0 0-9.875 7.776c-1.942 1.599-32.633 28.654-32.633 28.654s39.596 4.211 59.135 8.148c12.999 2.619 30.524 6.834 48.804 13.213 18.364 6.407 36.915 14.801 52.31 25.547 15.427 10.768 26.725 23.217 32.302 37.468 16.238 41.499.304 81.925-31.689 104.665-31.613 22.47-79.675 27.812-127.731-5.188m111.913 51.326a132.4 132.4 0 0 0 35.821-17.997c43.534-30.943 66.442-87.623 43.838-145.387-8.88-22.693-25.849-40.046-44.692-53.198-18.875-13.175-40.595-22.821-60.697-29.835-13.218-4.612-25.985-8.172-37.167-10.874a326 326 0 0 1 12.772-7.923c26.572-15.63 60.037-29.985 92.129-29.985 48.371 0 84.396 14.843 118.792 30.771 3.127 1.447 6.265 2.92 9.42 4.4 30.737 14.42 63.019 29.566 100.525 29.566 36.374 0 64.704-10.283 84.228-20.918C602.002 508.678 478.173 621.474 328 621.474c-21.833 0-43.11-2.385-63.583-6.907M582.08 341.981c-12.927 4.411-28.598 7.598-46.922 7.598-29.423 0-54.702-11.787-86.794-26.75-2.825-1.317-5.704-2.66-8.642-4.02-32.134-14.881-69.311-30.651-117.704-33.509-6.493-32.041-30.777-53.936-51.578-67.308a184 184 0 0 0-6.92-4.234q3.114-.733 6.38-1.407c27.953-5.752 61.325-7.19 89.59 6.11 33.546 15.787 52.469 33.96 72.156 52.868l.674.647c20.258 19.454 41.684 39.848 79.066 54.777 20.767 8.294 47.644 12.755 70.694 15.228" clip-rule="evenodd"/><defs><linearGradient id="paint0_linear_421_2723" x1="0" x2="667.764" y1="656" y2="643.798" gradientUnits="userSpaceOnUse"><stop stop-color="#29CCB9"/><stop offset=".495" stop-color="#0091FF"/><stop offset="1" stop-color="#FF66B7"/></linearGradient></defs></svg>