<svg xmlns="http://www.w3.org/2000/svg" fill="none" viewBox="0 0 73 54" width="256" height="256" preserveAspectRatio="xMidYMid meet"><path fill="#008EEE" d="m7.496 17.263.28.02c.693.06 1.39.118 2.064.257 3.112.734 5.236 3.73 5.515 7.82.02.296.039.594.039.89-.058.477-.121.973-.098 1.469.02 4.227 2.737 7.68 6.329 7.997l.299.02c.693.06 1.387.12 2.062.279 3.115.732 5.24 3.709 5.518 7.816v.099c-.159.874-.22 1.807-.14 2.799.357 3.987 3.175 7.064 6.785 7.163.06 0 .118-.019.2-.019.057 0 .139.02.197.02 3.612-.1 6.449-3.177 6.786-7.164a10.9 10.9 0 0 0-.14-2.8v-.098c.28-4.086 2.402-7.085 5.517-7.816.676-.16 1.37-.219 2.064-.28l.279-.019c3.59-.317 6.31-3.75 6.328-7.997a12 12 0 0 0-.099-1.469c.02-.297.02-.594.042-.89.274-4.09 2.398-7.086 5.514-7.82.675-.159 1.368-.218 2.064-.258l.278-.019c3.592-.318 7.797-3.81 7.5-8.93-.257-4.505-3.988-7.121-7.758-7.34l-.338-.02c-3.551 0-6.468 3.273-6.764 7.6l-.14 2.518c-.298 3.988-2.263 6.847-5.24 7.68-.553.16-1.15.219-1.724.299-.635.079-1.29.158-1.926.315-3.492.854-5.24 9.267-5.199 9.467l-.04.714c-.276 3.909-2.3 6.865-5.236 7.677-.558.159-1.15.219-1.728.299-.077 0-.16.038-.256.038-.082 0-.16-.038-.26-.038-.573-.08-1.15-.14-1.724-.3-2.957-.811-4.96-3.75-5.24-7.676l-.039-.714c.039-.2-1.704-8.612-5.2-9.467-.632-.157-1.268-.236-1.903-.315-.578-.08-1.17-.14-1.728-.3-2.996-.832-4.961-3.69-5.236-7.679l-.14-2.519C14.561 4.246 11.666.973 8.112.973l-.336.02c-3.772.219-7.5 2.835-7.759 7.34-.319 5.12 3.91 8.612 7.479 8.93"/><path fill="url(#paint0_linear_132_28)" d="M21.962 35.736c3.709 0 6.589-2.935 7.023-6.984q.09-.953.12-1.904l.058-1.152c.28-4.089 2.402-7.084 5.519-7.818.553-.119 1.11-.178 1.666-.217.554.04 1.131.099 1.667.217 3.115.734 5.238 3.73 5.514 7.818l.06 1.152c.04.633.06 1.27.118 1.904.438 4.049 3.314 6.984 7.027 6.984 3.431-.099 7.142-3.193 7.48-7.183.375-4.385-2.698-8.017-6.192-8.869-.634-.16-1.269-.238-1.905-.318-.575-.08-1.15-.138-1.724-.296-8.038-2.81-5.5-7.535-5.5-7.535.379-1.176.795-2.586.795-3.659C43.688 3.532 40.94 0 36.328 0c-4.38 0-7.363 3.531-7.363 7.876 0 1.132.467 3.11.744 3.96 0 0 1.387 5.703-5.367 7.233-.574.159-1.151.216-1.725.297-.636.08-1.29.158-1.927.318-3.492.851-6.546 4.483-6.189 8.868.299 3.99 4.027 7.085 7.46 7.184"/><defs><linearGradient id="paint0_linear_132_28" x1="48.884" x2="28.886" y1="6.035" y2="40.673" gradientUnits="userSpaceOnUse"><stop stop-color="#04D8C5"/><stop offset="1" stop-color="#00E2FF"/></linearGradient></defs></svg>