<svg xmlns="http://www.w3.org/2000/svg" fill="none" viewBox="0 0 200 200" width="256" height="256" preserveAspectRatio="xMidYMid meet"><g clip-path="url(#clip0_1699_34147)"><path fill="url(#paint0_radial_1699_34147)" d="M100 200c55.228 0 100-44.772 100-100S155.228 0 100 0 0 44.772 0 100s44.772 100 100 100"/><g filter="url(#filter0_d_1699_34147)"><path fill="#fff" d="M93.496 52.298a9.2 9.2 0 0 0-2.25 3.709l-28.251 75.251H51.6V142.8h21.58l8.316-22.952 3.958-11.538 14.387-40.856 26.533 75.346h22.022v-11.542h-11.44l-28.249-75.254a9.2 9.2 0 0 0-2.249-3.706 9.14 9.14 0 0 0-6.48-2.698c-2.432 0-4.763.97-6.482 2.698"/></g></g><defs><radialGradient id="paint0_radial_1699_34147" cx="0" cy="0" r="1" gradientTransform="rotate(45)scale(282.843 190.177)" gradientUnits="userSpaceOnUse"><stop stop-color="#79A5C6"/><stop offset=".617" stop-color="#2A4874"/></radialGradient><clipPath id="clip0_1699_34147"><path fill="#fff" d="M0 0h200v200H0z"/></clipPath><filter id="filter0_d_1699_34147" width="104.796" height="101.2" x="47.6" y="49.6" color-interpolation-filters="sRGB" filterUnits="userSpaceOnUse"><feFlood flood-opacity="0" result="BackgroundImageFix"/><feColorMatrix in="SourceAlpha" result="hardAlpha" values="0 0 0 0 0 0 0 0 0 0 0 0 0 0 0 0 0 0 127 0"/><feOffset dy="4"/><feGaussianBlur stdDeviation="2"/><feComposite in2="hardAlpha" operator="out"/><feColorMatrix values="0 0 0 0 0 0 0 0 0 0 0 0 0 0 0 0 0 0 0.25 0"/><feBlend in2="BackgroundImageFix" result="effect1_dropShadow_1699_34147"/><feBlend in="SourceGraphic" in2="effect1_dropShadow_1699_34147" result="shape"/></filter></defs></svg>