<svg xmlns="http://www.w3.org/2000/svg" fill="none" viewBox="0 0 65 65" width="256" height="256" preserveAspectRatio="xMidYMid meet"><g clip-path="url(#clip0_2195_2074)" transform="translate(.894 20.595)"><path fill="url(#paint0_linear_2195_2074)" d="M26.538 13.448c-.905.848-.905 2.256 0 3.122l6.66 6.243a2.46 2.46 0 0 0 3.33 0c.904-.848.904-2.256 0-3.122l-6.66-6.243c-.905-.848-2.407-.848-3.33 0"/><path fill="url(#paint1_linear_2195_2074)" d="M49.176 10.955a2.106 2.106 0 0 0 0-3.122c-.905-.848-2.407-.848-3.33 0l-9.319 8.737-1.665 1.56c-2.063 1.935-4.885 1.63-5.808.781l4.143 3.885c.905.849 2.407.849 3.33 0z"/><path fill="url(#paint2_linear_2195_2074)" d="M62.531 7.884c-.904-.848-2.407-.848-3.33 0l-6.64 6.243a2.106 2.106 0 0 0 0 3.122c.904.848 2.406.848 3.329 0l6.66-6.243a2.15 2.15 0 0 0-.019-3.122"/><path fill="url(#paint3_linear_2195_2074)" d="M36.58 10.362c.906-.849.906-2.257 0-3.122L29.923.997a2.46 2.46 0 0 0-3.33 0c-.905.848-.905 2.256 0 3.122l6.66 6.243c.922.848 2.406.848 3.329 0"/><path fill="url(#paint4_linear_2195_2074)" d="M13.942 12.872a2.106 2.106 0 0 0 0 3.122c.905.848 2.407.848 3.33 0l9.32-8.754 1.664-1.56c2.063-1.935 4.886-1.63 5.81-.781L29.92 1.014c-.905-.848-2.407-.848-3.33 0z"/><path fill="url(#paint5_linear_2195_2074)" d="M.678 15.96c.905.847 2.407.847 3.33 0l6.66-6.244a2.106 2.106 0 0 0 0-3.122c-.906-.848-2.408-.848-3.33 0l-6.66 6.244a2.134 2.134 0 0 0 0 3.121"/></g><defs><linearGradient id="paint0_linear_2195_2074" x1="20.277" x2="36.472" y1="7.703" y2="24.773" gradientUnits="userSpaceOnUse"><stop offset=".117" stop-color="#6978FF"/><stop offset=".188" stop-color="#6087FF"/><stop offset=".348" stop-color="#4DA5FF"/><stop offset=".507" stop-color="#40BAFF"/><stop offset=".662" stop-color="#39C7FF"/><stop offset=".808" stop-color="#36CBFF"/><stop offset="1" stop-color="#67FFFC"/></linearGradient><linearGradient id="paint1_linear_2195_2074" x1="16.571" x2="64.46" y1="36.665" y2="-15.844" gradientUnits="userSpaceOnUse"><stop offset=".386" stop-color="#6978FF"/><stop offset=".443" stop-color="#6284FF"/><stop offset=".646" stop-color="#4AABFF"/><stop offset=".809" stop-color="#3BC2FF"/><stop offset=".909" stop-color="#36CBFF"/><stop offset="1" stop-color="#67FFFC"/></linearGradient><linearGradient id="paint2_linear_2195_2074" x1="61.313" x2="23.76" y1="9.271" y2="46.459" gradientUnits="userSpaceOnUse"><stop offset=".047" stop-color="#6978FF"/><stop offset=".124" stop-color="#6087FF"/><stop offset=".302" stop-color="#4DA5FF"/><stop offset=".477" stop-color="#40BAFF"/><stop offset=".647" stop-color="#39C7FF"/><stop offset=".808" stop-color="#36CBFF"/><stop offset="1" stop-color="#67FFFC"/></linearGradient><linearGradient id="paint3_linear_2195_2074" x1="28.992" x2="34.608" y1="2.44" y2="10.427" gradientUnits="userSpaceOnUse"><stop offset=".117" stop-color="#6978FF"/><stop offset=".188" stop-color="#6087FF"/><stop offset=".348" stop-color="#4DA5FF"/><stop offset=".507" stop-color="#40BAFF"/><stop offset=".662" stop-color="#39C7FF"/><stop offset=".808" stop-color="#36CBFF"/><stop offset="1" stop-color="#67FFFC"/></linearGradient><linearGradient id="paint4_linear_2195_2074" x1="5.998" x2="28.516" y1="28.739" y2=".48" gradientUnits="userSpaceOnUse"><stop offset=".313" stop-color="#6978FF"/><stop offset=".363" stop-color="#6087FF"/><stop offset=".478" stop-color="#4DA5FF"/><stop offset=".593" stop-color="#40BAFF"/><stop offset=".704" stop-color="#39C7FF"/><stop offset=".808" stop-color="#36CBFF"/><stop offset="1" stop-color="#67FFFC"/></linearGradient><linearGradient id="paint5_linear_2195_2074" x1="29.585" x2="5.41" y1="-14.419" y2="15.142" gradientUnits="userSpaceOnUse"><stop offset=".008" stop-color="#6978FF"/><stop offset=".089" stop-color="#6087FF"/><stop offset=".275" stop-color="#4DA5FF"/><stop offset=".46" stop-color="#40BAFF"/><stop offset=".639" stop-color="#39C7FF"/><stop offset=".808" stop-color="#36CBFF"/><stop offset="1" stop-color="#67FFFC"/></linearGradient><clipPath id="clip0_2195_2074"><path fill="#fff" d="M0 0h226v24H0z"/></clipPath></defs></svg>