<svg xmlns="http://www.w3.org/2000/svg" xml:space="preserve" id="svg2" version="1.1" viewBox="0 0 225.203 224.691" width="256" height="256" preserveAspectRatio="xMidYMid meet"><g id="g10" transform="matrix(1.33333 0 0 -1.33333 0 224.691)"><g id="g12" transform="translate(.004 62.99)"><path id="path14" d="m125.549 42.19-83.34.066C19.487 42.256.597 24.287 0 1.19A1.11 1.11 0 0 1 1.108.065L84.447.01c22.724-.009 41.614 17.96 42.21 41.046a1.11 1.11 0 0 1-1.108 1.126z" style="fill:#e62058;fill-opacity:1;fill-rule:nonzero;stroke:none"/></g><g id="g16" transform="translate(0 126.263)"><path id="path18" d="m167.795 42.19-125.585.066C19.486 42.256.596 24.287 0 1.19A1.11 1.11 0 0 1 1.108.065L126.693.01c22.724-.009 41.614 17.96 42.21 41.046a1.11 1.11 0 0 1-1.108 1.126z" style="fill:#e62058;fill-opacity:1;fill-rule:nonzero;stroke:none"/></g><g id="g20" transform="translate(.004 .001)"><path id="path22" d="M21.123 0C32.79 0 42.246 9.457 42.246 21.123S32.79 42.246 21.123 42.246 0 32.79 0 21.123 9.457 0 21.123 0" style="fill:#e62058;fill-opacity:1;fill-rule:nonzero;stroke:none"/></g></g></svg>