<svg xmlns="http://www.w3.org/2000/svg" fill="none" viewBox="0 0 40 40" width="256" height="256" preserveAspectRatio="xMidYMid meet"><path fill="#fff" d="m37.1 16.326 2.798 4.843-14.735 8.509s-9.024 5.454-15.512-5.79l4.588-2.648s2.982 6.59 8.15 3.597c5.167-2.993 14.712-8.51 14.712-8.51"/><path fill="#fff" d="M2.9 23.853.101 19.01l15.048-8.688s9.025-5.454 15.51 5.79l-4.588 2.648s-2.981-6.59-8.15-3.597C12.756 18.156 2.9 23.853 2.9 23.853"/><path fill="#FF931E" d="M20.284 23.735a3.677 3.677 0 1 0 0-7.354 3.677 3.677 0 0 0 0 7.354"/><path fill="#fff" d="M7.301 29.475a1.92 1.92 0 1 0 0-3.84 1.92 1.92 0 0 0 0 3.84M32.933 14.674a1.92 1.92 0 1 0 0-3.84 1.92 1.92 0 0 0 0 3.84"/></svg>