<svg xmlns="http://www.w3.org/2000/svg" fill="none" viewBox="0 0 42 38" width="256" height="256" preserveAspectRatio="xMidYMid meet"><g id="logo w/o logotype"><g id="Group" fill="#E36E1B"><path id="Vector" d="M0 .898V8.52c1.73-.911 3.447-.8 5.15-.986V0C3.282 0 1.73.016 0 .898"/><path id="Vector_2" d="M15.099 1.741C13.473 1.158 11.833.646 10.182.32v7.446c1.651.3 3.29.782 4.917 1.337z"/><path id="Vector_3" d="M10.182 15.211V7.765c-1.664-.301-3.341-.417-5.032-.231v7.533c1.69-.215 3.368-.128 5.032.145z"/><path id="Vector_4" d="M0 16.142v7.623c1.73-.972 3.447-.92 5.15-1.165v-7.534c-1.764.145-3.42.134-5.15 1.076"/><path id="Vector_5" d="M10.182 15.21v7.447c1.651.242 3.29.669 4.917 1.167v-7.36c-1.626-.528-3.266-.983-4.917-1.253"/><path id="Vector_6" d="M5.15 22.6v7.533c1.69-.272 3.368-.244 5.032-.03v-7.445c-1.664-.244-3.341-.301-5.032-.058"/><path id="Vector_7" d="M37.936 19.362c1.915-1.594 2.993-4.155 2.993-6.79 0-4.085-2.516-5.756-7.752-6.275V2.74a33 33 0 0 1-3.36-.354V5.94a47 47 0 0 1-3.17-.58V1.776A74 74 0 0 1 23.18.898V4.51a153 153 0 0 1-3.273-.924v7.278c-1.59-.587-3.192-1.21-4.806-1.76v7.36c1.613.524 3.216 1.12 4.806 1.678v7.278c-1.59-.53-3.192-1.098-4.806-1.594v7.36c1.613.468 3.216 1.008 4.806 1.512 1.096.245 2.187.482 3.273.698v3.611c1.162.222 2.319.42 3.469.58v-3.582c1.062.157 2.119.28 3.169.361v3.554c1.126.076 2.246.102 3.36.063v-3.53C38.983 34.135 42 29.558 42 24.995c0-3.369-1.547-5.002-4.065-5.634m-11.279-8.15c1.059.215 2.112.396 3.16.534a36 36 0 0 0 1.4.157q.133.012.261.029l.064.008q.12.014.233.033.008 0 .016.003a8 8 0 0 1 .508.102l.008.001q.12.03.23.063l.015.005q.34.102.623.244c.881.445 1.33 1.206 1.33 2.33 0 1.145-.449 1.96-1.33 2.373a3 3 0 0 1-.624.205l-.014.004q-.112.024-.231.041h-.008q-.108.018-.222.026-.02.001-.041.003-.119.01-.245.013h-.015q-.115.002-.234 0-.031 0-.064-.002a6 6 0 0 1-.262-.014 36 36 0 0 1-1.4-.139 46 46 0 0 1-3.16-.491v-5.525zm6.519 17.42a5 5 0 0 1-.427.048l-.074.005-.161.007-.07.002a5 5 0 0 1-.235 0 34 34 0 0 1-2.393-.136 46 46 0 0 1-3.159-.404v-5.81c1.059.185 2.112.338 3.16.448q1.2.127 2.392.169l.235.01.07.005q.081.005.16.012l.074.006q.08.007.157.016l.062.007q.105.014.208.029c1.601.241 2.437 1.04 2.437 2.67 0 1.616-.836 2.645-2.437 2.915"/></g></g></svg>