<svg xmlns="http://www.w3.org/2000/svg" fill="none" viewBox="0 0 79 80" width="256" height="256" preserveAspectRatio="xMidYMid meet"><mask id="mask0_849_3417" width="79" height="80" x="0" y="0" maskUnits="userSpaceOnUse" style="mask-type:alpha"><path fill="#C4C4C4" d="M0 0h78.005v80H0z"/></mask><g mask="url(#mask0_849_3417)"><path fill="#fff" d="M17.955 18.355h42.294v43.292H17.955z"/><path fill="#14C8FF" d="M74.237 21.99c2.454 2.042 4.002 6.268 3.46 9.383l-5.28 29.952c-.551 3.123-3.458 6.555-6.454 7.636L37.195 79.334c-2.997 1.082-7.453.296-9.899-1.745L3.811 58.002C1.357 55.96-.192 51.742.358 48.62L5.64 18.667c.55-3.122 3.457-6.554 6.453-7.635L40.86.666c2.996-1.08 7.453-.295 9.898 1.746zM49.765 35.436l1.171-6.086-10.984.018 1.564-8.027h-3.558s-3.325 5.948-10.657 8.86L26.29 35.45l4.804.01s-1.627 7.543-2.162 10.325c-1.364 7.083 2.049 12.109 7.296 12.109h8.87l1.554-6.727h-7.418c-3.298 0-3.124-1.848-2.49-5.136l2.04-10.598z"/></g></svg>