<svg xmlns="http://www.w3.org/2000/svg" fill="none" class="sc-4acb0030-3 ioLJLU" viewBox="0 0 39 38" width="256" height="256" preserveAspectRatio="xMidYMid meet"><mask id="mask0_1_121" width="133" height="38" x="0" y="0" maskUnits="userSpaceOnUse"><path fill="#fff" d="M132.902 0H0v38h132.902z"/></mask><g mask="url(#mask0_1_121)" transform="translate(.444)"><path fill="#00004F" d="M34.53 18.062a4.3 4.3 0 0 1-.406-.844c-.326-.93-1.61-4.18-4.378-6.854-3.423-3.309-7.806-4.565-13.024-3.735-5.219.83-9.001 3.384-11.228 7.592-1.802 3.4-2.015 6.885-2.039 7.873a4.3 4.3 0 0 1-.122.93c-.914 3.666-.26 6.844 1.891 9.19 2.393 2.607 6.493 4.044 11.549 4.043q1.111 0 2.265-.094a31 31 0 0 0 2.331-.282c6.984-1.11 12.294-4.286 14.21-8.494 1.32-2.9.956-6.123-1.05-9.325"/><path fill="#00004F" d="M36.008 17.136a2.5 2.5 0 0 1-.237-.497c-.462-1.311-1.853-4.67-4.813-7.53-1.713-1.656-3.68-2.87-5.84-3.61-2.376-.81-4.999-1.047-7.809-.714v-.018l-.854.133h-.006l-.864.138v.016c-2.776.553-5.195 1.595-7.2 3.1-1.828 1.373-3.322 3.137-4.436 5.243-1.924 3.644-2.205 7.27-2.237 8.657a2.5 2.5 0 0 1-.071.547c-1.063 4.26-.266 7.992 2.299 10.79C6.664 36.363 11.224 38 16.774 38a31 31 0 0 0 4.87-.4c7.565-1.2 13.37-4.75 15.526-9.492 1.571-3.456 1.172-7.251-1.162-10.973m-.427 10.25c-1.914 4.208-7.226 7.383-14.21 8.494a31 31 0 0 1-2.332.281c-.768.067-1.524.095-2.265.095-5.055 0-9.157-1.436-11.548-4.044-2.151-2.346-2.805-5.523-1.892-9.19q.112-.457.123-.93c.022-.987.235-4.472 2.037-7.873 2.227-4.206 6.002-6.76 11.226-7.59 5.224-.829 9.603.426 13.024 3.735 2.768 2.674 4.054 5.921 4.379 6.854q.155.444.404.844c2.008 3.203 2.371 6.426 1.054 9.323"/><path fill="#00004F" d="M4.412 5.644h-.073a2.19 2.19 0 0 0-2.113 1.661c-1.16 4.43.015 8.772.802 10.932 1.04-4.026 3.012-6.676 4.569-8.24a14.8 14.8 0 0 1 2.957-2.316C8.04 6.088 5.853 5.688 4.412 5.644"/><path fill="#00004F" d="M12.227 6.698C9.084 4.486 6.272 3.956 4.467 3.9A3.92 3.92 0 0 0 .538 6.858c-1.766 6.751 1.37 13.277 1.504 13.548a1.258 1.258 0 0 0 2.366-.328c.811-4.457 2.858-7.275 4.425-8.854 1.655-1.662 3.155-2.339 3.165-2.343a1.257 1.257 0 0 0 .229-2.183M4.339 5.642h.073c1.441.044 3.631.444 6.142 2.033a14.8 14.8 0 0 0-2.957 2.316c-1.557 1.564-3.528 4.214-4.569 8.24-.787-2.158-1.965-6.5-.802-10.93a2.19 2.19 0 0 1 2.113-1.66M30.707 2.773a2.19 2.19 0 0 0-2.592-.898c-1.356.49-3.312 1.55-5.206 3.84 1.226.276 2.412.708 3.528 1.285 1.964 1.005 4.66 2.912 6.898 6.416.078-2.3-.152-6.792-2.628-10.643"/><path fill="#00004F" d="M32.174 1.83A3.924 3.924 0 0 0 27.523.235c-1.7.614-4.21 1.99-6.513 5.067a1.258 1.258 0 0 0 .89 2.008c.016 0 1.654.178 3.742 1.245 1.984 1.015 4.801 3.06 6.954 7.044a1.258 1.258 0 0 0 2.351-.423c.043-.304.999-7.48-2.773-13.346m1.161 11.585C31.1 9.91 28.401 8.003 26.437 6.998a14.7 14.7 0 0 0-3.528-1.283c1.894-2.289 3.85-3.348 5.206-3.838a2.19 2.19 0 0 1 2.592.898c2.476 3.849 2.706 8.34 2.628 10.64"/><path fill="#007AFF" d="M33.7 14.999s.98-6.948-2.584-12.493a2.69 2.69 0 0 0-3.167-1.09c-1.568.566-3.827 1.828-5.93 4.637 0 0 7.199.647 11.682 8.946"/><path fill="#fff" d="M30.61 3.03a2.69 2.69 0 0 0-3.075-1.33q-.422.116-.905.298.64-.336 1.32-.583a2.69 2.69 0 0 1 3.166 1.093C34.679 8.05 33.7 15 33.7 15a21 21 0 0 0-1.14-1.877c.153-2.523-.013-6.51-1.951-10.094" opacity=".7"/><path fill="#00004F" d="M33.7 15.385a.39.39 0 0 1-.338-.2c-2.26-4.186-5.23-6.337-7.324-7.408-2.273-1.161-4.036-1.335-4.053-1.337a.385.385 0 0 1-.273-.614c2.17-2.904 4.518-4.196 6.107-4.769a3.06 3.06 0 0 1 3.621 1.247c3.6 5.598 2.683 12.462 2.643 12.752a.384.384 0 0 1-.382.329M22.723 5.777c.752.15 2.07.501 3.631 1.294 2.013 1.023 4.793 2.99 7.06 6.663.096-2.206-.05-7.017-2.62-11.017a2.29 2.29 0 0 0-2.713-.938c-1.395.503-3.417 1.602-5.358 3.998"/><path fill="#FF699F" d="M31.83 13.077s.68-4.827-1.794-8.679a1.87 1.87 0 0 0-2.2-.759c-1.091.394-2.659 1.27-4.12 3.223-.004 0 4.998.448 8.114 6.215"/><path fill="#000072" d="M29.497 5.931a1.87 1.87 0 0 0-2.2-.758c-.784.282-1.817.815-2.878 1.818a5 5 0 0 0-.707-.13c1.462-1.952 3.03-2.828 4.12-3.221a1.87 1.87 0 0 1 2.204.758c2.476 3.855 1.794 8.679 1.794 8.679q-.229-.422-.469-.807c-.085-1.747-.485-4.194-1.864-6.339" opacity=".3"/><path fill="#00004F" d="M31.83 13.352a.28.28 0 0 1-.242-.144c-3.003-5.558-7.852-6.068-7.9-6.072a.275.275 0 0 1-.196-.439c1.51-2.02 3.144-2.918 4.248-3.317a2.13 2.13 0 0 1 2.525.87c2.503 3.892 1.865 8.664 1.837 8.865a.276.276 0 0 1-.272.237m-7.614-6.69c1.279.252 4.812 1.308 7.407 5.51.067-1.544-.046-4.863-1.821-7.625a1.586 1.586 0 0 0-1.876-.649c-.965.348-2.366 1.108-3.71 2.764"/><path fill="#007AFF" d="M3.171 19.853S.086 13.552 1.755 7.177a2.69 2.69 0 0 1 2.671-2.02c1.668.05 4.208.55 7.076 2.569 0 0-6.643 2.846-8.33 12.127"/><path fill="#00004F" d="M3.172 20.238a.38.38 0 0 1-.345-.216C2.698 19.76-.302 13.52 1.384 7.08 1.75 5.677 3.006 4.725 4.44 4.772c1.688.052 4.32.552 7.286 2.64a.386.386 0 0 1-.07.668c-.016.007-1.639.719-3.439 2.525-1.66 1.667-3.815 4.636-4.665 9.314a.39.39 0 0 1-.326.313zM4.345 5.54a2.29 2.29 0 0 0-2.219 1.735c-1.202 4.6.153 9.219.927 11.286 1.017-4.193 3.05-6.927 4.646-8.523a14.4 14.4 0 0 1 3.05-2.357C8.16 6.005 5.898 5.587 4.416 5.54z"/><path fill="#FF699F" d="M4.355 17.445S2.21 13.068 3.37 8.64a1.87 1.87 0 0 1 1.857-1.404c1.158.035 2.924.382 4.917 1.784 0 0-4.617 1.978-5.79 8.426"/><path fill="#000072" d="M4.355 9.93a1.87 1.87 0 0 1 1.857-1.405c.833.026 1.98.212 3.3.837q.305-.192.632-.343C8.15 7.616 6.385 7.269 5.226 7.234A1.87 1.87 0 0 0 3.37 8.639c-1.16 4.429.985 8.806.985 8.806q.087-.471.199-.912c-.466-1.688-.844-4.138-.199-6.604" opacity=".3"/><path fill="#00004F" d="M4.355 17.72a.27.27 0 0 1-.247-.153c-.09-.183-2.176-4.52-1.003-8.999a2.136 2.136 0 0 1 2.13-1.61c1.174.037 3.006.385 5.067 1.836a.275.275 0 0 1-.05.478c-.044.02-4.496 2.008-5.627 8.223a.274.274 0 0 1-.27.226m.814-10.21a1.59 1.59 0 0 0-1.533 1.195c-.831 3.177.095 6.366.633 7.813 1.165-4.799 4.196-6.9 5.333-7.535-1.79-1.156-3.358-1.445-4.386-1.477z"/><path fill="#007AFF" d="M21.447 36.361c11.804-1.877 18.619-9.44 13.88-17.91q-.181-.322-.384-.648a3.8 3.8 0 0 1-.359-.748c-.777-2.21-5.233-12.928-17.941-10.908C3.933 8.168 3.02 19.74 2.97 22.082a3.8 3.8 0 0 1-.11.822C.37 32.9 9.344 38.286 21.448 36.361"/><path fill="#fff" d="M2.697 23.64s1.81-.455 3.702 1.988c1.487 1.916 4.948 1.38 6.606-.206 1.659-1.586 3.854-2.658 6.215-3.033s4.792-.038 6.86.953c2.067.992 5.524.43 6.343-1.852 1.042-2.909 2.904-3.04 2.904-3.04 4.739 8.471-2.076 16.034-13.88 17.911S.818 33.16 2.697 23.64"/><path fill="#000072" d="M2.654 23.869c-.181 7.84 7.901 11.866 18.427 10.192s16.955-8.004 14.362-15.394c4.505 8.382-2.292 15.833-13.996 17.694C9.744 38.223.961 33.244 2.654 23.87" opacity=".3"/><path fill="#000072" d="M13.07 25.894s.894 1.43 2.777 1.004c.731-.165 1.232-.434 1.577-.726a.25.25 0 0 0 .084-.21.24.24 0 0 0-.126-.188c-.87-.454-1.458-1.183-1.347-1.927.2-1.346 3.145-1.74 3.145-1.74s2.921-.538 3.53.678c.337.674 0 1.551-.687 2.253a.244.244 0 0 0 .085.398c.418.167.977.266 1.718.2 1.922-.18 2.325-1.816 2.325-1.816s1.08 1.425.01 2.927a1.05 1.05 0 0 0-.183.426c-.192 1.103-1.21 5.67-5.004 6.273s-6.18-3.423-6.703-4.411a1.05 1.05 0 0 0-.306-.35c-1.48-1.1-.895-2.791-.895-2.791" opacity=".3"/><path fill="#fff" d="M2.86 22.904a3.8 3.8 0 0 0 .11-.822c.052-2.342.964-13.914 13.673-15.935 12.708-2.02 17.164 8.698 17.941 10.908q.138.394.359.748c.133.217.265.432.384.648.848 1.516 1.324 3.003 1.47 4.434a12 12 0 0 0-1.298-3.348q-.18-.324-.384-.648a3.8 3.8 0 0 1-.358-.748c-.65-1.848-3.872-9.64-12.336-10.964v.006c-.006.4-.895.707-1.984.69-1.09-.016-1.967-.353-1.96-.75q0-.045.016-.085a20 20 0 0 0-1.678.2C4.107 9.254 3.195 20.825 3.142 23.167a3.8 3.8 0 0 1-.109.82c-.386 1.553-.496 2.991-.361 4.313-.346-1.601-.307-3.407.189-5.397" opacity=".7"/><path fill="#00004F" d="m23.258 20.022.058-.105q.025-.045.052-.088.054-.086.11-.167a5.274 5.274 0 0 1 2.067-1.727 4.7 4.7 0 0 1 1.486-.424 4.2 4.2 0 0 1 1.496.104.222.222 0 0 1-.026.435h-.008c-.433.049-.86.151-1.267.305a4.8 4.8 0 0 0-1.09.598 6.4 6.4 0 0 0-.91.83q-.208.229-.398.47c-.062.08-.127.16-.185.24l-.164.222-.045.061a.701.701 0 0 1-1.176-.754M13.715 22.429l-.224-.16q-.122-.088-.251-.172a9 9 0 0 0-.525-.321 6.4 6.4 0 0 0-1.122-.508 5 5 0 0 0-.598-.157 4.8 4.8 0 0 0-1.923.028h-.007a.222.222 0 0 1-.16-.406c.426-.27.896-.46 1.39-.562a4.7 4.7 0 0 1 1.544-.058 5.3 5.3 0 0 1 2.501 1q.079.06.156.125.039.032.077.066l.088.081a.7.7 0 0 1-.883 1.084zM19.761 25.758c-1.805.286-3.787-.948-3.596-2.223s2.98-1.649 2.98-1.649 2.769-.51 3.345.643-.925 2.942-2.729 3.229"/><path fill="#00004F" d="M20.1 25.3c.013.017.041.058.067.087.026.03.05.066.077.096.053.067.111.127.168.188q.175.184.371.345c.257.212.544.385.851.513q.229.095.47.15.24.057.489.074c.337.019.676-.009 1.006-.081a4.4 4.4 0 0 0 .98-.34c.303-.142.577-.341.805-.588.221-.25.392-.542.505-.857a4.6 4.6 0 0 0 .25-1.074.02.02 0 0 1 .01-.008h.007l.007.002.005.006c.21.35.274.775.23 1.193a2.3 2.3 0 0 1-.491 1.17c-.263.337-.59.62-.96.833q-.542.31-1.144.478c-.797.227-1.708.223-2.51-.104a4 4 0 0 1-1.096-.656 4.5 4.5 0 0 1-.454-.442q-.105-.119-.2-.247a3 3 0 0 1-.093-.133c-.032-.047-.058-.085-.097-.15a.44.44 0 0 1 .731-.482z"/><path fill="#00004F" d="M20.153 25.628a4.396 4.396 0 0 1-.094.326q-.052.151-.115.296a4.4 4.4 0 0 1-.294.561 4 4 0 0 1-.838.965c-.664.56-1.528.848-2.355.878a5 5 0 0 1-1.236-.099 3.3 3.3 0 0 1-1.17-.495 2.3 2.3 0 0 1-.827-.962c-.171-.383-.243-.806-.152-1.205l.003-.006.005-.004.005-.002h.006q.004 0 .007.003l.005.005q.228.504.568.94c.205.264.458.487.746.659a2.6 2.6 0 0 0 .948.308c.343.047.691.053 1.036.018.336-.032.667-.112.982-.235q.23-.092.441-.222a3 3 0 0 0 .399-.287c.252-.217.47-.47.65-.75q.136-.214.245-.443.054-.115.101-.23a2 2 0 0 0 .078-.218l.01-.03a.44.44 0 0 1 .846.23"/><path fill="#00004F" d="M15.104 28.137s1.974 5.554 5.82 4.942c1.672-.266 2.646-1.529 3.214-2.869.74-1.749.788-3.636.788-3.636s-2.786 1.79-5.165-.816c-1.453 3.215-4.657 2.379-4.657 2.379"/><path fill="#FF4893" d="M20.248 28.817c2.894-.46 3.89 1.396 3.89 1.396-.568 1.342-1.542 2.603-3.213 2.868-1.672.266-2.99-.63-3.944-1.727 0-.006.371-2.076 3.267-2.537"/><path fill="#000072" d="M20.65 31.352c1.279-.204 2.21-.917 2.874-1.828.243.19.451.422.612.686-.567 1.342-1.541 2.603-3.213 2.869-1.67.265-2.99-.63-3.943-1.728.071-.3.197-.586.37-.843.919.658 2.02 1.047 3.3.844" opacity=".3"/><path fill="#00004F" d="M20.324 33.512c-3.675 0-5.503-5.021-5.582-5.246a.385.385 0 0 1 .46-.502c.118.03 2.913.706 4.21-2.165a.385.385 0 0 1 .636-.101c2.126 2.326 4.57.817 4.674.752a.387.387 0 0 1 .54.133c.035.06.053.13.052.199-.007.253-.21 6.22-4.327 6.874q-.329.054-.663.056m-4.608-4.908c.62 1.359 2.383 4.532 5.148 4.095s3.456-4.005 3.625-5.49c-.967.378-2.868.784-4.625-.806-1.178 2.056-3.111 2.26-4.148 2.2"/><path fill="#fff" d="M19.301 23.144c.65-.103 1.158-.306 1.134-.454-.023-.147-.569-.183-1.219-.08s-1.157.307-1.134.454.57.184 1.22.08M23.969 17.044c.636-.624.855-1.434.487-1.808-.367-.374-1.18-.172-1.817.452-.636.625-.854 1.434-.487 1.809.367.374 1.18.172 1.817-.453M14.926 18.646c-.233.47-1.07.532-1.868.133-.798-.398-1.257-1.098-1.024-1.568s.96-.512 1.76-.116c.798.397 1.365 1.081 1.132 1.551"/><path fill="#00004F" d="M16.776 37.129c-5.232 0-9.615-1.517-12.192-4.327-2.359-2.572-3.084-6.026-2.096-9.99a3.4 3.4 0 0 0 .098-.738c.053-2.36.981-14.237 13.998-16.306 13.015-2.07 17.582 8.934 18.365 11.164q.124.354.32.671c2.169 3.461 2.552 6.97 1.108 10.146-2.036 4.476-7.594 7.842-14.869 8.997-1.565.251-3.147.38-4.732.383m2.927-30.847a19 19 0 0 0-2.998.246C4.29 8.502 3.406 19.84 3.355 22.092c-.006.305-.046.61-.12.906-.922 3.7-.26 6.911 1.916 9.283 3.148 3.433 9.218 4.817 16.236 3.7s12.36-4.313 14.287-8.553c1.33-2.93.966-6.187-1.058-9.42a4 4 0 0 1-.394-.824c-.684-1.945-4.39-10.902-14.52-10.902"/></g></svg>