<svg xmlns="http://www.w3.org/2000/svg" fill="none" viewBox="0 0 210 210" width="256" height="256" preserveAspectRatio="xMidYMid meet"><circle cx="105" cy="105" r="105" fill="#000"/><path fill="url(#paint0_linear_2471_7686)" d="M153.769 77.158c-.496 1.308-21.289-11.826-40.278-2.865-13.806 6.514-19.51 19.144-19.51 29.913 0 8.485 2.931 14.897 6.135 19.074 5.212 6.795 10.06 9.351 14.247 11.623 6.744 3.658 18.215 3.78 21.697 3.599 6.485-.339 14.103-2.224 20.528-5.238 2.452-1.151 6.435-3.647 9.925-6.44 5.957-4.767 11.445-10.765 11.349-10.301-.152.736-.09 1.318-3.07 6.573-8.827 15.572-23.503 22.364-23.503 22.364-20.675 10.995-39.022 5.292-42.588 3.923-15.655-6.009-23.82-17.274-25.728-20.857-3.11-5.844-8.688-27.305-1.215-44.364 5.538-12.642 18.376-18.853 19.794-19.447 22.875-9.598 52.666 11.254 52.217 12.443"/><path fill="url(#paint1_linear_2471_7686)" d="M154.422 76.069c-.929.865-7.607-7.19-18.328-13.009-3.066-1.662-14.76-7.64-29.043-7.333-23.678.507-39.412 17.965-42.218 21.2C50.809 93.099 44.206 118 52.093 137.377c10.252 25.179 44.552 39.662 41.944 39.948l-3-.965c-3.62-1.435-48.053-21.548-49.644-61.626-.898-22.584 6.327-40.873 10.7-45.866 7.643-8.723 13.771-12.923 18.938-15.697 10.38-5.57 29.903-10.342 44.392-8.15 16.257 2.461 26.462 13.868 31.438 19.43 4.49 5.018 8.312 10.919 7.561 11.619"/><path fill="url(#paint2_linear_2471_7686)" d="M154.304 77.136c1.098-.49-.368-15.487-10.064-26.89-3.911-4.609-8.211-8.8-13.49-11.732-21.825-11.883-48.659-2.327-54.467 0-5.95 2.383-18.647 8.894-29.305 22.254C34.963 75.828 33.184 91.987 32.5 99.059c-2.923 30.201 12.708 53.918 13.82 53.561.65-.208-6.442-15.299-4.928-37.887.577-8.599 1.762-24.35 12.617-39.467C60.584 66.35 68.19 58.93 78.114 54.03c5.742-2.85 26.287-12.035 46.862-4.74a51.7 51.7 0 0 1 16.997 10.195c8.957 8.224 11.433 18.054 12.331 17.652"/><path fill="url(#paint3_linear_2471_7686)" d="M122.693 161.729c-.515.881-36.112-9.324-49.485-34.475-2.012-3.783-11.307-23.951-5.209-39.652 2.55-6.567 7.571-13.92 9.599-16.203 3.276-3.688 8.833-7.004 15.89-10.009 3.17-1.318 8.962-2.69 12.365-3.145 3.373-.417 8.554-.328 11.936 0 6.577.637 15.465 8.351 15.215 8.351-.068 0-7.055-2.25-14.279-2.749-5.988-.413-12.483.984-14.787 1.802-5.083 1.805-12.05 5.75-16.078 10.734s-7.467 12.029-8.2 21.472c-.536 6.922.2 17.02 3.188 24.892 1.432 3.774 3.898 8.576 8.637 14.9 10.089 13.462 31.581 23.451 31.208 24.082"/><path fill="url(#paint4_linear_2471_7686)" d="M103.407 55.088c6.175-.894 11.46-1.202 17.583 0 7.028 1.418 10.914 2.88 15.7 5.338 8.174 4.2 18.52 14.969 17.732 16.585-1.404 2.881-23.186-20.27-53.112-12.302-8.463 2.902-13.682 5.611-19.087 9.75-9.205 7.048-13.767 16.32-15.208 20.112-2.475 6.509-3.147 10.172-3.446 17.1 0 9.327 1.737 14.738 3.839 20.668 2.99 8.441 8.566 18.09 7.67 17.465-10.244-7.149-16.645-29.205-17.353-33.777-.707-4.571-3.727-24.372 9.29-40.86 11.867-15.03 31.788-19.405 36.392-20.079"/><defs><linearGradient id="paint0_linear_2471_7686" x1="140.743" x2="140.743" y1="62.683" y2="152.46" gradientUnits="userSpaceOnUse"><stop stop-color="#FAB961"/><stop offset="1"/></linearGradient><linearGradient id="paint1_linear_2471_7686" x1="97.917" x2="97.917" y1="44.476" y2="177.546" gradientUnits="userSpaceOnUse"><stop stop-color="#FAB961"/><stop offset="1"/></linearGradient><linearGradient id="paint2_linear_2471_7686" x1="93.396" x2="93.396" y1="33.423" y2="152.627" gradientUnits="userSpaceOnUse"><stop/><stop offset=".414" stop-color="#FAB961"/></linearGradient><linearGradient id="paint3_linear_2471_7686" x1="94.823" x2="94.823" y1="62.338" y2="159.275" gradientUnits="userSpaceOnUse"><stop/><stop offset="1" stop-color="#FAB961"/></linearGradient><linearGradient id="paint4_linear_2471_7686" x1="105.69" x2="105.69" y1="56.632" y2="149.832" gradientUnits="userSpaceOnUse"><stop/><stop offset="1" stop-color="#FAB961"/></linearGradient></defs></svg>