<svg xmlns="http://www.w3.org/2000/svg" fill="none" viewBox="0 0 144 144" width="256" height="256" preserveAspectRatio="xMidYMid meet"><g fill="#fff"><path d="M34.388 26.776a1.473 1.473 0 0 0 1.804 1.04L103.78 9.704a1.475 1.475 0 0 0 1.093-1.551 1.47 1.47 0 0 0-1.343-1.341L29.3.147a1.473 1.473 0 0 0-1.555 1.845zM41.126 71.06l-9.86-36.802-1.285-4.779-5.251-19.6a1.48 1.48 0 0 0-2.853 0L2.953 80.535a1.473 1.473 0 0 0 1.804 1.791l35.315-9.462a1.46 1.46 0 0 0 1.054-1.805M123.258 13.387a4.91 4.91 0 0 0-5.508-2.284L37.47 32.595a1.473 1.473 0 0 0-1.041 1.805l9.462 35.382a1.474 1.474 0 0 0 1.805 1.04l92.303-24.73a1.47 1.47 0 0 0 .981-.856c.087-.209.125-.434.11-.66a1.46 1.46 0 0 0-.192-.64zM43.174 78.69a1.474 1.474 0 0 0-1.804-1.04L6.028 87.11a1.473 1.473 0 0 0-.676 2.46l51.887 52.3a1.47 1.47 0 0 0 1.786.247 1.475 1.475 0 0 0 .688-1.666zM137.02 52.02 48.992 75.608a1.466 1.466 0 0 0-1.04 1.798L65.47 142.77a1.473 1.473 0 0 0 2.575.534l70.534-88.946a1.473 1.473 0 0 0-1.56-2.338"/></g></svg>