<svg xmlns="http://www.w3.org/2000/svg" xml:space="preserve" id="Layer_1" x="0" y="0" version="1.1" viewBox="0 0 1186 360" width="256" height="256" preserveAspectRatio="xMidYMid meet"><style>.st0{fill:#ff564f}</style><path d="M843.7 63.3h66.2L794.7 349.6h-76.5L603 63.3h66.2l87.1 217.3zM9 4.1h60.3v345.6H9zM234.2 349.7 102.1 176.9 234.2 4.1h75.7L179.5 176.9l130.4 172.8zM454.2 55.7c-66 0-115.7 36.5-119.3 90.8l-.4 6.4h59.2l1-4.7c5.5-25.5 26.3-39.5 58.5-39.5 35 0 55.1 17.6 55.1 48.4v17.7L434 179c-66.8 3.9-107.2 36.6-107.2 87.4 0 53.6 40.2 89.5 99.3 89.5 35.2 0 60.9-9.6 81.9-31.1V351h60V152.5c0-58.8-45.4-96.8-113.8-96.8m54 165.5V239c-3.9 38.9-30.8 63.3-72 65.3-15.9.8-29.6-3.5-38.6-12.1-7.1-6.7-10.8-15.7-10.8-25.9 0-22.8 19.4-37.1 53.5-39.3zM1063.2 55.7c-66 0-115.7 36.5-119.3 90.8l-.4 6.4h59.2l1-4.7c5.5-25.5 26.3-39.5 58.5-39.5 35 0 55.1 17.6 55.1 48.4v17.7l-74.2 4.2c-66.8 3.9-107.2 36.6-107.2 87.4 0 53.6 40.2 89.5 99.3 89.5 35.2 0 60.9-9.6 81.9-31.1V351h60V152.5c-.1-58.8-45.5-96.8-113.9-96.8m54.1 165.5V239c-3.9 38.9-30.8 63.3-72 65.3-15.9.8-29.6-3.5-38.6-12.1-7.1-6.7-10.8-15.7-10.8-25.9 0-22.8 19.4-37.1 53.5-39.3z" class="st0"/></svg>