<svg xmlns="http://www.w3.org/2000/svg" fill="none" viewBox="0 0 256 256" width="256" height="256" preserveAspectRatio="xMidYMid meet"><path d="M216.866 40.915a125.1 125.1 0 0 0-36.517-25.802 26 26 0 0 0-1.708-.795c-2.693-1.206-5.416-2.347-8.202-3.361a124 124 0 0 0-24.386-6.138 125 125 0 0 0-18.048-1.324c-68.658 0-124.51 55.852-124.51 124.5 0 53.487 33.904 99.192 81.344 116.783a123 123 0 0 0 17.272 4.996 124.6 124.6 0 0 0 25.884 2.731c47.295 0 88.505-26.505 109.576-65.443 9.518-17.581 14.934-37.703 14.934-59.067 0-33.876-13.617-64.62-35.639-87.089zM40.632 194.608c-14.714-19.401-22.487-42.555-22.487-66.95 0-41.65 23.09-78.011 57.149-96.945.905-.502 1.79.694 1.041 1.397a120 120 0 0 0-8.95 9.399c-19.738 23.081-31.11 54.472-31.21 86.149 0 41.128 27.51 85.509 71.955 85.509 39.659 0 71.928-38.362 71.928-85.509 0-22.149-7.427-43.431-20.113-59.214-.448-.557.083-1.343.767-1.142 21.437 6.339 37.475 31 37.475 60.356 0 25.921-9.408 51.733-25.802 70.813-16.998 19.775-39.822 30.67-64.255 30.679-25.73 0-50.354-12.612-67.498-34.542M217.34 60.772c14.697 19.354 22.461 42.471 22.433 66.858 0 41.65-23.09 78.011-57.149 96.945-.904.502-1.791-.694-1.041-1.398q4.673-4.398 8.951-9.398c19.737-23.081 31.108-54.474 31.209-86.149 0-41.129-27.51-85.509-71.955-85.509-39.658 0-71.927 38.361-71.927 85.509 0 22.158 7.425 43.431 20.112 59.222.448.558-.083 1.344-.767 1.143-21.437-6.34-37.476-30.992-37.476-60.337 0-25.922 9.408-51.724 25.812-70.795 17.007-19.775 39.832-30.671 64.274-30.671 25.711 0 50.326 12.604 67.533 34.58zm-50.298 66.886c0 29.365-14.267 54.72-34.717 66.1a7.45 7.45 0 0 1-8.002-.476l-4.374-3.186c-17.938-13.089-29.073-37.02-29.073-62.457 0-29.365 14.267-54.71 34.717-66.091a7.45 7.45 0 0 1 8.002.475l4.375 3.188c17.937 13.088 29.081 37.019 29.081 62.456z" style="fill:#0500e1"/></svg>