<svg xmlns="http://www.w3.org/2000/svg" fill="none" viewBox="0 0 200 200" width="256" height="256" preserveAspectRatio="xMidYMid meet"><path fill="#aaa" d="M193.694 0H6.306C2.838 0 0 2.706 0 6.244v187.513C0 197.19 2.838 200 6.306 200h187.388c3.468 0 6.306-2.81 6.306-6.243V6.244C200 2.81 197.162 0 193.694 0M173.41 167.326c-.735 1.144-1.996 1.873-3.363 1.873H140.41c-1.471 0-2.838-.833-3.468-2.185l-16.816-33.507c-1.156-2.185-3.468-3.642-5.99-3.642H62.953c-1.05 0-1.892.832-1.892 1.873v33.715c0 2.185-1.786 3.85-3.888 3.85H33.736a3.86 3.86 0 0 1-3.888-3.85V102.81c0-2.186 1.786-3.85 3.888-3.85h78.823c2.838 0 5.255-2.29 5.255-5.203v-26.64c0-2.809-2.312-5.202-5.255-5.202H33.736a3.86 3.86 0 0 1-3.888-3.85V34.86c0-2.186 1.786-3.85 3.888-3.85h82.502a3.86 3.86 0 0 1 3.888 3.85v18.418c0 2.81 2.312 5.203 5.255 5.203h19.758a3.86 3.86 0 0 1 3.889 3.85v36.212c0 2.185-1.787 3.85-3.889 3.85h-19.758c-2.838 0-5.255 2.29-5.255 5.203v13.32c0 3.642 2.943 6.555 6.621 6.555h26.064c1.472 0 2.838.833 3.469 2.186l17.13 34.027c.631 1.248.526 2.601-.21 3.746z"/></svg>