<svg xmlns="http://www.w3.org/2000/svg" fill="none" viewBox="0 0 51 25" width="256" height="256" preserveAspectRatio="xMidYMid meet"><g filter="url(#filter0_d_1775_850)"><path fill="url(#paint0_linear_1775_850)" d="M34.618 21h-7.002c-.145 0-.217 0-.281-.02a.4.4 0 0 1-.154-.09c-.05-.046-.086-.111-.16-.242C19.177 6.684 13.903 2.968 3.443 5.536c-.449.11-.673.166-.815.091a.44.44 0 0 1-.223-.322c-.02-.16.099-.332.336-.677C9.275-4.89 32.15.974 35.276 20.228c.043.262.064.393.024.498a.43.43 0 0 1-.185.219c-.098.055-.23.055-.497.055"/></g><g filter="url(#filter1_d_1775_850)"><path fill="url(#paint1_linear_1775_850)" d="M21.84 1.337C31.99 5.962 34.98 14.47 36.036 20.647a.424.424 0 0 0 .419.352h12.1a.423.423 0 0 0 .388-.59L40.433.685a.42.42 0 0 0-.388-.255H22.017c-.473 0-.608.711-.178.907"/></g><defs><linearGradient id="paint0_linear_1775_850" x1="2" x2="35.39" y1="10.575" y2="10.575" gradientUnits="userSpaceOnUse"><stop stop-color="#DF5E00"/><stop offset="1" stop-color="#FF9C54"/></linearGradient><linearGradient id="paint1_linear_1775_850" x1="19.612" x2="49.198" y1="10.714" y2="10.714" gradientUnits="userSpaceOnUse"><stop stop-color="#DF5E00"/><stop offset="1" stop-color="#FF9C54"/></linearGradient><filter id="filter0_d_1775_850" width="36.301" height="24.231" x=".711" y=".15" color-interpolation-filters="sRGB" filterUnits="userSpaceOnUse"><feFlood flood-opacity="0" result="BackgroundImageFix"/><feColorMatrix in="SourceAlpha" result="hardAlpha" values="0 0 0 0 0 0 0 0 0 0 0 0 0 0 0 0 0 0 127 0"/><feOffset dy="1.691"/><feGaussianBlur stdDeviation=".845"/><feComposite in2="hardAlpha" operator="out"/><feColorMatrix values="0 0 0 0 0 0 0 0 0 0 0 0 0 0 0 0 0 0 0.05 0"/><feBlend in2="BackgroundImageFix" result="effect1_dropShadow_1775_850"/><feBlend in="SourceGraphic" in2="effect1_dropShadow_1775_850" result="shape"/></filter><filter id="filter1_d_1775_850" width="30.781" height="23.951" x="19.889" y=".43" color-interpolation-filters="sRGB" filterUnits="userSpaceOnUse"><feFlood flood-opacity="0" result="BackgroundImageFix"/><feColorMatrix in="SourceAlpha" result="hardAlpha" values="0 0 0 0 0 0 0 0 0 0 0 0 0 0 0 0 0 0 127 0"/><feOffset dy="1.691"/><feGaussianBlur stdDeviation=".845"/><feComposite in2="hardAlpha" operator="out"/><feColorMatrix values="0 0 0 0 0 0 0 0 0 0 0 0 0 0 0 0 0 0 0.05 0"/><feBlend in2="BackgroundImageFix" result="effect1_dropShadow_1775_850"/><feBlend in="SourceGraphic" in2="effect1_dropShadow_1775_850" result="shape"/></filter></defs></svg>