<svg xmlns="http://www.w3.org/2000/svg" fill="none" viewBox="0 0 24 24" width="256" height="256" preserveAspectRatio="xMidYMid meet"><path fill="#A566FF" d="M12 0C5.374 0 0 5.374 0 12s5.374 12 12 12 12-5.374 12-12c.02-6.626-5.355-12-12-12m-.54 17.913a3.9 3.9 0 0 1-2.234.732c-1.387 0-2.658-.75-3.62-2.138a8.53 8.53 0 0 1-1.388-4.45c0-.057.039-.115.097-.134l.943-.424c.077-.038.155 0 .193.077 0 .02.02.039.02.058 0 1.58.423 3.063 1.174 4.16.713 1.04 1.638 1.6 2.6 1.6.52 0 1.04-.155 1.465-.444a.15.15 0 0 1 .192.039c.193.25.385.481.597.712.02.058.02.154-.038.212m6.954-1.406c-.944 1.368-2.234 2.138-3.621 2.138s-2.658-.77-3.621-2.138c-.905-1.31-1.406-3.043-1.406-4.873 0-1.695.982-3.024 2.215-3.024s2.215 1.329 2.215 3.024a8.8 8.8 0 0 1-1.021 4.238c-.039.077-.135.096-.193.057-.019 0-.019-.019-.038-.038a6 6 0 0 1-.328-.405 5 5 0 0 1-.308-.52.16.16 0 0 1 0-.134 8.1 8.1 0 0 0 .655-3.217c0-.828-.424-1.772-.982-1.772-.559 0-.983.944-.983 1.772 0 1.58.424 3.062 1.175 4.16.713 1.04 1.638 1.599 2.6 1.599.964 0 1.888-.578 2.601-1.599.751-1.098 1.175-2.58 1.175-4.16s-.424-3.063-1.175-4.16a4.1 4.1 0 0 0-.77-.868.175.175 0 0 1-.02-.211c.02-.02.039-.039.058-.039l.944-.424c.058-.019.115-.019.154.039.25.25.462.52.655.79.905 1.31 1.406 3.043 1.406 4.873s-.482 3.582-1.387 4.892"/></svg>