<svg xmlns="http://www.w3.org/2000/svg" fill="none" viewBox="58 96.4 133.7 133.7" width="256" height="256" preserveAspectRatio="xMidYMid meet"><path fill="url(#2525-a)" d="M74.22 119.5a84 84 0 0 1 2.6-3.06c.03-.05.12-.06.16-.1.08-.1.2-.17.29-.26l.08-.1c.61-.57 1.26-1.19 2.02-1.73a30.1 30.1 0 0 1 8.33-4.56c9.35-3.28 19.75-1.26 27.9 6.44 11.4 10.68 10.37 27.87 1.28 39.3-11.49 17.04-31.23 40.82-3.9 62.11 4.92 3.83 8.57 6.99 24.05 11.46-10.13 1.87-19.52 1.29-29.97-1.38-7.39-4.17-19-13.1-22.96-25.17-5.98-18.3 10.52-45.65 18.5-56.19 10.94-14.58-6.77-30.36-19.81-12.74-6.82 9.18-18.75 35.17-14.6 54.44 2.42 10.93 5.65 18.9 18.46 29.84-2.38-1.4-4.68-2.99-6.92-4.77-29.75-27.71-26.3-70.56-5.5-93.53Z"/><path fill="url(#2525-b)" d="M175.5 206.98a84 84 0 0 1-2.58 3.05c-.04.05-.13.06-.17.11-.08.1-.21.16-.29.26l-.08.1c-.61.57-1.26 1.18-2.02 1.72a30.1 30.1 0 0 1-8.33 4.57c-9.35 3.28-19.75 1.26-27.9-6.44-11.4-10.68-10.37-27.88-1.28-39.3 11.49-17.05 31.23-40.82 3.9-62.12-4.92-3.82-8.57-6.98-24.05-11.46 10.13-1.86 19.51-1.28 29.96 1.39 7.4 4.17 19.02 13.1 22.97 25.17 5.98 18.3-10.52 45.65-18.5 56.18-10.94 14.58 6.77 30.36 19.81 12.75 6.82-9.19 18.75-35.17 14.6-54.45-2.42-10.92-5.65-18.9-18.46-29.84a60.6 60.6 0 0 1 6.92 4.77c29.75 27.72 26.3 70.57 5.5 93.54"/><defs><linearGradient id="2525-a" x1="58.01" x2="191.72" y1="163.24" y2="163.24" gradientUnits="userSpaceOnUse"><stop stop-color="#0082FA"/><stop offset="1" stop-color="#00F2FE"/></linearGradient><linearGradient id="2525-b" x1="58.01" x2="191.72" y1="163.24" y2="163.24" gradientUnits="userSpaceOnUse"><stop stop-color="#0082FA"/><stop offset="1" stop-color="#00F2FE"/></linearGradient></defs></svg>