<svg xmlns="http://www.w3.org/2000/svg" id="svg34" version="1.1" viewBox="0 0 577.76 700.26" width="256" height="256" preserveAspectRatio="xMidYMid meet"><defs id="defs4"><style id="style2">.cls-4{fill:#191818}.cls-8{fill:#929292}</style></defs><g id="Layer_5" data-name="Layer 5" transform="translate(-211.62 -150.37)"><g id="Layer_1" data-name="Layer 1"><path id="polygon11" d="M283.84 367.03 500.5 222.59l216.66 144.44 72.22-36.11L500.5 150.37 211.62 330.92z" style="fill:#939393"/><path id="polygon13" d="M500.5 850.63v-86.39L283.84 619.8V367.03l-72.22-36.11v324.99z" style="fill:#5f5b60"/><path id="polygon15" d="M500.5 850.63v-86.39L717.16 619.8V367.03l72.22-36.11v324.99z" class="cls-4"/><path id="polygon17" d="M500.5 764.24 717.16 619.8 500.5 475.36 283.84 619.8z" style="fill:#157cd9"/><path id="polygon19" d="M283.84 619.8V367.03L500.5 222.59v252.77z" style="fill:#143e8e"/><path id="polygon21" d="M717.16 619.8V367.03L500.5 222.59l-4.06 255.47z" style="fill:#1459af"/></g><g id="Layer_3" data-name="Layer 3"><path id="polygon24" d="M496.49 475.36v-61.53l108.33-61.53 53.32 35.55z" class="cls-8"/><path id="polygon26" d="M497.65 475.36v-61.53L389.32 352.3 336 387.85z" class="cls-8"/><path id="polygon28" d="M437.89 517.1v131.51l59.76 37.25v-210.5L336 387.85v69.42z" style="fill:#5e5a5f"/><path id="polygon30" d="M556.24 517.1v131.51l-59.75 37.25v-210.5l161.64-87.51v69.43z" class="cls-4"/></g></g></svg>