<svg xmlns="http://www.w3.org/2000/svg" version="1.2" viewBox="0 0 512 512" width="256" height="256" preserveAspectRatio="xMidYMid meet"><defs><linearGradient id="g1" x1="256.2" x2="256.2" y1="460.8" y2="50.4" gradientUnits="userSpaceOnUse"><stop offset="0" stop-color="#490a8c"/><stop offset=".8" stop-color="#881fde"/></linearGradient><linearGradient id="g2" x1="421.3" x2="421.3" y1="393.7" y2="50.4" gradientUnits="userSpaceOnUse"><stop offset="0" stop-color="#490a8c"/><stop offset=".8" stop-color="#881fde"/></linearGradient><linearGradient id="g3" x1="256.2" x2="256.2" y1="435.9" y2="73.5" gradientUnits="userSpaceOnUse"><stop offset="0" stop-color="#db00a7"/><stop offset=".8" stop-color="#ff0677"/></linearGradient></defs><path fill="url(#g1)" d="m179.8 446-64.7 14.8C49.5 415.8 6.4 340.3 6.4 254.7c0-44.1 11.4-85.4 31.5-121.4l63.6-14.5c-32 36.2-51.3 83.8-51.3 135.9 0 86.8 53.7 161 129.6 191.3"/><path fill="url(#g2)" d="M506 254.7c0 45.2-12.1 87.6-33.1 124.2l-64.7 14.8c33.6-36.6 54-85.4 54-139 0-85.3-51.8-158.5-125.7-189.8l63.4-14.5C464 95.6 506 170.3 506 254.7"/><circle cx="256.2" cy="254.7" r="181.2" fill="url(#g3)"/><path fill="#d3ff00" d="m360.5 370.3-113.7 25.9-21.7-126.6-56.6 12.9 53.6 1.6-25.2 123.5-113.7 25.9 59.5-290.2 101.2-23.1c7.1-1.6 13.4 2.4 14.4 9.3L278.1 244l28.2-138 113.6-25.9z"/></svg>