<svg xmlns="http://www.w3.org/2000/svg" fill="none" viewBox="0 0 1000 1000" width="256" height="256" preserveAspectRatio="xMidYMid meet"><path fill="url(#paint0_angular_2621_10890)" fill-rule="evenodd" d="M500 81.88C269.079 81.88 81.88 269.08 81.88 500S269.08 918.12 500 918.12 918.12 730.921 918.12 500 730.921 81.88 500 81.88M0 500C0 223.858 223.858 0 500 0s500 223.858 500 500-223.858 500-500 500S0 776.142 0 500" clip-rule="evenodd"/><g filter="url(#filter0_d_2621_10890)"><path fill="url(#paint1_linear_2621_10890)" d="M480.821 379.695c7.477-12.935 26.148-12.935 33.626 0l97.538 168.729c7.485 12.946-1.858 29.139-16.813 29.139H400.095c-14.955 0-24.298-16.193-16.813-29.139z"/><path fill="url(#paint2_linear_2621_10890)" d="M331.032 642.65a27.36 27.36 0 0 1 23.851-13.951h447.119a26.04 26.04 0 0 1 23.156 14.128l23.406 45.495c4.081 7.931-1.678 17.369-10.596 17.369h-524.28c-8.101 0-13.204-8.725-9.232-15.786z"/><path fill="url(#paint3_linear_2621_10890)" d="M709.891 576.957a29.57 29.57 0 0 1-26.089-14.781l-216.43-374.869a37.96 37.96 0 0 1 1.053-39.676l23.025-35.397c5.209-8.009 17.038-7.695 21.815.579l257.558 446.104c4.376 7.579-1.002 17.07-9.752 17.212z"/><path fill="url(#paint4_linear_2621_10890)" d="M455.104 270.765a42.81 42.81 0 0 1 .291 43.31L241.409 684.711a38.4 38.4 0 0 1-35.194 19.151l-36.258-1.834c-12.191-.616-19.421-13.903-13.318-24.475L410.39 238.044c5.563-9.635 19.436-9.728 25.128-.169z"/></g><defs><linearGradient id="paint1_linear_2621_10890" x1="497.825" x2="612.546" y1="393.32" y2="576.605" gradientUnits="userSpaceOnUse"><stop stop-color="#DFE3F8"/><stop offset="1" stop-color="#B4BEE7"/></linearGradient><linearGradient id="paint2_linear_2621_10890" x1="363.376" x2="766.336" y1="667.003" y2="667.003" gradientUnits="userSpaceOnUse"><stop stop-color="#B5C1EB"/><stop offset="1" stop-color="#B6C1EC"/></linearGradient><linearGradient id="paint3_linear_2621_10890" x1="727.074" x2="424.279" y1="542.132" y2="71.182" gradientUnits="userSpaceOnUse"><stop stop-color="#B5C1EB"/><stop offset="1" stop-color="#F7F8FD"/></linearGradient><linearGradient id="paint4_linear_2621_10890" x1="418.345" x2="198.479" y1="279.748" y2="675.43" gradientUnits="userSpaceOnUse"><stop stop-color="#ABBAEB"/><stop offset="1" stop-color="#A2B7FE"/></linearGradient><radialGradient id="paint0_angular_2621_10890" cx="0" cy="0" r="1" gradientTransform="rotate(90 0 500)scale(500)" gradientUnits="userSpaceOnUse"><stop stop-color="#CED6FA"/><stop offset=".365" stop-color="#97ADF8"/><stop offset=".72" stop-color="#94AAF6"/><stop offset="1" stop-color="#CCCFF2"/></radialGradient><filter id="filter0_d_2621_10890" width="783.743" height="687.55" x="110.294" y="62.277" color-interpolation-filters="sRGB" filterUnits="userSpaceOnUse"><feFlood flood-opacity="0" result="BackgroundImageFix"/><feColorMatrix in="SourceAlpha" result="hardAlpha" values="0 0 0 0 0 0 0 0 0 0 0 0 0 0 0 0 0 0 127 0"/><feOffset/><feGaussianBlur stdDeviation="22.068"/><feComposite in2="hardAlpha" operator="out"/><feColorMatrix values="0 0 0 0 0 0 0 0 0 0.103898 0 0 0 0 0.259744 0 0 0 0.25 0"/><feBlend in2="BackgroundImageFix" result="effect1_dropShadow_2621_10890"/><feBlend in="SourceGraphic" in2="effect1_dropShadow_2621_10890" result="shape"/></filter></defs></svg>