<svg xmlns="http://www.w3.org/2000/svg" fill="none" viewBox="0 0 65 65" width="256" height="256" preserveAspectRatio="xMidYMid meet"><g clip-path="url(#clip0_5372_1197)" transform="translate(2.716)"><path fill="#181823" d="M29.777 65c-.373 0-.746-.11-1.066-.325a1.88 1.88 0 0 1-.837-1.567V36.72c0-.772.472-1.468 1.191-1.755l27.89-11.153A1.92 1.92 0 0 1 58.73 24c.526.352.837.942.837 1.57l-.06 26.384c0 .772-.472 1.464-1.191 1.752L30.488 64.864c-.228.09-.472.136-.711.136m1.902-27.001v22.306l24.028-9.632.05-22.306-24.078 9.628zM1.902 41.324c-.372 0-.745-.11-1.065-.325A1.88 1.88 0 0 1 0 39.433V13.045c0-.772.472-1.468 1.19-1.756L29.08.136a1.92 1.92 0 0 1 1.777.19c.525.351.837.941.837 1.57l-.06 26.384c0 .772-.472 1.464-1.192 1.751L2.614 41.188c-.228.091-.472.136-.712.136m1.903-27v22.305l24.027-9.632.05-22.306z"/><path fill="url(#paint0_linear_5372_1197)" d="M15.84 53.162c-.373 0-.746-.11-1.066-.325a1.88 1.88 0 0 1-.837-1.566V24.883c0-.772.472-1.468 1.191-1.756l27.89-11.153a1.92 1.92 0 0 1 1.776.19c.525.351.837.941.837 1.57l-.06 26.384c0 .771-.472 1.464-1.191 1.751L16.55 53.026c-.228.09-.472.136-.711.136m1.902-27v22.305l24.028-9.632.049-22.306-24.077 9.628z"/><mask id="mask0_5372_1197" width="11" height="13" x="40" y="24" maskUnits="userSpaceOnUse" style="mask-type:luminance"><path fill="#fff" d="M47.507 24.546c-3.645-.227-8.987 5.746-7.05 9.545 1.202 2.357 5.89 2.989 7.868 1.373 2.858-2.33 2.888-9.182-.818-10.918 3.706 1.736-3.645-.227 0 0"/></mask><g mask="url(#mask0_5372_1197)"><path fill="url(#paint1_linear_5372_1197)" d="M15.84 53.162c-.373 0-.746-.11-1.066-.325a1.88 1.88 0 0 1-.837-1.567V24.882c0-.772.472-1.468 1.19-1.755l27.89-11.153a1.92 1.92 0 0 1 1.777.189c.525.352.837.942.837 1.57l-.06 26.384c0 .772-.472 1.465-1.191 1.752L16.55 53.026c-.227.09-.47.136-.71.136m1.902-27.001v22.306l24.027-9.632.05-22.306-24.077 9.628z"/><path fill="#181823" d="M29.777 65c-.373 0-.746-.11-1.066-.325a1.88 1.88 0 0 1-.837-1.567V36.72c0-.772.472-1.468 1.191-1.755l27.89-11.153A1.92 1.92 0 0 1 58.73 24c.525.352.837.942.837 1.57l-.06 26.384c0 .772-.472 1.464-1.191 1.752L30.488 64.864c-.228.09-.472.136-.711.136m1.902-27.001v22.306l24.028-9.632.049-22.306-24.077 9.628z"/></g><mask id="mask1_5372_1197" width="11" height="12" x="11" y="28" maskUnits="userSpaceOnUse" style="mask-type:luminance"><path fill="#fff" d="M17.434 29.619c-3.683.36-6.46 1.854-6.297 5.955.125 3.087 2.043 4.434 5.083 4.01 3.645-.51 4.74-5.357 4.817-8.5.015-.644.148-3.489-3.603-1.465 3.751-2.024-3.683.36 0 0"/></mask><g mask="url(#mask1_5372_1197)"><path fill="url(#paint2_linear_5372_1197)" d="M15.84 53.162c-.373 0-.746-.11-1.066-.325a1.88 1.88 0 0 1-.837-1.566V24.883c0-.772.472-1.468 1.191-1.756l27.89-11.153a1.92 1.92 0 0 1 1.776.19c.525.351.837.941.837 1.57l-.06 26.384c0 .771-.472 1.464-1.191 1.751L16.55 53.026c-.228.09-.472.136-.711.136m1.902-27v22.305l24.028-9.632.049-22.306-24.077 9.628z"/><path fill="#181823" d="M1.902 41.324c-.372 0-.745-.11-1.065-.325A1.88 1.88 0 0 1 0 39.433V13.045c0-.772.472-1.468 1.19-1.756L29.08.136a1.92 1.92 0 0 1 1.777.19c.525.351.837.941.837 1.57l-.06 26.384c0 .772-.472 1.464-1.192 1.751L2.614 41.188c-.228.091-.472.136-.712.136m1.903-27v22.305l24.027-9.632.05-22.306z"/></g><path fill="#181823" d="M29.777 65c-.373 0-.746-.11-1.066-.325a1.88 1.88 0 0 1-.837-1.567V36.72c0-.772.472-1.468 1.191-1.755l27.89-11.153A1.92 1.92 0 0 1 58.73 24c.526.352.837.942.837 1.57l-.06 26.384c0 .772-.472 1.464-1.191 1.752L30.488 64.864c-.228.09-.472.136-.711.136m1.902-27.001v22.306l24.028-9.632.05-22.306-24.078 9.628zM1.902 41.324c-.372 0-.745-.11-1.065-.325A1.88 1.88 0 0 1 0 39.433V13.045c0-.772.472-1.468 1.19-1.756L29.08.136a1.92 1.92 0 0 1 1.777.19c.525.351.837.941.837 1.57l-.06 26.384c0 .772-.472 1.464-1.192 1.751L2.614 41.188c-.228.091-.472.136-.712.136m1.903-27v22.305l24.027-9.632.05-22.306z"/><path fill="url(#paint3_linear_5372_1197)" d="M15.84 53.162c-.373 0-.746-.11-1.066-.325a1.88 1.88 0 0 1-.837-1.566V24.883c0-.772.472-1.468 1.191-1.756l27.89-11.153a1.92 1.92 0 0 1 1.776.19c.525.351.837.941.837 1.57l-.06 26.384c0 .771-.472 1.464-1.191 1.751L16.55 53.026c-.228.09-.472.136-.711.136m1.902-27v22.305l24.028-9.632.049-22.306-24.077 9.628z"/><mask id="mask2_5372_1197" width="11" height="13" x="40" y="24" maskUnits="userSpaceOnUse" style="mask-type:luminance"><path fill="#fff" d="M47.507 24.546c-3.645-.227-8.987 5.746-7.05 9.545 1.202 2.357 5.89 2.989 7.868 1.373 2.858-2.33 2.888-9.182-.818-10.918 3.706 1.736-3.645-.227 0 0"/></mask><g mask="url(#mask2_5372_1197)"><path fill="url(#paint4_linear_5372_1197)" d="M15.84 53.162c-.373 0-.746-.11-1.066-.325a1.88 1.88 0 0 1-.837-1.567V24.882c0-.772.472-1.468 1.19-1.755l27.89-11.153a1.92 1.92 0 0 1 1.777.189c.525.352.837.942.837 1.57l-.06 26.384c0 .772-.472 1.465-1.191 1.752L16.55 53.026c-.227.09-.47.136-.71.136m1.902-27.001v22.306l24.027-9.632.05-22.306-24.077 9.628z"/><path fill="#181823" d="M29.777 65c-.373 0-.746-.11-1.066-.325a1.88 1.88 0 0 1-.837-1.567V36.72c0-.772.472-1.468 1.191-1.755l27.89-11.153A1.92 1.92 0 0 1 58.73 24c.525.352.837.942.837 1.57l-.06 26.384c0 .772-.472 1.464-1.191 1.752L30.488 64.864c-.228.09-.472.136-.711.136m1.902-27.001v22.306l24.028-9.632.049-22.306-24.077 9.628z"/></g><mask id="mask3_5372_1197" width="11" height="12" x="11" y="28" maskUnits="userSpaceOnUse" style="mask-type:luminance"><path fill="#fff" d="M17.434 29.619c-3.683.36-6.46 1.854-6.297 5.955.125 3.087 2.043 4.434 5.083 4.01 3.645-.51 4.74-5.357 4.817-8.5.015-.644.148-3.489-3.603-1.465 3.751-2.024-3.683.36 0 0"/></mask><g mask="url(#mask3_5372_1197)"><path fill="url(#paint5_linear_5372_1197)" d="M15.84 53.162c-.373 0-.746-.11-1.066-.325a1.88 1.88 0 0 1-.837-1.566V24.883c0-.772.472-1.468 1.191-1.756l27.89-11.153a1.92 1.92 0 0 1 1.776.19c.525.351.837.941.837 1.57l-.06 26.384c0 .771-.472 1.464-1.191 1.751L16.55 53.026c-.228.09-.472.136-.711.136m1.902-27v22.305l24.028-9.632.049-22.306-24.077 9.628z"/><path fill="#181823" d="M1.902 41.324c-.372 0-.745-.11-1.065-.325A1.88 1.88 0 0 1 0 39.433V13.045c0-.772.472-1.468 1.19-1.756L29.08.136a1.92 1.92 0 0 1 1.777.19c.525.351.837.941.837 1.57l-.06 26.384c0 .772-.472 1.464-1.192 1.751L2.614 41.188c-.228.091-.472.136-.712.136m1.903-27v22.305l24.027-9.632.05-22.306z"/></g></g><defs><linearGradient id="paint0_linear_5372_1197" x1="29.784" x2="29.784" y1="53.162" y2="11.838" gradientUnits="userSpaceOnUse"><stop stop-color="#EC4280"/><stop offset=".15" stop-color="#E23D8A"/><stop offset=".4" stop-color="#C930A6"/><stop offset=".73" stop-color="#9F1BD4"/><stop offset="1" stop-color="#7908FF"/></linearGradient><linearGradient id="paint1_linear_5372_1197" x1="29.784" x2="29.784" y1="53.162" y2="11.838" gradientUnits="userSpaceOnUse"><stop stop-color="#EC4280"/><stop offset=".15" stop-color="#E23D8A"/><stop offset=".4" stop-color="#C930A6"/><stop offset=".73" stop-color="#9F1BD4"/><stop offset="1" stop-color="#7908FF"/></linearGradient><linearGradient id="paint2_linear_5372_1197" x1="29.784" x2="29.784" y1="53.162" y2="11.838" gradientUnits="userSpaceOnUse"><stop stop-color="#EC4280"/><stop offset=".15" stop-color="#E23D8A"/><stop offset=".4" stop-color="#C930A6"/><stop offset=".73" stop-color="#9F1BD4"/><stop offset="1" stop-color="#7908FF"/></linearGradient><linearGradient id="paint3_linear_5372_1197" x1="29.784" x2="29.784" y1="53.162" y2="11.838" gradientUnits="userSpaceOnUse"><stop stop-color="#EC4280"/><stop offset=".15" stop-color="#E23D8A"/><stop offset=".4" stop-color="#C930A6"/><stop offset=".73" stop-color="#9F1BD4"/><stop offset="1" stop-color="#7908FF"/></linearGradient><linearGradient id="paint4_linear_5372_1197" x1="29.784" x2="29.784" y1="53.162" y2="11.838" gradientUnits="userSpaceOnUse"><stop stop-color="#EC4280"/><stop offset=".15" stop-color="#E23D8A"/><stop offset=".4" stop-color="#C930A6"/><stop offset=".73" stop-color="#9F1BD4"/><stop offset="1" stop-color="#7908FF"/></linearGradient><linearGradient id="paint5_linear_5372_1197" x1="29.784" x2="29.784" y1="53.162" y2="11.838" gradientUnits="userSpaceOnUse"><stop stop-color="#EC4280"/><stop offset=".15" stop-color="#E23D8A"/><stop offset=".4" stop-color="#C930A6"/><stop offset=".73" stop-color="#9F1BD4"/><stop offset="1" stop-color="#7908FF"/></linearGradient><clipPath id="clip0_5372_1197"><path fill="#fff" d="M0 0h204v65H0z"/></clipPath></defs></svg>