<svg xmlns="http://www.w3.org/2000/svg" xmlns:xlink="http://www.w3.org/1999/xlink" id="svg2143" version="1.1" viewBox="0 0 37.042 37.042" width="256" height="256" preserveAspectRatio="xMidYMid meet"><defs id="defs2137"><path id="rect2708" d="M55.563 129.268h136.214v42.597H55.563z"/><path id="rect2708-5" d="M55.563 129.268H178.68v43.934H55.563z"/><path id="rect2725" d="M55.563 129.268H173.87v31.372H55.563z"/><path id="rect2708-9" d="M55.563 129.268h136.214v42.597H55.563z"/><path id="rect2761" d="M55.563 129.268h136.214v42.597H55.563z"/><path id="rect2708-5-3" d="M55.563 129.268H178.68v43.934H55.563z"/><path id="rect2764" d="M55.563 129.268H178.68v43.934H55.563z"/><linearGradient xlink:href="#linearGradient1002" id="linearGradient1004" x1="29.458" x2="37.707" y1="135.994" y2="156.262" gradientTransform="translate(-19.187 -129.98)" gradientUnits="userSpaceOnUse"/><linearGradient id="linearGradient1002"><stop id="stop998" offset="0" style="stop-color:#326400;stop-opacity:1"/><stop id="stop1006" offset="1" style="stop-color:#329600;stop-opacity:1"/></linearGradient></defs><path id="path847-8" d="m18.52 1.27-15 8.626v17.25l15 8.625 15-8.625V9.896Zm0 4.313 11.25 6.47V24.99l-11.25 6.468L7.27 24.99V12.052Zm-8.24 6.47-1.51.867v1.832h3.967l3.132 3.132 2.015-2.015-3.817-3.817h-1.805zm12.695 0-2.3 2.298-2.154 2.155-2.015 2.015-3.769 3.769H8.771v1.832l1.509.868h3.787l1.254-1.254 5.215-5.215 2.723-2.724 1.046-1.045h3.966V12.92l-1.509-.868h-2.84zm-1.803 7.104-2.015 2.015 3.817 3.818h3.788l1.509-.868V22.29h-3.966z" style="font-variation-settings:normal;opacity:1;vector-effect:none;fill:url(#linearGradient1004);fill-opacity:1;stroke:none;stroke-width:3.94788;stroke-linecap:butt;stroke-linejoin:miter;stroke-miterlimit:4;stroke-dasharray:none;stroke-dashoffset:0;stroke-opacity:1;stop-color:#000;stop-opacity:1"/></svg>