<svg xmlns="http://www.w3.org/2000/svg" fill="none" viewBox="0 0 112 112" width="256" height="256" preserveAspectRatio="xMidYMid meet"><circle cx="56" cy="56" r="56" fill="#000"/><path fill="#fff" d="M59.355 46.574c.035.035.07.104.104.139l.035.034c.035.035.035.07.07.104.034.035.069.035.069.07l3.995 3.982a.84.84 0 0 0 .626.242h.034c.14.07.278.104.452.104l11.569-.277c.972-.035 1.737-.797 1.737-1.766V42.28c0-2.944-.452-5.16-1.46-6.822 0-.243-5.106-5.403-5.176-5.472-1.98-1.8-5.107-2.494-9.554-2.113l-14.278 1.109c-7.713.658-11.639 3.878-11.639 9.558v29.262c0 2.078.487 4.052 1.425 5.334.938 1.28 5.558 5.852 6.392 6.44l.035.036c.104.069.174.138.313.173 1.945 1.246 4.516 2.043 7.678 2.32l14.105 1.143c.625.069 1.25.069 1.806.069 3.196 0 5.698-.797 7.47-2.424 1.91-1.766 2.883-4.398 2.883-7.896v-9.696c0-.139-.035-.243-.07-.382a.82.82 0 0 0-.243-.727l-4.169-4.12a.7.7 0 0 0-.347-.208 1.5 1.5 0 0 0-.8-.208l-11.568-.173c-.452 0-.938.173-1.25.519a1.7 1.7 0 0 0-.522 1.247v8.45l-4.03-.139V43.77l3.995-.208v2.009c0 .346.105.692.313 1.004m14.522-11.636c.07.07.174.139.243.208 1.46 1.35 2.154 3.601 2.154 7.1v6.025l-2.258-2.39c.07-.173.104-.38.104-.588v-6.926c.035-1.282-.035-2.425-.243-3.429m-9.102 14.51-2.189-2.181 9.867-.243c.069 0 .173 0 .243-.034l2.084 2.216zM76.309 63.37v9.696c0 2.978-.764 5.195-2.328 6.58-1.702 1.558-4.343 2.182-7.956 1.87L51.92 80.408c-2.918-.243-5.245-.935-6.913-2.009l-.73-.727c1.112.277 2.293.485 3.613.589l14.105 1.143c.626.069 1.251.069 1.807.069 3.196 0 5.697-.797 7.47-2.424 1.91-1.766 2.883-4.398 2.883-7.896v-7.965l2.154 2.112zm-25.153 3.982V40.964l2.258 2.216c-.07.173-.104.381-.104.554v23.722zm3.822-25.35c-.07 0-.174.035-.244.035l-2.258-2.25 6.566-.312v2.32z"/></svg>