<svg xmlns="http://www.w3.org/2000/svg" fill="none" viewBox="0 0 309 353" width="256" height="256" preserveAspectRatio="xMidYMid meet"><path fill="#FF7800" d="m12.75 84.934-8.5 14.724 290.912 167.951 8.501-14.724z"/><path fill="#FF7800" d="M153.833 268.99a8.5 8.5 0 0 1-4.256-1.142L4.245 183.797a8.5 8.5 0 0 1 .005-14.72l145.739-84.142a8.5 8.5 0 0 1 8.501 0l141.679 81.796q.112.065.22.132l3.65 2.256a8.5 8.5 0 0 1-.22 14.592l-145.736 84.14a8.5 8.5 0 0 1-4.25 1.139M25.491 176.444l128.345 74.228 128.861-74.397-128.457-74.164z"/><path fill="#FF7800" d="M153.833 352.798a8.5 8.5 0 0 1-4.273-1.152L4.228 267.142a8.5 8.5 0 0 1 .022-14.71l277.58-160.26-128.185-73.858-136.644 78.89v79.234H0V92.296a8.5 8.5 0 0 1 4.25-7.361L149.39 1.139a8.5 8.5 0 0 1 8.494-.004L303.087 84.8a8.5 8.5 0 0 1 .006 14.726L25.457 259.82l128.391 74.654 137.22-79.224V176.35h17.002v83.807a8.5 8.5 0 0 1-4.251 7.363l-145.735 84.138a8.5 8.5 0 0 1-4.251 1.14"/><path fill="#FF7800" d="M162.741 8.5h-17.002v83.796h17.002zM162.333 260.489h-17v83.808h17z"/></svg>