<svg xmlns="http://www.w3.org/2000/svg" id="Layer_1" x="0" y="0" version="1.1" viewBox="0 0 1000 1000" width="256" height="256" preserveAspectRatio="xMidYMid meet"><defs><linearGradient id="gradient-0" x1="500.966" x2="500.966" y1="33.124" y2="969.12" gradientTransform="matrix(.41936 -.96547 .61046 .26516 -23.488 942.075)" gradientUnits="userSpaceOnUse"><stop offset="0" style="stop-color:#8437fa"/><stop offset=".127" style="stop-color:#8239fa"/><stop offset=".95" style="stop-color:#2ec0df"/><stop offset="1" style="stop-color:#2ec0df"/></linearGradient></defs><path d="M425.516 56.499c19.485 11.028 38.693 21.742 57.821 32.598 22.224 12.612 44.327 25.438 66.577 38.002 17.819 10.062 35.845 19.757 53.664 29.819 23.139 13.068 46.137 26.384 69.246 39.505 14.568 8.271 29.12 16.58 43.87 24.517 22.901 12.323 44.939 25.82 62.076 45.822 16.494 19.253 28.367 40.989 32.662 66.251 1.638 9.63 3.121 19.45 3.053 29.172-.132 18.704-4.11 36.792-11.475 54.107-7.596 17.856-18.554 33.517-32.341 46.872-17.113 16.575-36.863 29.43-59.347 37.94-12.772 4.834-25.261 10.417-37.825 15.785-.88.377-2.04 2.015-1.828 2.656.544 1.649 1.434 3.671 2.81 4.475 7.007 4.093 14.291 7.708 21.332 11.745 18.206 10.438 36.755 20.357 54.38 31.707 18.823 12.121 33.257 28.805 44.917 47.987 8.562 14.086 14.093 29.367 17.062 45.287 2.218 11.897 3.214 24.08 1.789 36.546-1.443 12.633-3.365 25.009-7.794 36.837-5.675 15.153-13.385 29.213-23.732 41.849-17.303 21.129-38.598 36.974-63.354 48.035-17.844 7.974-36.177 14.849-54.238 22.346-17.452 7.244-34.799 14.738-52.253 21.977-23.987 9.949-48.062 19.689-72.042 29.653-24.303 10.098-48.508 20.429-72.809 30.531-21.331 8.868-42.761 17.498-64.099 26.347-23.373 9.692-46.756 19.364-70.011 29.334-15.839 6.791-32.256 10.558-49.426 9.306-20.916-1.526-40.048-8.398-56.798-21.365-19.537-15.126-31.831-34.938-37.498-58.793-1.655-6.966-2.477-14.3-2.481-21.467-.122-259.644-.206-519.289.066-778.933.025-24.605 9.04-46.412 25.841-64.942 16.663-18.376 37.082-29.958 60.985-35.649 14.628-3.482 29.323-4.796 44.51-3.164 17.531 1.884 33.948 6.61 49.276 15.005 18.105 9.915 35.951 20.302 53.916 30.472 1.029.582 2.122 1.054 3.498 1.828m-8.045 566.635c-13.65 5.843-27.257 11.788-40.959 17.506-24.432 10.195-48.842 20.454-73.466 30.167-4.062 1.602-4.167 3.651-4.166 6.861.026 65.259.019 130.518.019 195.777v4.352c9.37-3.988 18.182-7.822 27.06-11.498 15.422-6.386 30.896-12.646 46.327-19.012a13606 13606 0 0 0 46.259-19.207c15.725-6.554 31.415-13.193 47.156-19.707 17.139-7.091 34.348-14.011 51.472-21.136 15.733-6.547 31.363-13.341 47.094-19.892 15.564-6.481 31.212-12.76 46.797-19.19 17.617-7.268 35.185-14.654 52.814-21.894 11.434-4.696 22.694-9.741 30.759-19.558 5.94-7.231 10.018-14.973 7.648-25.203-2.856-12.331-11.209-19.848-21.064-25.934-10.495-6.48-21.601-11.969-32.407-17.948-22.058-12.205-44.095-24.448-66.14-36.676-15.1-8.376-30.182-16.786-45.332-25.07-1.1-.602-2.884-.793-4.024-.345-6.747 2.654-13.381 5.593-20.084 8.362-31.638 13.069-63.287 26.113-95.763 39.245m278.905-244.333c.512-.879.986-1.781 1.541-2.632 5.812-8.917 7.079-18.095 2.053-27.877-6.32-12.302-17.732-18.643-29.038-25.054-14.71-8.34-29.591-16.376-44.338-24.651-18.589-10.43-37.108-20.985-55.673-31.458-14.444-8.148-28.949-16.186-43.36-24.391-20.002-11.389-39.886-22.987-59.925-34.312-17.814-10.067-35.807-19.816-53.652-29.83-17.849-10.016-35.603-20.203-53.415-30.286-14.582-8.254-29.117-16.596-43.836-24.6-3.445-1.874-7.472-2.934-11.363-3.662-4.532-.847-6.623.843-6.604 6.22.211 59.814.253 119.629-.022 179.442-.034 7.277.561 13.09 8.381 15.637.476.155.902.465 1.347.71 27.569 15.167 55.149 30.315 82.704 45.509 20.153 11.113 40.26 22.31 60.411 33.427 26.809 14.79 53.801 29.257 80.357 44.487 7.376 4.231 13.71 5.529 20.879.772.692-.459 1.521-.719 2.3-1.04 17.304-7.131 34.621-14.229 51.911-21.393 15.736-6.52 31.436-13.127 47.165-19.663 15.075-6.264 30.76-11.493 42.177-25.355M368.38 482.584l-69.254-38.265v107.264l107.428-44.666-.095-2.24c-11.618-8.618-24.847-14.585-38.079-22.093" style="fill:url(#gradient-0)"/></svg>