<svg xmlns="http://www.w3.org/2000/svg" fill="none" viewBox="0 0 100 100" width="256" height="256" preserveAspectRatio="xMidYMid meet"><path fill="#000" d="M0 50C0 8.825 8.825 0 50 0s50 8.825 50 50-8.825 50-50 50S0 91.175 0 50"/><path fill="#000" d="M0 50C0 8.825 8.825 0 50 0s50 8.825 50 50-8.825 50-50 50S0 91.175 0 50"/><path fill="#fff" fill-rule="evenodd" d="M15.82 52.286c0-8.813 6.956-15.958 15.537-15.958 2.479 0 5.533 1.09 8.309 2.306 2.908 1.274 6.023 2.928 8.791 4.465a3.17 3.17 0 0 0 3.086 0c2.768-1.537 5.883-3.19 8.791-4.465 2.776-1.216 5.83-2.306 8.31-2.306 8.58 0 15.536 7.145 15.536 15.958s-6.956 15.957-15.537 15.957c-2.479 0-5.533-1.09-8.309-2.305-2.908-1.275-6.023-2.928-8.791-4.466a3.17 3.17 0 0 0-3.086 0c-2.768 1.538-5.883 3.191-8.791 4.466-2.776 1.216-5.83 2.305-8.31 2.305-8.58 0-15.536-7.144-15.536-15.957m15.537-9.575c-5.149 0-9.322 4.287-9.322 9.575s4.173 9.575 9.322 9.575c1.086 0 3.098-.58 5.87-1.794 2.64-1.157 5.553-2.698 8.274-4.21a9.24 9.24 0 0 1 8.998 0c2.721 1.512 5.635 3.053 8.274 4.21 2.773 1.215 4.785 1.794 5.87 1.794 5.149 0 9.322-4.287 9.322-9.575s-4.173-9.575-9.321-9.575c-1.087 0-3.099.58-5.87 1.794-2.64 1.157-5.554 2.697-8.275 4.209a9.24 9.24 0 0 1-8.998 0c-2.721-1.512-5.635-3.052-8.274-4.209-2.772-1.215-4.784-1.794-5.87-1.794" clip-rule="evenodd"/></svg>