<svg xmlns="http://www.w3.org/2000/svg" fill="none" viewBox="0 0 218 211" width="256" height="256" preserveAspectRatio="xMidYMid meet"><rect width="218" height="211" fill="url(#paint0_linear_2321_1142)" rx="105.5"/><path fill="#000" d="M150.594 51.225H66.188v22.563h74.915a101.1 101.1 0 0 1 9.481-22.563zM137.737 101.089c0-3.447.186-6.856.537-10.226H66.188v21.954h72.261a97 97 0 0 1-.712-11.728M142.112 131.113H66.188v22.564h86.228a101.6 101.6 0 0 1-10.304-22.564"/><path fill="#fff" d="M156.667 51.225h-90.48v24.393h80.305a110 110 0 0 1 10.164-24.393zM142.36 100.794c0-3.639.198-7.237.572-10.794H66v23.173h77.12c-.5-4.065-.76-8.192-.76-12.379M147.272 131H66v24.393h92.301A110.4 110.4 0 0 1 147.272 131"/><defs><linearGradient id="paint0_linear_2321_1142" x1="219.448" x2=".609" y1="208.346" y2="208.502" gradientUnits="userSpaceOnUse"><stop stop-color="#BA9C31"/><stop offset="1" stop-color="#8914E5"/></linearGradient></defs></svg>