<svg xmlns="http://www.w3.org/2000/svg" id="q-logo-icon" fill="none" viewBox="0 0 66 66" width="256" height="256" preserveAspectRatio="xMidYMid meet"><path fill="currentColor" fill-rule="evenodd" d="M50.078 49.028q.438-.545.845-1.106l5.138 3.096h7.194L52.88 44.773a25.5 25.5 0 0 0 1.703-3.973 27.8 27.8 0 0 0 1.472-8.747 27.1 27.1 0 0 0-1.508-8.78 26.6 26.6 0 0 0-4.552-8.192 22.4 22.4 0 0 0-7.73-6.05q-4.689-2.28-11.137-2.281-6.165 0-10.754 2.282a22.8 22.8 0 0 0-7.634 6.014 25.5 25.5 0 0 0-4.514 8.194 28 28 0 0 0-1.47 8.813 30 30 0 0 0 1.393 8.988 24.6 24.6 0 0 0 4.367 8.195 21.2 21.2 0 0 0 7.743 5.91q4.773 2.223 11.43 2.223 6.234 0 10.79-2.282c.446-.223.878-.461 1.304-.707l5.087 3.063h7.193l-8.953-5.398a22 22 0 0 0 2.967-3.017m-15.07-4.273h-7.193l11.56 6.953c-.13.088-.256.177-.39.253q-3.108 1.978-7.37 1.975-4.547 0-7.802-1.914a15.5 15.5 0 0 1-5.31-5.104 23.6 23.6 0 0 1-2.99-7.099 32.3 32.3 0 0 1-.956-7.773 30.2 30.2 0 0 1 1.002-7.627 24.3 24.3 0 0 1 3.083-7.099 16.84 16.84 0 0 1 5.215-5.203q3.136-1.972 7.347-1.975 4.403 0 7.61 1.975a16.4 16.4 0 0 1 5.301 5.254 25.2 25.2 0 0 1 3.112 7.099 29 29 0 0 1 1.027 7.606 30 30 0 0 1-1.002 7.545 28 28 0 0 1-.442 1.494l-4.603-2.761h-7.193l10.373 6.244a24 24 0 0 1-1.218 2.15 18 18 0 0 1-1.85 2.42z" clip-rule="evenodd"/></svg>