<svg xmlns="http://www.w3.org/2000/svg" viewBox="0 0 38 38" width="256" height="256" preserveAspectRatio="xMidYMid meet"><defs><linearGradient id="linear-gradient" x1=".054" x2=".979" y1=".046" y2=".988" gradientUnits="objectBoundingBox"><stop offset="0" stop-color="#29b3eb"/><stop offset="1" stop-color="#21edba"/></linearGradient><linearGradient id="linear-gradient-2" x1=".045" x2="1.513" y1="-1.18" y2="4.244" href="#linear-gradient"/><linearGradient id="linear-gradient-3" x1="-1.958" x2="2.522" y1="-1.39" y2="2.054" href="#linear-gradient"/><linearGradient id="linear-gradient-4" x1="-.477" x2="4.003" y1="-.356" y2="3.568" href="#linear-gradient"/><linearGradient id="linear-gradient-5" x1="-.186" x2="1.281" y1="-2.037" y2="3.387" href="#linear-gradient"/></defs><g id="Group_239" data-name="Group 239" transform="translate(470.616 170.273)"><g id="Group_227" data-name="Group 227"><g id="Group_226" data-name="Group 226"><path id="Path_173" fill="url(#linear-gradient)" d="M-441.672-132.273h-19.887l-1.924-1.924v-34.151l1.924-1.925h19.887l1.924 1.925v34.148Zm-17.963-3.849h16.035v-30.3h-16.039Z" data-name="Path 173"/><path id="Rectangle_194" fill="url(#linear-gradient-2)" d="M0 0h11.75v3.849H0z" data-name="Rectangle 194" transform="translate(-457.491 -156.633)"/><path id="Rectangle_195" fill="url(#linear-gradient-3)" d="M0 0h3.849v6.062H0z" data-name="Rectangle 195" transform="translate(-453.54 -147.778)"/><path id="Rectangle_196" fill="url(#linear-gradient-4)" d="M0 0h3.849v5.32H0z" data-name="Rectangle 196" transform="translate(-453.54 -160.583)"/><path id="Rectangle_197" fill="url(#linear-gradient-5)" d="M0 0h11.75v3.849H0z" data-name="Rectangle 197" transform="translate(-457.491 -149.516)"/></g></g></g></svg>