<svg xmlns="http://www.w3.org/2000/svg" fill="none" viewBox="0 0 60 60" width="256" height="256" preserveAspectRatio="xMidYMid meet"><g clip-path="url(#clip0_286_12148)"><path fill="url(#paint0_linear_286_12148)" d="M59.923 27.965C58.8 11.433 44.49-1.053 27.963.07 19.73.631 12.5 4.466 7.454 10.211l-.015-.01q-.053.069-.098.138C2.331 16.12-.489 23.801.071 32.036c.051.786.143 1.556.256 2.32 0 .037.01.067.015.103a29.54 29.54 0 0 0 .57 2.86c3.466 13.816 16.41 23.601 31.123 22.6 16.527-1.124 29.018-15.433 27.894-31.964zm-6.53.446c.14 2.034.01 4.026-.354 5.946 0-.01-.01-.02-.01-.03-2.178-5.315-6.48-9.155-10.259-11.276.765-9.005-2.29-12.804-5.75-13.42a5.005 5.005 0 0 0-5.889 4.287 5.004 5.004 0 0 0 4.334 5.606q.361.045.708.036.026.483.026.965c-3.199-.79-6.187-.95-8.913-.703a26 26 0 0 0-3.055.385c.34-3.04 1.484-6.459 3.697-8.954 2.14-2.418 5.324-3.799 8.794-3.445a9.5 9.5 0 0 1 1.992.442q.048.016.088.025c8.04 3.276 13.96 10.91 14.586 20.136zm-20.91 4.58q.001.001-.006.01a21 21 0 0 1-2.567 3.035 22.3 22.3 0 0 1-3.615-5.088c-.046-.098-.097-.185-.144-.283v-.01a21.5 21.5 0 0 1-1.345-3.743c2.13-.503 4.22-.688 6.218-.59l.318.015h.01c1.253.103 2.557.334 3.907.704a22.4 22.4 0 0 1-2.772 5.945zM22.233 7.871l-.015.02c-3.517 4.538-4.688 10.18-4.636 14.513-8.184 3.84-9.94 8.384-8.749 11.69.03.093.067.18.103.268a5.013 5.013 0 0 0 6.556 2.69 5.013 5.013 0 0 0 2.69-6.556 5 5 0 0 0-.323-.632c.257-.17.534-.338.832-.513.913 3.168 2.264 5.843 3.84 8.081.57.847 1.186 1.663 1.858 2.45-2.803 1.226-6.335 1.945-9.606 1.277-3.162-.646-5.95-2.71-7.382-5.894a9.5 9.5 0 0 1-.616-1.945 24 24 0 0 1-.19-1.73c-.73-10.746 5.935-20.31 15.638-23.72m9.354 45.523c-6.38.436-12.347-1.74-16.855-5.612 5.69.776 11.162-1.032 14.89-3.244 7.418 5.17 12.234 4.42 14.503 1.735a5.01 5.01 0 0 0-2.527-8.11 5.01 5.01 0 0 0-5.267 1.81c-.143.19-.272.396-.385.601-.272-.139-.56-.293-.852-.462a26.8 26.8 0 0 0 5.067-7.373q.68-1.384 1.191-2.839c2.465 1.818 4.857 4.513 5.915 7.68 1.022 3.06.631 6.51-1.412 9.34a9.5 9.5 0 0 1-1.376 1.504l-.02.02a23.3 23.3 0 0 1-12.866 4.945z"/><path fill="url(#paint1_radial_286_12148)" d="M37.02 9.626a4.9 4.9 0 0 0-1.705-.02c2.872 1.56 4.96 5.909 3.863 14.493a25.7 25.7 0 0 1-2.428 8.03 26.7 26.7 0 0 1-4.145 6.355 24 24 0 0 0 2.49 1.638 26.8 26.8 0 0 0 5.069-7.372 25.5 25.5 0 0 0 2.428-8.03c1.31-10.217-1.904-14.437-5.57-15.09z" opacity=".9" style="mix-blend-mode:overlay"/><path fill="#fff" d="M39.176 24.094c1.099-8.58-.991-12.933-3.861-14.494-.113.015-.22.041-.334.067 2.809 1.617 4.831 5.96 3.748 14.427a25.7 25.7 0 0 1-2.428 8.03 26.6 26.6 0 0 1-3.969 6.15q.136.108.272.205a26.8 26.8 0 0 0 4.143-6.356 25.5 25.5 0 0 0 2.429-8.029" opacity=".8" style="mix-blend-mode:overlay"/><path fill="url(#paint2_radial_286_12148)" d="M28.266 43.557c-.272-.205-.529-.421-.79-.637-4.236 1.767-10.105 2.875-15.937 1.52a23.4 23.4 0 0 0 3.188 3.342c5.69.776 11.162-1.032 14.89-3.244a44 44 0 0 1-1.356-.986z" opacity=".5" style="mix-blend-mode:overlay"/><path fill="url(#paint3_linear_286_12148)" d="M27.48 42.92c-.128-.108-.26-.215-.384-.323-4.267 1.704-10.166 2.726-15.983 1.273.144.19.288.385.431.57 5.828 1.355 11.7.247 15.936-1.52" opacity=".6" style="mix-blend-mode:overlay"/><path fill="url(#paint4_radial_286_12148)" d="M8.838 34.1c.03.092.067.18.103.267q.286.676.734 1.222c-.082-3.265 2.64-7.255 10.617-10.592a25.6 25.6 0 0 1 8.168-1.91 26.6 26.6 0 0 1 7.578.41c.13-1.077.18-2.083.17-2.972a26.8 26.8 0 0 0-8.918-.703c-2.81.184-5.569.83-8.169 1.91C9.62 25.706 7.571 30.599 8.84 34.105V34.1" opacity=".9" style="mix-blend-mode:overlay"/><path fill="#fff" d="M20.293 25.002c-7.978 3.338-10.7 7.327-10.617 10.592q.11.13.226.252c-.006-3.24 2.746-7.162 10.617-10.459a25.6 25.6 0 0 1 8.168-1.91 26.7 26.7 0 0 1 7.31.36q.025-.17.042-.339a26.8 26.8 0 0 0-7.578-.41c-2.81.184-5.569.83-8.168 1.91z" opacity=".8" style="mix-blend-mode:overlay"/><path fill="url(#paint5_radial_286_12148)" d="M42.601 24.715c-.04.339-.097.667-.154 1 3.645 2.784 7.542 7.317 9.288 13.04a23.6 23.6 0 0 0 1.3-4.434c-2.173-5.314-6.475-9.15-10.254-11.27-.046.54-.103 1.089-.175 1.664z" opacity=".4" style="mix-blend-mode:overlay"/><path fill="url(#paint6_linear_286_12148)" d="M42.447 25.716c-.03.164-.057.334-.088.498 3.61 2.844 7.445 7.44 9.093 13.205q.146-.331.277-.662c-1.745-5.725-5.637-10.253-9.288-13.041z" opacity=".5" style="mix-blend-mode:overlay"/><path fill="url(#paint7_radial_286_12148)" d="M44.126 46.268c.37-.437.666-.933.873-1.468-2.788 1.704-7.6 1.34-14.484-3.903a25.5 25.5 0 0 1-5.74-6.12 26.6 26.6 0 0 1-3.435-6.766c-.996.426-1.894.888-2.664 1.34a26.9 26.9 0 0 0 3.85 8.076 25.6 25.6 0 0 0 5.74 6.12c8.194 6.243 13.457 5.57 15.854 2.72z" opacity=".9" style="mix-blend-mode:overlay"/><path fill="#fff" d="M30.52 40.898c6.879 5.24 11.695 5.606 14.482 3.9q.06-.16.108-.317c-2.803 1.628-7.578 1.2-14.365-3.968a25.5 25.5 0 0 1-5.74-6.12 26.7 26.7 0 0 1-3.342-6.51c-.108.046-.21.087-.313.133a26.6 26.6 0 0 0 3.434 6.767 25.6 25.6 0 0 0 5.74 6.12l-.005-.005" opacity=".8" style="mix-blend-mode:overlay"/><path fill="url(#paint8_radial_286_12148)" d="M19.117 21.722c.313-.13.626-.247.944-.365.586-4.55 2.562-10.191 6.65-14.56-1.53.22-3.035.58-4.493 1.088-3.518 4.539-4.688 10.18-4.636 14.515q.73-.346 1.53-.677z" opacity=".3" style="mix-blend-mode:overlay"/><path fill="url(#paint9_linear_286_12148)" d="M20.06 21.357c.16-.056.315-.118.474-.174.657-4.55 2.72-10.166 6.885-14.479a34 34 0 0 0-.71.088c-4.087 4.374-6.062 10.011-6.648 14.56v.005" opacity=".4" style="mix-blend-mode:overlay"/><path fill="url(#paint10_linear_286_12148)" d="M27.963.071c-8.235.56-15.463 4.395-20.51 10.14l-.113.128c.98.976 4.194 2.896 5.493 3.697A23.4 23.4 0 0 1 22.24 7.87q.378-.495.796-.965C26.424 3.08 31.05 1.062 36.42 1.062c.596 0 1.813.098 1.838.098A29.8 29.8 0 0 0 27.964.07z" opacity=".4" style="mix-blend-mode:multiply"/><path fill="url(#paint11_linear_286_12148)" d="M31.588 53.4c-6.38.435-12.347-1.74-16.855-5.612a18 18 0 0 1-1.263-.21c-5.006-1.023-9.072-4.02-11.752-8.667a18 18 0 0 1-.806-1.582c3.466 13.816 16.41 23.602 31.118 22.6.067-1.514-.38-5.03-.447-6.53z" opacity=".4" style="mix-blend-mode:multiply"/><path fill="url(#paint12_linear_286_12148)" d="M59.924 27.965c-.924-.093-5.422.262-6.53.446.138 2.034.01 4.026-.355 5.946.154.38.303.77.436 1.165 1.618 4.847 1.053 9.863-1.627 14.514q-.446.769-.965 1.49s.015-.011.02-.021c6.095-5.93 9.642-14.391 9.02-23.535z" opacity=".4" style="mix-blend-mode:multiply"/><path fill="url(#paint13_linear_286_12148)" d="M36.728 7.803c.657.067 1.36.231 1.992.442.03.01.062.02.087.025a23.6 23.6 0 0 1 6.998 4.426s.01.005.015.01c.986-1.124 2.88-2.361 2.88-2.361s-2.9-2.968-7.34-3.892c-3.107-.647-10.115-1.268-14.536 6.253l.041-.04a12.5 12.5 0 0 1 1.068-1.418c2.141-2.418 5.324-3.8 8.795-3.445" opacity=".5" style="mix-blend-mode:multiply"/><path fill="url(#paint14_linear_286_12148)" d="M45.856 46.925a9.5 9.5 0 0 1-1.376 1.504c-.02.02-.046.041-.067.062a23.6 23.6 0 0 1-7.33 3.845q-.008-.001-.017.005c.483 1.417.606 3.676.606 3.676s4.02-1.026 7.04-4.41c2.11-2.367 6.155-8.127 1.852-15.715 0 0 .006.025.016.056.267.53.508 1.073.693 1.633 1.022 3.06.631 6.51-1.412 9.34z" opacity=".5" style="mix-blend-mode:multiply"/><path fill="url(#paint15_linear_286_12148)" d="M7.413 35.276a9.5 9.5 0 0 1-.617-1.946c-.005-.03-.015-.062-.02-.093-.38-2.767-.257-5.57.334-8.27v-.016c-1.47-.288-3.486-1.314-3.486-1.314s-1.12 4 .303 8.302c.996 3.013 3.958 9.395 12.68 9.462 0 0-.025-.006-.056-.016-.59-.036-1.18-.097-1.76-.215-3.163-.647-5.951-2.71-7.384-5.894z" opacity=".5" style="mix-blend-mode:multiply"/><path fill="url(#paint16_linear_286_12148)" d="M35.464 19.52q.361.044.708.035s-.159-3.116-.539-4.718c-.385-1.597-.95-2.66-1.566-3.26-.446-.43-1.848-.966-2.936 2.33a5.005 5.005 0 0 0 4.333 5.607z" opacity=".6" style="mix-blend-mode:multiply"/><path fill="url(#paint17_linear_286_12148)" d="M18.19 30.506a5 5 0 0 0-.324-.631s-2.624 1.694-3.815 2.823-1.828 2.152-2.038 2.988c-.149.601.087 2.08 3.486 1.376a5.013 5.013 0 0 0 2.69-6.556z" opacity=".5" style="mix-blend-mode:multiply"/><path fill="url(#paint18_linear_286_12148)" d="M36.338 39.968a5 5 0 0 0-.385.6s2.778 1.423 4.354 1.89c1.576.468 2.777.509 3.604.272.596-.17 1.756-1.12-.55-3.706a5.01 5.01 0 0 0-7.023.95z" opacity=".6" style="mix-blend-mode:multiply"/><path fill="url(#paint19_linear_286_12148)" d="M35.26 27.046c-.63 2.095-1.514 4-2.597 5.678q-.084.13-.175.267.001.001-.005.01a21 21 0 0 1-2.567 3.035 25 25 0 0 0 2.244 2.11c.928.73 1.91 1.389 2.936 1.97a26.8 26.8 0 0 0 5.068-7.371q.679-1.384 1.19-2.84c-1.057-.775-2.125-1.396-3.11-1.817a23 23 0 0 0-2.989-1.042h.006z" opacity=".3" style="mix-blend-mode:multiply"/><path fill="url(#paint20_linear_286_12148)" d="M14.734 47.788c5.688.775 11.161-1.032 14.89-3.245q-.688-.48-1.357-.986a25.6 25.6 0 0 1-3.88-3.67c-2.804 1.226-6.336 1.945-9.607 1.277-3.162-.646-5.95-2.71-7.383-5.893a9.5 9.5 0 0 1-.616-1.946c.827 5.801 3.753 10.863 7.948 14.462z" opacity=".3" style="mix-blend-mode:multiply"/><path fill="url(#paint21_linear_286_12148)" d="M29.915 36.035a22.3 22.3 0 0 1-3.614-5.087c-.046-.098-.098-.185-.144-.283v-.01a21.5 21.5 0 0 1-1.345-3.743 24 24 0 0 0-2.942.89 24 24 0 0 0-3.173 1.55c.914 3.167 2.264 5.842 3.84 8.08a27 27 0 0 0 1.86 2.45c1.2-.525 2.274-1.146 3.13-1.788a23 23 0 0 0 2.393-2.064z" opacity=".3" style="mix-blend-mode:multiply"/><path fill="url(#paint22_linear_286_12148)" d="M22.22 7.89c-3.517 4.54-4.688 10.181-4.636 14.514a40 40 0 0 1 1.535-.682 25.3 25.3 0 0 1 5.113-1.525c.34-3.04 1.484-6.459 3.697-8.954 2.14-2.418 5.324-3.8 8.795-3.445.657.067 1.36.231 1.992.442q.046.016.087.025A23.26 23.26 0 0 0 28.4 6.597a23.4 23.4 0 0 0-6.171 1.273c-.005.005-.01.015-.015.02z" opacity=".3" style="mix-blend-mode:multiply"/><path fill="url(#paint23_linear_286_12148)" d="M53.034 34.316c-2.176-5.314-6.479-9.155-10.258-11.275-.046.54-.102 1.094-.18 1.674a25.4 25.4 0 0 1-1.237 5.19c2.465 1.818 4.857 4.513 5.915 7.681 1.021 3.06.631 6.51-1.412 9.339a9.5 9.5 0 0 1-1.376 1.504l-.02.02c4.405-3.46 7.52-8.45 8.59-14.097 0-.01-.01-.021-.01-.031z" opacity=".3" style="mix-blend-mode:multiply"/><path fill="url(#paint24_linear_286_12148)" d="M24.216 23.81q.19 1.572.59 3.102a22.3 22.3 0 0 1 6.218-.59l.318.015h.01c1.253.103 2.557.334 3.908.704.287-.96.53-1.957.703-2.994.19-1.293.246-2.49.241-3.532-3.198-.79-6.186-.95-8.912-.703a26 26 0 0 0-3.055.385c-.144 1.304-.15 2.54-.016 3.61z" opacity=".3" style="mix-blend-mode:multiply"/></g><defs><linearGradient id="paint0_linear_286_12148" x1="9.527" x2="47.776" y1="50.473" y2="12.219" gradientUnits="userSpaceOnUse"><stop stop-color="#E6007A"/><stop offset=".21" stop-color="#703AC2"/><stop offset=".46" stop-color="#0070EB"/><stop offset=".77" stop-color="#0297FB"/><stop offset="1" stop-color="#0AE2FF"/></linearGradient><linearGradient id="paint3_linear_286_12148" x1="11.729" x2="18.127" y1="43.963" y2="43.875" gradientUnits="userSpaceOnUse"><stop stop-color="#fff" stop-opacity="0"/><stop offset="1" stop-color="#fff"/></linearGradient><linearGradient id="paint6_linear_286_12148" x1="51.227" x2="47.952" y1="38.832" y2="33.336" gradientUnits="userSpaceOnUse"><stop stop-color="#fff" stop-opacity="0"/><stop offset="1" stop-color="#fff"/></linearGradient><linearGradient id="paint9_linear_286_12148" x1="27.032" x2="23.913" y1="7.193" y2="12.78" gradientUnits="userSpaceOnUse"><stop stop-color="#fff" stop-opacity="0"/><stop offset="1" stop-color="#fff"/></linearGradient><linearGradient id="paint10_linear_286_12148" x1="28.426" x2="18.65" y1="4.353" y2="7.197" gradientUnits="userSpaceOnUse"><stop stop-color="#231F20"/><stop offset="1" stop-color="#fff"/></linearGradient><linearGradient id="paint11_linear_286_12148" x1="9.958" x2="18.132" y1="41.627" y2="50.159" gradientUnits="userSpaceOnUse"><stop stop-color="#231F20"/><stop offset="1" stop-color="#fff"/></linearGradient><linearGradient id="paint12_linear_286_12148" x1="53.825" x2="56.669" y1="40.343" y2="31.697" gradientUnits="userSpaceOnUse"><stop stop-color="#231F20"/><stop offset="1" stop-color="#fff"/></linearGradient><linearGradient id="paint13_linear_286_12148" x1="32.877" x2="45.98" y1="9.302" y2="12.301" gradientUnits="userSpaceOnUse"><stop stop-color="#231F20"/><stop offset="1" stop-color="#fff"/></linearGradient><linearGradient id="paint14_linear_286_12148" x1="46.486" x2="37.331" y1="42.84" y2="52.69" gradientUnits="userSpaceOnUse"><stop stop-color="#231F20"/><stop offset="1" stop-color="#fff"/></linearGradient><linearGradient id="paint15_linear_286_12148" x1="10.633" x2="6.683" y1="37.861" y2="25.012" gradientUnits="userSpaceOnUse"><stop stop-color="#231F20"/><stop offset="1" stop-color="#fff"/></linearGradient><linearGradient id="paint16_linear_286_12148" x1="35.741" x2="31.598" y1="14.133" y2="18.282" gradientUnits="userSpaceOnUse"><stop stop-color="#231F20"/><stop offset="1" stop-color="#fff"/></linearGradient><linearGradient id="paint17_linear_286_12148" x1="13.389" x2="19.051" y1="32.951" y2="34.472" gradientUnits="userSpaceOnUse"><stop stop-color="#231F20"/><stop offset="1" stop-color="#fff"/></linearGradient><linearGradient id="paint18_linear_286_12148" x1="40.861" x2="39.344" y1="42.903" y2="37.243" gradientUnits="userSpaceOnUse"><stop stop-color="#231F20"/><stop offset="1" stop-color="#fff"/></linearGradient><linearGradient id="paint19_linear_286_12148" x1="32.242" x2="34.732" y1="37.868" y2="34.434" gradientUnits="userSpaceOnUse"><stop stop-color="#231F20"/><stop offset="1" stop-color="#fff"/></linearGradient><linearGradient id="paint20_linear_286_12148" x1="23.678" x2="18.703" y1="36.38" y2="38.752" gradientUnits="userSpaceOnUse"><stop stop-color="#231F20"/><stop offset="1" stop-color="#fff"/></linearGradient><linearGradient id="paint21_linear_286_12148" x1="21.87" x2="23.41" y1="28.098" y2="31.297" gradientUnits="userSpaceOnUse"><stop stop-color="#231F20"/><stop offset="1" stop-color="#fff"/></linearGradient><linearGradient id="paint22_linear_286_12148" x1="29.033" x2="27.97" y1="18.22" y2="14.549" gradientUnits="userSpaceOnUse"><stop stop-color="#231F20"/><stop offset="1" stop-color="#fff"/></linearGradient><linearGradient id="paint23_linear_286_12148" x1="40.523" x2="43.603" y1="35.034" y2="35.743" gradientUnits="userSpaceOnUse"><stop stop-color="#231F20"/><stop offset="1" stop-color="#fff"/></linearGradient><linearGradient id="paint24_linear_286_12148" x1="35.691" x2="31.784" y1="24.628" y2="23.919" gradientUnits="userSpaceOnUse"><stop stop-color="#231F20"/><stop offset="1" stop-color="#fff"/></linearGradient><radialGradient id="paint1_radial_286_12148" cx="0" cy="0" r="1" gradientTransform="translate(38.55 23.924)scale(11.408)" gradientUnits="userSpaceOnUse"><stop stop-color="#fff"/><stop offset="1" stop-color="#fff" stop-opacity="0"/></radialGradient><radialGradient id="paint2_radial_286_12148" cx="0" cy="0" r="1" gradientTransform="matrix(6.63838 0 0 6.63839 21.69 45.087)" gradientUnits="userSpaceOnUse"><stop stop-color="#fff"/><stop offset="1" stop-color="#fff" stop-opacity="0"/></radialGradient><radialGradient id="paint4_radial_286_12148" cx="0" cy="0" r="1" gradientTransform="rotate(-120 17.63 6.906)scale(11.408)" gradientUnits="userSpaceOnUse"><stop stop-color="#fff"/><stop offset="1" stop-color="#fff" stop-opacity="0"/></radialGradient><radialGradient id="paint5_radial_286_12148" cx="0" cy="0" r="1" gradientTransform="rotate(-120 32.17 1.192)scale(6.63838)" gradientUnits="userSpaceOnUse"><stop stop-color="#fff"/><stop offset="1" stop-color="#fff" stop-opacity="0"/></radialGradient><radialGradient id="paint7_radial_286_12148" cx="0" cy="0" r="1" gradientTransform="rotate(120 3.699 28.743)scale(11.408)" gradientUnits="userSpaceOnUse"><stop stop-color="#fff"/><stop offset="1" stop-color="#fff" stop-opacity="0"/></radialGradient><radialGradient id="paint8_radial_286_12148" cx="0" cy="0" r="1" gradientTransform="rotate(120 6.136 13.716)scale(6.63838)" gradientUnits="userSpaceOnUse"><stop stop-color="#fff"/><stop offset="1" stop-color="#fff" stop-opacity="0"/></radialGradient><clipPath id="clip0_286_12148"><path fill="#fff" d="M0 0h188v60H0z"/></clipPath></defs></svg>