<svg xmlns="http://www.w3.org/2000/svg" fill="none" viewBox="0 0 35 40" width="256" height="256" preserveAspectRatio="xMidYMid meet"><g id="Layer_1" clip-path="url(#clip0_499_1782)"><g id="Group"><path id="Vector" fill="url(#paint0_linear_499_1782)" d="M.31 10.1v19.476l16.865 9.737 16.868-9.737V10.1L17.175.36z"/><path id="Vector_2" fill="#002D74" d="m25.272 14.736-16.299 9.87v9.972l8.2 4.734v-9.828l16.868-9.648v-9.737l-8.77-5.062z"/><path id="Vector_3" fill="#002D74" d="m9.08 24.94 16.297-9.871V5.097L17.175.361v9.827L.31 19.837v9.74l8.77 5.061z"/><path id="Vector_4" fill="url(#paint1_linear_499_1782)" d="M25.511 5.173 17.178.36v9.827l8.333 4.843"/><path id="Vector_5" fill="url(#paint2_linear_499_1782)" d="M17.174 29.485 8.844 24.7l-.02 9.79 8.35 4.82"/><path id="Vector_6" fill="#fff" d="m25.505 24.702-8.327 4.834-8.334-4.834v-9.67l8.334-4.844 8.327 4.844-3.471 2.013-4.856-2.821-4.862 2.82v5.645l4.862 2.82 4.855-2.82z"/></g><path id="Vector_7" stroke="url(#paint3_linear_499_1782)" stroke-miterlimit="10" stroke-width=".669" d="M.314 10.1v19.476l16.865 9.737 16.868-9.737V10.1L17.18.36z"/></g><defs><linearGradient id="paint0_linear_499_1782" x1=".31" x2="34.043" y1="19.837" y2="19.837" gradientUnits="userSpaceOnUse"><stop stop-color="#14DCFF"/><stop offset=".02" stop-color="#11C9F0"/><stop offset=".07" stop-color="#0DA0CF"/><stop offset=".13" stop-color="#097CB3"/><stop offset=".19" stop-color="#055F9C"/><stop offset=".25" stop-color="#03498A"/><stop offset=".32" stop-color="#01397D"/><stop offset=".4" stop-color="#002F76"/><stop offset=".5" stop-color="#002D74"/><stop offset=".56" stop-color="#003479"/><stop offset=".64" stop-color="#034889"/><stop offset=".74" stop-color="#0668A3"/><stop offset=".85" stop-color="#0C96C7"/><stop offset=".97" stop-color="#12D0F5"/><stop offset=".99" stop-color="#14DCFF"/></linearGradient><linearGradient id="paint1_linear_499_1782" x1="19.867" x2="24.35" y1="12.84" y2="-2.757" gradientUnits="userSpaceOnUse"><stop stop-color="#E344FF"/><stop offset=".04" stop-color="#CD41F1"/><stop offset=".13" stop-color="#9D3CD4"/><stop offset=".23" stop-color="#7338BA"/><stop offset=".33" stop-color="#4F35A4"/><stop offset=".44" stop-color="#323293"/><stop offset=".55" stop-color="#1C2F85"/><stop offset=".67" stop-color="#0C2E7B"/><stop offset=".81" stop-color="#022D75"/><stop offset="1" stop-color="#002D74"/></linearGradient><linearGradient id="paint2_linear_499_1782" x1="10.327" x2="15.656" y1="36.391" y2="27.681" gradientUnits="userSpaceOnUse"><stop stop-color="#002D74"/><stop offset=".2" stop-color="#002F73"/><stop offset=".34" stop-color="#033973"/><stop offset=".46" stop-color="#084973"/><stop offset=".58" stop-color="#0E5F73"/><stop offset=".69" stop-color="#177C72"/><stop offset=".8" stop-color="#22A071"/><stop offset=".9" stop-color="#2ECA70"/><stop offset=".99" stop-color="#3CFA70"/><stop offset="1" stop-color="#3EFF70"/></linearGradient><linearGradient id="paint3_linear_499_1782" x1="17.179" x2="17.179" y1="39.676" y2=".001" gradientUnits="userSpaceOnUse"><stop stop-color="#14DCFF"/><stop offset=".5" stop-color="#3EFF70"/><stop offset="1" stop-color="#14DCFF"/></linearGradient><clipPath id="clip0_499_1782"><path fill="#fff" d="M0 0h34.359v39.675H0z"/></clipPath></defs></svg>