<svg xmlns="http://www.w3.org/2000/svg" fill="none" viewBox="0 0 40 42" width="256" height="256" preserveAspectRatio="xMidYMid meet"><path fill="#0CC2FF" fill-rule="evenodd" d="m40 9.14-7.038-4.183-5.944 3.498V4.169L19.99 0l-7.005 4.17V8.5L6.972 4.957 0 9.145v8.334l5.912 3.532L0 24.543v8.267l6.972 4.256 5.941-3.517v4.334L19.954 42l7.07-4.117-.014-4.334 5.956 3.517L40 32.81v-8.267l-5.937-3.532L40 17.48zm-7.038-2.875 5.388 3.202-11.875 7.034-3.06-1.826 3.603-2.137V9.76zm-18.876-.791 5.359 3.19v6.408l-.71-.423-1.1-.653-3.549-2.11zm11.832 6.411-4.7 2.786-.673.401V8.665l5.372-3.191zm-5.924-4.203-5.358-3.187 5.358-3.19 5.37 3.19zM6.98 6.265l6.007 3.54v2.733l3.555 2.114-3.078 1.845-11.817-7.03zM1.1 16.827v-6.378l11.267 6.704-5.359 3.202zm5.326 18.59L1.1 32.165v-6.31l5.326 3.198zM1.643 24.868l11.824-7.063 5.384 3.145-11.875 7.12zm17.761 15.508-5.39-3.15v-4.33l5.39-3.191zm0-11.976-11.878 7.03v-6.377l11.878-7.124zm-4.837-11.255 3.07-1.841 2.354 1.402 2.328-1.38 3.049 1.819-5.413 3.15zm5.938 23.234V29.706l5.405 3.19.011 4.331zm11.907-4.945-11.907-7.038V21.93l11.907 7.124zm6.488-3.27-5.388 3.259v-6.37l5.388-3.206zm-.547-7.296-5.39 3.202-11.905-7.12 5.413-3.145zm.547-8.042-5.938 3.532-5.387-3.206L38.9 10.446z" clip-rule="evenodd"/></svg>