<svg xmlns="http://www.w3.org/2000/svg" version="1.0" viewBox="0 0 300 300" width="256" height="256" preserveAspectRatio="xMidYMid meet"><g fill="#2e7632"><path d="M138.65 22.05C48.9 30.05-5.2 126.75 35.1 207.2c47.35 94.5 182.3 94.5 229.8 0 44.75-89-26.85-193.95-126.25-185.15M167 34.45c88.5 13.35 129.8 116.5 75 187.4-57.15 73.95-175.2 52.65-203.4-36.7C12.75 103.2 82.2 21.65 167 34.45"/><path d="M117.5 46.9c-13.35 3.4-20.05 12.5-21.6 29.5-1.25 13.05-1 12.45-9 23.1-10.8 14.4-12.65 23-7.4 34.35 3.05 6.55 14.5 18.65 19.1 20.2 7.1 2.3 4.8 7.95-4.25 10.35-2.8.75-7.75 3.4-11.4 6.05-3.55 2.65-9.25 6.1-12.65 7.7-16.2 7.7-16.1 15.85.15 17.85 3.5.45 6.9 1.1 7.5 1.45 1.1.7 48.5 2.05 68.8 2 6.2-.05 11.25.05 11.25.15 0 .2-4.7 4.7-21.9 21l-6.45 6.15 9.95 9.45c5.45 5.2 12.05 11.4 14.7 13.8l4.85 4.35 2.4-2.9c1.3-1.65 2.4-3.7 2.4-4.6.05-1.8-8.7-9.65-13.5-12.15-7.6-3.9-6.65-5 3.4-4.2l9.3.7-.35-4.35-.3-4.35-9 .3c-10.35.35-10.75 1.5 3.45-9.7l8.1-6.45-3-3.1c-4.35-4.5-4.3-4.55 9.7-4.65 7 0 16.6-.4 21.25-.75 4.7-.4 10.9-.4 13.85 0 2.9.4 7.65.3 10.5-.25 2.85-.5 8.1-1.35 11.65-1.9 16.35-2.6 16.15-9.9-.45-18.2-3.3-1.65-8.95-5.1-12.5-7.6-3.55-2.55-8.75-5.2-11.5-5.9-9.3-2.4-10.9-7.7-3.1-10.3 4.2-1.35 15.95-14.45 18.9-21 4.85-10.85 2.6-19.4-9.4-35.5-6.15-8.25-6.45-9.15-7.45-21-2.45-28.7-25.75-38.8-48.8-21.1l-4.8 3.7-4.85-3.55c-9.55-7-20.5-10.45-27.55-8.65m74.25 11.3c6.35 6 5.2 8.2-1.75 3.4-6.7-4.6-11.3-4.75-21.85-.55-6.9 2.75-9.8 4.8-16.3 11.6l-2.1 2.2-4.6-4.55c-11.2-10.95-26.8-14.95-35.5-9.2-5.1 3.4-6.5 3.35-4.65-.1 3.1-5.8 23-11.8 23-6.9 0 .6-.65.85-1.5.55-3-1.15-1.35.9 2.05 2.6 4.7 2.35 6.55 2.2 3.45-.25-2.05-1.6-2.15-1.95-.75-2 .95 0 1.75.5 1.75 1.15s.3.9.6.55c.9-.85 9.5 3.65 11.8 6.2 1.4 1.55 2.25 1.8 3.2 1 .75-.6 1.75-.8 2.25-.5s2-.2 3.3-1.15c6.45-4.75 13.9-8.1 19.85-9.05 6.3-1 13.5 1.05 17.75 5m-63.15 4.3c2.4 1.4 4.7 3.1 5.1 3.8.45.7 2.05 2.05 3.6 3 1.5 1 2.55 2.15 2.25 2.6-.3.5.85 1.15 2.45 1.45 1.65.35 3 1.1 3 1.75 0 .6-.6.9-1.35.6-.8-.3-1.95.45-2.65 1.75-3.5 6.6-28.35 11.2-34.45 6.4C101.5 79.9 99.6 68 104 68c2.15 0 5.25-1.5 8.35-4 5.5-4.45 10.45-4.9 16.25-1.5m54.05-.75c1.75.95 4.35 2.6 5.8 3.65 1.4 1 4.05 2.15 5.8 2.5 5.15 1.05 4.35 9.65-1.4 15.4-5.25 5.25-26.5 2.05-34.2-5.15-1.25-1.2-2.85-2.15-3.6-2.15-1.05 0-1.05-.3-.05-1.5.7-.85 1.6-1.5 2-1.5s2.5-1.65 4.6-3.6c9.45-8.85 15.15-10.9 21.05-7.65M152 77.55c0 .8.65 1.75 1.45 2.05.8.35 1.95 2.1 2.6 4 1.6 4.85 9.7 11.2 16.2 12.8 4.35 1 3.25-1.25-1.6-3.35-2.35-1-6.3-3.8-8.75-6.2-2.4-2.4-3.95-4-3.45-3.6s1.95.75 3.15.75c1.25 0 4.2.85 6.6 1.9 2.45 1 7.65 2.2 11.65 2.6 4.1.4 7.1 1.15 6.9 1.7-.4 1.25-7.8 3.9-8.95 3.2-.45-.3-.8 0-.8.7 0 4.25 17.95-3.2 19.5-8.1.6-1.9 2.45-2.8 2.55-1.25.4 4.2 1.2 6.8 3.9 12.3 1.7 3.55 3.85 7 4.75 7.7.95.7 1.35 1.25.95 1.25s-.25.55.35 1.25c4.3 5.15 5.3 6.5 6.1 8.55 1 2.6 1.25 9.85.3 8.9-.35-.35-1.7 1.5-3 4.15-1.3 2.6-4.05 6.5-6.1 8.7-2.05 2.15-3.75 4.35-3.75 4.9-.15 3.1-10.45 6.05-20.55 5.8-2.45-.05-6.3-.05-8.5 0-55.1 1.2-74.4-.1-76.25-5.05-.3-.95-2.55-3.85-4.9-6.5s-5.05-6.6-6-8.75-2.1-3.95-2.55-3.95c-1.8 0 .2-9.85 2.5-12.2 2.95-3.1 7.7-9.7 7.7-10.7 0-.6.45-1.1 1-1.1.5 0 1.25-1.2 1.65-2.7.35-1.45 1.25-3.8 2-5.25.75-1.4 1.35-3.8 1.35-5.3 0-3.4 1.25-3.55 3-.3 1.95 3.65 8.2 7.4 13.4 8 5.9.7 5.95-.65.1-2.25-6.4-1.7-5.6-2.9 2.65-3.7 3.95-.4 8.55-1.3 10.25-2 1.7-.65 4.9-1.5 7.1-1.85l3.95-.6L136 88c-2.5 2.2-5.6 4.25-7 4.6-5.35 1.4-6.95 4.65-1.75 3.45C132.9 94.8 143 87.5 143 84.7c0-.6 1.2-2.8 2.65-4.9 2.65-3.8 6.35-5.15 6.35-2.25m42 79.1c0 3.4-36.3 6.1-60 4.4-16.85-1.2-16.2-1.2-15.6-.2 1.75 2.85 54.25 4.3 58.6 1.65.85-.5 4.2-1 7.5-1.1s6.9-.35 8-.55c1.5-.25 2.1.25 2.35 2.05.3 2.25.1 2.3-4 1.7-2.4-.35-7.05-.15-10.35.4-8.25 1.4-52.75 1.4-60.4 0-3.35-.6-8.25-.95-10.85-.8-4.2.25-4.75.05-4.75-1.7 0-2.1.3-2.1 7.5-.85 4.8.85 2.9-.9-2.3-2.15-2.55-.6-4.3-1.65-4.5-2.65-.3-1.5 3.5-1.65 44.25-1.65 37.75 0 44.55.25 44.55 1.45m-61.5 12.65c3.85 0 11.95-.05 18-.05 16.6.05 20.85 0 35.1-.4 8.6-.25 13.55.05 14.5.75.75.6 2.55 1.4 3.9 1.7 1.4.35 3.45 1.45 4.5 2.4 9.5 8.6 18.5 14.35 18.5 11.85 0-2 1.45-1.95 4.55.05 7.3 4.8 3.4 6-23.05 6.9-9.35.3-25.1 1-35 1.5-16.6.95-44.45.7-62.5-.5-4.1-.3-15.8-.75-26-1.1-18.55-.55-20.75-.95-19.7-3.8.8-2.05 7-5.2 7.45-3.8.65 1.85 9.7-3.35 14.65-8.4 6.05-6.1 14.8-8.55 27.6-7.7 5.8.35 13.65.65 17.5.6"/><path d="M167.75 56.55c-1.5.85-2.75 1.95-2.75 2.5 0 .9 3.35-.5 7-3 2.45-1.7-.95-1.25-4.25.5M112 67c-1.2.75-.8 1.1 1.75 1.6 1.75.35 2.95 1.05 2.65 1.5-.25.5.35.9 1.45.9 1.05 0 2.7 1.15 3.6 2.55 1.65 2.5 1.65 2.55-.3 1.5-2.75-1.45-5.4-1.35-4.85.2.2.7 1.35 1.15 2.45 1.05 3.35-.4 4.75 2.25 2.2 4.05-1.2.8-2.8 1.25-3.55.95-.8-.25-1.4 0-1.4.6 0 1.65 4.55 1.35 6-.4.7-.85 1.9-1.5 2.65-1.5 3.15 0 8.7-3.05 7.6-4.15-.8-.8-1.7-.65-3.4.55-3.15 2.2-3.6 2.05-4.35-1.35-.35-1.6-1.25-3.45-2.05-4.1-1.95-1.6-1.8-2.95.3-3 1.5-.1 1.45-.2-.25-.95-2.75-1.15-8.65-1.2-10.5 0M104.45 71.05c-.4.65-.3 1.45.15 1.8.5.35 1.6 1.95 2.4 3.55.85 1.65 2.1 3.15 2.85 3.4 1.05.35 1-.2-.2-2.5-.8-1.6-1.4-3.75-1.3-4.8.15-2.15-2.75-3.25-3.9-1.45M176.5 67c-1.7.75-1.75.85-.25.95 2.25.05 2.2.65-.25 3.8-1.1 1.4-2 3.6-2 4.9 0 2.35-.05 2.35-3.05.8-1.7-.85-3.6-1.35-4.25-1.1-1.3.45 5.35 3.65 7.65 3.65.75 0 1.95.65 2.65 1.5 1.5 1.8 4.6 1.95 5.6.35.45-.75.25-.9-.5-.4-2.05 1.25-6.45-2.3-5.05-4.05.7-.8 2-1.2 2.95-.9s2.3-.15 3-1c1.55-1.85-1.9-2.15-5.1-.45-1.85 1-1.9.9-.7-1 .7-1.15 2.1-2.3 3.05-2.65.95-.3 1.75-.9 1.75-1.35s1.45-1.1 3.25-1.45c2.55-.5 2.95-.85 1.75-1.6-1.85-1.2-7.75-1.15-10.5 0M190.5 71c-.35.55-.35 1.45 0 1.95.3.55-.1 2.35-1 4-1.35 2.7-1.35 3.05-.05 3.05 2.15 0 5.95-8.1 4.3-9.15-1.7-1.1-2.5-1.05-3.25.15M151.25 95.25c.6 1.75 5.5 4.35 6.45 3.4.9-.9-3.5-4.6-5.55-4.65-.7 0-1.15.55-.9 1.25M142.45 96.7c-1.15 1.15-1.35 1.85-.55 2.1 1.3.45 4.1-1.55 4.1-2.9 0-1.45-1.7-1.05-3.55.8M164.5 97c.85 1.4 8.5 5.2 8.5 4.25 0-.9-3.15-3-6.6-4.3-1.7-.65-2.3-.6-1.9.05M128.5 99c-2.5 1.65-2.65 2-1 1.95 2.4 0 7.8-3.9 5.5-3.9-.8-.05-2.85.85-4.5 1.95M105.5 110.9c-16.4 2.05-19.5 16.05-4.7 21.3 5.2 1.8 90.75 1.85 96.85 0 12.5-3.7 13.15-17 1.05-20.3-4.55-1.25-25.8-1.7-42.7-.95-5.75.3-18.15.2-27.5-.15s-19.7-.3-23 .1m96.25 3.9c6.5 3.7 5.9 9.6-1.35 13.1-5.7 2.8-84.55 3.6-98.1 1-11.8-2.3-13.15-12.35-2-14.7 6.95-1.45 98.75-.95 101.45.6"/><path d="M105.25 117.8c-6.95.3-9.7 1.7-5 2.6 4.05.8 44.05 2.4 53.25 2.15 35.5-1.05 49.2-2.15 47.45-3.9-.75-.8-17.4-.9-42.45-.4-12.65.3-28.15.2-34.5-.1-6.3-.35-14.75-.5-18.75-.35M88 121.55c0 4.5 8.3 16.45 11.4 16.45.55 0-.85-1.9-3.15-4.25-2.4-2.45-4.9-6.3-5.85-9-1.65-4.9-2.4-5.9-2.4-3.2M209.1 124.15c-.85 3.15-2.7 6-5.7 8.95-2.4 2.35-4.4 4.75-4.4 5.3 0 1.8 8.1-6.8 10.15-10.75 1.1-2.1 1.8-4.8 1.6-6-.3-1.55-.75-.9-1.65 2.5M136.65 185.35c-2.1.6-3.55 1.4-3.25 1.7.65.65 30.6.3 31.25-.4 2.45-2.4-20.85-3.5-28-1.3M117.6 209.5 109 219l.1-7.75c.05-6.5.25-7.25 1-4.55 1.3 4.55 2.6 4.85 3.1.75.5-4.45-.85-5.6-7.25-6.25l-4.95-.45V253h4.25c6.2-.05 8.9-2.45 8.1-7.25-.7-4.25-1.9-4.05-3.25.55-.75 2.65-.95 1.85-1-4.75l-.1-7.95 5.25 5.95c2.9 3.25 7.15 7.95 9.45 10.45l4.2 4.5 4.3-4.3 4.3-4.3-10.4-10.15-10.4-10.15 9.8-9.15 9.85-9.1-3.95-3.65c-5.05-4.7-3.95-5.15-13.8 5.8m-.65 13.4c-2.7 3.6-2 5.2 6.4 14.1 3.4 3.6 2.15 2.6-2.85-2.3l-9-8.85 3.45-2.9c4.35-3.7 4.65-3.7 2-.05M193.5 201.15c-2.8 1.55-9.45 7.95-10.7 10.35-1.1 2-1.1 2 1.25 0 1.4-1.2.95-.3-1.1 2.25-4.8 5.9-5.3 5.45-4.5-4.25l.75-8.5h-4.4c-6.9 0-6.8-.35-6.8 26s-.1 26 6.8 26h4.45l-.65-9.75-.65-9.75 3 3.45c1.7 1.9 3.05 4 3.05 4.65 0 1.25 11.6 12.4 12.85 12.4.45 0 2.1-1.4 3.7-3.1l2.95-3.1-11.25-10.8-11.2-10.85 10.65-10.1 10.65-10.1-2.85-2.95c-3.2-3.35-3.25-3.35-6-1.85"/></g></svg>