<svg xmlns="http://www.w3.org/2000/svg" fill="none" viewBox="0 0 42 42" width="256" height="256" preserveAspectRatio="xMidYMid meet"><path fill="url(#paint0_linear_1118_3128)" d="M42.067 38.584H38.15a3.9 3.9 0 0 0-2.765 1.152 3.9 3.9 0 0 0-1.153 2.765c0 1.075.442 2.053 1.153 2.765a3.9 3.9 0 0 0 2.765 1.152 3.9 3.9 0 0 0 2.764-1.152 3.9 3.9 0 0 0 1.153-2.765zm-3.917-4.11h8.028V42.5c0 2.21-.903 4.218-2.357 5.671a8.003 8.003 0 0 1-11.343 0 8.003 8.003 0 0 1 0-11.342 8 8 0 0 1 5.672-2.357" transform="translate(-29.16 -15.528)"/><path fill="url(#paint1_linear_1118_3128)" d="M58.256 34.473h3.917a3.9 3.9 0 0 0 2.765-1.152 3.9 3.9 0 0 0 1.152-2.765 3.9 3.9 0 0 0-1.152-2.765 3.9 3.9 0 0 0-2.765-1.152 3.9 3.9 0 0 0-2.765 1.152 3.9 3.9 0 0 0-1.152 2.765zm3.917 4.11h-8.029v-8.027c0-2.21.903-4.218 2.358-5.672a8.003 8.003 0 0 1 11.342 0 8.005 8.005 0 0 1 0 11.343 8 8 0 0 1-5.671 2.357" transform="translate(-29.16 -15.528)"/><path fill="#0049E7" d="M29.095 18.944h3.917a3.9 3.9 0 0 0 2.765-1.152 4 4 0 0 0 .894-1.373h4.248a8.03 8.03 0 0 1-2.235 4.28 8 8 0 0 1-5.672 2.356H27.21v-6.636h1.886z"/><path fill="url(#paint2_linear_1118_3128)" d="M43.18 38.584h13.19v-4.11H43.18z" transform="translate(-29.16 -15.528)"/><path fill="#0049E7" d="M27.21 23.055H17.016v-4.11h10.192z"/><path fill="url(#paint3_linear_1118_3128)" d="M50.162 46.485a3.97 3.97 0 0 0 2.811-1.172 3.97 3.97 0 0 0 1.172-2.812V30.556a3.97 3.97 0 0 0-1.172-2.813 3.97 3.97 0 0 0-2.812-1.171 3.97 3.97 0 0 0-2.812 1.171 3.97 3.97 0 0 0-1.171 2.813V42.5a3.97 3.97 0 0 0 1.171 2.812 3.97 3.97 0 0 0 2.813 1.171m8.094-15.93v11.946c0 2.228-.91 4.252-2.377 5.718a8.07 8.07 0 0 1-5.718 2.377 8.07 8.07 0 0 1-5.718-2.377 8.07 8.07 0 0 1-2.377-5.718V30.556c0-2.229.91-4.253 2.377-5.719a8.07 8.07 0 0 1 5.718-2.376c2.227 0 4.252.91 5.718 2.376a8.07 8.07 0 0 1 2.377 5.719" transform="translate(-29.16 -15.528)"/><path fill="#0049E7" d="M19.725 11.255c-.584.2-1.11.532-1.538.96a3.97 3.97 0 0 0-1.171 2.813v3.917h-4.111v-3.917c0-2.229.91-4.253 2.376-5.719a8.1 8.1 0 0 1 4.444-2.276z"/><path fill="#0049E7" d="M13.147 13.066h4.39c.179-.312.398-.598.651-.85A3.97 3.97 0 0 1 21 11.043c1.093 0 2.089.448 2.812 1.171a3.97 3.97 0 0 1 1.172 2.812c0-2.058.783-3.942 2.067-5.366A8.071 8.071 0 0 0 21 6.932a8.07 8.07 0 0 0-5.72 2.377 8.1 8.1 0 0 0-2.134 3.757M19.725 30.648a4 4 0 0 1-1.538-.96 3.97 3.97 0 0 1-1.172-2.813v-3.917h-4.11v3.917c0 2.229.91 4.253 2.376 5.72a8.1 8.1 0 0 0 4.444 2.274z"/><path fill="#0049E7" d="M1.09 28.886h4.391q.269.468.65.85a3.97 3.97 0 0 0 2.812 1.172c1.093 0 2.09-.449 2.813-1.172a3.97 3.97 0 0 0 1.171-2.812c0 2.06.784 3.942 2.067 5.366q-.16.18-.332.352a8.07 8.07 0 0 1-11.437 0 8.1 8.1 0 0 1-2.135-3.756"/><defs><linearGradient id="paint0_linear_1118_3128" x1="24.599" x2="74.795" y1="50.257" y2="21.525" gradientUnits="userSpaceOnUse"><stop stop-color="#54CDEE"/><stop offset=".49" stop-color="#0463EF"/><stop offset="1" stop-color="#51F5EA"/></linearGradient><linearGradient id="paint1_linear_1118_3128" x1="25.377" x2="75.573" y1="51.617" y2="22.886" gradientUnits="userSpaceOnUse"><stop stop-color="#F98AFE"/><stop offset=".49" stop-color="#0463EF"/><stop offset="1" stop-color="#51F5EA"/></linearGradient><linearGradient id="paint2_linear_1118_3128" x1="24.892" x2="75.088" y1="50.77" y2="22.04" gradientUnits="userSpaceOnUse"><stop stop-color="#F98AFE"/><stop offset=".49" stop-color="#0463EF"/><stop offset="1" stop-color="#51F5EA"/></linearGradient><linearGradient id="paint3_linear_1118_3128" x1="24.988" x2="75.184" y1="50.937" y2="22.205" gradientUnits="userSpaceOnUse"><stop stop-color="#5CDDFF"/><stop offset=".49" stop-color="#0463EF"/><stop offset="1" stop-color="#51F5EA"/></linearGradient></defs></svg>