<svg xmlns="http://www.w3.org/2000/svg" fill="none" viewBox="0 0 28 28" width="256" height="256" preserveAspectRatio="xMidYMid meet"><g fill="#E13022"><path d="M27.586 15.972v3.75c-.193.165-.433.155-.666.155q-9.013.006-18.026-.001c-.806-.001-.955-.15-.957-.944q-.009-4.878 0-9.757c.001-.812.15-.953.998-.954 4.57-.005 9.138-.002 13.707-.003.962 0 .963 0 .963-.926 0-.609-.006-1.218 0-1.827.004-.343-.143-.504-.506-.49-.184.008-.368 0-.552 0H1.458c-1.043 0-1.055-.002-1.04-.985.016-.974-.066-1.95.046-2.922 8.907 0 17.813.002 26.72-.01.344 0 .413.065.412.394-.016 3.558-.01 7.116-.01 10.674-.259.206-.571.152-.867.153q-6.748.003-13.496.002c-1.044 0-1.045.001-1.044 1 0 .656-.01 1.312.003 1.968.01.487.075.544.59.563.317.012.635.004.952.004q6.498-.002 12.995.003c.296 0 .608-.054.867.153"/><path d="M27.586 26.933c-8.857 0-17.713-.002-26.569.009-.41 0-.559-.053-.557-.505.02-5.865.017-11.73.004-17.595-.001-.376.095-.48.488-.467q1.431.042 2.862.001c.436-.011.57.116.568.544-.016 4.68-.007 9.359-.017 14.038 0 .312.042.436.42.435 7.55-.012 15.1-.009 22.65-.01q.075-.001.15-.007z"/></g></svg>