<svg xmlns="http://www.w3.org/2000/svg" fill="none" viewBox="0 0 40 40" width="256" height="256" preserveAspectRatio="xMidYMid meet"><g fill="#38FF9C"><path d="M23.655 18.234a1.949 1.949 0 0 1-1.379-3.329l5.043-5.042a1.95 1.95 0 0 1 2.757 2.757l-5.042 5.042c-.38.38-.88.572-1.379.572"/><path d="M20 40.02C8.96 40.02-.02 31.037-.02 20S8.96-.02 20-.02 40.02 8.96 40.02 20 31.04 40.02 20 40.02m0-36.14C11.112 3.88 3.88 11.11 3.88 20S11.11 36.12 20 36.12 36.12 28.89 36.12 20 28.889 3.88 20 3.88"/><path d="M11.301 30.554a1.95 1.95 0 0 1-1.379-3.328l5.043-5.043a1.95 1.95 0 1 1 2.757 2.758l-5.042 5.042c-.38.38-.88.571-1.379.571M19.564 12.978c-3.486.25-6.304 3.054-6.54 6.541a.78.78 0 0 1-.23.5l-2.832 2.837a.296.296 0 0 1-.496-.132c-.23-.877-.372-1.82-.372-2.757 0-6.029 4.905-10.933 10.933-10.933.983 0 1.936.13 2.842.374.183.05.243.28.11.415l-2.927 2.929a.77.77 0 0 1-.488.225zM27.178 19.9l2.929-2.926a.248.248 0 0 1 .414.11c.244.906.374 1.859.374 2.841 0 6.029-4.904 10.933-10.933 10.933-.936 0-1.878-.142-2.757-.372a.296.296 0 0 1-.132-.495l2.836-2.832a.8.8 0 0 1 .501-.23c3.489-.236 6.291-3.055 6.541-6.54a.77.77 0 0 1 .226-.488"/></g></svg>