<svg xmlns="http://www.w3.org/2000/svg" fill="none" viewBox="0 0 120 120" width="256" height="256" preserveAspectRatio="xMidYMid meet"><path fill="url(#paint0_linear_119_28)" d="M119.124 45.871 92.403 62.956c21.078-16.671 21.078-34.634 21.078-34.634l-27.969 27.3c18.825-30.876 11.934-43.591 11.934-43.591L75.168 49.232a56.8 56.8 0 0 0-14.982-2.004h-.356a56.8 56.8 0 0 0-14.982 2.004L22.57 12.031s-7.799 11.672 11.026 42.548L6.583 28.322S3.827 44.281 26.348 61.963C26.235 62.145.876 45.871.876 45.871S.228 61.201 22.57 73.502v.397c0 16.672 16.652 33.889 37.292 34.071h.357c20.608-.182 37.292-17.399 37.292-34.071v-.397c22.262-12.301 21.613-27.631 21.613-27.631m-71.73 44.782s-6.616.431-10.426-3.46-3.34-10.628-3.34-10.628 6.615-.447 10.426 3.46 3.34 10.628 3.34 10.628m35.67-3.46c-3.81 3.891-10.409 3.46-10.409 3.46s-.422-6.738 3.389-10.628c3.81-3.891 10.409-3.46 10.409-3.46s.373 6.738-3.454 10.628z"/><defs><linearGradient id="paint0_linear_119_28" x1="32.215" x2="93.823" y1="75.569" y2="8.337" gradientTransform="matrix(1.15463 0 0 1.15463 -10.767 -1.534)" gradientUnits="userSpaceOnUse"><stop stop-color="#EB1357"/><stop offset="1" stop-color="#DB23C8"/></linearGradient></defs></svg>