<svg xmlns="http://www.w3.org/2000/svg" viewBox="0 0 128 128" width="256" height="256" preserveAspectRatio="xMidYMid meet"><defs><linearGradient id="crab" x1="100%" x2="0%" y1="100%" y2="0%"><stop offset="0%" stop-color="#FF0050"/><stop offset="71.445%" stop-color="#7000FF"/><stop offset="100%" stop-color="#0027FF"/></linearGradient></defs><g fill="none"><circle cx="64" cy="64" r="64" fill="url(#crab)"/><path fill="#FFF" d="M101.068 38.06c2.38 0 4.31 1.981 4.31 4.425s-1.93 4.424-4.31 4.424l.15-.004-5.267 8.11-.058.087c-1.206 1.794-3.195 2.868-5.323 2.868h-6.383a22.4 22.4 0 0 1 1.362 4.423h13.644a2.14 2.14 0 0 0 1.723-.984l5.071-7.808a4.5 4.5 0 0 1-.608-2.268c0-2.443 1.93-4.424 4.31-4.424S114 48.889 114 51.333s-1.93 4.425-4.31 4.425l.079-.003-5.266 8.108-.058.087c-1.205 1.794-3.195 2.868-5.322 2.868H85.98c0 1.515-.148 2.995-.43 4.425h13.573c2.127 0 4.117 1.073 5.322 2.867l.058.088 5.266 8.107.13.003c2.283.112 4.101 2.048 4.101 4.42 0 2.443-1.93 4.424-4.31 4.424s-4.311-1.981-4.311-4.425c0-.828.222-1.604.608-2.267l-5.07-7.808a2.14 2.14 0 0 0-1.725-.984l-.07-.001H84.188a22.3 22.3 0 0 1-2.516 4.424h8.83c2.128 0 4.117 1.074 5.323 2.868l.057.087 5.266 8.107.13.004c2.283.111 4.102 2.047 4.102 4.419 0 2.443-1.93 4.424-4.311 4.424-2.38 0-4.31-1.98-4.31-4.424 0-.83.221-1.605.608-2.268L92.295 85.5a2.14 2.14 0 0 0-1.724-.984H77.36c-3.602 2.777-8.08 4.423-12.933 4.423s-9.33-1.645-12.933-4.423H38.43a2.14 2.14 0 0 0-1.724.984l-5.07 7.808c.386.663.608 1.439.608 2.268 0 2.443-1.93 4.424-4.31 4.424-2.382 0-4.312-1.98-4.312-4.424s1.93-4.424 4.311-4.424l-.08.001 5.267-8.107.057-.087c1.206-1.794 3.195-2.868 5.323-2.868h8.683a22.3 22.3 0 0 1-2.515-4.425h-14.79l-.07.002a2.14 2.14 0 0 0-1.723.984l-5.07 7.808c.385.663.607 1.439.607 2.267 0 2.444-1.93 4.425-4.31 4.425s-4.311-1.981-4.311-4.425 1.93-4.424 4.31-4.424l-.08.002 5.267-8.107.058-.088c1.205-1.794 3.195-2.868 5.322-2.868h13.427a22.8 22.8 0 0 1-.43-4.424H29.876c-2.127 0-4.117-1.074-5.322-2.868l-.058-.087-5.267-8.108-.128-.003C16.818 55.641 15 53.705 15 51.333c0-2.443 1.93-4.424 4.31-4.424s4.311 1.98 4.311 4.424c0 .83-.222 1.605-.608 2.268l5.07 7.808a2.15 2.15 0 0 0 1.725.984h13.497a22.3 22.3 0 0 1 1.362-4.424H38.43c-2.128 0-4.117-1.073-5.323-2.867l-.058-.087-5.268-8.11-.058-.001c-2.283-.112-4.102-2.048-4.102-4.42 0-2.443 1.93-4.423 4.311-4.423 2.38 0 4.31 1.98 4.31 4.424a4.5 4.5 0 0 1-.64 2.323l5.034 7.752c.387.596 1.03.961 1.724.984l.07.001h8.752c3.933-5.373 10.193-8.848 17.245-8.848 7.051 0 13.312 3.475 17.244 8.848h8.97a2.14 2.14 0 0 0 1.723-.985l5.034-7.752a4.5 4.5 0 0 1-.64-2.323c0-2.444 1.93-4.424 4.31-4.424ZM64.427 49.122c-9.523 0-17.243 7.923-17.243 17.697s7.72 17.697 17.243 17.697S81.67 76.592 81.67 66.818s-7.72-17.697-17.243-17.697Zm0 4.424c7.142 0 12.932 5.943 12.932 13.273s-5.79 13.273-12.932 13.273-12.932-5.942-12.932-13.273 5.79-13.273 12.932-13.273M79.514 27l.254.004c4.644.138 8.368 4.045 8.368 8.844 0 4.887-3.86 8.849-8.622 8.849-4.761 0-8.621-3.962-8.621-8.849 0-2.443.965-4.655 2.525-6.256l6.096 6.256zM49.34 27v8.848l4.783-7.363c2.314 1.587 3.839 4.293 3.839 7.363 0 4.887-3.86 8.849-8.622 8.849-4.761 0-8.621-3.962-8.621-8.849 0-4.886 3.86-8.848 8.621-8.848"/></g></svg>