<svg xmlns="http://www.w3.org/2000/svg" fill="none" viewBox="0 0 74 74" width="256" height="256" preserveAspectRatio="xMidYMid meet"><path fill="#000" d="M74 37c0 20.435-16.565 37-37 37S0 57.435 0 37 16.566 0 37 0s37 16.566 37 37"/><path fill="#F2F3F5" d="M21.56 31.001a2.715 2.715 0 0 1-1.8-2.55 2.723 2.723 0 0 1 2.734-2.712c1.51 0 2.734 1.214 2.734 2.712 0 1.173-.75 2.172-1.801 2.55v14.051c1.956-.085 3.775-.44 5.39-1.03v-10.77a2.715 2.715 0 0 1-1.8-2.55 2.724 2.724 0 0 1 2.734-2.713 2.723 2.723 0 0 1 2.734 2.713c0 1.172-.75 2.171-1.801 2.55v9.941c1.797-.964 3.236-2.268 4.19-3.843A3.14 3.14 0 0 1 33.82 37c0-1.746 1.427-3.162 3.188-3.162q.217 0 .426.028c2.428-4.188 7.634-6.724 13.846-6.788l.242-.002H61.5a.93.93 0 0 1 .933.926.93.93 0 0 1-.878.924l-.055.002h-1.788v14.07a2.715 2.715 0 0 1 1.801 2.55c0 1.499-1.224 2.713-2.734 2.713s-2.734-1.214-2.734-2.712c0-1.173.75-2.172 1.801-2.55V28.927h-5.391v14.07a2.715 2.715 0 0 1 1.801 2.55c0 1.499-1.224 2.713-2.734 2.713s-2.735-1.214-2.735-2.712c0-1.173.75-2.172 1.802-2.55V28.947c-1.956.086-3.775.44-5.391 1.029v10.772a2.715 2.715 0 0 1 1.801 2.55c0 1.498-1.224 2.713-2.734 2.713s-2.734-1.215-2.734-2.713c0-1.172.75-2.172 1.8-2.55v-9.94c-1.796.963-3.236 2.267-4.19 3.842A3.14 3.14 0 0 1 40.196 37c0 1.746-1.428 3.162-3.188 3.162a3 3 0 0 1-.427-.028c-2.428 4.188-7.634 6.724-13.845 6.788l-.242.002h-9.979a.93.93 0 0 1-.933-.926.93.93 0 0 1 .878-.924l.055-.002h1.789v-14.07a2.715 2.715 0 0 1-1.802-2.55c0-1.5 1.225-2.713 2.734-2.713 1.51 0 2.735 1.214 2.735 2.712 0 1.173-.75 2.172-1.8 2.55l-.001 14.071h5.39z"/></svg>