<svg xmlns="http://www.w3.org/2000/svg" fill="none" viewBox="0 0 1320 1320" width="256" height="256" preserveAspectRatio="xMidYMid meet"><g clip-path="url(#clip0_352_2)"><path fill="url(#paint0_linear_352_2)" fill-rule="evenodd" d="M660 524.356 200.373 864.471C186.834 854.801 178 838.905 178 820.934V527.446c0-29.47 23.758-53.362 53.064-53.362h229.945V367.361c0-29.47 23.758-53.361 53.064-53.361h291.854c29.306 0 53.064 23.891 53.064 53.361v106.723h229.949c29.3 0 53.06 23.892 53.06 53.362v293.488c0 17.971-8.83 33.867-22.37 43.537zm-12.085 330.622a22.68 22.68 0 0 1 28.183 0l139.676 110.317c17.251 13.625 7.763 41.705-14.092 41.705H522.331c-21.854 0-31.342-28.08-14.092-41.705z" clip-rule="evenodd"/></g><defs><linearGradient id="paint0_linear_352_2" x1="-240.809" x2="1276.98" y1="17.545" y2="191.707" gradientUnits="userSpaceOnUse"><stop offset=".11" stop-color="#B9E2C4" style="stop-color:#b9e2c4;stop-color:color(display-p3 .7245 .8851 .7696);stop-opacity:1"/><stop offset=".5" stop-color="#17C247" style="stop-color:#17c247;stop-color:color(display-p3 .0908 .7627 .2789);stop-opacity:1"/><stop offset=".63" stop-color="#27B7FF" style="stop-color:#27b7ff;stop-color:color(display-p3 .1529 .7176 1);stop-opacity:1"/><stop offset=".7" stop-color="#0095FF" style="stop-color:#0095ff;stop-color:color(display-p3 0 .5833 1);stop-opacity:1"/><stop offset="1" stop-color="#156F51" style="stop-color:#156f51;stop-color:color(display-p3 .0805 .4347 .3166);stop-opacity:1"/></linearGradient><clipPath id="clip0_352_2"><path fill="#fff" d="M0 0h1320v1320H0z" style="fill:#fff;fill-opacity:1"/></clipPath></defs></svg>