<svg xmlns="http://www.w3.org/2000/svg" id="layer1" class="logo" data-name="layer1" viewBox="0 0 225 225" width="256" height="256" preserveAspectRatio="xMidYMid meet"><path d="M131.25 104.06c0 4.66-4.2 8.43-9.37 8.43H93.74V95.64h28.14c5.18 0 9.37 3.77 9.37 8.42m93.06 8.44c0 86.071-93.175 139.866-167.715 96.83-74.54-43.035-74.54-150.625 0-193.66A111.8 111.8 0 0 1 112.52.69c61.743.011 111.79 50.067 111.79 111.81m-70.79 23c9.37-7.71 15.29-18.76 15.29-31.07 0-23.28-21-42.15-46.9-42.15H56.23v100.48h37.52V146.5h28.43l9.8 16.23h36.8z" style="fill:#2116e5"/></svg>