<svg xmlns="http://www.w3.org/2000/svg" fill="none" viewBox="0 0 170 160" width="256" height="256" preserveAspectRatio="xMidYMid meet"><circle cx="80" cy="80" r="80" fill="url(#paint0_linear_11009_232445)"/><g filter="url(#filter0_d_11009_232445)"><mask id="mask0_11009_232445" width="160" height="160" x="0" y="0" maskUnits="userSpaceOnUse" style="mask-type:alpha"><circle cx="80" cy="80" r="80" fill="url(#paint1_linear_11009_232445)"/></mask><g mask="url(#mask0_11009_232445)"><path fill="#fff" fill-rule="evenodd" d="M60.139 52.795a42 42 0 0 1-.02-1.259c0-21.559 16.385-39.036 36.595-39.036 16.67 0 30.737 11.89 35.154 28.154a51.8 51.8 0 0 0-11.969 4.22c-2.736-11-12.083-19.101-23.192-19.101-13.257 0-24.003 11.534-24.003 25.764 0 2.379.3 4.682.863 6.87a39.33 39.33 0 0 1 13.138 14.425l-10.122 10.24C73.224 72.704 63.423 65.2 51.853 65.2c-14.342 0-25.97 11.535-25.97 25.764s11.628 25.764 25.97 25.764a26 26 0 0 0 16.94-6.234l-.015-.011 46.431-47.04.02.017a39.38 39.38 0 0 1 27.922-11.532c21.732 0 39.349 17.477 39.349 39.037S164.883 130 143.151 130a39.39 39.39 0 0 1-34.815-20.829l10.105-10.273c3.372 10.346 13.163 17.83 24.715 17.83 14.343 0 25.97-11.535 25.97-25.764 0-14.23-11.627-25.765-25.97-25.765a26 26 0 0 0-17.431 6.666l.053.042-13.946 14.123-7.907 8.039-.002-.03-24.718 25.031-.026-.022A39.38 39.38 0 0 1 51.849 130C30.117 130 12.5 112.523 12.5 90.963s17.617-39.036 39.349-39.036c2.844 0 5.617.3 8.29.868" clip-rule="evenodd"/></g></g><defs><linearGradient id="paint0_linear_11009_232445" x1="0" x2="160" y1="80" y2="80" gradientUnits="userSpaceOnUse"><stop stop-color="#7CEDE5"/><stop offset="1" stop-color="#0085C2"/></linearGradient><linearGradient id="paint1_linear_11009_232445" x1="0" x2="160" y1="80" y2="80" gradientUnits="userSpaceOnUse"><stop stop-color="#7CEDE5"/><stop offset="1" stop-color="#0085C2"/></linearGradient><filter id="filter0_d_11009_232445" width="165.9" height="135.9" x="3.3" y="7.3" color-interpolation-filters="sRGB" filterUnits="userSpaceOnUse"><feFlood flood-opacity="0" result="BackgroundImageFix"/><feColorMatrix in="SourceAlpha" result="hardAlpha" values="0 0 0 0 0 0 0 0 0 0 0 0 0 0 0 0 0 0 127 0"/><feOffset dy="4"/><feGaussianBlur stdDeviation="4.6"/><feComposite in2="hardAlpha" operator="out"/><feColorMatrix values="0 0 0 0 0 0 0 0 0 0 0 0 0 0 0 0 0 0 0.25 0"/><feBlend in2="BackgroundImageFix" result="effect1_dropShadow_11009_232445"/><feBlend in="SourceGraphic" in2="effect1_dropShadow_11009_232445" result="shape"/></filter></defs></svg>