<svg xmlns="http://www.w3.org/2000/svg" id="Layer_2" viewBox="0 0 430 430" width="256" height="256" preserveAspectRatio="xMidYMid meet"><g id="Components" transform="translate(3.41 81.805)"><g id="_8d3d4cd6-9af7-4285-99f7-7837076315f0_1"><path d="M69.88 190.67c-5.07 4.21-11.56 6.74-18.65 6.74-27.06 0-37.41-33.05-22.46-48 9.09-10.39 7.61-23.99.22-32.77-23.56-27.57 15.07-64.88 41.82-40.7-23.09 36.92-20.2 83.23-.93 114.73Z" style="fill:#eb4747;stroke-width:0"/><path d="M164.6 158.28c9.37 43.75-45.64 71.5-74.96 37.71C32.69 130.37 75.75 21.82 221.03 21.97c4.54.01 6.02 6.09 2 8.2-49.37 25.85-68.74 79.96-58.43 128.11" style="fill:#eb4747;stroke-width:0"/><path d="M332.29 72.88c2 1.81 2.57 4.69 1.48 7.16-.79 1.77-1.45 3.61-1.98 5.53-1.78 6.44-3.9 4.66-53.16 4.66-23.32 0-42.33 18.78-42.73 42.01-.41 23.91 19.57 43.48 43.49 43.48h45.98c3.17 0 2.84 3.26 5.06 9.15 1.73 4.59.11 9.75-3.81 12.7-51.78 38.95-128.45 2.21-128.45-64.67 0-69.95 83.14-106 134.12-60.02Z" style="fill:#eb4747;stroke-width:0"/><path d="M347.38 211.14C280.79 270.58 173.7 223 173.7 132.9c0-93.35 114.14-140.02 179.4-72.74a40.2 40.2 0 0 0-9.79 6.64c-58.04-56.82-157.14-16.03-157.14 66.1 0 79.19 93.6 121.29 152.78 70.11 1.34-1.16 3.31-1.15 4.69-.04 1.05.84 2.14 1.63 3.26 2.37 2.01 1.33 2.28 4.19.48 5.8Z" style="fill:#eb4747;stroke-width:0"/><path d="M401.11 171.23c-.93 19.65-21.3 35.06-41.61 27.2-25.45-9.75-13.6-34.71-34.13-34.71h-46.74c-16.95 0-30.74-13.79-30.74-30.74s13.79-30.75 30.74-30.75h47.08c8.2 0 15.46-5.54 17.65-13.48 10.53-38.16 73.33-18.84 49.66 24.15-13.15 19.72 9 39.61 8.09 58.33" style="fill:#eb4747;stroke-width:0"/><path d="M418.53 148.1c-.87-2.08-1.77-4.07-2.64-5.99-4.26-9.42-5.86-13.84-3.84-18.1 10.34-15.42 11.33-34.45 2.62-51.04-8.68-16.54-25.49-26.81-43.86-26.81h-.61c-19.91-21.1-46.32-34.73-74.98-38.59C287.66 5.56 256.81 0 220.52 0c-25.17 0-47.87 2.63-67.44 7.81-31.47 8.32-57.94 23.77-77.13 44.91-7.45-4.16-15.74-6.33-24.38-6.33C23.13 46.39 0 69.39 0 97.66c0 15.2 6.23 24.67 10.35 30.93 1.09 1.65 2.53 3.84 2.92 4.89-.13.24-.39.66-.9 1.27-12.95 14.48-16 35.75-7.78 54.25 8.35 18.76 26.22 30.41 46.66 30.41 8.34 0 16.34-1.96 23.56-5.73 31.12 34.07 82.59 52.71 146.19 52.71 24.17 0 49.69-2.8 73.83-8.09 27.43-3.62 53.04-16.31 72.68-35.92 1.1.07 2.2.1 3.29.1 17.74 0 34.15-9.03 43.91-24.17 9.74-15.09 11.17-33.85 3.82-50.21m-54.83 63.81c-18.1 19.59-42.84 32.97-70.61 36.53-74.92 16.53-170.53 10.33-216.33-47.89a41.07 41.07 0 0 1-25.53 8.86c-36.37 0-53.59-43.39-31.32-68.1 11.54-13.67-9.93-17.99-9.93-43.65 0-34.91 41.05-54.06 67.76-31.58 19.39-24.71 47.76-40.64 77.88-48.6 59.1-15.65 131.21-2.22 137.57-.09 28.92 3.73 54.54 18.1 72.81 39.05 34.21-3.91 56.66 34.57 37.4 62.48-5.81 10.99.98 21.24 5.94 33.16 13.94 30.78-11.87 65.31-45.64 59.83Z" style="fill:#eb4747;stroke-width:0"/></g></g></svg>