<svg xmlns="http://www.w3.org/2000/svg" fill="none" viewBox="0 0 512 512" width="256" height="256" preserveAspectRatio="xMidYMid meet"><path fill="#000" d="M0 0h512v512H0z"/><path fill="#fff" stroke="#fff" stroke-miterlimit="10" stroke-width=".269" d="M303.955 256.4h-3.074l11.12-2.473c-1.271.624-7.421 2.473-8.046 2.473Zm12.346-2.473h-3.098l3.098-1.85c-3.098 0-5.571 0-8.022-1.225-13.571 2.45-27.743 3.075-40.69 5.548-.624 0-1.826 1.225-1.826 1.225 0 .625 0 .625.578 1.226 6.196 0 12.345 1.248 19.142 1.248 5.526 0 11.698-1.849 17.247-2.474-4.924 3.7-22.194 3.099-28.968 3.099-2.474 0-4.324.601-6.173 1.225 1.225 3.699 5.549 4.924 6.797 8.624 13.525 13.547 25.871 32.667 35.719 48.688 0 1.873.625 4.948 1.896 6.174v2.45c0 1.248 1.826 3.098 3.052 3.722h.624c0 .601-.624 1.226-.624 1.827 0 2.473 5.572 4.323 5.572 6.172 0 .624 0 1.249-.624 1.249-5.573-.625-6.798-3.699-9.271-8.022-5.526-3.7-6.774-11.699-13.549-14.797-1.225-4.924-4.322-4.323-6.172-9.248l-5.526-12.322c2.428.624 4.3 2.474 4.3 4.924 3.7 8.647 9.849 14.196 14.172 22.195 1.85.624 1.85 3.098 4.324 3.699-3.699-10.473-9.849-24.044-19.744-30.818 0-1.85-.624-4.324-3.052-4.324-1.248 0-1.248 2.474-.624 3.075-2.473-3.676-3.699-7.374-7.421-9.848l.624-1.249c0-3.075-1.826-5.548-4.3-6.149-1.225-4.324-6.173 0-8.623-4.948-1.85-4.3-7.422-5.526-11.098-5.526-11.097 16.623-51.787 55.464-57.336 72.109-3.699.624-6.172 3.098-9.849 3.098-.624 0-3.097 0-3.097-1.248 0-1.226 2.473-2.474 3.097-4.3 6.15-9.872 61.012-67.208 61.012-74.606 0-1.826-4.3-3.075-6.15-3.075-1.872-.624-4.322-1.225-6.195-1.225-5.526 0-10.473 1.225-15.999 1.225-12.947 0-26.518 2.474-40.089 2.474-2.474 0-1.202-2.474-3.098-4.324 4.324-.624 8.046-3.698 12.369-3.698 1.203 0 3.676.624 5.526 1.849 3.722 0 7.398.624 11.097.624 13.571 0 32.668-.624 45.614-3.699.624-.624 1.248-.624 1.248-1.248 0-.601-3.097-1.225-2.473-3.075 0-2.474-14.195-14.796-14.195-18.496.624 0 .624-.624.624-.624 0-6.751-21.571-32.043-27.142-38.216v-.601c0-3.699-3.052-5.549-3.052-8.623 0-1.249 1.85-2.474 3.052-2.474 1.896 0 3.098 2.474 4.323 3.699-.601.601-1.225 1.248-1.225 1.849 0 3.076 13.571 20.323 14.796 20.323.625 0 .625-1.827 1.249-1.827 14.172 8.623 17.871 24.668 27.096 36.968 9.27 0 29.615-49.915 41.336-54.238h1.226c-10.473 15.42-22.195 30.217-30.841 46.863l1.225 1.225c5.572-2.474 4.347-8.624 6.797-10.473 1.249-1.85 7.398-5.549 7.398-7.398 0-1.249 15.421-20.345 18.496-27.119 3.074-3.098 4.924-6.797 8.022-10.473l-4.323 1.202c1.225-4.924 11.721-11.074 16.622-10.473-5.525 9.872-15.998 15.42-20.321 25.894-5.549 11.721-11.722 18.495-19.721 28.367v.601c0 1.849-3.722 3.722-3.722 5.548-3.676 6.173-15.398 12.947-15.398 21.571 1.85.624 4.301.624 6.15.624 16.045 0 32.691-3.699 48.712-3.699 5.549 0 13.571-.601 18.496 1.85-6.15 2.473-12.947 3.074-19.097 3.699Z"/><path fill="#fff" d="M352.274 352.231c1.457-4.67 2.751-9.664 4-14.75 1.225-1.642 2.543-3.237 3.722-4.924 0 7.652-4.023 13.571-7.722 19.674m-37.893 59.856c-.624 3.098-3.074 3.699-5.525 4.323 2.358-6.658 5.433-12.924 8.439-19.12 5.964-2.265 11.282-7.42 17.038-10.45-6.126 8.786-12.715 17.294-19.952 25.247m33.107-63.231c-3.768 7.93-8.346 16.669-14.01 27.465-4.763 2.012-7.075 6.89-10.357 10.404.624-1.827 1.225-3.722 2.358-4.855 5.294-12.23 13.617-22.587 22.009-33.014m-68.872 89.749c-4.323 7.999-21.57 17.87-29.569 17.87-8.624 0-16.045-7.998-24.669-8.623-1.849-6.173-8.623-3.097-12.946-6.173-10.473-7.398-24.669-22.194-30.818-33.291-10.473-19.721-19.721-45.614-25.269-66.561-2.451-8.646-2.451-58.584-2.451-69.057 0-36.967-1.249-65.959 14.149-99.852 0-7.398 7.421-11.721 7.421-17.27v-2.45c4.3-4.925 4.3-12.947 9.872-17.27 5.525-17.871 22.171-28.968 30.795-45.614 6.774-3.075 8.646-12.323 14.819-16.647 13.525-8.623 27.72-20.945 44.967-20.945 1.849 1.225 3.699 2.45 6.173 2.45 1.248 0 1.85-.6 3.098-.6l2.474-1.85c2.45.6 5.525 3.074 6.774-1.25 11.097 2.475 26.517-3.074 33.291 9.249 24.044 15.42 16.623 48.088 26.472 70.282 1.872 19.721 3.722 39.442 4.323 59.787.624 27.743 4.323 55.486 4.323 83.83 0 22.865-1.595 37.522-5.41 50.978-2.45 4.716-5.016 9.34-7.536 14.38-6.751 3.676-8 13.548-15.421 16.022-4.716 8.947-10.427 21.616-16.993 34.401-.092.023-.138.093-.254.116-.809-.647-.948-1.572-1.433-2.336-1.665 1.989-3.307 4.023-5.202 5.827.948 1.318 1.849 2.704 2.959 3.768-9.779 18.079-21.177 35.118-33.939 40.829m-44.99 27.72c-19.097 0-40.666-6.772-51.764-22.796-8.623-11.098-20.345-21.57-25.916-35.141-5.526-6.15-24.045-80.131-24.045-91.228 0-.625 0-3.076 1.873-3.076 7.398 0 20.946 39.442 22.172 44.99 5.571 18.496 16.044 38.217 24.668 55.463 4.947 8.647 11.721 14.82 16.668 23.443 6.15 1.85 9.225 8.624 15.999 9.872 3.098 5.551 9.248 6.153 12.947 10.471 2.474 0 9.248 1.853 9.248 4.925 0 1.251 0 3.077-1.85 3.077M380.34 278.943c-3.097 2.474-8.623 6.173-7.999 11.098v1.849c-4.947 7.398-5.571 16.022-10.496 23.42-.485.786-.832 1.641-1.271 2.427 7.606-41.591 9.918-89.332 9.918-116.474 0-25.27-8.647-49.915-11.097-75.184-1.249-19.744-1.873-41.314-14.82-57.336-12.947-14.796-30.818-25.893-51.139-25.893-3.098 0-6.15 0-9.248.624-2.474-1.85-5.572-2.474-8.623-2.474-9.271 0-16.67 6.774-25.293 6.774-2.451 0-4.924-.6-6.797-1.225l-3.052 3.098 11.097.6c.624 1.226 1.827 2.475 1.827 3.7 0 3.699-10.45 2.45-11.722 8.624-19.721 10.472-40.666 35.765-52.388 54.237-6.774 11.097-12.947 24.668-19.096 36.39-.625.601-4.948 9.849-6.15 9.849 0 4.323-1.248 8.022-1.85 11.721-4.947 4.925-1.872 14.172-6.796 19.119-7.399 23.397-13.549 52.389-13.549 76.433 0 1.826-1.248 2.451-3.097 3.075-.601-5.549-2.474-11.722-1.85-17.872v-3.698c2.474-55.487 3.699-102.349 36.39-150.415 24.622-36.366 56.087-41.914 65.335-53.012-1.85 0-3.098-.624-4.948-.624-4.924 0-9.849 2.474-12.299 6.797-35.142 11.698-52.412 43.765-67.231 74.583-2.451 3.699-5.526 6.15-6.15 11.097-2.473 11.097-4.323 21.57-8.623 32.667-1.225 4.301-3.699 11.097-3.699 15.398 0 3.722 1.849 7.398 1.849 11.12 0 4.901-.624 9.225-1.849 14.172C128.85 247.501 127 284.492 127 319.009c0 27.743 12.323 52.388 20.946 77.68 9.248 27.119 28.968 49.314 49.915 67.81l15.42 2.449c3.722 3.099 8.046 4.323 12.947 4.323 6.774 0 13.571-2.47 20.345-1.847h2.474c8.623-5.548 23.419-9.248 30.193-16.649 1.85-1.224 3.098-5.547 5.572-5.547.578 0 1.225 0 1.85.624 12.923-14.195 28.968-25.893 40.666-40.69 6.15-7.397 9.872-16.645 15.397-24.644 1.85-2.474 1.85-6.197 4.948-8.023 7.398-18.495 36.991-77.681 36.991-93.702v-1.85z"/><path stroke="#fff" stroke-miterlimit="10" stroke-width=".269" d="M352.274 352.231c1.457-4.67 2.751-9.664 4-14.75 1.225-1.642 2.543-3.237 3.722-4.924 0 7.652-4.023 13.571-7.722 19.674Zm-37.893 59.856c-.624 3.098-3.074 3.699-5.525 4.323 2.358-6.658 5.433-12.924 8.439-19.119 5.964-2.266 11.282-7.421 17.038-10.451-6.126 8.786-12.715 17.294-19.952 25.247Zm33.107-63.231c-3.768 7.93-8.346 16.669-14.01 27.465-4.763 2.012-7.075 6.89-10.357 10.404.624-1.827 1.225-3.722 2.358-4.855 5.294-12.23 13.617-22.587 22.009-33.014Zm-68.872 89.749c-4.323 7.999-21.57 17.87-29.569 17.87-8.624 0-16.045-7.998-24.669-8.623-1.849-6.173-8.623-3.097-12.946-6.173-10.473-7.398-24.669-22.194-30.818-33.291-10.473-19.721-19.721-45.614-25.269-66.561-2.451-8.646-2.451-58.584-2.451-69.057 0-36.967-1.249-65.959 14.149-99.852 0-7.398 7.421-11.721 7.421-17.27v-2.45c4.3-4.925 4.3-12.947 9.872-17.27 5.525-17.871 22.171-28.968 30.795-45.614 6.774-3.075 8.646-12.323 14.819-16.647 13.525-8.623 27.72-20.945 44.967-20.945 1.849 1.225 3.699 2.45 6.173 2.45 1.248 0 1.85-.6 3.098-.6l2.474-1.85c2.45.6 5.525 3.074 6.774-1.25 11.097 2.475 26.517-3.074 33.291 9.249 24.044 15.42 16.623 48.088 26.472 70.282 1.872 19.721 3.722 39.442 4.323 59.787.624 27.743 4.323 55.486 4.323 83.83 0 22.865-1.595 37.522-5.41 50.978-2.45 4.716-5.016 9.34-7.536 14.38-6.751 3.676-8 13.548-15.421 16.022-4.716 8.947-10.427 21.616-16.993 34.401-.092.023-.138.093-.254.116-.809-.647-.948-1.572-1.433-2.336-1.665 1.989-3.307 4.023-5.202 5.827.948 1.318 1.849 2.704 2.959 3.768-9.779 18.079-21.177 35.118-33.939 40.829Zm-44.99 27.72c-19.097 0-40.666-6.772-51.764-22.796-8.623-11.097-20.345-21.57-25.916-35.141-5.526-6.15-24.045-80.131-24.045-91.228 0-.625 0-3.076 1.873-3.076 7.398 0 20.946 39.442 22.172 44.99 5.571 18.496 16.044 38.217 24.668 55.463 4.947 8.647 11.721 14.82 16.668 23.443 6.15 1.85 9.225 8.624 15.999 9.872 3.098 5.551 9.248 6.153 12.947 10.471 2.474 0 9.248 1.853 9.248 4.925 0 1.251 0 3.077-1.85 3.077ZM380.34 278.943c-3.097 2.474-8.623 6.173-7.999 11.098v1.849c-4.947 7.398-5.571 16.022-10.496 23.42-.485.786-.832 1.641-1.271 2.427 7.606-41.591 9.918-89.332 9.918-116.474 0-25.27-8.647-49.915-11.097-75.184-1.249-19.744-1.873-41.314-14.82-57.336-12.947-14.796-30.818-25.893-51.139-25.893-3.098 0-6.15 0-9.248.624-2.474-1.85-5.572-2.474-8.623-2.474-9.271 0-16.67 6.774-25.293 6.774-2.451 0-4.924-.6-6.797-1.225l-3.052 3.098 11.097.6c.624 1.226 1.827 2.475 1.827 3.7 0 3.699-10.45 2.45-11.722 8.624-19.721 10.472-40.666 35.765-52.388 54.237-6.774 11.097-12.947 24.668-19.096 36.39-.625.601-4.948 9.849-6.15 9.849 0 4.323-1.248 8.022-1.85 11.721-4.947 4.925-1.872 14.172-6.796 19.119-7.399 23.397-13.549 52.389-13.549 76.433 0 1.826-1.248 2.451-3.097 3.075-.601-5.549-2.474-11.722-1.85-17.872v-3.699c2.474-55.486 3.699-102.348 36.39-150.414 24.622-36.366 56.087-41.914 65.335-53.012-1.85 0-3.098-.624-4.948-.624-4.924 0-9.849 2.474-12.299 6.797-35.142 11.698-52.412 43.765-67.231 74.583-2.451 3.699-5.526 6.15-6.15 11.097-2.473 11.097-4.323 21.57-8.623 32.667-1.225 4.301-3.699 11.097-3.699 15.398 0 3.722 1.849 7.398 1.849 11.12 0 4.901-.624 9.225-1.849 14.172C128.85 247.501 127 284.492 127 319.009c0 27.743 12.323 52.388 20.946 77.68 9.248 27.119 28.968 49.314 49.915 67.81l15.42 2.449c3.722 3.099 8.046 4.323 12.947 4.323 6.774 0 13.571-2.47 20.345-1.847h2.474c8.623-5.548 23.419-9.248 30.193-16.649 1.85-1.224 3.098-5.547 5.572-5.547.578 0 1.225 0 1.85.624 12.923-14.195 28.968-25.893 40.666-40.69 6.15-7.397 9.872-16.645 15.397-24.644 1.85-2.474 1.85-6.197 4.948-8.023 7.398-18.495 36.991-77.681 36.991-93.702v-1.85z"/><path fill="#fff" d="M252.121 460.75c-.624 0-1.248.623-1.248 1.225h1.248c0-.602 0-.602.601-.602 0-.623 0-.623-.601-.623"/><path stroke="#fff" stroke-miterlimit="10" stroke-width=".269" d="M150.821 124.737v.228"/></svg>