<svg xmlns="http://www.w3.org/2000/svg" xml:space="preserve" id="Layer_1" x="0" y="0" version="1.0" viewBox="0 0 512 512" width="256" height="256" preserveAspectRatio="xMidYMid meet"><style>.st0{fill:#4041bb}</style><path d="M256 0C114.6 0 0 114.6 0 256s114.6 256 256 256 256-114.6 256-256S397.4 0 256 0m0 456.3c-71.3 0-129.2-58.3-129.2-130 0-29.4 20.4-76.8 60.6-141 13.4-21.4 26.9-41.2 37.6-56.5-2.6-5-3.9-10.6-3.9-16.2.1-7.4 2.3-14.5 6.5-20.5s10.1-10.4 16.8-12.7v-12c0-3.2 1.3-6.2 3.5-8.4s5.1-3.4 8.2-3.4 6 1.2 8.2 3.4 3.4 5.2 3.5 8.4v11.9c6.7 2.3 12.6 6.8 16.8 12.7 4.2 6 6.5 13.1 6.5 20.5 0 5.7-1.4 11.2-3.9 16.2 10.7 15.3 24.2 35.1 37.6 56.5 40.2 64.2 60.6 111.7 60.6 141-.2 71.8-58.1 130.1-129.4 130.1" class="st0"/><path d="M251.3 123.4c2.1.9 4.3 1.1 6.5.7s4.2-1.5 5.8-3.1 2.7-3.7 3.2-5.9c.5-2.3.3-4.6-.5-6.8s-2.2-4-4.1-5.3c-1.8-1.3-4-2.1-6.2-2.1-3.1 0-6 1.2-8.2 3.4s-3.4 5.2-3.5 8.4c0 2.3.7 4.6 1.9 6.5 1.3 1.8 3 3.3 5.1 4.2M212.3 414.3c-8.1-22.2-12.8-45.5-13.8-69.1-17-12.5-29.6-30.5-35.8-51.2-.2-.6-.6-1.1-1-1.5-.5-.4-1.1-.6-1.7-.6s-1.2.2-1.7.5-.9.8-1.1 1.4c-4.1 10.4-6.5 21.4-7.1 32.5.2 21.3 6.5 42.1 18.2 59.6 11.7 17.6 28.2 31.1 47.4 38.9.1.1.3.1.4 0 .1 0 .3-.1.4-.2s.2-.2.2-.4c0-.1 0-.3-.1-.4-1.5-2.9-2.9-6.1-4.3-9.5M256.9 152.1c-.1-.2-.2-.4-.4-.5s-.4-.2-.6-.2-.4.1-.6.2-.3.3-.4.5c-5 18.4-10.8 40.9-16.2 64.3-11.5 49.5-17.6 87.5-17.6 109.9v5.2c0 .1 0 .2.1.4.1.1.2.2.3.2 10.6 5.6 22.4 8.5 34.3 8.5s23.7-2.9 34.3-8.5c.1-.1.2-.1.3-.2s.1-.2.1-.4v-5.2c0-22.4-6.1-60.4-17.6-109.9-5.2-23.3-11-45.8-16-64.3M287.3 360.3c-.4-.3-.8-.5-1.3-.6s-1-.1-1.4.1c-18.7 5.8-38.6 5.8-57.3 0-.5-.2-1-.2-1.4-.1-.5.1-.9.3-1.3.6s-.7.7-.8 1.2c-.2.5-.2 1-.2 1.5 1.8 14.6 5.3 28.9 10.4 42.7 6.5 16.5 15.1 27.2 22 27.2s15.5-10.7 21.9-27.2c5.1-13.7 8.7-28.1 10.4-42.7.1-.5 0-1-.2-1.5-.1-.5-.4-.9-.8-1.2M197.7 311.7h.4c.1 0 .2-.1.3-.2s.1-.2.2-.4c2.9-37.7 15.2-92.1 26.3-135.9.1-.2 0-.5-.1-.7s-.3-.4-.5-.5-.4-.1-.7 0c-.2.1-.4.2-.5.4l-.1.2c-35.6 56.9-40.9 81.9-40.9 91.7 0 16.4 5.4 32.3 15.3 45.2.1.1.2.2.3.2M313.5 345.1c-1.1 23.7-5.7 47-13.8 69.1-1.3 3.4-2.8 6.6-4.2 9.6-.1.1-.1.3-.1.4s.1.3.2.4.2.2.4.2h.4c19.2-7.8 35.7-21.3 47.4-38.9 11.7-17.5 18-38.3 18.2-59.6-.6-11.2-3-22.2-7.1-32.5-.2-.6-.6-1.1-1.1-1.4s-1.1-.5-1.7-.5-1.2.2-1.7.6-.8.9-1 1.5c-6.3 20.6-18.9 38.6-35.9 51.1M288.9 174.4c-.1-.2-.3-.3-.5-.4s-.5-.1-.7 0-.4.3-.5.5-.1.4-.1.7c11.2 43.8 23.4 98.3 26.3 136 0 .1.1.3.2.4s.2.2.3.2h.4c.1 0 .2-.1.3-.2 9.9-12.9 15.3-28.8 15.3-45.2 0-10-5.3-35-41-92" class="st0"/></svg>