<svg xmlns="http://www.w3.org/2000/svg" id="Layer_1" x="0" y="0" version="1.1" viewBox="0 0 444 444" width="256" height="256" preserveAspectRatio="xMidYMid meet"><style>.st2{fill:#101010}</style><path d="M333.4 262V110.6c-.2-12.7-10.3-22.9-23-22.9h-158c-34.1.5-61.5 28.4-61.5 62.6 0 11.5 3.1 21.4 7.8 30.1 4 7.2 10.3 14 16.5 19.1 1.8 1.4.9.8 6.3 4.1 7.4 4.5 15.9 6.8 15.9 6.8l-.1 90.6c.2 4.3.6 8.4 1.8 12.3 3.5 12.8 12.4 22.6 24.4 27.3 5 2 10.7 3.3 16.8 3.4l126.2.4c25.1 0 45.5-20.4 45.5-45.6.1-15-7.4-28.4-18.6-36.8" style="fill:#ffeeda" transform="matrix(1.6405 0 0 1.6405 -141.289 -132.511)"/><path d="M336.5 299.9C336 316 322.7 329 306.4 329l-86.8-.3c6.9-8 11.1-18.4 11.1-29.8 0-17.8-10.6-30.1-10.6-30.1h86.4c16.6 0 30.1 13.5 30.1 30.1z" style="fill:#ebc28e" transform="matrix(1.6405 0 0 1.6405 -141.289 -132.511)"/><path d="M61.313 173.77c-16.405-15.585-27.889-35.6-27.889-59.55v-2.461c1.312-40.685 34.779-73.495 75.463-74.643h259.198c6.727.328 12.14 5.086 12.14 11.976v219.334c5.906.984 8.859 1.805 14.6 3.937 4.594 1.64 10.828 5.25 10.828 5.25V49.092c-.328-20.835-16.897-37.568-37.732-37.568H108.723c-55.941.82-100.89 46.59-100.89 102.695 0 32.646 14.928 60.535 39.207 80.057 1.64 1.312 3.281 3.117 7.546 3.117 7.547 0 12.96-6.07 12.632-12.632 0-5.578-2.46-7.547-5.905-10.992" class="st2"/><path d="M361.36 282.862H158.101c-13.616.165-24.608 11.156-24.608 24.772v29.2c.328 13.453 11.812 24.936 25.592 24.936h15.093v-24.935h-15.257V308.29h8.203c25.755 0 44.621 23.787 44.621 49.38 0 22.638-20.67 51.51-55.12 49.214-30.514-1.969-47.083-29.2-47.083-49.215V109.954c0-11.155-9.187-20.342-20.342-20.342H68.859v25.428H83.95v242.793c-.82 49.38 35.107 74.15 72.674 74.15l204.898.657c41.177 0 74.643-33.466 74.643-74.807.164-41.34-33.466-74.97-74.807-74.97m49.378 76.612c-.82 26.412-22.638 47.738-49.379 47.738l-142.395-.492c11.32-13.124 18.21-30.185 18.21-48.887 0-29.2-17.39-49.379-17.39-49.379h141.74c27.232 0 49.378 22.147 49.378 49.38zM306.567 119.633H153.344V94.205h153.223c6.89 0 12.632 5.578 12.632 12.632.164 7.054-5.414 12.796-12.632 12.796" class="st2"/><path d="M306.567 238.897H153.344v-25.264h153.223c6.89 0 12.632 5.578 12.632 12.632.164 6.89-5.414 12.632-12.632 12.632M333.635 179.183h-180.29v-25.428H333.47c6.89 0 12.632 5.578 12.632 12.632.328 7.054-5.414 12.796-12.468 12.796" class="st2"/></svg>