<svg xmlns="http://www.w3.org/2000/svg" fill="none" viewBox="0 0 36 36" width="256" height="256" preserveAspectRatio="xMidYMid meet"><g clip-path="url(#clip0_1202_1364)" transform="translate(.302)"><path fill="url(#paint2_linear_1202_1364)" d="m14.592 2.627-1.574.902v4.147a1.545 1.545 0 0 0 3.089 0v-4.17c.003-.964-.68-1.36-1.515-.88"/><path fill="url(#paint3_linear_1202_1364)" d="m20.805 2.627 1.574.902v4.147a1.545 1.545 0 0 1-3.089 0v-4.17c0-.964.68-1.36 1.515-.88"/><path fill="url(#paint4_linear_1202_1364)" d="m5.674 6.194 1.573.91 5.77-3.332 1.573-.904c.835-.48 1.52-.084 1.52.88V2.263c0-.86-.4-1.605-1.07-1.991s-1.515-.361-2.26.07L5.637 4.466c-.795.483-.784 1.254.037 1.727"/><path fill="url(#paint5_linear_1202_1364)" d="m29.722 6.194-1.574.91-5.77-3.332-1.573-.904c-.835-.479-1.515-.084-1.515.88V2.263c0-.86.4-1.605 1.07-1.991s1.515-.361 2.258.07l7.145 4.124c.792.483.781 1.254-.041 1.727"/><path fill="url(#paint6_radial_1202_1364)" d="m30.789 5.06-1.239-.714c.795.484.784 1.253-.036 1.727l-1.574.91-6.987 4.032c-.865.499-2.06.747-3.254.743-1.195-.003-2.39-.244-3.255-.743L7.46 6.983l-1.574-.91c-.82-.474-.832-1.243-.037-1.727l-1.24.715c-.746.43-1.19 1.149-1.19 1.923 0 .775.444 1.491 1.19 1.923l8.29 4.787c1.34.773 3.058 1.16 4.78 1.16h.043c1.72 0 3.439-.387 4.78-1.16l8.29-4.787c.745-.43 1.19-1.148 1.19-1.923s-.448-1.493-1.193-1.923"/><path fill="url(#paint7_linear_1202_1364)" d="m5.99 28.23 1.568.908 3.59-2.073a1.546 1.546 0 1 0-1.544-2.676L5.99 26.474c-.833.482-.833 1.272 0 1.755"/><path fill="url(#paint8_linear_1202_1364)" d="m2.884 22.848-.004-1.81 3.589-2.076a1.545 1.545 0 1 1 1.545 2.677L4.4 23.724c-.831.481-1.516.087-1.517-.876"/><path fill="url(#paint9_linear_1202_1364)" d="M13.54 34.168v-1.819l-5.77-3.332-1.567-.909c-.834-.483-.833-1.273 0-1.754l-1.283.742c-.744.43-1.189 1.148-1.19 1.923s.445 1.491 1.19 1.923l7.144 4.122c.816.447 1.475.052 1.475-.896"/><path fill="url(#paint10_linear_1202_1364)" d="m1.515 13.34 1.574.91v6.665l.004 1.813c0 .964.686 1.358 1.52.874l-1.282.742c-.745.43-1.59.456-2.259.07C.402 24.027 0 23.284 0 22.422v-8.25c.021-.93.694-1.305 1.515-.831"/><path fill="url(#paint11_radial_1202_1364)" d="M0 12.984v1.43c.021-.932.694-1.305 1.515-.831l1.574.91 6.986 4.032c.864.5 1.676 1.411 2.272 2.448.597 1.037.984 2.192.984 3.19v9.884c0 .948-.662 1.34-1.478.896l1.239.715c.744.43 1.589.456 2.258.07.67-.387 1.07-1.132 1.07-1.992v-9.574c0-1.545-.525-3.226-1.385-4.716l-.011-.02-.011-.018c-.86-1.49-2.054-2.786-3.392-3.555l-8.293-4.79c-.745-.43-1.589-.456-2.259-.07C.4 11.38 0 12.122 0 12.984"/><path fill="url(#paint12_linear_1202_1364)" d="m32.514 22.848.005-1.81-3.591-2.073a1.546 1.546 0 1 0-1.544 2.676l3.613 2.085c.83.48 1.514.085 1.517-.878"/><path fill="url(#paint13_linear_1202_1364)" d="m29.406 28.23-1.567.909-3.59-2.074a1.546 1.546 0 1 1 1.544-2.675l3.613 2.085c.833.481.834 1.271 0 1.754"/><path fill="url(#paint14_linear_1202_1364)" d="m33.883 13.34-1.574.91v6.665l-.005 1.813c0 .964-.686 1.358-1.52.874l1.282.742c.744.43 1.589.456 2.258.07.67-.387 1.07-1.13 1.07-1.992v-8.25c-.02-.93-.69-1.305-1.511-.831"/><path fill="url(#paint15_linear_1202_1364)" d="M21.858 34.168v-1.819l5.77-3.332 1.568-.909c.833-.483.832-1.273 0-1.754l1.282.742c.744.43 1.19 1.148 1.19 1.923s-.445 1.491-1.19 1.923l-7.145 4.126c-.814.443-1.475.048-1.475-.9"/><path fill="url(#paint16_radial_1202_1364)" d="m22.307 35.658 1.237-.715c-.816.447-1.477.052-1.477-.896v-9.885c0-.998.384-2.156.983-3.19.6-1.034 1.406-1.947 2.273-2.448l6.985-4.033 1.574-.91c.82-.473 1.493-.098 1.515.832v-1.429c0-.86-.4-1.604-1.07-1.99-.67-.387-1.515-.361-2.258.069l-8.292 4.788c-1.34.773-2.532 2.068-3.392 3.556l-.01.019-.012.018c-.86 1.49-1.385 3.172-1.385 4.717v9.575c0 .86.4 1.604 1.07 1.991s1.515.36 2.259-.07"/></g><defs><linearGradient id="paint2_linear_1202_1364" x1="14.565" x2="14.565" y1="7.637" y2="2.671" gradientUnits="userSpaceOnUse"><stop stop-color="#902784"/><stop offset=".07" stop-color="#842885"/><stop offset=".35" stop-color="#5E2D87"/><stop offset=".6" stop-color="#433089"/><stop offset=".83" stop-color="#32328A"/><stop offset=".99" stop-color="#2C338A"/></linearGradient><linearGradient id="paint3_linear_1202_1364" x1="20.832" x2="20.832" y1="7.85" y2="2.582" gradientUnits="userSpaceOnUse"><stop stop-color="#902784"/><stop offset=".07" stop-color="#842885"/><stop offset=".35" stop-color="#5E2D87"/><stop offset=".6" stop-color="#433089"/><stop offset=".83" stop-color="#32328A"/><stop offset=".99" stop-color="#2C338A"/></linearGradient><linearGradient id="paint4_linear_1202_1364" x1="6.855" x2="15.581" y1="6.504" y2="1.3" gradientUnits="userSpaceOnUse"><stop stop-color="#902784"/><stop offset=".23" stop-color="#AA2D87"/><stop offset=".53" stop-color="#C5348A"/><stop offset=".79" stop-color="#D6388B"/><stop offset=".99" stop-color="#DC398C"/></linearGradient><linearGradient id="paint5_linear_1202_1364" x1="28.602" x2="20.446" y1="6.281" y2="1.765" gradientUnits="userSpaceOnUse"><stop stop-color="#902784"/><stop offset=".23" stop-color="#AA2D87"/><stop offset=".53" stop-color="#C5348A"/><stop offset=".79" stop-color="#D6388B"/><stop offset=".99" stop-color="#DC398C"/></linearGradient><linearGradient id="paint7_linear_1202_1364" x1="10.343" x2="6.042" y1="25.747" y2="28.23" gradientUnits="userSpaceOnUse"><stop stop-color="#902784"/><stop offset=".07" stop-color="#842885"/><stop offset=".35" stop-color="#5E2D87"/><stop offset=".6" stop-color="#433089"/><stop offset=".83" stop-color="#32328A"/><stop offset=".99" stop-color="#2C338A"/></linearGradient><linearGradient id="paint8_linear_1202_1364" x1="7.394" x2="2.832" y1="20.213" y2="22.848" gradientUnits="userSpaceOnUse"><stop stop-color="#902784"/><stop offset=".07" stop-color="#842885"/><stop offset=".35" stop-color="#5E2D87"/><stop offset=".6" stop-color="#433089"/><stop offset=".83" stop-color="#32328A"/><stop offset=".99" stop-color="#2C338A"/></linearGradient><linearGradient id="paint9_linear_1202_1364" x1="13.216" x2="4.347" y1="32.99" y2="28.035" gradientUnits="userSpaceOnUse"><stop stop-color="#902784"/><stop offset=".23" stop-color="#AA2D87"/><stop offset=".53" stop-color="#C5348A"/><stop offset=".79" stop-color="#D6388B"/><stop offset=".99" stop-color="#DC398C"/></linearGradient><linearGradient id="paint10_linear_1202_1364" x1="2.15" x2="2.317" y1="14.269" y2="23.59" gradientUnits="userSpaceOnUse"><stop stop-color="#902784"/><stop offset=".23" stop-color="#AA2D87"/><stop offset=".53" stop-color="#C5348A"/><stop offset=".79" stop-color="#D6388B"/><stop offset=".99" stop-color="#DC398C"/></linearGradient><linearGradient id="paint12_linear_1202_1364" x1="28.188" x2="32.488" y1="20.32" y2="22.803" gradientUnits="userSpaceOnUse"><stop stop-color="#902784"/><stop offset=".07" stop-color="#842885"/><stop offset=".35" stop-color="#5E2D87"/><stop offset=".6" stop-color="#433089"/><stop offset=".83" stop-color="#32328A"/><stop offset=".99" stop-color="#2C338A"/></linearGradient><linearGradient id="paint13_linear_1202_1364" x1="24.869" x2="29.433" y1="25.64" y2="28.274" gradientUnits="userSpaceOnUse"><stop stop-color="#902784"/><stop offset=".07" stop-color="#842885"/><stop offset=".35" stop-color="#5E2D87"/><stop offset=".6" stop-color="#433089"/><stop offset=".83" stop-color="#32328A"/><stop offset=".99" stop-color="#2C338A"/></linearGradient><linearGradient id="paint14_linear_1202_1364" x1="33.024" x2="33.168" y1="14.21" y2="24.369" gradientUnits="userSpaceOnUse"><stop stop-color="#902784"/><stop offset=".23" stop-color="#AA2D87"/><stop offset=".53" stop-color="#C5348A"/><stop offset=".79" stop-color="#D6388B"/><stop offset=".99" stop-color="#DC398C"/></linearGradient><linearGradient id="paint15_linear_1202_1364" x1="22.344" x2="30.333" y1="33.154" y2="28.349" gradientUnits="userSpaceOnUse"><stop stop-color="#902784"/><stop offset=".23" stop-color="#AA2D87"/><stop offset=".53" stop-color="#C5348A"/><stop offset=".79" stop-color="#D6388B"/><stop offset=".99" stop-color="#DC398C"/></linearGradient><radialGradient id="paint6_radial_1202_1364" cx="0" cy="0" r="1" gradientTransform="translate(17.596 13.357)scale(17.7736)" gradientUnits="userSpaceOnUse"><stop stop-color="#00A3DE"/><stop offset=".25" stop-color="#029AD6"/><stop offset=".66" stop-color="#0880C0"/><stop offset="1" stop-color="#0E67AB"/></radialGradient><radialGradient id="paint11_radial_1202_1364" cx="0" cy="0" r="1" gradientTransform="rotate(-120 12.74 6.153)scale(17.7736)" gradientUnits="userSpaceOnUse"><stop stop-color="#00A3DE"/><stop offset=".25" stop-color="#029AD6"/><stop offset=".66" stop-color="#0880C0"/><stop offset="1" stop-color="#0E67AB"/></radialGradient><radialGradient id="paint16_radial_1202_1364" cx="0" cy="0" r="1" gradientTransform="rotate(120 5.061 16.312)scale(17.7736)" gradientUnits="userSpaceOnUse"><stop stop-color="#00A3DE"/><stop offset=".25" stop-color="#029AD6"/><stop offset=".66" stop-color="#0880C0"/><stop offset="1" stop-color="#0E67AB"/></radialGradient><clipPath id="clip0_1202_1364"><path fill="#fff" d="M0 0h116.556v36H0z"/></clipPath></defs></svg>