<svg xmlns="http://www.w3.org/2000/svg" fill="none" viewBox="0 0 64 63" width="256" height="256" preserveAspectRatio="xMidYMid meet"><g clip-path="url(#clip0_271_33)"><path fill="#000" d="M33.356 63h-2.818a2 2 0 0 0-.219-.044c-.468-.037-.936-.064-1.403-.107a29 29 0 0 1-4.663-.788c-5.795-1.46-10.803-4.3-14.947-8.57Q1.189 45.123.44 33.502c-.013-.192-.059-.38-.09-.57V30.44c.03-.191.078-.38.09-.572q.101-1.803.413-3.584a30.2 30.2 0 0 1 3.042-8.97Q8.762 8.095 18.17 3.49C22.082 1.583 26.236.57 30.592.383c2.272-.097 4.548.05 6.788.44a30.8 30.8 0 0 1 9.058 3.033c6.127 3.196 10.753 7.867 13.826 14.026a29.8 29.8 0 0 1 3.184 12.672q.01.124.04.244v1.78a3 3 0 0 0-.04.268c-.021.416-.027.832-.054 1.245a29 29 0 0 1-.843 5.214c-1.476 5.76-4.34 10.74-8.651 14.859q-8.505 8.12-20.321 8.8-.113.012-.224.036M18.653 31.664v4.884c-.01 1.594.128 3.186.412 4.755.304 1.731.872 3.406 1.685 4.967 1.13 2.12 2.712 3.81 4.867 4.94a12.8 12.8 0 0 0 4.737 1.367c1.693.18 3.404.091 5.068-.264 3.002-.661 5.39-2.234 7.108-4.78.892-1.322 1.509-2.768 1.953-4.29.617-2.121.855-4.287.862-6.482.013-3.306 0-6.613 0-9.92a26 26 0 0 0-.46-5.056c-.34-1.722-.881-3.376-1.728-4.923-1.262-2.3-3.048-4.046-5.468-5.118a13 13 0 0 0-4.305-1.048 16 16 0 0 0-4.84.305c-2.399.55-4.447 1.697-6.088 3.536-1.165 1.307-1.984 2.812-2.58 4.445-.836 2.297-1.175 4.681-1.218 7.11-.03 1.858-.005 3.716-.005 5.572"/><path fill="#fff" d="M18.58 31.664c0-1.856-.026-3.71.006-5.57.042-2.428.38-4.812 1.217-7.109.595-1.633 1.415-3.138 2.58-4.444 1.635-1.843 3.689-2.986 6.086-3.54a16 16 0 0 1 4.84-.306c1.485.101 2.941.455 4.305 1.047 2.423 1.073 4.21 2.82 5.47 5.12.847 1.547 1.389 3.2 1.728 4.924.318 1.666.472 3.36.46 5.055 0 3.307.01 6.614 0 9.92-.01 2.195-.246 4.364-.862 6.482-.444 1.522-1.061 2.968-1.953 4.29-1.718 2.545-4.105 4.119-7.109 4.78a16.1 16.1 0 0 1-5.066.264 12.8 12.8 0 0 1-4.74-1.367c-2.152-1.13-3.737-2.818-4.865-4.94a17.2 17.2 0 0 1-1.684-4.967 25.7 25.7 0 0 1-.422-4.755v-4.884zm21.467-7.422-.05-.019-.292.337-13.551 15.792c-.555.645-1.103 1.295-1.666 1.932a.46.46 0 0 0-.118.456c.105.515.256 1.02.453 1.507.601 1.411 1.535 2.511 2.984 3.127.149.063.295.133.444.197 1.85.786 3.757 1.086 5.752.676 1.938-.397 3.431-1.406 4.428-3.118.501-.878.875-1.822 1.108-2.805.383-1.54.515-3.107.516-4.688V24.488zM23.9 35.424c.119-.085.195-.135.266-.19l11.903-9.033 3.704-2.81c.107-.082.186-.153.156-.312-.107-.558-.177-1.122-.298-1.675a10.2 10.2 0 0 0-1.26-3.23c-.922-1.496-2.226-2.483-3.943-2.908a10 10 0 0 0-5.02.026 6.2 6.2 0 0 0-3.798 2.813 9.7 9.7 0 0 0-1.039 2.343c-.485 1.622-.664 3.286-.669 4.971-.008 3.23 0 6.46 0 9.69z"/><path fill="#000" d="m39.99 24.226-.294.338-13.563 15.788c-.555.645-1.104 1.295-1.667 1.932a.46.46 0 0 0-.117.456q.159.774.453 1.507c.601 1.41 1.535 2.511 2.984 3.127.15.063.296.133.444.197 1.85.786 3.756 1.085 5.753.676 1.937-.398 3.431-1.406 4.426-3.118.502-.878.876-1.822 1.11-2.805.383-1.54.514-3.107.515-4.688V24.244zM39.778 23.39c.106-.08.185-.152.156-.31-.107-.559-.178-1.123-.297-1.676a10.2 10.2 0 0 0-1.262-3.23c-.922-1.496-2.225-2.483-3.943-2.908a10 10 0 0 0-5.014.026 6.2 6.2 0 0 0-3.798 2.813 9.7 9.7 0 0 0-1.04 2.343c-.483 1.622-.664 3.286-.668 4.971-.008 3.23 0 6.46 0 9.69v.312c.119-.085.194-.135.266-.19l11.904-9.034q1.843-1.402 3.696-2.806"/></g><defs><clipPath id="clip0_271_33"><path fill="#fff" d="M.355.354h63.133V63H.355z"/></clipPath></defs></svg>