<svg xmlns="http://www.w3.org/2000/svg" viewBox="0 0 591 591" width="256" height="256" preserveAspectRatio="xMidYMid meet"><g id="Page-1" fill="none" fill-rule="evenodd" stroke="none" stroke-width="1"><rect id="Rectangle-Copy" width="591" height="591" x="0" y="0" fill="#000" rx="295.5"/><path id="0-copy" fill="#FFF" fill-rule="nonzero" d="M296.398 493.414q29.692 0 52.757-10.062 23.064-10.063 38.971-29.526 15.908-19.463 24.39-47.93Q421 377.429 421 340.621v-90.298q0-36.809-8.484-65.275t-24.522-48.062-39.237-29.791T295.867 97q-29.428 0-52.624 10.195-23.198 10.195-39.237 29.79-16.039 19.596-24.522 48.063Q171 213.515 171 250.323v90.298q0 36.808 8.616 65.275t24.788 47.93q16.171 19.462 39.37 29.526 23.196 10.062 52.624 10.062M220.8 331.064v-91.195q0-49.959 18.435-75.996t57.162-26.036q34.218 0 52.387 19.957 18.17 19.957 22.414 58.285L296 273.571zm75.968 122.51c-22.132 0-47.312-12.926-51.788-17.427-4.477-4.5-16.05-14.178-20.196-38.778l147.41-172.879v126.339q0 49.783-18.192 76.264-18.193 26.48-57.234 26.48"/></g></svg>