<svg xmlns="http://www.w3.org/2000/svg" fill="none" viewBox="0 0 512 512" width="256" height="256" preserveAspectRatio="xMidYMid meet"><path fill="#121216" d="M0 0h512v512H0z"/><g stroke="#fff" stroke-linecap="round" stroke-linejoin="round" stroke-width="15.407" clip-path="url(#clip0_301_54)" clip-rule="evenodd"><path d="M255.997 255.763c0 24.128-13.104 45.186-32.591 56.46-9.582 5.548-20.718 8.723-32.6 8.723-36.001 0-65.183-29.182-65.183-65.183s29.182-65.183 65.183-65.183c11.882 0 23.018 3.175 32.6 8.723 19.487 11.274 32.591 32.332 32.591 56.46"/><path fill="#fff" fill-rule="evenodd" d="M288.588 199.303c-19.487 11.266-32.591 32.332-32.591 56.46 0-24.128-13.105-45.186-32.592-56.46 9.59-5.548 20.718-8.723 32.592-8.723s23.01 3.175 32.591 8.723M288.588 312.223c-9.581 5.548-20.718 8.723-32.591 8.723s-23.002-3.175-32.592-8.723c19.487-11.274 32.592-32.332 32.592-56.46 0 24.128 13.104 45.194 32.591 56.46"/><path d="M255.996 255.763c0 24.128-13.104 45.186-32.591 56.46-19.487-11.266-32.6-32.332-32.6-56.46s13.113-45.194 32.6-56.46c19.487 11.274 32.591 32.332 32.591 56.46M321.181 255.763c0 24.128-13.105 45.186-32.592 56.46-19.487-11.266-32.591-32.332-32.591-56.46s13.104-45.194 32.591-56.46c19.487 11.274 32.592 32.332 32.592 56.46"/><path d="M386.364 255.763c0 36.001-29.182 65.183-65.183 65.183-11.874 0-23.002-3.175-32.592-8.723-19.487-11.266-32.591-32.332-32.591-56.46s13.104-45.194 32.591-56.46c9.59-5.548 20.718-8.723 32.592-8.723 36.001 0 65.183 29.181 65.183 65.183"/></g><defs><clipPath id="clip0_301_54"><path fill="#fff" d="M113.771 113.778h284.458v284.444H113.771z"/></clipPath></defs></svg>