<svg xmlns="http://www.w3.org/2000/svg" viewBox="0 0 512 512" width="256" height="256" preserveAspectRatio="xMidYMid meet"><path fill="transparent" stroke="transparent" stroke-width=".25" d="M0 0h246.67c-9.05 2.08-18.62 5.98-23.94 14.02-4.94 6.81-7.24 15.59-5.99 23.93 2.99 10.63 9.51 20.91 19.67 25.9 12.85 6.63 27.74 5.15 41.7 5.85 14.87 1.72 29.37 6.13 43.07 12.08 8.84 4.07 17.93 7.69 26.22 12.83 9.09 5.81 17.83 12.14 26.5 18.56 10 7.91 12.99 21.78 11.26 33.9-1.44 5.82-4.22 11.4-8.18 15.91-5.47 5.35-12.88 8.53-20.42 9.49-13.33 1.37-26.34-4.27-36.73-12.26-12.04-9.84-26.44-16.63-41.42-20.62-10.25-1.64-20.56-3.56-30.97-3.12-13.91.06-27.38 4.08-40.38 8.67-15.99 6.73-31.12 16.15-43.03 28.87-9.31 10.88-17.64 22.88-22.48 36.46-7.56 19.49-10.39 40.68-8.62 61.47 2.16 15.96 7.74 31.39 16.12 45.12 5.66 10.76 14.1 19.75 23.16 27.73 17.38 15.14 39.37 24.38 61.95 28.3 7.88.76 15.84 2.11 23.76.83 9.89-1.04 19.98-1.95 29.26-5.79 17.78-6.1 34.56-15.69 47.78-29.17 7.09-8.05 14.14-16.31 19.18-25.85 2.7-5.59 5.58-11.7 4.27-18.08-.8-1.86-1.96-3.53-3.01-5.25-32.8-.4-65.61-.03-98.42-.19-5.66-.08-11.2-1.4-16.85-1.67.71-.21 1.43-.42 2.15-.62-5.29-1.74-10.83-3.66-14.76-7.81-6.19-6.55-10.35-15.36-10.11-24.49-.45-7.22 2.78-14.08 6.89-19.81 7.1-9.41 19.3-13.2 30.66-13.59 47.68-.02 95.36.01 143.04-.01 9.29.13 18.83-.75 27.82 2.16 2.63.9 4.94 2.63 6.52 4.92-.71 2.56.8 4.5 2.75 5.9 3.11 9.49 2.57 19.58 2.76 29.43-.14 6.54.37 13.18-1.17 19.6-3.36 16.88-7.66 33.75-15.18 49.31-8.02 18.82-19.69 35.99-33.96 50.62-10.52 10.57-21.34 21.05-33.97 29.1-10.6 7.26-22.47 12.35-34.24 17.36-11.12 4.84-22.89 7.91-34.68 10.6-8.7 2.26-17.75.28-26.54 1.71-11.63.71-24.24 3.29-32.5 12.17-5.5 6.93-9 15.61-9.67 24.44.88 7.01 3.54 13.86 7.68 19.59 3.34 4.27 8.18 6.98 13.01 9.26 3.52 1.68 7.33 2.95 11.29 2.9 9.71.17 19.42.2 29.13-.09 4.29-.02 8.45-1.28 12.75-1.24-.08-.37-.24-1.12-.32-1.5 12.65-.13 24.89-3.85 36.93-7.37 10.8-3.79 21.87-7.05 31.98-12.55 17.12-8.35 33.74-17.88 48.88-29.5 13.45-9.8 24.41-22.42 35.94-34.3 4.91-5.23 9.27-10.96 13.22-16.94 7.14-10.65 14.7-21.05 20.79-32.36a247.5 247.5 0 0 0 21.14-54.46c2.98-13.62 5.22-27.4 6.93-41.23.47-5.7-.17-11.45.71-17.12.62-4.31.63-8.7.02-13-1.05-6.92.02-13.97-1.16-20.88-.9-14.91-3.99-29.62-8.35-43.88-2.67-10.1-6.16-19.97-10.6-29.43-4.96-11.2-9.91-22.54-16.99-32.59-9.47-14-19.23-27.92-31.02-40.11-7.03-6.68-13.27-14.23-20.97-20.2-16.97-13.81-35.05-26.35-54.39-36.6-16.42-7.41-33.18-14.38-50.84-18.2-12.62-3.5-25.66-4.92-38.54-7.11H512v512H0z"/><path fill="#371779" stroke="#371779" stroke-width=".25" d="M246.67 0h26.49c12.88 2.19 25.92 3.61 38.54 7.11 17.66 3.82 34.42 10.79 50.84 18.2 19.34 10.25 37.42 22.79 54.39 36.6 7.7 5.97 13.94 13.52 20.97 20.2 11.79 12.19 21.55 26.11 31.02 40.11 7.08 10.05 12.03 21.39 16.99 32.59 4.44 9.46 7.93 19.33 10.6 29.43 4.36 14.26 7.45 28.97 8.35 43.88 1.18 6.91.11 13.96 1.16 20.88.61 4.3.6 8.69-.02 13-.88 5.67-.24 11.42-.71 17.12-1.71 13.83-3.95 27.61-6.93 41.23a247.5 247.5 0 0 1-21.14 54.46c-6.09 11.31-13.65 21.71-20.79 32.36-3.95 5.98-8.31 11.71-13.22 16.94-11.53 11.88-22.49 24.5-35.94 34.3-15.14 11.62-31.76 21.15-48.88 29.5-10.11 5.5-21.18 8.76-31.98 12.55-12.04 3.52-24.28 7.24-36.93 7.37.08.38.24 1.13.32 1.5-4.3-.04-8.46 1.22-12.75 1.24-9.71.29-19.42.26-29.13.09-3.96.05-7.77-1.22-11.29-2.9-8.11-5.08-15.18-12.34-18.07-21.65-3.55-9.28.51-19.14 5.25-27.17 3.98-6.79 11.32-10.64 18.58-12.96 9.94-2.76 20.37-2.26 30.58-2.79 10.3-.55 20.2-3.67 30.13-6.23 7.09-1.86 13.84-4.73 20.54-7.67 14.16-5.43 27.36-13.19 39.5-22.24 16.74-12.71 31.85-27.8 43.38-45.44 5-7.73 10.21-15.4 14.1-23.77 8.17-19.38 14.18-39.72 17.52-60.5 1.14-11.12.5-22.36-.81-33.43-.54-5.34-1.48-10.97-4.99-15.24a13.1 13.1 0 0 0-6.52-4.92c-8.99-2.91-18.53-2.03-27.82-2.16-47.68.02-95.36-.01-143.04.01-11.36.39-23.56 4.18-30.66 13.59-4.11 5.73-7.34 12.59-6.89 19.81-.24 9.13 3.92 17.94 10.11 24.49 3.93 4.15 9.47 6.07 14.76 7.81-.72.2-1.44.41-2.15.62 5.65.27 11.19 1.59 16.85 1.67 32.81.16 65.62-.21 98.42.19 1.05 1.72 2.21 3.39 3.01 5.25 1.31 6.38-1.57 12.49-4.27 18.08-5.04 9.54-12.09 17.8-19.18 25.85-13.22 13.48-30 23.07-47.78 29.17-9.28 3.84-19.37 4.75-29.26 5.79-7.92 1.28-15.88-.07-23.76-.83-22.58-3.92-44.57-13.16-61.95-28.3-9.06-7.98-17.5-16.97-23.16-27.73-8.38-13.73-13.96-29.16-16.12-45.12-1.77-20.79 1.06-41.98 8.62-61.47 4.84-13.58 13.17-25.58 22.48-36.46 11.91-12.72 27.04-22.14 43.03-28.87 13-4.59 26.47-8.61 40.38-8.67 10.41-.44 20.72 1.48 30.97 3.12 14.98 3.99 29.38 10.78 41.42 20.62 10.39 7.99 23.4 13.63 36.73 12.26 7.54-.96 14.95-4.14 20.42-9.49 3.96-4.51 6.74-10.09 8.18-15.91 1.73-12.12-1.26-25.99-11.26-33.9-8.67-6.42-17.41-12.75-26.5-18.56-8.29-5.14-17.38-8.76-26.22-12.83-13.7-5.95-28.2-10.36-43.07-12.08-13.96-.7-28.85.78-41.7-5.85-10.16-4.99-16.68-15.27-19.67-25.9-1.25-8.34 1.05-17.12 5.99-23.93C228.05 5.98 237.62 2.08 246.67 0Z"/><path fill="#0281d2" stroke="#0281d2" stroke-width=".25" d="M144.39 30.5c9.51-1.24 18.59 3.47 25.53 9.58 5.87 6.02 10.25 14.21 9.64 22.83.67 17.12-15.52 32.71-32.56 31.67-10.33.5-19.79-5.79-26.01-13.62-9.09-12.99-6.72-32.92 5.91-42.8 5.09-3.85 11.08-6.98 17.49-7.66ZM65.5 114.3c17.59-1.78 34 14.36 34.49 31.69-.49 6.24-1.88 12.58-5.39 17.87-5.61 9.15-16.18 14.2-26.6 15.31-9.18-.57-18.16-4.78-24.16-11.81-4.76-5.29-8.52-12-8.27-19.32-.49-9.58 3.13-19.58 10.71-25.71 5.45-4.3 11.97-8.59 19.22-8.03ZM27.41 224.4c17.28-5.05 36.44 8.32 39.83 25.54.84 7.08.76 14.71-3.29 20.89-4.69 9.16-14.06 15.72-24.33 16.68-3.52.09-7.1.29-10.59-.3-5.34-1.53-10.52-3.93-14.94-7.31-6.77-5.97-10.06-15.05-10.42-23.91.65-8.56 3.46-17.43 9.9-23.41 4.09-3.49 8.71-6.47 13.84-8.18ZM432.34 228.67c3.51 4.27 4.45 9.9 4.99 15.24 1.31 11.07 1.95 22.31.81 33.43-3.34 20.78-9.35 41.12-17.52 60.5-3.89 8.37-9.1 16.04-14.1 23.77-11.53 17.64-26.64 32.73-43.38 45.44-12.14 9.05-25.34 16.81-39.5 22.24-6.7 2.94-13.45 5.81-20.54 7.67-9.93 2.56-19.83 5.68-30.13 6.23-10.21.53-20.64.03-30.58 2.79-7.26 2.32-14.6 6.17-18.58 12.96-4.74 8.03-8.8 17.89-5.25 27.17 2.89 9.31 9.96 16.57 18.07 21.65-4.83-2.28-9.67-4.99-13.01-9.26-4.14-5.73-6.8-12.58-7.68-19.59.67-8.83 4.17-17.51 9.67-24.44 8.26-8.88 20.87-11.46 32.5-12.17 8.79-1.43 17.84.55 26.54-1.71 11.79-2.69 23.56-5.76 34.68-10.6 11.77-5.01 23.64-10.1 34.24-17.36 12.63-8.05 23.45-18.53 33.97-29.1 14.27-14.63 25.94-31.8 33.96-50.62 7.52-15.56 11.82-32.43 15.18-49.31 1.54-6.42 1.03-13.06 1.17-19.6-.19-9.85.35-19.94-2.76-29.43-1.95-1.4-3.46-3.34-2.75-5.9ZM62.37 332.55c3.92-.21 7.93-.45 11.8.32 10.95 3.34 20.51 11.63 24.36 22.55 1.26 3.03.99 6.37 1.06 9.58 1.3 17.01-14.84 32.32-31.59 31.57-14.15.62-26.95-10.08-31.22-23.17-.61-3.44-.33-6.97-.39-10.44-.52-14.81 12.22-27.24 25.98-30.41ZM139.35 417.34c15.68-4.29 32.88 6.07 38.16 21.07 6.97 16.32-4.21 37.02-21.46 40.69-8.27 2.91-17.23.6-24.74-3.32-8.16-4.41-13.72-12.78-15.6-21.76-.95-8.02.58-16.49 4.99-23.31 4.6-6.25 11.05-11.4 18.65-13.37Z"/></svg>