<svg xmlns="http://www.w3.org/2000/svg" fill="none" class="h-6 w-[150px]" viewBox="0 0 30 30" width="256" height="256" preserveAspectRatio="xMidYMid meet"><path fill="#000" d="M28.613.504a13.554 13.554 0 0 1-2.891 8.385c-.645.843-1.434 1.557-2.175 2.311q-6.708 6.708-13.415 13.418a6.93 6.93 0 0 0-2.031 4.879q-3.359.003-6.714-.001.005-.385.021-.768a13.57 13.57 0 0 1 3.806-8.69q7.322-7.322 14.645-14.647A6.94 6.94 0 0 0 21.898.504q3.358-.005 6.715 0M27.734 26.35c.244 1.03.362 2.087.366 3.145-2.238.005-4.478-.006-6.716.005a6.94 6.94 0 0 0-1.189-3.864c-.898-1.34-2.282-2.329-3.826-2.78 1.693-1.687 3.377-3.38 5.07-5.066 3.138 1.85 5.47 5.01 6.295 8.56M12.602 7.14c-1.69 1.688-3.376 3.38-5.07 5.067a13.67 13.67 0 0 1-5.946-7.342A13.8 13.8 0 0 1 .87.502C3.11.5 5.348.502 7.588.5a6.93 6.93 0 0 0 1.53 4.325 7 7 0 0 0 3.484 2.315M11.126.5c-.006.49.096.98.317 1.428.67 1.511 2.548 2.32 4.107 1.76 1.36-.42 2.297-1.79 2.3-3.188zM17.851 29.496c.002-.31-.041-.62-.135-.922a3.3 3.3 0 0 0-.59-1.155c-.979-1.3-2.944-1.673-4.334-.826-1.037.576-1.654 1.738-1.666 2.903z"/></svg>