<svg xmlns="http://www.w3.org/2000/svg" fill="none" viewBox="0 0 513 513" width="256" height="256" preserveAspectRatio="xMidYMid meet"><path fill="#F25D00" d="M256.954 512.454c141.385 0 256-114.615 256-256s-114.615-256-256-256-256 114.615-256 256 114.615 256 256 256"/><path fill="#fff" d="M160.763 203.097v78.054a4.864 4.864 0 0 0 4.864 4.864h78.054a4.864 4.864 0 0 0 4.864-4.864v-78.054a4.864 4.864 0 0 0-4.864-4.864h-78.054a4.863 4.863 0 0 0-4.864 4.864M160.792 312.791v78.054a4.864 4.864 0 0 0 4.865 4.864h78.054a4.864 4.864 0 0 0 4.864-4.864v-78.054a4.864 4.864 0 0 0-4.864-4.864h-78.054a4.865 4.865 0 0 0-4.865 4.864M270.476 312.798v78.055a4.864 4.864 0 0 0 4.864 4.864h78.054a4.864 4.864 0 0 0 4.864-4.864v-78.055a4.864 4.864 0 0 0-4.864-4.864H275.34a4.864 4.864 0 0 0-4.864 4.864M270.476 203.071v78.055a4.864 4.864 0 0 0 4.864 4.864h78.054a4.864 4.864 0 0 0 4.864-4.864v-78.055a4.864 4.864 0 0 0-4.864-4.864H275.34a4.864 4.864 0 0 0-4.864 4.864M243.681 88.515h-78.054a4.864 4.864 0 0 0-4.864 4.864v78.055a4.864 4.864 0 0 0 4.864 4.864h78.054a4.864 4.864 0 0 0 4.864-4.864V93.379a4.864 4.864 0 0 0-4.864-4.864"/></svg>