<svg xmlns="http://www.w3.org/2000/svg" viewBox="0 0 2500 2500" width="256" height="256" preserveAspectRatio="xMidYMid meet"><path fill="#3ab83a" d="M478.5 1361.45c271.87 144.38 555.56 295.51 774.67 412.45l768.33-412.45c-278.2 413.29-510 757.36-768.33 1138.15-258.79-379.95-544.59-799.2-774.67-1138.15m29.55-114 745.96-398.05 736.25 395.14-735.83 398.49Zm745.12-525.58L478.5 1129.68 1249.79.4l771.71 1131.81z"/><path fill="#0b8311" d="m1253.17 1773.9 768.33-412.45c-278.2 413.29-768.33 1138.15-768.33 1138.15Zm.84-924.5 736.25 395.14-735.83 398.49zm-.84-127.5L1249.79.4l771.71 1131.81Z"/><path fill="#0b8311" d="m508.05 1247.46 746 61.22 736.25-63.75-735.87 398.52Z"/><path fill="#146714" d="m1254.01 1308.68 736.25-63.75-735.83 398.52z"/></svg>