<svg xmlns="http://www.w3.org/2000/svg" id="Treasure_x5F_Mainnet_x5F_Icon" version="1.1" viewBox="0 0 24 24" width="256" height="256" preserveAspectRatio="xMidYMid meet"><defs><style>.st1{fill:#fffdf7}</style></defs><path id="Background" d="M12 21.6c5.302 0 9.6-4.298 9.6-9.6S17.302 2.4 12 2.4 2.4 6.698 2.4 12s4.298 9.6 9.6 9.6" style="fill:#fef5df"/><g id="Logomark"><path d="M6.58 9.439v5.125c0 .848.451 1.631 1.182 2.052l3.366 1.95a1.74 1.74 0 0 0 1.746 0l3.366-1.95a2.38 2.38 0 0 0 1.181-2.052V9.439c0-.848-.451-1.631-1.181-2.052l-3.366-1.952a1.74 1.74 0 0 0-1.746 0l-3.366 1.95A2.38 2.38 0 0 0 6.58 9.441Z" style="fill:#dc2626"/><path d="m16.11 11.866-1.236-.422a1.35 1.35 0 0 1-.887-1.011l-.523-2.588c-.013-.066-.07-.114-.138-.114s-.126.047-.139.114l-.522 2.588a1.35 1.35 0 0 1-.887 1.011l-1.236.422c-.058.018-.094.074-.094.134s.039.114.094.134l1.236.422c.454.155.793.54.887 1.011l.522 2.588a.141.141 0 0 0 .277 0l.523-2.588c.094-.471.433-.856.887-1.011l1.236-.422c.058-.018.094-.074.094-.134s-.039-.114-.094-.134M9.457 9.492l.436.147c.16.055.282.19.313.358l.184.915a.05.05 0 0 0 .05.039.05.05 0 0 0 .05-.039l.184-.915a.48.48 0 0 1 .315-.358l.436-.147q.033-.014.034-.047c.001-.033-.013-.039-.034-.047l-.436-.147a.48.48 0 0 1-.315-.358l-.184-.915c-.005-.024-.026-.039-.05-.039s-.045.016-.05.039l-.184.915a.48.48 0 0 1-.313.358l-.436.147q-.033.014-.034.047c-.001.033.013.039.034.047M10.475 13.981l-.586-.198a.64.64 0 0 1-.42-.479l-.246-1.225a.066.066 0 0 0-.066-.053c-.032 0-.061.021-.066.053l-.247 1.225a.64.64 0 0 1-.42.479l-.585.198c-.027.008-.045.034-.045.063s.018.055.045.063l.585.198a.64.64 0 0 1 .42.479l.247 1.225c.005.032.034.053.066.053.031 0 .057-.024.066-.053l.246-1.225a.64.64 0 0 1 .42-.479l.586-.198c.026-.008.045-.034.045-.063s-.019-.055-.045-.063" class="st1"/></g></svg>