<svg xmlns="http://www.w3.org/2000/svg" fill="none" viewBox="0 0 116 99" width="256" height="256" preserveAspectRatio="xMidYMid meet"><path fill="#191919" d="M12.75 80.058c.938 0 1.742.335 2.38.972.636.637 1.038 1.508 1.206 2.58l7.173-2.312c-.805-2.48-2.146-4.424-3.989-5.765q-2.765-2.01-6.737-2.011c-1.71 0-3.285.335-4.76.938a11.4 11.4 0 0 0-3.82 2.682 11.1 11.1 0 0 0-2.414 3.955 14.6 14.6 0 0 0-.804 4.86c0 1.743.268 3.352.804 4.86.537 1.542 1.341 2.849 2.414 3.955a10.55 10.55 0 0 0 3.82 2.681c1.475.637 3.05.939 4.76.939q3.972 0 6.737-2.011c1.843-1.34 3.184-3.251 3.989-5.765l-7.173-2.313q-.252 1.66-1.207 2.615c-.637.636-1.441.938-2.38.938q-1.91 0-3.016-1.609c-.737-1.072-1.106-2.48-1.106-4.29 0-1.776.369-3.218 1.106-4.29q1.106-1.61 3.016-1.61M41.374 82.672h-7.106v-8.748H26.66V97.99h7.608v-8.95h7.106v8.95h7.608V73.924h-7.608zM52.127 97.99h7.508l1.274-3.821h7.977l1.274 3.82h7.742l-8.48-24.065h-8.815zm14.748-9.787H62.92l1.977-5.866zM81.05 73.924V97.99h7.61V73.924zM107.742 73.916v11.396l-7.709-11.396h-7.374v24.066h7.273V85.748l8.514 12.233h6.569V73.917zM65.952 18.925H50.064c-.675 0-1.223.547-1.223 1.222v15.89c0 .674.547 1.221 1.222 1.221h15.89c.674 0 1.222-.547 1.222-1.222V20.147c0-.675-.548-1.222-1.223-1.222M47.61.593H31.722c-.675 0-1.223.547-1.223 1.222v15.89c0 .674.548 1.221 1.223 1.221H47.61c.675 0 1.223-.547 1.223-1.222V1.815c0-.675-.547-1.222-1.223-1.222M84.279.593H68.39c-.675 0-1.222.547-1.222 1.222v15.889c0 .675.547 1.222 1.222 1.222H84.28c.675 0 1.222-.547 1.222-1.222V1.815c0-.675-.547-1.222-1.222-1.222M47.61 37.258H31.721c-.675 0-1.222.548-1.222 1.223v15.888c0 .675.547 1.223 1.222 1.223h15.89c.674 0 1.221-.548 1.221-1.223V38.481c0-.675-.547-1.223-1.222-1.223M84.279 37.258H68.39c-.675 0-1.222.548-1.222 1.223v15.888c0 .675.547 1.223 1.222 1.223H84.28c.675 0 1.222-.548 1.222-1.223V38.481c0-.675-.547-1.223-1.222-1.223"/></svg>