<svg xmlns="http://www.w3.org/2000/svg" fill="none" viewBox="0 0 500 500" width="256" height="256" preserveAspectRatio="xMidYMid meet"><path fill="#000" d="M384.615 0H89.972L9.615 163.043h76.901l41.475-87.233h220.334zM484.618 170.234 397.015 2.454l-38.191 80.84 47.566 89.24-110.175 235.839 40.972 79.605zM163.289 489.239 7.521 176.652l78.875-1.351 114.795 231.721 87.738-1.502 40.085 80.882z"/><path fill="#000" d="m354.175 97.826 40.056 74.31-13.061 23.516s-3.484-10.346-8.708-16.932c-5.224-6.584-18.287-11.287-18.287-11.287H183.502c-9.579-17.872-13.013-21.635-19.156-38.566-6.145-16.931 21.768-29.16 21.768-29.16z"/><path fill="#000" d="M294.615 391.304h-80.786l-11.906-26.855s10.15 1.813 17.858 0 17.008-10.742 17.008-10.742l85.04-179.393c18.67-.005 24.291-1.579 40.545 1.546 16.253 3.124 12.169 39.922 12.169 39.922z"/><path fill="#000" d="m96.154 178.254 44.015-80.428h30.298s-7.663 6.543-10.416 15.7c-2.752 9.158-2.84 20.935-2.84 20.935L250 312.399c-10.051 20.114-12.976 24.362-24.141 40.399-11.165 16.036-37.353-5.709-37.353-5.709z"/></svg>