<svg xmlns="http://www.w3.org/2000/svg" fill="none" viewBox="0 0 57 57" width="256" height="256" preserveAspectRatio="xMidYMid meet"><path fill="#FFA723" fill-rule="evenodd" d="M21.916 25.013c.775 1.669-.405 3.672-2.323 3.672-1.107 0-2.545-.89-2.545-2.596 0-3.636-1.07-5.379-2.287-5.861 0 7.345-5.016 10.053-5.016 18.399s4.942 14.801 11.913 17.583a10.55 10.55 0 0 1-3.614-7.975c0-9.719 12.429-12.168 7.856-22.369 1.807 2.411 5.053 14.022 1.254 21.664 2.323-1.224 6.159-5.453 7.598-7.642-1.844 10.165.332 9.386 2.286 8.644.738-.297 1.476-.594 1.918-.26.849.556-1.401 6.047-3.614 7.976a18.87 18.87 0 0 0 11.913-17.584c0-17.806-22.093-18.696-16.007-37.912-5.902 2.708-15.012 11.797-9.332 24.261" clip-rule="evenodd"/></svg>