<svg xmlns="http://www.w3.org/2000/svg" fill="none" viewBox="0 0 37 37" width="256" height="256" preserveAspectRatio="xMidYMid meet"><path fill="url(#paint0_linear_1_73)" d="m26.914 21.41 7.604-11.24a.57.57 0 0 0-.428-.87L19.082 7.705z" transform="translate(1.165 .077)"/><path fill="#fff" d="m35.228 14.263-5.368 8.819 5.525 3.305a.285.285 0 0 0 .441-.242v-11.74a.31.31 0 0 0-.347-.374.31.31 0 0 0-.25.232M34.458 6.456 20.432.131a.57.57 0 0 0-.811.527v4.73l14.666 1.61a.285.285 0 0 0 .171-.542M28.592 25.048l-5.696 10.3a.584.584 0 0 0 .769.812l10.879-7.123a.285.285 0 0 0 0-.485z"/><path fill="url(#paint1_linear_1_73)" d="M17.302 24.159H9.428l6.892 12.138a1.153 1.153 0 0 0 1.965 0l6.892-12.138z" transform="translate(1.165 .077)"/><path fill="#fff" d="m1.608 26.387 5.468-3.32-5.369-8.804a.299.299 0 0 0-.54.157v11.725a.285.285 0 0 0 .44.242M8.344 25.048 2.463 28.51a.284.284 0 0 0 0 .484l10.879 7.123a.584.584 0 0 0 .769-.812l-5.696-10.3zM2.647 6.998l14.667-1.61V.658a.57.57 0 0 0-.812-.527L2.476 6.456a.285.285 0 0 0 .171.542"/><path fill="url(#paint2_linear_1_73)" d="m7.69 21.41 7.832-13.705L.514 9.3a.57.57 0 0 0-.428.87z" transform="translate(1.165 .077)"/><defs><linearGradient id="paint0_linear_1_73" x1="26.843" x2="26.843" y1="21.41" y2="7.705" gradientUnits="userSpaceOnUse"><stop stop-color="#AFB0B1"/><stop offset="1" stop-color="#9B9C9E"/></linearGradient><linearGradient id="paint1_linear_1_73" x1="17.302" x2="17.302" y1="36.846" y2="24.159" gradientUnits="userSpaceOnUse"><stop stop-color="#AFB0B1"/><stop offset="1" stop-color="#9B9C9E"/></linearGradient><linearGradient id="paint2_linear_1_73" x1="7.761" x2="7.761" y1="21.41" y2="7.705" gradientUnits="userSpaceOnUse"><stop stop-color="#AFB0B1"/><stop offset="1" stop-color="#9B9C9E"/></linearGradient></defs></svg>