<svg xmlns="http://www.w3.org/2000/svg" fill="none" class="logo" viewBox="0 0 34 34" width="256" height="256" preserveAspectRatio="xMidYMid meet"><path fill="#F90" d="m21.695 14.124 1.356 1.361 1.355 1.361-5.976 5.996a97 97 0 0 1-1.585 1.572c-.635.613-1.05.969-1.407 1.181a5.69 5.69 0 0 1-5.814 0c-.592-.352-1.491-.95-3.14-2.601s-2.244-2.557-2.591-3.152a5.75 5.75 0 0 1 0-5.835c.352-.596 1.094-1.353 2.743-3.005l5.234-5.261H8.206L4.798 9.158c-1.854 1.865-2.627 2.656-3.139 3.522a8.35 8.35 0 0 0 0 8.488c.512.867 1.14 1.804 2.992 3.666s2.793 2.489 3.65 3.004a8.27 8.27 0 0 0 8.345.062l.111-.062c.565-.336 1.098-.786 1.92-1.579.432-.416.944-.936 1.585-1.573l4.62-4.638c.905-.91 1.166-1.171 1.384-1.718a4.2 4.2 0 0 0 .034-3.007c-.208-.554-.459-.821-1.348-1.75-.925-.888-1.192-1.145-1.742-1.353a4.15 4.15 0 0 0-2.994.033c-.547.22-.807.481-1.713 1.39l-6.188 6.219-1.356-1.361-1.357-1.361 5.973-5.996c.655-.656 1.166-1.17 1.586-1.572.634-.612 1.05-.968 1.406-1.18a5.69 5.69 0 0 1 5.815 0c.591.35 1.417 1.024 3.065 2.679 1.648 1.656 2.317 2.484 2.669 3.081a5.74 5.74 0 0 1 0 5.838c-.352.593-1.093 1.353-2.742 3.004l-5.244 5.265h3.664l3.408-3.421c1.854-1.862 2.627-2.652 3.139-3.518a8.35 8.35 0 0 0 0-8.489c-.512-.866-1.209-1.728-3.066-3.591-1.856-1.862-2.714-2.564-3.576-3.078a8.27 8.27 0 0 0-8.346-.062l-.111.062c-.564.332-1.092.782-1.921 1.575-.433.416-.944.93-1.585 1.573l-4.609 4.634c-.906.904-1.165 1.165-1.384 1.714a4.2 4.2 0 0 0-.035 3.007c.208.552.461.82 1.348 1.75.926.887 1.193 1.144 1.744 1.352.968.362 2.035.35 2.994-.034.546-.219.807-.481 1.711-1.39z"/></svg>