<svg xmlns="http://www.w3.org/2000/svg" fill="none" viewBox="0 0 20 20" width="256" height="256" preserveAspectRatio="xMidYMid meet"><path fill-rule="evenodd" d="M20 10c0 5.523-4.477 10-10 10S0 15.523 0 10 4.477 0 10 0s10 4.477 10 10m-10 8.167a8.168 8.168 0 1 1 1.554-16.186c.226.044.178.375-.051.402C7.734 2.815 4.667 6.078 4.667 10s3.067 7.185 6.836 7.617c.229.027.277.359.051.402a8 8 0 0 1-1.554.148m5.885-11.318c.17.065.142.306-.027.376a3 3 0 0 0 0 5.55c.169.07.197.311.027.377a3.378 3.378 0 1 1 0-6.303M9.333 10a5.335 5.335 0 0 1 4.321-5.237c.212-.041.253-.343.043-.394a5.793 5.793 0 1 0 0 11.262c.21-.051.169-.353-.043-.394A5.335 5.335 0 0 1 9.333 10m7.667.8a.8.8 0 1 1 0-1.6.8.8 0 0 1 0 1.6" clip-rule="evenodd" style="fill:#614dfe"/></svg>