<svg xmlns="http://www.w3.org/2000/svg" fill="none" viewBox="0 0 34 33" width="256" height="256" preserveAspectRatio="xMidYMid meet"><mask id="mask0_5ihsmt" width="27" height="26" x="7" y="7" mask-type="luminance" maskUnits="userSpaceOnUse"><path fill="#fff" d="m30.235 7.691-2.637 4.053A11.5 11.5 0 0 1 28.862 17c0 6.431-5.254 11.644-11.735 11.644-1.905 0-3.702-.453-5.291-1.251l-4.086 2.62A16.13 16.13 0 0 0 17.127 33c8.905 0 16.126-7.163 16.126-16 0-3.474-1.121-6.688-3.017-9.311z"/></mask><g mask="url(#mask0_5ihsmt)"><path fill="#100B1B" d="m19.513-4.926-24.48 26.25 26.456 24.29 24.48-26.25z"/></g><mask id="mask1_5ihsmt" width="16" height="8" x="10" y="18" mask-type="luminance" maskUnits="userSpaceOnUse"><path fill="#fff" d="M10.407 21.466a8.11 8.11 0 0 0 6.72 3.548c3.97 0 7.27-2.835 7.962-6.575a18.7 18.7 0 0 0-3.894-.41 18.55 18.55 0 0 0-10.788 3.437"/></mask><g mask="url(#mask1_5ihsmt)"><path fill="#100B1B" d="M17.179 10.766 6.897 21.791l11.42 10.484 10.28-11.025z"/></g><path fill="#100B1B" d="M21.118 16.566c1.41 0 2.783.154 4.108.437v-.002c0-4.439-3.627-8.038-8.1-8.038s-8.099 3.6-8.099 8.038q.001.546.074 1.074l-.002.001c-2.04 1.538-3.007 2.755-3.037 2.794A11.5 11.5 0 0 1 5.39 17c0-6.43 5.255-11.644 11.736-11.644 1.898 0 3.689.45 5.275 1.243l4.089-2.621A16.14 16.14 0 0 0 17.126 1C8.22 1 1 8.164 1 17c0 3.558 1.171 6.841 3.15 9.497a19.3 19.3 0 0 1 2.758-3.774s1.59-1.647 2.81-2.475a19.4 19.4 0 0 1 11.4-3.682"/><path stroke="#100B1B" stroke-miterlimit="10" stroke-width=".226" d="M21.118 16.566c1.41 0 2.783.154 4.108.437v-.002c0-4.439-3.627-8.038-8.1-8.038s-8.099 3.6-8.099 8.038q.001.546.074 1.074l-.002.001c-2.04 1.538-3.007 2.755-3.037 2.794A11.5 11.5 0 0 1 5.39 17c0-6.43 5.255-11.644 11.736-11.644 1.898 0 3.689.45 5.275 1.243l4.089-2.621A16.14 16.14 0 0 0 17.126 1C8.22 1 1 8.164 1 17c0 3.558 1.171 6.841 3.15 9.497a19.3 19.3 0 0 1 2.758-3.774s1.59-1.647 2.81-2.475a19.4 19.4 0 0 1 11.4-3.682Z"/></svg>