<svg xmlns="http://www.w3.org/2000/svg" style="isolation:isolate" viewBox="0 0 170 170" width="256" height="256" preserveAspectRatio="xMidYMid meet"><defs><clipPath id="_clipPath_0tCpY4x2w3uQ7PmcVLtsyRrFCWNZ9YXn"><path d="M0 0h425.488v148.136H0z"/></clipPath></defs><g clip-path="url(#_clipPath_0tCpY4x2w3uQ7PmcVLtsyRrFCWNZ9YXn)" transform="translate(2.479 10.932)"><clipPath id="_clipPath_m7Uu0Nhgnr5SS8lXYbhZabxtktBDo1z9"><path fill="#FFF" d="M0 0v148.136h425.488V0z"/></clipPath><g fill="#1D2C5E" fill-rule="evenodd" clip-path="url(#_clipPath_m7Uu0Nhgnr5SS8lXYbhZabxtktBDo1z9)"><path d="M82.522 0c31.2 0 57.892 19.293 68.803 46.599l-12.675 4.038c-9.175-21.952-30.849-37.379-56.128-37.379-33.585 0-60.81 27.225-60.81 60.81q.001.624.016 1.246L9.325 85.457a74.5 74.5 0 0 1-.871-11.389C8.454 33.162 41.615 0 82.522 0m73.534 65.179c.349 2.915.533 5.88.533 8.889 0 40.907-33.161 74.068-74.067 74.068-29.789 0-55.465-17.587-67.225-42.942l11.851-5.963c9.57 21.028 30.764 35.647 55.374 35.647 33.584 0 60.809-27.226 60.809-60.81q-.001-.935-.031-1.863z"/><path d="M0 103.695 72.451 44.44l-3.006 24.635 42.28-23.959-2.144 23.402 55.461-17.667L89.82 92.283l5.617-23.575-43.456 25.468 2.873-18.082z"/></g></g></svg>