<svg xmlns="http://www.w3.org/2000/svg" fill="none" viewBox="0 0 60 60" width="256" height="256" preserveAspectRatio="xMidYMid meet"><path fill="#34C88A" d="M4.557 4.086V26.48c0 .765.61 1.384 1.362 1.38l10.015-.045c1.042-.005 1.689-1.153 1.169-2.07l-1.298-2.289a2.015 2.015 0 0 0-2.78-.757l-.137.081a1.993 1.993 0 0 1-2.747-.749 2.08 2.08 0 0 1-.166-1.672l2.083-6.345a2.03 2.03 0 0 1 2.335-1.373l6.447 1.334a2.01 2.01 0 0 1 1.34.982c.556.98.226 2.23-.735 2.795l-.138.081a2.09 2.09 0 0 0-.745 2.828l1.279 2.254c.52.918 1.82.921 2.346.005l5.006-8.735a1.394 1.394 0 0 0-.493-1.89L9.643 1.096c-2.26-1.328-5.086.332-5.086 2.99M53.758 27.033 34.7 15.836a1.343 1.343 0 0 0-1.856.51l-4.968 8.85c-.517.92.136 2.064 1.177 2.064h3.274c.75 0 1.357-.618 1.357-1.38v-1.518c0-.763.607-1.38 1.356-1.38h.949c.389 0 .758.17 1.016.465l4.95 5.69c.456.522.456 1.307.002 1.83l-4.952 5.697a1.35 1.35 0 0 1-1.016.465h-.95a1.37 1.37 0 0 1-1.355-1.38v-1.518c0-.762-.607-1.38-1.357-1.38h-3.235c-1.041 0-1.694 1.144-1.178 2.065l4.93 8.78a1.343 1.343 0 0 0 1.856.51L53.758 33.01c2.26-1.328 2.26-4.648 0-5.976"/><path fill="#163F59" d="M9.634 58.902 28.69 47.705c.65-.382.872-1.23.493-1.89l-5.046-8.804a1.344 1.344 0 0 0-2.346.005l-1.637 2.885a1.393 1.393 0 0 0 .496 1.886l1.292.76c.649.38.87 1.224.497 1.885l-.475.836a1.36 1.36 0 0 1-.904.663l-7.317 1.518a1.353 1.353 0 0 1-1.558-.914l-2.372-7.213a1.4 1.4 0 0 1 .11-1.128l.476-.836a1.344 1.344 0 0 1 1.853-.506l1.292.76a1.34 1.34 0 0 0 1.852-.506l1.618-2.85c.52-.919-.127-2.067-1.168-2.07l-9.937-.047a1.37 1.37 0 0 0-1.363 1.381v22.394c0 2.656 2.826 4.316 5.087 2.988"/></svg>