<svg xmlns="http://www.w3.org/2000/svg" fill="none" viewBox="0 0 512 512" width="256" height="256" preserveAspectRatio="xMidYMid meet"><path fill="#F9F5EF" d="M0 0h512v512H0z"/><path fill="#FD4C00" d="M317.076 365.568c-14.299 0-26.773-7.577-35.089-12.77-9.25-5.363-17.355-10.344-26.816-10.344-9.462 0-17.524 4.981-26.816 10.515-14.172 8.512-40.521 24.517-67.167-2.214-26.647-26.733-10.735-53.209-2.207-67.17 5.643-9.323 10.481-17.411 10.481-26.903s-4.838-17.58-10.481-26.903c-8.486-14.217-24.44-40.65 2.207-67.383 26.646-26.731 52.995-10.769 67.167-2.256 9.292 5.662 17.312 10.515 26.816 10.515s17.566-5.024 26.816-10.515c14.129-8.513 40.478-24.688 67.124 2.043 25.84 25.967 9.25 52.23.34 66.32-7.426 11.748-10.735 18.006-8.996 24.859a108 108 0 0 0 13.197 29.456c9.335 15.878 23.379 39.885-4.541 68.107a44.6 44.6 0 0 1-14.516 10.627 44.5 44.5 0 0 1-17.519 4.016m-61.905-65.68c21.215 0 37.169 9.619 48.752 16.643a67.4 67.4 0 0 0 12.348 6.47 16 16 0 0 0 2.884-2.342 23.3 23.3 0 0 0 3.947-4.851 72.4 72.4 0 0 0-5.984-11.409 149.6 149.6 0 0 1-17.777-40.651c-6.365-25.285 6.11-44.993 14.341-58.018a75.5 75.5 0 0 0 6.704-12.047 13 13 0 0 0-1.231-1.404 17.3 17.3 0 0 0-2.884-2.384 67.8 67.8 0 0 0-12.348 6.512c-11.583 7.024-27.452 16.644-48.752 16.644s-37.17-9.62-48.753-16.644a68 68 0 0 0-12.346-6.47 19.4 19.4 0 0 0-5.262 5.278 68.3 68.3 0 0 0 6.491 12.388c7.001 11.62 16.591 27.54 16.591 48.909 0 21.368-9.59 37.288-16.591 48.909a68 68 0 0 0-6.491 12.217 17.3 17.3 0 0 0 2.376 2.894c.859.9 1.829 1.687 2.886 2.341a67.5 67.5 0 0 0 12.346-6.469c11.583-6.897 27.452-16.516 48.753-16.516"/></svg>