<svg xmlns="http://www.w3.org/2000/svg" id="Layer_1" data-name="Layer 1" viewBox="0 0 230 230" width="256" height="256" preserveAspectRatio="xMidYMid meet"><defs><linearGradient id="linear-gradient" x1="25.01" x2="287.35" y1="106.83" y2="112.53" gradientUnits="userSpaceOnUse"><stop offset="0" stop-color="#12c781"/><stop offset=".5" stop-color="#63e9da"/><stop offset="1" stop-color="#09a9cb"/></linearGradient><linearGradient id="linear-gradient-2" x1="24.99" x2="287.33" y1="107.85" y2="113.55" href="#linear-gradient"/><linearGradient id="linear-gradient-3" x1="25.06" x2="287.39" y1="104.79" y2="110.49" href="#linear-gradient"/><linearGradient id="linear-gradient-4" x1="25.04" x2="287.37" y1="105.81" y2="111.52" href="#linear-gradient"/><linearGradient id="linear-gradient-5" x1="25.08" x2="287.42" y1="103.77" y2="109.47" href="#linear-gradient"/></defs><path d="M102.81 108.6a135.5 135.5 0 0 1 7.12-44 16 16 0 1 0-30.63-6.36 15.7 15.7 0 0 0 1.33 6.37 135.4 135.4 0 0 1 7.12 43.5 135.8 135.8 0 0 1-7.12 44 16 16 0 0 0 14.64 22.35 16 16 0 0 0 14.65-22.35 135.6 135.6 0 0 1-7.11-43.51" style="fill:url(#linear-gradient)" transform="translate(-27.205 6.639)"/><path d="M48.2 92.38a16 16 0 1 0 16 16 16 16 0 0 0-16-16" style="fill:url(#linear-gradient-2)" transform="translate(-27.205 6.639)"/><path d="M189.14 42.26a16 16 0 0 0-14.65 22.35 138 138 0 0 1 0 87.49 16 16 0 1 0 30.62 6.38 15.8 15.8 0 0 0-1.33-6.38 137.94 137.94 0 0 1 0-87.49 16 16 0 0 0-14.64-22.35" style="fill:url(#linear-gradient-3)" transform="translate(-27.205 6.639)"/><path d="m156.72 131-.09-.12a15.9 15.9 0 0 0-3.17-4.66c-3.87-5.65-7.71-11.69-7.69-18s3.82-12.1 7.63-17.66a16.2 16.2 0 0 0 3.25-4.74l.06-.1a16 16 0 1 0-29.26 0l.1.14a15.8 15.8 0 0 0 3.15 4.63c3.88 5.65 7.72 11.7 7.7 18s-3.81 12.11-7.63 17.66a15.9 15.9 0 0 0-3.24 4.73l-.07.11a16 16 0 1 0 29.26 0Z" style="fill:url(#linear-gradient-4)" transform="translate(-27.205 6.639)"/><path d="M236.21 92.38a16 16 0 1 0 16 16 16 16 0 0 0-16-16" style="fill:url(#linear-gradient-5)" transform="translate(-27.205 6.639)"/></svg>