<svg xmlns="http://www.w3.org/2000/svg" fill="none" viewBox="0 0 48 48" width="256" height="256" preserveAspectRatio="xMidYMid meet"><path fill="#00BFFF" fill-rule="evenodd" d="M28.871 46.815c0 .657.603 1.15 1.236.981C40.404 45.062 48 35.576 48 24.295 48 10.877 37.255 0 24 0S0 10.877 0 24.295c0 11.54 7.95 21.202 18.608 23.68.625.145 1.206-.345 1.206-.99v-5.756c0-.465-.309-.87-.749-1.014q-5.063-1.65-8.19-5.848-3.332-4.503-3.332-10.437 0-7.839 5.819-12.843 4.833-4.146 11.004-4.146 7.954 0 12.835 5.838 3.942 4.718 3.942 10.89 0 6.051-3.496 10.84-2.932 4.046-8.028 5.706c-.44.143-.748.548-.748 1.013zm-.305-19.227c0-.572-.462-1.037-1.032-1.037h-6.359c-.57 0-1.032.465-1.032 1.037v.394c0 .88-.992 1.315-1.488.59q-1.328-1.944-1.328-4.594 0-3.026 2.089-5.242t4.95-2.216q2.84 0 4.928 2.216t2.088 5.242q0 2.57-1.312 4.53c-.494.737-1.504.305-1.504-.584z" clip-rule="evenodd"/></svg>