<svg xmlns="http://www.w3.org/2000/svg" fill="none" viewBox="0 0 48 48" width="256" height="256" preserveAspectRatio="xMidYMid meet"><path fill="#FF4D6A" fill-rule="evenodd" d="M26.259 40.25a1.1 1.1 0 0 0-.906-.349c-.425 0-.862.055-1.298.055a15.992 15.992 0 1 1 15.153-11.008 1.1 1.1 0 0 0 0 .786l3.622 7.789a.546.546 0 0 0 .938.087 24 24 0 1 0-12.6 9.295.546.546 0 0 0 .24-.884l-5.15-5.77Z" clip-rule="evenodd"/><path fill="#FF4D6A" fill-rule="evenodd" d="m33.742 26.756-3.371 4.287a.96.96 0 0 1-.502.327L24.6 32.723h-.131a.2.2 0 0 1 0-.065.14.14 0 0 1 0-.066l1.691-6.414a.74.74 0 0 1 .338-.47.77.77 0 0 1 .557-.12l6.6.96h.065a.1.1 0 0 1 0 .055.14.14 0 0 1 0 .066.1.1 0 0 1 .022.087m-8.727 7.702 5.89-1.55a.9.9 0 0 0 .502-.327l3.753-4.756h.131l6.982 15.01c.076.18.106.375.087.568a1.1 1.1 0 0 1-.218.535l-1.702 2.389a.86.86 0 0 1-.425.283l-2.902.775a1.1 1.1 0 0 1-.578 0 1.1 1.1 0 0 1-.491-.317L24.927 34.665v-.055a.07.07 0 0 1 0-.065.06.06 0 0 1 0-.055z" clip-rule="evenodd"/></svg>