<svg xmlns="http://www.w3.org/2000/svg" fill="none" color="#0CB6B8" viewBox="0 0 48 48" width="256" height="256" preserveAspectRatio="xMidYMid meet"><g fill="#0CB6B8"><path d="M24 15a3.5 3.5 0 0 0-3.5 3.5v11a3.5 3.5 0 1 0 7 0v-11A3.5 3.5 0 0 0 24 15"/><path d="M27.5 1.44v5.14a1 1 0 0 0 .77 1 17 17 0 0 1 0 32.9 1 1 0 0 0-.77 1v5.14a1 1 0 0 0 1.17 1 24 24 0 0 0 0-47.08 1 1 0 0 0-1.17.9m-7 39.98a1 1 0 0 0-.77-1 17 17 0 0 1 0-32.9 1 1 0 0 0 .77-1V1.44a1 1 0 0 0-1.17-1 24 24 0 0 0 0 47.08 1 1 0 0 0 1.17-1z"/></g></svg>