<svg xmlns="http://www.w3.org/2000/svg" fill="none" color="#5D59FF" viewBox="0 0 48 48" width="256" height="256" preserveAspectRatio="xMidYMid meet"><g fill="#5D59FF"><path d="m46.39 19.57-4.82 1.76a1 1 0 0 0-.65 1.05A17 17 0 0 1 10 33.64a1 1 0 0 0-1.17-.39L4 35a1 1 0 0 0-.52 1.44 24 24 0 0 0 44.24-16.1 1 1 0 0 0-1.33-.77m-39.96 7.1a1 1 0 0 0 .65-1.05A17 17 0 0 1 38 14.36a1 1 0 0 0 1.17.39L44 13a1 1 0 0 0 .52-1.44A24 24 0 0 0 .28 27.66a1 1 0 0 0 1.33.77z"/><path d="M30 18H18l-3 4 9 8 9-8z"/></g></svg>