<svg xmlns="http://www.w3.org/2000/svg" class="chakra-icon cursor-pointer css-9d8ncs" viewBox="0 0 24 24" width="256" height="256" preserveAspectRatio="xMidYMid meet"><path d="M21.36 16.184H.004v2.343H21.36zM3.616 21.879l-.692 1.838H0l2.05-5.19.573.368a2.49 2.49 0 0 1 .989 2.98zM21.36 23.717h-3.039l-.68-1.773a2.49 2.49 0 0 1 1.048-3.035l.632-.378 2.038 5.19v-.004z" style="fill:#ace65c" transform="translate(1.32 .14)"/><path d="M19.321 18.528H16.36l-.887-2.343-4.843-12.83h-.048L5.756 16.184l-.879 2.343H2.052l.922-2.343L8.15 3.074h2.372L9.365 0h2.69l6.347 16.184.92 2.343z" style="fill:#ace65c" transform="translate(1.32 .14)"/></svg>