<svg xmlns="http://www.w3.org/2000/svg" fill="none" style="height:75px;padding:8px" viewBox="0 0 56 56" width="256" height="256" preserveAspectRatio="xMidYMid meet"><g fill="#FF0051" clip-path="url(#clip0_1503_16970)" transform="translate(14.829 -.001)"><path d="m1.245 13.216 8-4.937c.704-.399.704-1.22.198-1.726L2.76.099a.34.34 0 0 0-.476 0l-.63.636a2.073 2.073 0 0 0 .01 2.934l2.609 2.408a.968.968 0 0 1-.173 1.51L.982 9.492a2.075 2.075 0 0 0-.67 2.856l.472.76a.336.336 0 0 0 .464.108zM8.964 39.7A8.88 8.88 0 0 0 6.88 31.72L1.83 25.99C-.982 22.804-.287 17.858 3.295 15.57l8.263-5.284a1.39 1.39 0 0 1 1.695.152c3.023 2.788 13.543 12.836 13.074 23.214 0 0 .012 16.115-15.856 22.145-2.331.886-4.693-1.244-4.082-3.665 2.192-8.686 2.575-12.431 2.575-12.431m2.069-24.813-5.802 3.678a2.71 2.71 0 0 0-.599 4.06l5.28 6.105a13.71 13.71 0 0 1 3.214 12.31l-.886 3.885c-.383 1.686 1.606 2.866 2.915 1.735C20.72 41.86 28.52 30.314 12.25 15.005a1 1 0 0 0-1.22-.115z"/></g><defs><clipPath id="clip0_1503_16970"><path fill="#fff" d="M0 0h102.536v56H0z"/></clipPath></defs></svg>