<svg xmlns="http://www.w3.org/2000/svg" viewBox="0 0 24 24" width="256" height="256" preserveAspectRatio="xMidYMid meet"><path fill="currentColor" d="m6.553 10.894-.017.016a1.533 1.533 0 0 0-.005 2.167l.017.016c.596.6 1.567.603 2.167.005l.017-.016c.6-.597.602-1.568.005-2.168l-.017-.016a1.53 1.53 0 0 0-2.167-.005"/><path fill="currentColor" d="M7.707 4.366 6.066 6l.011.012-4.381 4.358v-.006L.073 11.978l.006.006-.006.007 1.605 1.611 5.977 6.035s1.413-1.863.024-3.259l-4.374-4.396 4.377-4.363 2.212 2.223c1.884 1.895 3.227-.042 3.227-.042zm16.2 7.649.02-.02-7.557-7.589s-1.387 1.813-.073 3.133l4.461 4.482-4.366 4.35-2.044-2.05c-1.464-1.47-3.404-.139-3.404-.139l5.386 5.406 7.588-7.56z"/><path fill="currentColor" d="m15.29 10.894-.017.016a1.533 1.533 0 0 0-.004 2.167l.016.016c.597.6 1.568.602 2.168.005l.016-.016c.6-.597.602-1.568.004-2.168l-.015-.016a1.53 1.53 0 0 0-2.168-.005"/></svg>