<svg xmlns="http://www.w3.org/2000/svg" fill="none" viewBox="0 0 84 84" width="256" height="256" preserveAspectRatio="xMidYMid meet"><rect width="83" height="83" x=".5" y=".5" fill="#FF5C01" rx="41.5"/><path fill="#fff" fill-rule="evenodd" d="M73.127 38.36H56.18c-8.512 0-12.756 10.308-6.71 16.3l7.438 7.375 5.204-5.25-7.439-7.374c-1.357-1.346-.404-3.66 1.507-3.66h16.947zM45.702 73.124V56.089c0-8.492-10.267-12.745-16.272-6.74l-7.448 7.447 5.227 5.227 7.448-7.448c1.348-1.348 3.653-.393 3.653 1.514v17.035z" clip-rule="evenodd"/><path fill="#fff" fill-rule="evenodd" d="M73.127 38.36H56.18c-8.512 0-12.756 10.308-6.71 16.3l7.438 7.375 5.204-5.25-7.439-7.374c-1.357-1.346-.404-3.66 1.507-3.66h16.947zM45.702 73.124V56.089c0-8.492-10.267-12.745-16.272-6.74l-7.448 7.447 5.227 5.227 7.448-7.448c1.348-1.348 3.653-.393 3.653 1.514v17.035z" clip-rule="evenodd"/><path stroke="#fff" stroke-width="7.392" d="M42.006 10.877v17.035c0 5.199 6.286 7.803 9.962 4.126l7.545-7.545M10.88 42h17.036c5.2 0 7.803-6.286 4.126-9.962l-7.545-7.545"/></svg>