<svg xmlns="http://www.w3.org/2000/svg" fill="none" viewBox="0 0 335 335" width="256" height="256" preserveAspectRatio="xMidYMid meet"><circle cx="167.5" cy="167.5" r="167.5" fill="url(#paint0_linear_1_16)"/><g filter="url(#filter0_d_1_16)"><path fill="#fff" d="m211.273 57.705-101.312 44.508c-8.255 3.626-12.007 13.257-8.379 21.51 3.627 8.254 13.26 12.005 21.516 8.378l101.311-44.508c8.255-3.626 12.007-13.257 8.379-21.51-3.627-8.254-13.26-12.005-21.515-8.378"/></g><g filter="url(#filter1_d_1_16)"><path fill="#fff" d="m201.067 130.943-41.608 18.278c-8.255 3.627-12.007 13.258-8.379 21.511 3.627 8.254 13.26 12.004 21.516 8.378l41.607-18.279c8.255-3.627 12.007-13.257 8.379-21.511-3.627-8.253-13.26-12.004-21.515-8.377"/></g><g filter="url(#filter2_d_1_16)"><path fill="#fff" d="M131.538 179.221c-3.627-8.253-13.26-12.004-21.515-8.378-8.256 3.627-12.007 13.258-8.38 21.511 3.628 8.254 13.261 12.004 21.516 8.378 8.255-3.627 12.007-13.258 8.379-21.511"/></g><g filter="url(#filter3_d_1_16)"><path fill="#fff" d="m211.394 200.552-101.312 44.507c-8.255 3.627-12.007 13.258-8.379 21.511 3.627 8.254 13.26 12.004 21.516 8.378L224.53 230.44c8.255-3.627 12.007-13.257 8.379-21.511-3.627-8.253-13.26-12.004-21.515-8.377"/></g><defs><filter id="filter0_d_1_16" width="141.973" height="85.162" x="96.198" y="56.322" color-interpolation-filters="sRGB" filterUnits="userSpaceOnUse"><feFlood flood-opacity="0" result="BackgroundImageFix"/><feColorMatrix in="SourceAlpha" result="hardAlpha" values="0 0 0 0 0 0 0 0 0 0 0 0 0 0 0 0 0 0 127 0"/><feOffset dy="4"/><feGaussianBlur stdDeviation="2"/><feComposite in2="hardAlpha" operator="out"/><feColorMatrix values="0 0 0 0 0 0 0 0 0 0 0 0 0 0 0 0 0 0 0.25 0"/><feBlend in2="BackgroundImageFix" result="effect1_dropShadow_1_16"/><feBlend in="SourceGraphic" in2="effect1_dropShadow_1_16" result="shape"/></filter><filter id="filter1_d_1_16" width="82.269" height="58.934" x="145.696" y="129.559" color-interpolation-filters="sRGB" filterUnits="userSpaceOnUse"><feFlood flood-opacity="0" result="BackgroundImageFix"/><feColorMatrix in="SourceAlpha" result="hardAlpha" values="0 0 0 0 0 0 0 0 0 0 0 0 0 0 0 0 0 0 127 0"/><feOffset dy="4"/><feGaussianBlur stdDeviation="2"/><feComposite in2="hardAlpha" operator="out"/><feColorMatrix values="0 0 0 0 0 0 0 0 0 0 0 0 0 0 0 0 0 0 0.25 0"/><feBlend in2="BackgroundImageFix" result="effect1_dropShadow_1_16"/><feBlend in="SourceGraphic" in2="effect1_dropShadow_1_16" result="shape"/></filter><filter id="filter2_d_1_16" width="40.662" height="40.655" x="96.26" y="169.46" color-interpolation-filters="sRGB" filterUnits="userSpaceOnUse"><feFlood flood-opacity="0" result="BackgroundImageFix"/><feColorMatrix in="SourceAlpha" result="hardAlpha" values="0 0 0 0 0 0 0 0 0 0 0 0 0 0 0 0 0 0 127 0"/><feOffset dy="4"/><feGaussianBlur stdDeviation="2"/><feComposite in2="hardAlpha" operator="out"/><feColorMatrix values="0 0 0 0 0 0 0 0 0 0 0 0 0 0 0 0 0 0 0.25 0"/><feBlend in2="BackgroundImageFix" result="effect1_dropShadow_1_16"/><feBlend in="SourceGraphic" in2="effect1_dropShadow_1_16" result="shape"/></filter><filter id="filter3_d_1_16" width="141.973" height="85.162" x="96.319" y="199.168" color-interpolation-filters="sRGB" filterUnits="userSpaceOnUse"><feFlood flood-opacity="0" result="BackgroundImageFix"/><feColorMatrix in="SourceAlpha" result="hardAlpha" values="0 0 0 0 0 0 0 0 0 0 0 0 0 0 0 0 0 0 127 0"/><feOffset dy="4"/><feGaussianBlur stdDeviation="2"/><feComposite in2="hardAlpha" operator="out"/><feColorMatrix values="0 0 0 0 0 0 0 0 0 0 0 0 0 0 0 0 0 0 0.25 0"/><feBlend in2="BackgroundImageFix" result="effect1_dropShadow_1_16"/><feBlend in="SourceGraphic" in2="effect1_dropShadow_1_16" result="shape"/></filter><linearGradient id="paint0_linear_1_16" x1="33" x2="302" y1="256" y2="84.5" gradientUnits="userSpaceOnUse"><stop stop-color="#2E5AD0"/><stop offset="1" stop-color="#4076F4"/></linearGradient></defs></svg>