<svg xmlns="http://www.w3.org/2000/svg" fill="none" viewBox="0 0 800 800" width="256" height="256" preserveAspectRatio="xMidYMid meet"><path fill="#010B3A" fill-rule="evenodd" d="M800 400c0 220.914-179.086 400-400 400S0 620.914 0 400 179.086 0 400 0s400 179.086 400 400m-311.184-76.479 54.352 94.011h-.174l.836 1.428 25.453-14.694-95.69-165.734.007-.004c-13.718-23.781-64.868-112.43-64.972-112.5a10.45 10.45 0 0 0-3.482-3.656 10.16 10.16 0 0 0-5.014-1.323 9.7 9.7 0 0 0-5.014 1.358 9.55 9.55 0 0 0-3.482 3.482l-57.799 99.826 39.937 23.085a46.725 46.725 0 0 1 22.876 46.379 47.6 47.6 0 0 1-5.849 17.165 56.4 56.4 0 0 1-4.666 6.72 45.3 45.3 0 0 1-5.606 5.641 47.4 47.4 0 0 1-6.546 4.631 48.5 48.5 0 0 1-7.312 3.482l-77.298 28.586 54.353-94.011v-.104l.8-1.428-25.452-14.694-95.752 165.843 153.586-56.755a77.4 77.4 0 0 0 22.667-13.161 81.5 81.5 0 0 0 9.297-9.367 78.4 78.4 0 0 0 7.486-10.689 75.94 75.94 0 0 0 7.539-57.612 75.94 75.94 0 0 0-35.394-46.079l-14.694-8.461 26.184-45.265 48.189 83.566 25.321-14.603-27.375 161.365a75.2 75.2 0 0 0 0 26.184 74 74 0 0 0 3.482 12.709 70.3 70.3 0 0 0 5.501 11.838 75.8 75.8 0 0 0 46.005 35.383 75.8 75.8 0 0 0 57.547-7.528l14.693-8.496 26.184 45.265h-96.413v29.213l-125.94-104.666a76.6 76.6 0 0 0-10.794-7.521 75.4 75.4 0 0 0-37.674-10.027 75.799 75.799 0 0 0-75.836 75.591v17.41h-52.229l48.225-83.566-25.418-14.658-10.843 18.765c-20.006 34.622-54.094 93.615-54.094 93.7a10.07 10.07 0 0 0-1.324 4.979 10.2 10.2 0 0 0 1.324 5.014 9.96 9.96 0 0 0 8.6 4.909H282.27v-46.239a46.414 46.414 0 0 1 46.379-46.518c2.73.007 5.456.24 8.148.696a42.5 42.5 0 0 1 7.695 2.02 46.2 46.2 0 0 1 13.927 7.938l63.475 52.751H311.622v29.422h191.505v.139h129.839c1.744.011 3.46-.433 4.98-1.288a10.17 10.17 0 0 0 5.014-8.67 10 10 0 0 0-1.358-4.979l-57.591-99.791-39.972 23.05a46.52 46.52 0 0 1-63.51-17.026 42 42 0 0 1-3.482-7.382 46 46 0 0 1-2.124-7.695 44 44 0 0 1-.696-7.974 44.6 44.6 0 0 1 .661-8.043zm-15.313-84.937.028-.16.062.108z" clip-rule="evenodd"/></svg>